<svg id="Layer_1" height="512" viewBox="0 0 512 512" width="512" xmlns="http://www.w3.org/2000/svg" data-name="Layer 1"><path d="m476.42 400.41h-123.76v29.12h124.1v-29.12z" fill="#aba9b0"/><path d="m476.76 296.31v104.1h-124.1v-104.1z" fill="#dad9db"/><path d="m352.66 267.18h124.1v29.13h-124.1z" fill="#aba9b0"/><path d="m352.66 177.01h124.1v90.17h-124.1z" fill="#dad9db"/><path d="m403.18 79.94h73.58v67.95h-73.58z" fill="#c3c2c6"/><path d="m329.59 79.94h73.59v67.95h-73.59z" fill="#dad9db"/><path d="m159.34 177.01v137.43c0-53.88 43.28-97.55 96.66-97.55a95.932 95.932 0 0 1 68.35 28.57 97.7 97.7 0 0 1 28.31 68.98v-137.43z" fill="#9d9ca0"/><path d="m256 79.94v67.95h.02 73.57v-67.95z" fill="#c3c2c6"/><path d="m182.41 79.94h73.59v67.95h-73.59z" fill="#dad9db"/><path d="m108.82 79.94h73.59v67.95h-73.59z" fill="#c3c2c6"/><path d="m35.24 400.41v29.12l124.1.82v-29.94z" fill="#aba9b0"/><path d="m159.34 314.44v85.97h-124.1v-104.1h124.1z" fill="#dad9db"/><path d="m35.24 267.18h124.1v29.13h-124.1z" fill="#aba9b0"/><path d="m35.24 177.01h124.1v90.17h-124.1z" fill="#dad9db"/><path d="m37.16 79.94a13.279 13.279 0 0 1 -1.9-.13l-.02.13v67.95h73.58v-67.95z" fill="#dad9db"/><rect fill="#b0b5ca" height="34.3" rx="1.92" width="38.93" x="420.79" y="96.81"/><rect fill="#b0b5ca" height="53.81" rx="7.67" width="87.87" x="369.83" y="195.63"/><path d="m446.92 320.38v59.4a1.931 1.931 0 0 1 -1.92 1.94h-62.47a1.931 1.931 0 0 1 -1.92-1.94v-59.4a1.931 1.931 0 0 1 1.92-1.94h62.47a1.931 1.931 0 0 1 1.92 1.94z" fill="#b0b5ca"/><rect fill="#b0b5ca" height="34.3" rx="1.92" width="38.92" x="345.77" y="96.81"/><rect fill="#b0b5ca" height="34.3" rx="1.92" width="38.92" x="273.63" y="96.81"/><rect fill="#b0b5ca" height="34.3" rx="1.92" width="38.93" x="198.6" y="96.81"/><rect fill="#b0b5ca" height="34.3" rx="1.92" width="38.93" x="126.46" y="96.81"/><path d="m448.63 429.53h28.13v54.75h-28.13z" fill="#c3c2c6"/><path d="m414.97 429.53h33.66v54.75h-33.66z" fill="#dad9db"/><path d="m381.3 429.53h33.67v54.75h-33.67z" fill="#c3c2c6"/><path d="m352.66 429.53h28.64v54.75h-28.64z" fill="#dad9db"/><path d="m159.34 430.35v53.93h-28.13v-54.12z" fill="#c3c2c6"/><path d="m131.21 430.16v54.12h-33.66v-54.34z" fill="#dad9db"/><path d="m97.55 429.94v54.34h-33.67v-54.56z" fill="#c3c2c6"/><path d="m63.88 429.72v54.56h-28.64v-54.75z" fill="#dad9db"/><path d="m494.08 147.89h-32.22v29.12h19.71a14.5 14.5 0 0 0 14.43-14.56v-12.62a1.931 1.931 0 0 0 -1.92-1.94z" fill="#999daa"/><path d="m443.93 27.72h31.47v23.09h-31.47z" fill="#999daa"/><path d="m427.55 147.89h34.31v29.12h-34.31z" fill="#b0b5ca"/><path d="m412.47 27.72h31.46v23.09h-31.46z" fill="#b0b5ca"/><path d="m393.24 147.89h34.31v29.12h-34.31z" fill="#999daa"/><path d="m381 27.72h31.47v23.09h-31.47z" fill="#999daa"/><path d="m358.94 147.89h34.3v29.12h-34.3z" fill="#b0b5ca"/><path d="m349.53 27.72h31.47v23.09h-31.47z" fill="#b0b5ca"/><path d="m324.63 147.89h34.31v29.12h-34.31z" fill="#999daa"/><path d="m318.06 27.72h31.47v23.09h-31.47z" fill="#999daa"/><path d="m290.32 147.89h34.31v29.12h-34.31z" fill="#b0b5ca"/><path d="m286.6 27.72h31.46v23.09h-31.46z" fill="#b0b5ca"/><path d="m256.02 147.89h34.3v29.12h-34.3z" fill="#999daa"/><path d="m255.13 27.72h31.47v23.09h-31.47z" fill="#999daa"/><path d="m256.02 147.89v29.12h-34.31v-29.12h34.29z" fill="#b0b5ca"/><path d="m223.66 27.72h31.47v23.09h-31.47z" fill="#b0b5ca"/><path d="m192.2 27.72h31.46v23.09h-31.46z" fill="#999daa"/><path d="m187.4 147.89h34.31v29.12h-34.31z" fill="#999daa"/><path d="m160.73 27.72h31.47v23.09h-31.47z" fill="#b0b5ca"/><path d="m153.1 147.89h34.3v29.12h-34.3z" fill="#b0b5ca"/><path d="m129.26 27.72h31.47v23.09h-31.47z" fill="#999daa"/><path d="m118.79 147.89h34.31v29.12h-34.31z" fill="#999daa"/><path d="m97.79 27.72h31.47v23.09h-31.47z" fill="#b0b5ca"/><path d="m84.48 147.89h34.31v29.12h-34.31z" fill="#b0b5ca"/><path d="m66.33 27.72h31.46v23.09h-31.46z" fill="#999daa"/><path d="m50.18 147.89h34.3v29.12h-34.3z" fill="#999daa"/><path d="m34.86 27.72h31.47v23.09h-31.47z" fill="#b0b5ca"/><path d="m17.92 147.89a1.931 1.931 0 0 0 -1.92 1.94v12.62a14.5 14.5 0 0 0 14.43 14.56h19.75v-29.12z" fill="#b0b5ca"/><path d="m494.08 50.81h-469.42a1.936 1.936 0 0 0 -1.93 1.95v12.61a14.52 14.52 0 0 0 12.53 14.44l446.31.13a14.5 14.5 0 0 0 14.43-14.57v-12.61a1.933 1.933 0 0 0 -1.92-1.95z" fill="#aba9b0"/><path d="m35.24 400.41h28v29.12h-28z" fill="#949399"/><path d="m35.24 267.18h28v29.13h-28z" fill="#949399"/><path d="m35.24 296.31h28v104.1h-28z" fill="#c0bfc1"/><path d="m35.24 177.01h28v90.17h-28z" fill="#c0bfc1"/><path d="m50.73 65.37v-12.61a1.936 1.936 0 0 1 1.93-1.95h-28a1.936 1.936 0 0 0 -1.93 1.95v12.61a14.52 14.52 0 0 0 12.53 14.44h28a14.52 14.52 0 0 1 -12.53-14.44z" fill="#949399"/><path d="m37.16 79.94a13.279 13.279 0 0 1 -1.9-.13l-.02.13v67.95h28v-67.95z" fill="#c0bfc1"/><path d="m140.29 203.31v38.46a7.673 7.673 0 0 1 -7.68 7.67h-72.53a7.665 7.665 0 0 1 -7.67-7.67v-38.46a7.673 7.673 0 0 1 7.67-7.68h72.53a7.682 7.682 0 0 1 7.68 7.68z" fill="#b0b5ca"/><path d="m129.5 320.38v59.4a1.931 1.931 0 0 1 -1.92 1.94h-62.47a1.931 1.931 0 0 1 -1.92-1.94v-59.4a1.931 1.931 0 0 1 1.92-1.94h62.47a1.931 1.931 0 0 1 1.92 1.94z" fill="#b0b5ca"/><rect fill="#b0b5ca" height="34.3" rx="1.92" width="38.93" x="51.43" y="96.81"/><g fill="#284268"><path d="m60.084 254.443h72.525a12.691 12.691 0 0 0 12.677-12.676v-38.46a12.692 12.692 0 0 0 -12.677-12.677h-72.525a12.691 12.691 0 0 0 -12.676 12.677v38.46a12.69 12.69 0 0 0 12.676 12.676zm-2.676-51.136a2.679 2.679 0 0 1 2.676-2.677h72.525a2.68 2.68 0 0 1 2.677 2.677v38.46a2.679 2.679 0 0 1 -2.677 2.676h-72.525a2.678 2.678 0 0 1 -2.676-2.676z"/><path d="m377.5 254.443h72.525a12.69 12.69 0 0 0 12.677-12.676v-38.46a12.691 12.691 0 0 0 -12.677-12.677h-72.525a12.692 12.692 0 0 0 -12.677 12.677v38.46a12.691 12.691 0 0 0 12.677 12.676zm-2.677-51.136a2.68 2.68 0 0 1 2.677-2.677h72.525a2.68 2.68 0 0 1 2.677 2.677v38.46a2.679 2.679 0 0 1 -2.677 2.676h-72.525a2.679 2.679 0 0 1 -2.677-2.676z"/><path d="m382.531 386.719h62.469a6.94 6.94 0 0 0 6.923-6.942v-59.4a6.94 6.94 0 0 0 -6.923-6.939h-62.469a6.941 6.941 0 0 0 -6.924 6.941v59.4a6.941 6.941 0 0 0 6.924 6.94zm3.076-63.281h56.316v53.281h-56.316z"/><path d="m65.113 386.719h62.468a6.94 6.94 0 0 0 6.923-6.942v-59.4a6.94 6.94 0 0 0 -6.923-6.941h-62.468a6.94 6.94 0 0 0 -6.924 6.941v59.4a6.941 6.941 0 0 0 6.924 6.942zm3.076-63.281h56.311v53.281h-56.311z"/><path d="m163.467 91.808h-35.088a6.927 6.927 0 0 0 -6.919 6.919v30.467a6.927 6.927 0 0 0 6.919 6.919h35.088a6.927 6.927 0 0 0 6.919-6.919v-30.467a6.927 6.927 0 0 0 -6.919-6.919zm-3.081 34.3h-28.926v-24.3h28.926z"/><path d="m53.353 136.113h35.087a6.927 6.927 0 0 0 6.92-6.919v-30.467a6.927 6.927 0 0 0 -6.92-6.919h-35.087a6.927 6.927 0 0 0 -6.919 6.919v30.467a6.927 6.927 0 0 0 6.919 6.919zm3.081-34.3h28.926v24.3h-28.926z"/><path d="m310.634 91.808h-35.088a6.926 6.926 0 0 0 -6.919 6.919v30.467a6.926 6.926 0 0 0 6.919 6.919h35.088a6.927 6.927 0 0 0 6.919-6.919v-30.467a6.927 6.927 0 0 0 -6.919-6.919zm-3.081 34.3h-28.926v-24.3h28.926z"/><path d="m200.52 136.113h35.087a6.927 6.927 0 0 0 6.919-6.919v-30.467a6.927 6.927 0 0 0 -6.919-6.919h-35.087a6.927 6.927 0 0 0 -6.919 6.919v30.467a6.927 6.927 0 0 0 6.919 6.919zm3.081-34.3h28.925v24.3h-28.926z"/><path d="m457.8 91.808h-35.087a6.926 6.926 0 0 0 -6.919 6.919v30.467a6.926 6.926 0 0 0 6.919 6.919h35.087a6.927 6.927 0 0 0 6.919-6.919v-30.467a6.927 6.927 0 0 0 -6.919-6.919zm-3.081 34.3h-28.925v-24.3h28.926z"/><path d="m382.774 91.808h-35.087a6.926 6.926 0 0 0 -6.919 6.919v30.467a6.926 6.926 0 0 0 6.919 6.919h35.087a6.926 6.926 0 0 0 6.919-6.919v-30.467a6.926 6.926 0 0 0 -6.919-6.919zm-3.081 34.3h-28.925v-24.3h28.925z"/><path d="m494.076 45.814h-13.676v-18.094a5 5 0 0 0 -5-5h-440.539a5 5 0 0 0 -5 5v18.094h-5.2a6.94 6.94 0 0 0 -6.924 6.941v12.62a19.573 19.573 0 0 0 12.5 18.255v59.257h-12.313a6.941 6.941 0 0 0 -6.924 6.942v12.619a19.514 19.514 0 0 0 19.237 19.552v302.28a5 5 0 0 0 5 5h124.107a5 5 0 0 0 5-5v-169.843c0-51.03 41.116-92.546 91.656-92.546s91.656 41.516 91.656 92.546v169.843a5 5 0 0 0 5 5h124.107a5 5 0 0 0 5-5v-302.28a19.513 19.513 0 0 0 19.237-19.552v-12.619a6.941 6.941 0 0 0 -6.924-6.942h-12.313v-57.961a19.512 19.512 0 0 0 19.237-19.551v-12.62a6.94 6.94 0 0 0 -6.924-6.941zm-45.143-13.094h21.467v13.094h-21.467zm-31.467 0h21.467v13.094h-21.467zm-31.466 0h21.468v13.094h-21.468zm-31.467 0h21.467v13.094h-21.469zm-31.467 0h21.467v13.094h-21.469zm-31.466 0h21.466v13.094h-21.466zm-31.467 0h21.467v13.094h-21.469zm-31.468 0h21.465v13.094h-21.467zm-31.467 0h21.467v13.094h-21.465zm-31.467 0h21.469v13.094h-21.471zm-31.467 0h21.467v13.094h-21.469zm-31.467 0h21.467v13.094h-21.464zm-31.467 0h21.47v13.094h-21.472zm-31.467 0h21.465v13.094h-21.467zm-9.435 139.289a9.506 9.506 0 0 1 -9.428-9.561v-9.561h24.175v19.122zm73.4-29.122h-63.591v-57.951h63.588zm9.964 10v19.122h-24.31v-19.122zm-34.307 0v19.122h-24.31v-19.122zm-20.602 326.393h-18.646v-44.719l18.646.123zm33.666 0h-23.666v-44.53l23.666.157zm33.665 0h-23.665v-44.307l23.665.157zm28.13 0h-18.13v-44.08l18.13.12zm0-53.965-114.107-.755v-19.154h114.107zm0-29.909h-114.107v-94.1h114.107zm0-104.1h-114.107v-19.122h114.107zm0-29.122h-114.107v-80.175h114.107zm-40.519-119.3v-57.948h63.588v57.951zm34.271 10v19.122h-24.307v-19.119zm10 19.122v-19.119h24.304v19.122zm189.56 98.1c-16.421-34.406-51.334-58.215-91.656-58.215s-75.235 23.8-91.656 58.213v-88.095h183.312zm-96.656-127.219h-63.587v-57.951h63.587zm.017 10v19.122h-24.308v-19.122zm-34.308 0v19.122h-24.309v-19.122zm44.291-10v-57.951h63.588v57.951zm58.63 10v19.122h-24.307v-19.122zm-34.307 0v19.122h-24.306v-19.122zm68.615 19.122h-24.308v-19.122h24.308zm-19.35-29.122v-57.951h63.587v57.951zm53.656 10v19.122h-24.306v-19.122zm-11.944 326.393h-18.644v-44.753h18.644zm33.666 0h-23.666v-44.753h23.666zm33.665 0h-23.663v-44.753h23.665zm28.13 0h-18.13v-44.753h18.13zm0-54.753h-114.105v-19.121h114.107zm0-29.121h-114.105v-94.1h114.107zm0-104.1h-114.105v-19.122h114.107zm0-29.122h-114.105v-80.175h114.107zm-63.588-119.3v-57.948h63.588v57.951zm48.682 10v19.122h-24.304v-19.119zm-34.306 0v19.122h-24.305v-19.119zm68.449 0v9.561a9.506 9.506 0 0 1 -9.428 9.561h-14.713v-19.119zm0-87.512a9.506 9.506 0 0 1 -9.428 9.561h-444.409a9.506 9.506 0 0 1 -9.428-9.561v-9.558h463.267z"/></g></svg>