<svg id="Layer_1" height="512" viewBox="0 0 512 512" width="512" xmlns="http://www.w3.org/2000/svg" data-name="Layer 1"><path d="m417.83 37.9 2.33 348.22a767.158 767.158 0 0 1 -51.62-63.58v-274.01l46.89-12.46a1.9 1.9 0 0 1 2.4 1.83z" fill="#b0b5ca"/><path d="m368.54 48.53v274.01c-26.46-36.73-49.4-77.25-57.37-115.04h-.08v-156.69a6.865 6.865 0 0 0 -2.03-4.9 6.4 6.4 0 0 0 -2.98-1.66z" fill="#ccd3df"/><path d="m311.09 255.18v-175.02l-36.49 14.62c-10.31 3.44-20.24 3.95-30.37.01l-38.46-14.5v183.21c0 7.65-.25 19.29-.76 26.91l107.87.29h.01a351 351 0 0 1 -1.8-35.52z" fill="#b0b5ca"/><path d="m311.09 50.81v29.35l-36.49 14.62c-10.31 3.44-20.24 3.95-30.37.01l-38.46-14.5v-29.98a6.379 6.379 0 0 1 1.1-3.6 5.958 5.958 0 0 1 2.96-2.26 6.732 6.732 0 0 1 3.93-.17l33.29 8.09a43.63 43.63 0 0 0 20.23.09l35.4-8.25a7.366 7.366 0 0 1 3.4.04 6.4 6.4 0 0 1 2.98 1.66 6.865 6.865 0 0 1 2.03 4.9z" fill="#96e1fc"/><path d="m209.83 44.44v.01a5.958 5.958 0 0 0 -2.96 2.26 6.379 6.379 0 0 0 -1.1 3.6v157.19c-6.82 32.57-24.67 67.17-46.28 99.62v-258.59z" fill="#ccd3df"/><path d="m159.49 48.53v258.6a676.6 676.6 0 0 1 -44.53 58.94l1.9-328.07a1.914 1.914 0 0 1 2.47-1.82z" fill="#b0b5ca"/><path d="m16 446h480v30h-480z" fill="#827364"/><path d="m479.1 446h-63.09s-85.23-115.36-104.92-197.95v-40.55h.08c7.97 37.79 30.91 78.31 57.37 115.04a767.158 767.158 0 0 0 51.62 63.58c32.28 35.91 58.94 59.88 58.94 59.88z" fill="#d3d3d3"/><path d="m416.01 446h-70.34l-25.66-111.95a351.382 351.382 0 0 1 -6.63-38.76c-.18-1.53-.35-3.06-.49-4.59a351 351 0 0 1 -1.8-35.52v-7.13c19.69 82.59 104.92 197.95 104.92 197.95z" fill="#e5e5e5"/><path d="m320.01 334.05 25.66 111.95h-167.66l22.04-119.78q2.535-13.83 3.96-27.82s7.97-5.89 21.43-10.74a104.834 104.834 0 0 1 30.56-6.15c2.61-.13 5.31-.16 8.07-.07a103.628 103.628 0 0 1 34.47 7.17 120.136 120.136 0 0 1 14.34 6.74l.5-.06a351.382 351.382 0 0 0 6.63 38.76z" fill="#d3d3d3"/><path d="m312.89 290.7c.14 1.53.31 3.06.49 4.59l-.5.06a120.136 120.136 0 0 0 -14.34-6.74 186.415 186.415 0 0 0 -19.27-29.71 43.3 43.3 0 0 1 18.83-10.85h.01a132.875 132.875 0 0 1 14.77 42.65z" fill="#65cef8"/><path d="m278.95 221.72a131.524 131.524 0 0 1 19.15 26.33 43.3 43.3 0 0 0 -18.83 10.85 174.422 174.422 0 0 0 -20.99-22.2c6.2-6.28 13.14-11.66 20.67-14.98z" fill="#96e1fc"/><path d="m279.27 258.9a186.415 186.415 0 0 1 19.27 29.71 103.628 103.628 0 0 0 -34.47-7.17 67.717 67.717 0 0 1 15.2-22.54z" fill="#96e1fc"/><path d="m279.27 258.9a67.717 67.717 0 0 0 -15.2 22.54c-2.76-.09-5.46-.06-8.07.07a69.434 69.434 0 0 0 -16.13-21.11 142.16 142.16 0 0 1 18.41-23.7 174.422 174.422 0 0 1 20.99 22.2z" fill="#65cef8"/><path d="m262.54 206.98a124.067 124.067 0 0 1 16.41 14.74c-7.53 3.32-14.47 8.7-20.67 14.98-11.43-10.13-19.88-14.76-20.28-14.98 4.21-4.64 8.94-9.38 14.26-14.19a8.108 8.108 0 0 1 10.28-.55z" fill="#65cef8"/><path d="m258.28 236.7a142.16 142.16 0 0 0 -18.41 23.7c-11.04-9.76-21.44-12.35-21.44-12.35a157.172 157.172 0 0 1 19.56-26.33h.01c.4.22 8.85 4.85 20.28 14.98z" fill="#96e1fc"/><path d="m239.87 260.4a69.434 69.434 0 0 1 16.13 21.11 104.834 104.834 0 0 0 -30.56 6.15 198.151 198.151 0 0 1 14.43-27.26z" fill="#96e1fc"/><path d="m218.43 248.05s10.4 2.59 21.44 12.35a198.151 198.151 0 0 0 -14.43 27.26c-13.46 4.85-21.43 10.74-21.43 10.74.38-3.75.7-7.52.95-11.28.01-.23.03-.47.05-.71.6-7.95 3.64-21.62 13.42-38.36z" fill="#65cef8"/><path d="m205.77 247.26v16.24q0 11.475-.76 22.91c-.02.24-.04.48-.05.71-.25 3.76-.57 7.53-.95 11.28q-1.425 14-3.96 27.82l-22.04 119.78h-77.11s85.18-116.15 104.87-198.74z" fill="#e5e5e5"/><path d="m114.96 366.07a676.6 676.6 0 0 0 44.53-58.94v-.01c21.61-32.45 39.46-67.05 46.28-99.62v39.76c-19.69 82.59-104.87 198.74-104.87 198.74h-61.78a898.442 898.442 0 0 0 75.84-79.93z" fill="#d3d3d3"/><path d="m119.33 36.18a1.914 1.914 0 0 0 -2.47 1.82l-1.9 328.07c8.051-9.6 16.2-19.775 24.176-30.342l1.7-292.936z" fill="#999dad"/><path d="m16 446h24v30h-24z" fill="#685c51"/><path d="m138.96 366.07a676.6 676.6 0 0 0 44.53-58.94v-.01c.469-.7.933-1.41 1.4-2.116 9.057-19.81 16.552-39.588 20.881-57.744v-39.76c-6.82 32.57-24.67 67.17-46.28 99.62v.01a676.6 676.6 0 0 1 -44.53 58.94 898.442 898.442 0 0 1 -75.841 79.93h24a898.442 898.442 0 0 0 75.84-79.93z" fill="#bfbfbf"/><g fill="#284268"><path d="m225.965 57.917a5 5 0 0 0 -5 5v7.836a5 5 0 1 0 10 0v-7.836a5 5 0 0 0 -5-5z"/><path d="m251.742 77.321v-7.837a5 5 0 0 0 -10 0v7.837a5 5 0 0 0 10 0z"/><path d="m290.482 76.848a5 5 0 0 0 5-5v-7.836a5 5 0 0 0 -10 0v7.836a5 5 0 0 0 5 5z"/><path d="m268.612 83.415a5 5 0 0 0 5-5v-7.836a5 5 0 0 0 -10 0v7.836a5 5 0 0 0 5 5z"/><path d="m137.222 57.917a5 5 0 0 0 -5 5v29.083a5 5 0 0 0 10 0v-29.083a5 5 0 0 0 -5-5z"/><path d="m180.962 57.917a5 5 0 0 0 -5 5v29.083a5 5 0 1 0 10 0v-29.083a5 5 0 0 0 -5-5z"/><path d="m336.24 97a5 5 0 0 0 5-5v-29.083a5 5 0 0 0 -10 0v29.083a5 5 0 0 0 5 5z"/><path d="m390.916 57.917a5 5 0 0 0 -5 5v29.083a5 5 0 1 0 10 0v-29.083a5 5 0 0 0 -5-5z"/><path d="m496 441h-14.958c-5.759-5.3-28.72-26.8-55.895-56.944l-2.319-346.193a6.909 6.909 0 0 0 -8.683-6.63l-46.092 12.254-61.367-4.212a12.559 12.559 0 0 0 -5.147.067l-35.39 8.252a38.855 38.855 0 0 1 -17.915-.084l-33.234-8.074a11.739 11.739 0 0 0 -6.118.07l-48.84 3.963-39.242-12.069a6.91 6.91 0 0 0 -8.937 6.566l-1.889 326.112a921.514 921.514 0 0 1 -72.803 76.922h-21.171a5 5 0 0 0 -5 5v30a5 5 0 0 0 5 5h480a5 5 0 0 0 5-5v-30a5 5 0 0 0 -5-5zm-122.463-388.623 39.317-10.454 2.217 330.763c-13.721-15.745-28.073-33.34-41.534-51.91zm26.331 318.123a949.573 949.573 0 0 0 66.558 70.5h-47.869c-11.3-15.647-84.414-118.841-102.467-193.561v-6.786c15.05 38.394 43.104 81.907 83.778 129.847zm6.4 70.5h-56.609l-24.771-108.063a348.275 348.275 0 0 1 -7.6-48.989c10.832 28.006 27.349 60.353 49.372 96.642 16.324 26.898 31.64 49.141 39.605 60.41zm-42.731-387.8v253.34c-22.162-32.617-40.558-67.424-47.447-99.944v-155.788c0-.292-.022-.579-.042-.867zm-56.463 233.62q-2.505-1.152-4.974-2.154a193.692 193.692 0 0 0 -15.975-25.094 37.738 37.738 0 0 1 9.537-5.483 127.713 127.713 0 0 1 11.412 32.732zm-48.966-56.927a140.247 140.247 0 0 0 -12.276-9.217c3.006-3.1 6.248-6.247 9.777-9.44a3.135 3.135 0 0 1 3.956-.241 114.32 114.32 0 0 1 11.088 9.424 76.4 76.4 0 0 0 -12.545 9.475zm19.673-2.033a127.4 127.4 0 0 1 12.944 17.451 48.155 48.155 0 0 0 -10.824 6.415 179.294 179.294 0 0 0 -14.273-15.145 62.783 62.783 0 0 1 12.153-8.72zm-26.753 9.227a146.936 146.936 0 0 0 -12.294 15.923 66.2 66.2 0 0 0 -12.867-7.555 153.888 153.888 0 0 1 13.088-17.3 128.4 128.4 0 0 1 12.073 8.933zm-10.14 31.285a63.779 63.779 0 0 1 6.881 8.842 108.074 108.074 0 0 0 -13.02 2.393c1.651-3.25 3.709-7.098 6.139-11.234zm5.477-8.771a139.453 139.453 0 0 1 12.169-15.886 171.214 171.214 0 0 1 14.027 14.885 74.273 74.273 0 0 0 -11.774 17.829c-.606 0-1.209 0-1.808.014a74.787 74.787 0 0 0 -12.614-16.843zm32.494 7c3.044 4.1 6.068 8.533 9.007 13.325a108.366 108.366 0 0 0 -16.136-2.926 64.327 64.327 0 0 1 7.129-10.4zm-68.09-216.3a1.4 1.4 0 0 1 .241-.8 1.476 1.476 0 0 1 1.565-.372l33.3 8.089a48.927 48.927 0 0 0 22.548.1l35.34-8.241a1.979 1.979 0 0 1 1.764.35 1.923 1.923 0 0 1 .565 1.366v25.988l-33.209 13.3c-9.924 3.291-18.455 3.306-26.884.03l-35.23-13.277zm0 37.213 31.653 11.931a44.767 44.767 0 0 0 16.385 3.1 54.657 54.657 0 0 0 17.38-3.028c.091-.031.183-.064.274-.1l29.629-11.863v165.078a135.882 135.882 0 0 0 -40.573-49.673 13.167 13.167 0 0 0 -16.617.862c-19.334 17.491-31.036 34.047-38.131 47.864zm-.819 199.9c.3-4.911 1.992-17.045 10.757-33.278a54.186 54.186 0 0 1 8.966 4.749c1.255.819 2.468 1.689 3.652 2.594a208.37 208.37 0 0 0 -11.634 22.23 109.342 109.342 0 0 0 -11.875 5.357c.043-.547.096-1.097.134-1.648zm-1.237 13.844c8.85-5.641 50.436-28.8 100.058-2.443a358.212 358.212 0 0 0 6.369 36.352l24.26 105.833h-155.39l20.953-113.874q2.361-12.826 3.75-25.864zm-34.87 139.742h-63.243c7.951-11.319 23.278-33.731 39.626-60.818 22.5-37.276 39.243-70.367 50.053-98.849a342.526 342.526 0 0 1 -5.153 43.984zm-9.358-387.859 36.287-2.941v.112 156.635c-5.73 26.951-19.28 55.466-36.284 83zm-.121 237q-4.758 7.7-9.844 15.271 5.074-7.565 9.844-15.269zm-42.53-247.955 32.651 10.038v253.241c-10.854 16.182-22.646 31.835-34.446 46.419zm-4.044 328.3c40.224-47.772 68.009-91.15 82.979-129.446v5.609c-18.049 74.702-91.131 178.594-102.429 194.351h-46.611a946.343 946.343 0 0 0 66.061-70.518zm373.21 100.514h-470v-20h470z"/></g></svg>