<svg id="Layer_1" height="512" viewBox="0 0 512 512" width="512" xmlns="http://www.w3.org/2000/svg" data-name="Layer 1"><path d="m254.27 43.66a84.4 84.4 0 0 0 -84.44 84.37 135.706 135.706 0 0 0 1.14 15.91l36.48 38.26 90.63 1.15 41.24-40a128.537 128.537 0 0 0 1.04-15.32c0-46.6-39.45-84.37-86.09-84.37z" fill="#d9bb4b"/><path d="m195.83 128.03a84.4 84.4 0 0 1 71.47-83.378 86.044 86.044 0 0 0 -13.025-.992 84.4 84.4 0 0 0 -84.44 84.37 135.706 135.706 0 0 0 1.14 15.91l36.48 38.26h26l-36.48-38.26a135.706 135.706 0 0 1 -1.145-15.91z" fill="#bfa347"/><path d="m165.66 473.81h178.99v22.19h-178.99z" fill="#686868"/><path d="m298.08 183.35-5.08 59.93h25.25l50.01-131.4z" fill="#c3c2c6"/><path d="m255.72 165.67-58.01-69.95 16.61 147.56h78.68l12.41-146.43z" fill="#aba9b0"/><path d="m207.45 182.2-63.71-70.32 49.56 131.4h21.02z" fill="#c3c2c6"/><path d="m181.97 451.09h146.37v22.72h-146.37z" fill="#888986"/><path d="m318.25 243.28-10.3 207.81h-32.55l17.6-207.81z" fill="#b0b5ca"/><path d="m293 243.28-17.6 207.81h-37.68l-23.4-207.81z" fill="#999daa"/><path d="m214.32 243.28 23.4 207.81h-35.36l-9.06-207.81z" fill="#b0b5ca"/><path d="m165.66 473.81h26v22.19h-26z" fill="#565656"/><path d="m143.74 111.88 49.56 131.4h21.02l-.417-3.702-32.472-86.097z" fill="#acacad"/><path d="m181.97 451.09h26v22.72h-26z" fill="#757575"/><path d="m214.32 243.28h-21.02l9.06 207.81h22l-8.441-193.608z" fill="#9ca1af"/><path d="m370.958 107.672a5 5 0 0 0 -6.266.706l-19.328 19.682v-.027a87.743 87.743 0 0 0 -27.064-63.248 91.408 91.408 0 0 0 -59.809-26.028v-22.757a5 5 0 0 0 -10 0v22.847a89.516 89.516 0 0 0 -83.653 88.871l-17.389-19.194a5 5 0 0 0 -8.383 5.122l49.282 130.646 8.8 201.8h-15.173a5 5 0 0 0 -5 5v17.728h-11.312a5 5 0 0 0 -5 5v22.18a5 5 0 0 0 5 5h178.99a5 5 0 0 0 5-5v-22.185a5 5 0 0 0 -5-5h-11.312v-17.728a5 5 0 0 0 -5-5h-15.135l10-201.773 49.727-130.654a5 5 0 0 0 -1.975-5.988zm-116.685-59.017a81.442 81.442 0 0 1 57.049 23.3 77.822 77.822 0 0 1 24.042 56.081 75.085 75.085 0 0 1 -.743 10.964l-30.385 30.94 6.158-72.668a5 5 0 0 0 -9.037-3.349l-45.914 63.587-53.885-64.985a5 5 0 0 0 -8.818 3.751l8 71.078-25.04-27.647a79.335 79.335 0 0 1 78.577-91.052zm-34.356 199.62h67.645l-16.762 197.812h-28.611zm12.209 197.812h-24.974l-8.626-197.812h11.328zm65.474-197.812h15.4l-9.8 197.812h-22.363zm-9.189-10h-69.619l-6.434-57.142.477-.432-.6-.662-7.683-68.239 47.316 57.062a5 5 0 0 0 7.9-.264l39.135-54.2zm-91.648 0-39.053-103.527 44.948 49.613 6.07 53.914zm142.891 240.54v12.185h-168.991v-12.185zm-16.312-22.728v12.728h-136.367v-12.728zm-8.542-217.812h-16.354l4.467-52.715 52.177-53.131z" fill="#284268"/></svg>