<svg id="Layer_1" height="512" viewBox="0 0 512 512" width="512" xmlns="http://www.w3.org/2000/svg" data-name="Layer 1"><path d="m346.42 288.76h83.7v16.81h-83.7z" fill="#656672"/><path d="m81.88 288.76h86.13v16.81h-86.13z" fill="#656672"/><path d="m168.01 243.57h178.41v18.75h-178.41z" fill="#656672"/><path d="m350.08 187.37-183.82-.12a15.715 15.715 0 1 0 0 31.43h181.91a15.712 15.712 0 0 0 1.91-31.31z" fill="#867e75"/><path d="m488.68 200.8a10.677 10.677 0 0 0 -2.34-1.77 10.442 10.442 0 0 0 -5.07-1.3h-60.34a10.475 10.475 0 1 0 0 20.95h60.34a10.472 10.472 0 0 0 7.41-17.88z" fill="#867e75"/><path d="m430.12 305.57v152.7h-83.7v-152.7z" fill="#a28f79"/><path d="m168.01 262.32h178.41v195.95h-178.41z" fill="#b8a58d"/><path d="m168.01 305.57v152.7h-86.13v-152.7z" fill="#a28f79"/><path d="m98.49 200.8a10.377 10.377 0 0 0 -7.42-3.07h-60.34a10.475 10.475 0 1 0 0 20.95h60.34a10.472 10.472 0 0 0 7.42-17.88z" fill="#867e75"/><path d="m102.7 266.81v21.95h-19.65-1.17v-21.95z" fill="#d9bb4b"/><path d="m168.01 266.81v21.95h-1.05-21.26v-21.95z" fill="#edb740"/><path d="m102.7 266.81h21.5v21.95h-21.5z" fill="#edb740"/><path d="m124.2 266.81h21.5v21.95h-21.5z" fill="#d9bb4b"/><path d="m168.01 218.68h22.7v24.89h-22.7z" fill="#d9bb4b"/><path d="m190.71 218.68h21.86v24.89h-21.86z" fill="#edb740"/><path d="m212.57 218.68h21.85v24.89h-21.85z" fill="#d9bb4b"/><path d="m234.42 218.68h21.85v24.89h-21.85z" fill="#edb740"/><path d="m256.27 218.68h21.85v24.89h-21.85z" fill="#d9bb4b"/><path d="m278.12 218.68h21.85v24.89h-21.85z" fill="#edb740"/><path d="m299.97 218.68h21.86v24.89h-21.86z" fill="#d9bb4b"/><path d="m321.83 218.68h24.59v24.89h-24.59z" fill="#edb740"/><path d="m408.7 266.81h21.42v21.95h-21.42z" fill="#edb740"/><path d="m387.2 266.81h21.5v21.95h-21.5z" fill="#d9bb4b"/><path d="m365.7 266.81h21.5v21.95h-21.5z" fill="#edb740"/><path d="m346.42 266.81h19.28v21.95h-19.28z" fill="#d9bb4b"/><path d="m308.99 372.93v85.34h-107.58v-85.34a53.79 53.79 0 0 1 107.58 0z" fill="#7a6756"/><path d="m409.12 354.63v25.93h-41.87v-25.93a20.935 20.935 0 0 1 41.87 0z" fill="#7a6756"/><path d="m145.94 354.63v25.93h-41.87v-25.93a20.935 20.935 0 0 1 41.87 0z" fill="#7a6756"/><path d="m352.13 107.87c25.74 37.01-2.04 79.38-2.04 79.38l-.01.12a15.069 15.069 0 0 0 -1.91-.12h-181.91s-27.78-42.37-2.04-79.38c17.91-25.75 91.45-36.99 93.96-79.37 2.5 42.38 76.04 53.62 93.95 79.37z" fill="#8c969b"/><path d="m486.78 167.62c9.78 14.05-.44 31.41-.44 31.41a10.442 10.442 0 0 0 -5.07-1.3h-60.34a10.452 10.452 0 0 0 -4.74 1.13s-10.56-17.19-.78-31.24c6.8-9.78 34.73-14.06 35.69-30.15.95 16.09 28.88 20.37 35.68 30.15z" fill="#8c969b"/><path d="m96.59 167.62c9.78 14.05-.94 31.15-.94 31.15a10.614 10.614 0 0 0 -4.58-1.04h-60.34a10.493 10.493 0 0 0 -4.16.86s-11.13-16.92-1.35-30.97c6.8-9.78 34.73-14.06 35.68-30.15.96 16.09 28.89 20.37 35.69 30.15z" fill="#8c969b"/><path d="m23.33 458.27h465.86v25.23h-465.86z" fill="#656672"/><path d="m430.12 218.68h41.95v239.59h-41.95z" fill="#b8a58d"/><path d="m39.93 218.68h41.95v239.59h-41.95z" fill="#b8a58d"/><path d="m168.01 243.57h30v18.75h-30z" fill="#4f5059"/><path d="m180.53 202.96a15.7 15.7 0 0 1 15.347-15.691l-29.617-.019a15.715 15.715 0 1 0 0 31.43h30a15.725 15.725 0 0 1 -15.73-15.72z" fill="#68625c"/><path d="m168.01 262.32h30v195.95h-30z" fill="#9b8a78"/><path d="m350.08 187.37v-.02l.008-.1h-1.92a15.163 15.163 0 0 1 1.7.1c.074.008.143.011.212.02z" fill="#8c969b"/><path d="m196.26 187.25s-27.78-42.37-2.04-79.38c13.089-18.818 55.883-29.889 78.957-51.026-8.5-7.786-14.324-16.935-15-28.344-2.51 42.38-76.05 53.62-93.96 79.37-25.74 37.01 2.04 79.38 2.04 79.38z" fill="#6e777a"/><path d="m23.33 458.27h30v25.23h-30z" fill="#4c4d56"/><g fill="#284268"><path d="m104.073 385.557h41.863a5 5 0 0 0 5-5v-25.929a25.932 25.932 0 0 0 -51.863 0v25.929a5 5 0 0 0 5 5zm5-30.929a15.932 15.932 0 0 1 31.863 0v20.929h-31.863z"/><path d="m367.254 385.557h41.862a5 5 0 0 0 5-5v-25.929a25.931 25.931 0 0 0 -51.862 0v25.929a5 5 0 0 0 5 5zm5-30.929a15.931 15.931 0 0 1 31.862 0v20.929h-31.862z"/><path d="m451.791 245.54a5 5 0 0 0 -5 5v11.782a5 5 0 0 0 10 0v-11.782a5 5 0 0 0 -5-5z"/><path d="m451.791 301.421a5 5 0 0 0 -5 5v11.779a5 5 0 0 0 10 0v-11.779a5 5 0 0 0 -5-5z"/><path d="m451.791 357.3a5 5 0 0 0 -5 5v11.781a5 5 0 0 0 10 0v-11.781a5 5 0 0 0 -5-5z"/><path d="m451.791 413.182a5 5 0 0 0 -5 5v11.782a5 5 0 0 0 10 0v-11.782a5 5 0 0 0 -5-5z"/><path d="m481.266 223.681a15.451 15.451 0 0 0 11.3-26.031c2.822-6.658 6.87-20.6-1.677-32.889-3.363-4.836-9.759-8.088-16.531-11.532-8.778-4.465-17.856-9.082-18.269-16.057a5 5 0 0 0 -9.983 0c-.413 6.975-9.49 11.592-18.27 16.057-6.771 3.443-13.167 6.7-16.53 11.532-8.5 12.215-4.385 25.948-1.446 32.635a15.46 15.46 0 0 0 11.067 26.285h4.193v38.126h-73.7v-38.407a20.677 20.677 0 0 0 6.025-38.941c6.9-13.237 20.812-47.788-1.206-79.441-7.682-11.045-23.633-19.157-40.52-27.746-25.165-12.8-51.187-26.031-52.55-49.068a5 5 0 0 0 -9.982 0c-1.363 23.037-27.385 36.271-52.55 49.068-16.887 8.589-32.838 16.7-40.52 27.746-21.635 31.1-8.576 65-1.572 78.732a20.686 20.686 0 0 0 4.47 39.65v38.406h-76.133v-38.125h4.193a15.468 15.468 0 0 0 10.955-26.409c3-6.7 7.139-20.329-1.334-32.511-3.363-4.836-9.759-8.089-16.53-11.532-8.78-4.465-17.857-9.082-18.27-16.057a5 5 0 0 0 -9.983 0c-.413 6.975-9.491 11.592-18.269 16.057-6.772 3.444-13.168 6.7-16.531 11.532-8.425 12.112-4.189 25.533-1.054 32.256a15.455 15.455 0 0 0 10.675 26.664h4.192v229.591h-11.6a5 5 0 0 0 -5 5v25.228a5 5 0 0 0 5 5h465.86a5 5 0 0 0 5-5v-25.228a5 5 0 0 0 -5-5h-12.112v-229.591zm-61.752-53.21c1.927-2.772 7.482-5.6 12.854-8.329 6.46-3.285 13.918-7.078 18.728-12.623 4.809 5.545 12.267 9.338 18.728 12.624 5.371 2.732 10.926 5.556 12.854 8.328 5.451 7.836 2.992 17.384 1 22.461a15.555 15.555 0 0 0 -2.409-.206h-60.344a15.557 15.557 0 0 0 -2.128.163c-2.097-4.943-4.815-14.466.717-22.418zm-5.814 101.336h11.414v11.954h-11.414zm-62.285 28.766v-6.812h73.7v6.812zm73.7 10v142.7h-73.7v-142.7zm-32.915-38.766h11.5v11.954h-11.5zm-21.5 0h11.5v11.954h-11.5zm-10 0v11.954h-9.285v-11.954zm-192.375-161.078c6.247-8.981 21.109-16.54 36.844-24.542 20.506-10.429 43.139-21.938 53.008-40.048 9.869 18.11 32.5 29.619 53.008 40.048 15.734 8 30.6 15.561 36.844 24.542 20.24 29.1 4.165 62.62-.789 71.519h-178.135c-4.969-8.876-21.091-42.32-.78-71.519zm-12.8 92.235a10.737 10.737 0 0 1 10.734-10.716h181.915a10.717 10.717 0 1 1 0 21.433h-181.915a10.737 10.737 0 0 1 -10.734-10.717zm99.675 111.236a58.83 58.83 0 0 0 -58.793 58.735v80.342h-23.393v-185.955h168.4v185.95h-27.421v-80.342a58.83 58.83 0 0 0 -58.793-58.73zm48.793 58.735v80.342h-97.586v-80.347a48.793 48.793 0 0 1 97.586 0zm-130.979-115.613v-8.75h168.4v8.75zm0-18.75v-14.891h12.7v14.891zm22.7 0v-14.891h11.852v14.891zm21.852 0v-14.891h11.852v14.891zm21.852 0v-14.891h11.852v14.891zm21.853 0v-14.891h11.852v14.891zm21.852 0v-14.891h11.852v14.891zm21.852 0v-14.891h11.852v14.891zm21.852 0v-14.891h14.593v14.891zm-176.127 33.235h12.31v11.954h-12.31zm-63.818 28.766v-6.812h76.132v6.812zm76.132 10v142.7h-76.132v-142.7zm-33.814-38.766h11.5v11.954h-11.5zm-21.5 0h11.5v11.954h-11.5zm-10 0v11.954h-10.818v-11.954zm-68.378-101.336c1.928-2.772 7.483-5.6 12.854-8.328 6.461-3.286 13.919-7.079 18.728-12.624 4.81 5.545 12.268 9.338 18.728 12.623 5.372 2.732 10.927 5.557 12.855 8.329 5.5 7.908 2.668 17.477.545 22.392a15.609 15.609 0 0 0 -1.957-.137h-60.341a15.6 15.6 0 0 0 -1.612.084c-2.235-4.768-5.384-14.31.2-22.339zm1.412 43.21a5.478 5.478 0 1 1 0-10.955h60.341a5.478 5.478 0 1 1 0 10.955zm46.148 10v229.591h-31.956v-229.591zm407.3 239.591v15.228h-455.855v-15.228zm-49.068-10v-229.591h31.956v229.591zm-14.189-239.591a5.478 5.478 0 1 1 0-10.955h60.341a5.478 5.478 0 1 1 0 10.955z"/><path d="m61.6 267.322a5 5 0 0 0 5-5v-11.782a5 5 0 1 0 -10 0v11.782a5 5 0 0 0 5 5z"/><path d="m61.6 323.2a5 5 0 0 0 5-5v-11.779a5 5 0 1 0 -10 0v11.779a5 5 0 0 0 5 5z"/><path d="m61.6 379.083a5 5 0 0 0 5-5v-11.783a5 5 0 1 0 -10 0v11.781a5 5 0 0 0 5 5.002z"/><path d="m61.6 434.964a5 5 0 0 0 5-5v-11.782a5 5 0 1 0 -10 0v11.782a5 5 0 0 0 5 5z"/></g></svg>