<svg id="Layer_1" height="512" viewBox="0 0 512 512" width="512" xmlns="http://www.w3.org/2000/svg" data-name="Layer 1"><path d="m484.92 449.34h-457.84a11.088 11.088 0 0 0 -11.08 11.09v30.51h480v-30.51a11.088 11.088 0 0 0 -11.08-11.09z" fill="#424242"/><path d="m287.22 134.74h-63.05a12.989 12.989 0 0 0 -12.99 12.99v19.93l89.02-.45v-19.48a12.987 12.987 0 0 0 -12.98-12.99z" fill="#686868"/><path d="m259.63 23.92 21.58 110.82h-48.53l19.62-110.43a3.733 3.733 0 0 1 7.33-.39z" fill="#77818f"/><path d="m475.48 449.34h-429.99s14.75-9.17 22.36-21.55 18.08-12.38 18.08-12.38h349.11s10.47 0 18.08 12.38 22.36 21.55 22.36 21.55z" fill="#999"/><path d="m448.91 387.78a5.116 5.116 0 0 1 4.98 6.29c-1.55 6.55-6.07 16.52-19.2 21.34h-348.76c-13.13-4.82-17.65-14.79-19.2-21.34a5.116 5.116 0 0 1 4.98-6.29z" fill="#686868"/><path d="m447.79 387.78h-373.67s15.99-6.81 23.6-19.19 18.08-12.38 18.08-12.38h290.67s10.47 0 18.08 12.38 23.24 19.19 23.24 19.19z" fill="#999"/><path d="m405.41 343.56a13 13 0 0 0 -12.97-12.32h-263.66a12.989 12.989 0 0 0 -12.98 13v11.97h290.27z" fill="#686868"/><path d="m57.08 449.34h-30a11.088 11.088 0 0 0 -11.08 11.09v30.51h30v-30.51a11.088 11.088 0 0 1 11.08-11.09z" fill="#565656"/><path d="m85.93 415.41h30c-13.13-4.82-17.65-14.79-19.2-21.34a5.116 5.116 0 0 1 4.98-6.29h-30a5.116 5.116 0 0 0 -4.98 6.29c1.55 6.55 6.07 16.52 19.2 21.34z" fill="#515151"/><path d="m145.8 344.24a12.989 12.989 0 0 1 12.98-13h-30a12.989 12.989 0 0 0 -12.98 13v11.97h30z" fill="#515151"/><path d="m271.521 84.982-11.891-61.062a3.733 3.733 0 0 0 -7.33.39l-19.62 110.43h30z" fill="#5e6670"/><path d="m97.85 427.79c7.61-12.38 18.08-12.38 18.08-12.38h-30s-10.47 0-18.08 12.38-22.36 21.55-22.36 21.55h30s14.75-9.17 22.36-21.55z" fill="#828282"/><path d="m127.72 368.59c7.61-12.38 18.08-12.38 18.08-12.38h-30s-10.47 0-18.08 12.38-23.6 19.19-23.6 19.19h30s15.99-6.81 23.6-19.19z" fill="#828282"/><path d="m241.18 147.73a12.989 12.989 0 0 1 12.99-12.99h-30a12.989 12.989 0 0 0 -12.99 12.99v19.93l30-.152z" fill="#515151"/><path d="m388.73 331.24h-259.95s13.41-29.64 17.12-83.07c2.79-40.28 11.68-70.91 65.28-82.51 13.03-2.83 28.69-4.53 47.55-4.97a267.106 267.106 0 0 1 41.47 4.52c56.55 11.27 68.54 41.52 71.41 82.96 3.71 53.43 17.12 83.07 17.12 83.07z" fill="#888986"/><path d="m175.9 248.17c2.79-40.28 11.68-70.91 65.28-82.51a219.8 219.8 0 0 1 30.769-4.191c-4.232-.329-8.621-.595-13.219-.779-18.86.44-34.52 2.14-47.55 4.97-53.6 11.6-62.49 42.23-65.28 82.51-3.71 53.43-17.12 83.07-17.12 83.07h30s13.41-29.64 17.12-83.07z" fill="#727270"/><g fill="#284268"><path d="m213.257 189.563a55.531 55.531 0 0 0 -22.386 9.583c-10.282 7.313-22.968 21.617-25.008 48.221a5 5 0 0 0 4.6 5.368q.195.015.387.015a5 5 0 0 0 4.98-4.618c3.293-42.958 37.332-48.449 38.812-48.666a5 5 0 0 0 -1.389-9.9z"/><path d="m170.2 262.224a5 5 0 0 0 -5.478 4.471l-1.661 16.411a5 5 0 0 0 4.47 5.478c.172.017.342.026.51.026a5 5 0 0 0 4.969-4.5l1.661-16.411a5 5 0 0 0 -4.471-5.475z"/><path d="m484.92 444.344h-7.944c-3.451-2.339-13.881-9.879-19.6-19.177a32.615 32.615 0 0 0 -10.522-10.867 34.564 34.564 0 0 0 11.9-19.074 10.113 10.113 0 0 0 -9.846-12.444h-.008c-3.2-1.559-14.35-7.475-20.088-16.807-5.84-9.5-13.308-12.882-17.962-14.09l-.45-8.585a17.982 17.982 0 0 0 -17.96-17.061h-.349c-3.3-8.591-12.538-35.83-15.493-78.418-1.523-21.937-5.636-46.75-24.6-64.468-11.106-10.374-26.387-17.684-46.8-22.23v-13.39a18.01 18.01 0 0 0 -17.984-18h-1.889l-20.785-106.769c-.015-.073-.03-.146-.048-.218a8.733 8.733 0 0 0 -17.131.785l-18.875 106.206h-4.32a18.011 18.011 0 0 0 -17.985 18v13.925c-18.374 4.472-32.188 11.476-42.205 21.237-16.52 16.1-21.168 37.6-23.065 64.929-2.987 43.053-12.458 70.566-15.633 78.766a18.02 18.02 0 0 0 -14.478 17.644v7.817c-4.678 1.345-11.753 4.838-17.337 13.92-5.717 9.3-17.2 15.267-20.43 16.807h-1.323a10.114 10.114 0 0 0 -9.846 12.444 34.546 34.546 0 0 0 12.059 19.2 32.724 32.724 0 0 0 -10.329 10.744c-5.718 9.3-16.152 16.841-19.6 19.177h-16.914a16.1 16.1 0 0 0 -16.08 16.086v30.506a5 5 0 0 0 5 5h480a5 5 0 0 0 5-5v-30.506a16.1 16.1 0 0 0 -16.08-16.089zm-228.86-412.607 19.08 98h-36.5zm-39.879 116a8 8 0 0 1 7.985-8h63.052a8 8 0 0 1 7.984 8v11.455a289.564 289.564 0 0 0 -35.8-3.47 5 5 0 0 0 -.522-.027h-.252c-.123 0-.244 0-.365.013a277.082 277.082 0 0 0 -42.084 3.85zm-65.293 100.779c1.737-25.047 5.815-44.574 20.066-58.459 15.987-15.578 43.868-23.321 87.728-24.36 42.008 1.677 70.3 9.845 86.489 24.967 13.071 12.209 19.487 29.511 21.453 57.852 2.73 39.349 10.572 65.86 14.795 77.726h-245.326c4.222-11.866 12.064-38.377 14.795-77.726zm-30.088 95.722a8 8 0 0 1 7.985-8h263.658a7.986 7.986 0 0 1 7.974 7.58l.385 7.392h-280.002zm-18.817 26.974c5.924-9.636 13.57-9.988 13.817-10h290.6c.324.011 7.969.363 13.9 10a48.263 48.263 0 0 0 10.315 11.57h-339.044a47.508 47.508 0 0 0 10.408-11.57zm-30.368 21.616a.1.1 0 0 1 .095-.046h377.2c.031 0 .059 0 .115.136a24.224 24.224 0 0 1 -15.3 17.489h-346.825a24.112 24.112 0 0 1 -15.285-17.579zm.5 37.577c5.925-9.636 13.571-9.988 13.818-10h349.033c.323.011 7.969.363 13.893 10a66.512 66.512 0 0 0 11.965 13.939h-400.676a66.453 66.453 0 0 0 11.965-13.939zm418.885 55.534h-470v-25.506a6.092 6.092 0 0 1 6.08-6.089h457.84a6.092 6.092 0 0 1 6.08 6.089z"/></g></svg>