<svg id="Layer_1" height="512" viewBox="0 0 512 512" width="512" xmlns="http://www.w3.org/2000/svg" data-name="Layer 1"><path d="m163.34 169.75.28 72.33h183.96v-72.33z" fill="#968472"/><path d="m475.79 378.54h-29.09v73.96h41.18v-61.9a12.074 12.074 0 0 0 -12.09-12.06z" fill="#8c969b"/><path d="m439.05 156.42v-.1h-14.72v.1l-8.63 59.73 4 25.01h27z" fill="#867e75"/><path d="m438.7 125.84h-14.8l.18 16.48h14.77z" fill="#a28f79"/><path d="m347.93 241.16h71.77v211.34h-71.77z" fill="#b8a58d"/><path d="m413.8 216.15h-58.61c0-7.16 6.69-13.36 16.41-16.32a44.59 44.59 0 0 1 12.89-1.85 43.156 43.156 0 0 1 15.57 2.78c8.26 3.21 13.74 8.91 13.74 15.39z" fill="#8c969b"/><path d="m393.1 118.15 6.96 82.61a43.156 43.156 0 0 0 -15.57-2.78 44.59 44.59 0 0 0 -12.89 1.85l6.89-81.68z" fill="#867e75"/><path d="m163.18 241.16h184.75v211.34h-184.75z" fill="#a28f79"/><path d="m253.9 108.16c-34.47 0-62.8 16.27-66.05 37.07h132.11c-3.25-20.8-31.59-37.07-66.06-37.07z" fill="#a28f79"/><path d="m256.03 88.02a10.07 10.07 0 1 1 -10.09 10.07 10.085 10.085 0 0 1 10.09-10.07z" fill="#8c969b"/><path d="m90.98 241.16h72.2v211.34h-72.2z" fill="#b8a58d"/><path d="m157.65 216.15h-58.62c0-6.84 6.11-12.81 15.13-15.9a45.31 45.31 0 0 1 28.83.17c8.76 3.13 14.66 9.01 14.66 15.73z" fill="#8c969b"/><path d="m142.99 200.41v.01a45.31 45.31 0 0 0 -28.83-.17l7.1-84.24h14.61z" fill="#867e75"/><path d="m88.72 156.42v-.1h-14.71v.1l-7.66 84.74h24.63l4-25.01z" fill="#867e75"/><path d="m74.35 125.84-.14 16.48h14.76l.18-16.48z" fill="#a28f79"/><path d="m37.9 378.54a13.759 13.759 0 0 0 -13.78 13.74v60.22h41.55v-73.96z" fill="#8c969b"/><path d="m257.12 268.41c-34.87 0-63.14 15.88-63.14 35.48v.04h126.29v-.04c0-19.6-28.27-35.48-63.15-35.48z" fill="#7a6756"/><path d="m400.01 413.07v18.48h-33v-18.48a16.5 16.5 0 0 1 33 0z" fill="#a28f79"/><path d="m400.01 348.27v18.48h-33v-18.48a16.5 16.5 0 0 1 33 0z" fill="#a28f79"/><path d="m400.01 283.47v18.48h-33v-18.48a16.5 16.5 0 0 1 33 0z" fill="#a28f79"/><path d="m143.01 413.07v18.48h-33v-18.48a16.5 16.5 0 0 1 33 0z" fill="#a28f79"/><path d="m143.01 348.27v18.48h-33v-18.48a16.5 16.5 0 0 1 33 0z" fill="#a28f79"/><path d="m143.01 283.47v18.48h-33v-18.48a16.5 16.5 0 0 1 33 0z" fill="#a28f79"/><path d="m419.7 388.65h27v63.85h-27z" fill="#aba9b0"/><path d="m419.7 320.7h27v67.95h-27z" fill="#969599"/><path d="m419.7 241.16h27v79.54h-27z" fill="#aba9b0"/><path d="m65.67 388.65h25.31v63.85h-25.31z" fill="#aba9b0"/><path d="m65.67 320.7h25.31v67.95h-25.31z" fill="#969599"/><path d="m90.98 241.16v79.54h-25.31v-79.54h.68z" fill="#aba9b0"/><path d="m416.26 142.32h31.39v14h-31.39z" fill="#8c969b"/><path d="m396.33 216.15h23.37v25.01h-23.37z" fill="#d9bb4b"/><path d="m372.5 103.15h25.67v15h-25.67z" fill="#8c969b"/><path d="m371.58 216.15h24.75v25.01h-24.75z" fill="#edb740"/><path d="m348.58 216.15h23v25.01h-23z" fill="#d9bb4b"/><path d="m296.88 303.93h27.76v28.27h-27.76z" fill="#d9bb4b"/><path d="m269.97 303.93h26.91v28.27h-26.91z" fill="#edb740"/><path d="m243.07 303.93h26.9v28.27h-26.9z" fill="#d9bb4b"/><path d="m216.16 303.93h26.91v28.27h-26.91z" fill="#edb740"/><path d="m187.54 145.41v24.34h-20.1v-22.17a10.089 10.089 0 0 1 10.1-10.08c5.1 0 9.32 3.12 10 7.91z" fill="#8c969b"/><path d="m164.52 216.15h-25.41v25.01h25.51z" fill="#d9bb4b"/><path d="m116.27 101.01h24.67v15h-24.67z" fill="#8c969b"/><path d="m114.35 216.15h24.76v25.01h-24.76z" fill="#edb740"/><path d="m90.98 216.15h23.37v25.01h-23.37z" fill="#d9bb4b"/><path d="m65.4 142.32h31.39v14h-31.39z" fill="#8c969b"/><path d="m340.47 147.58v22.17h-20.2v-22.17a10.1 10.1 0 0 1 20.2 0z" fill="#8c969b"/><path d="m320.27 147.58v22.17h-24.31v-24.52h24 .31z" fill="#aba9b0"/><path d="m267.62 145.23h28.34v24.52h-28.34z" fill="#969599"/><path d="m239.28 145.23h28.34v24.52h-28.34z" fill="#aba9b0"/><path d="m210.94 145.23h28.34v24.52h-28.34z" fill="#969599"/><path d="m210.94 145.23v24.52h-23.3-.1v-24.34-.18h.31z" fill="#aba9b0"/><path d="m163.34 169.75.28 72.33h30l-.28-72.33z" fill="#77685b"/><path d="m163.18 241.16h30v211.34h-30z" fill="#7f6f5e"/><path d="m268.9 109.221a106.1 106.1 0 0 0 -15-1.061c-34.47 0-62.8 16.27-66.05 37.07h30c2.764-17.686 23.665-32.09 51.05-36.009z" fill="#7f6f5e"/><path d="m65.67 378.736v-.2h-27.77a13.759 13.759 0 0 0 -13.78 13.74v60.224h30v-60.22a13.743 13.743 0 0 1 11.55-13.544z" fill="#70797c"/><path d="m189.6 303.93h26.56v28.27h-26.56z" fill="#d9bb4b"/><path d="m182.01 332.2h150.22v120.3h-150.22z" fill="#7a6756"/><path d="m288.47 355.51a134.454 134.454 0 0 0 -62.9.07 29.968 29.968 0 0 0 -22.92 29.16v67.76h108.94v-67.78a30.066 30.066 0 0 0 -23.12-29.21z" fill="#867e75"/><path d="m291.5 393.12v59.38h-26.91v-59.38a13.455 13.455 0 0 1 26.91 0z" fill="#686868"/><path d="m246.3 393.12v59.38h-26.91v-59.38a13.455 13.455 0 0 1 26.91 0z" fill="#686868"/><path d="m253.72 184.56c-50.8 0-89.1 28.87-89.1 51.52v5.08h183.96v-5.08c0-22.65-44.06-51.52-94.86-51.52z" fill="#7a6756"/><path d="m280.05 232.45v8.71h-52.65v-8.71a26.325 26.325 0 0 1 52.65 0z" fill="#867e75"/><g fill="#284268"><path d="m182.375 179.564a5 5 0 0 0 -5 5v4.558a5 5 0 0 0 10 0v-4.558a5 5 0 0 0 -5-5z"/><path d="m331.977 179.564a5 5 0 0 0 -5 5v5.556a5 5 0 0 0 10 0v-5.556a5 5 0 0 0 -5-5z"/><path d="m110.009 306.948h33.006a5 5 0 0 0 5-5v-18.48a21.5 21.5 0 0 0 -43.006 0v18.48a5 5 0 0 0 5 5zm5-23.48a11.5 11.5 0 0 1 23.006 0v13.48h-23.006z"/><path d="m110.009 371.749h33.006a5 5 0 0 0 5-5v-18.479a21.5 21.5 0 0 0 -43.006 0v18.479a5 5 0 0 0 5 5zm5-23.479a11.5 11.5 0 0 1 23.006 0v13.479h-23.006z"/><path d="m110.009 436.551h33.006a5 5 0 0 0 5-5v-18.48a21.5 21.5 0 0 0 -43.006 0v18.48a5 5 0 0 0 5 5zm5-23.48a11.5 11.5 0 0 1 23.006 0v13.48h-23.006z"/><path d="m367.009 306.948h33.006a5 5 0 0 0 5-5v-18.48a21.5 21.5 0 0 0 -43.006 0v18.48a5 5 0 0 0 5 5zm5-23.48a11.5 11.5 0 0 1 23.006 0v13.48h-23.006z"/><path d="m367.009 371.749h33.006a5 5 0 0 0 5-5v-18.479a21.5 21.5 0 0 0 -43.006 0v18.479a5 5 0 0 0 5 5zm5-23.479a11.5 11.5 0 0 1 23.006 0v13.479h-23.006z"/><path d="m367.009 436.551h33.006a5 5 0 0 0 5-5v-18.48a21.5 21.5 0 0 0 -43.006 0v18.48a5 5 0 0 0 5 5zm5-23.48a11.5 11.5 0 0 1 23.006 0v13.48h-23.006z"/><path d="m45.122 431.86a5 5 0 0 0 5-5v-24.7a5 5 0 0 0 -10 0v24.7a5 5 0 0 0 5 5z"/><path d="m467.122 397.156a5 5 0 0 0 -5 5v24.7a5 5 0 0 0 10 0v-24.7a5 5 0 0 0 -5-5z"/><path d="m475.791 373.539h-24.091v-132.381c0-.154-.032-.3-.045-.448h.025l-7.17-79.389h3.145a5 5 0 0 0 5-5v-14a5 5 0 0 0 -5-5h-3.855l-.1-11.519a5 5 0 0 0 -5-4.956h-2.234l-.027-14.543a5 5 0 0 0 -5-4.991h-.008a5 5 0 0 0 -4.992 5.009l.027 14.525h-2.566a5 5 0 0 0 -5 5.054l.125 11.421h-2.763a5 5 0 0 0 -5 5v14a5 5 0 0 0 5 5h2.309l-5.979 41.388a30.6 30.6 0 0 0 -7.8-5.345l-6.256-74.245a4.983 4.983 0 0 0 4.628-4.962v-15a5 5 0 0 0 -5-5h-7.592v-22.249a5 5 0 0 0 -10 0v22.247h-8.072a5 5 0 0 0 -5 5v15a5 5 0 0 0 5 5h.543l-6.154 73.014c-5.762 2.284-10.4 5.672-13.31 9.768v-36.183a5 5 0 0 0 -5-5h-3.115v-17.177a15.1 15.1 0 0 0 -23.575-12.469c-7.624-15.517-27.49-27.237-52.123-30.806a15 15 0 0 0 -8.738-20.413v-24.389a5 5 0 0 0 -10 0v24.389a15.022 15.022 0 0 0 -8.963 19.909c-26.341 2.8-47.889 14.825-56.027 31.049a16.037 16.037 0 0 0 -8.5-2.346 15.1 15.1 0 0 0 -15.1 15.076v17.554a4.99 4.99 0 0 0 -3.1 4.643l.147 36.507a28.09 28.09 0 0 0 -11.773-9.364l-6.4-75.947a4.983 4.983 0 0 0 4.629-4.963v-15a5 5 0 0 0 -5-5h-7.591v-22.246a5 5 0 1 0 -10 0v22.246h-7.073a5 5 0 0 0 -5 5v15a4.984 4.984 0 0 0 4.546 4.955l-6.382 75.751a30.063 30.063 0 0 0 -10.675 7.538l-4.5-42.932h2.526a5 5 0 0 0 5-5v-14a5 5 0 0 0 -5-5h-2.767l.124-11.421a5 5 0 0 0 -5-5.054h-2.562l.025-14.525a5 5 0 0 0 -4.991-5.009h-.009a5 5 0 0 0 -5 4.991l-.025 14.543h-2.235a5 5 0 0 0 -5 4.956l-.1 11.519h-3.852a5 5 0 0 0 -5 5v14a5 5 0 0 0 5 5h3.145l-6.95 76.963a4.967 4.967 0 0 0 -.92 2.876v132.381h-22.775a18.779 18.779 0 0 0 -18.778 18.741v60.22a5 5 0 0 0 5 5h463.756a5 5 0 0 0 5-5v-61.9a17.092 17.092 0 0 0 -17.087-17.061zm-415.118 73.961h-31.551v-55.22a8.768 8.768 0 0 1 8.774-8.741h22.777zm18.635-316.656h4.792l-.071 6.475h-4.778zm6.675 316.656h-15.31v-53.854h15.31zm0-63.854h-15.31v-57.941h15.31zm0-67.941h-15.31v-69.547h15.31zm0-99.554v20.007h-14.158l6.758-74.839h5.624l5.252 50.094a4.984 4.984 0 0 0 -3.476 4.738zm5.8-64.832h-21.383v-4h21.39zm29.486-45.312h14.664v5h-14.659zm4.579 15h5.423l6.133 72.768a52.45 52.45 0 0 0 -17.681-.084zm2.487 81.975c9.722 0 18.548 3.47 22.342 8.169h-44.677c3.791-4.699 12.617-8.169 22.34-8.169zm5.765 18.169v15.007h-14.749v-15.007zm-38.122 0h13.368v15.007h-13.363zm62.2 226.349h-62.2v-201.342h62.2zm-14.078-211.342v-15.007h15.438l.061 15.007zm181.164-88.581a5.1 5.1 0 0 1 10.2 0v17.177h-10.2zm-10 2.653v14.524h-14.3v-14.524zm-59.232-57.209a5.071 5.071 0 1 1 -5.094 5.071 5.089 5.089 0 0 1 5.094-5.071zm-2.132 20.142c28.026 0 52.412 11.5 59.371 27.067h-118.74c6.96-15.568 31.345-27.067 59.369-27.067zm37.064 37.067v14.524h-18.342v-14.524zm-28.343 0v14.524h-18.341v-14.524zm-28.342 0v14.524h-18.341v-14.524zm-41.745 0h13.4v14.524h-13.4zm-20.1-2.653a5.094 5.094 0 0 1 5.1-5.076c2.2 0 4.55 1.064 5 3.411v18.842h-10.1zm68.866 299.923h-16.911v-54.379a8.454 8.454 0 0 1 16.907 0zm45.2 0h-16.907v-54.379a8.453 8.453 0 0 1 16.906 0zm20.088 0h-10.088v-54.379a18.453 18.453 0 0 0 -36.906 0v54.379h-8.3v-54.379a18.454 18.454 0 0 0 -36.907 0v54.379h-6.737v-62.764a24.9 24.9 0 0 1 19.092-24.3 129.321 129.321 0 0 1 60.563-.063 24.992 24.992 0 0 1 19.28 24.341zm20.642 0h-10.643v-62.782a34.96 34.96 0 0 0 -26.952-34.066 139.314 139.314 0 0 0 -65.233.066 34.868 34.868 0 0 0 -26.75 34.018v62.764h-10.643v-110.3h140.22zm-127.43-148.575c4.678-14.26 29.021-25.517 57.321-25.517s52.642 11.257 57.32 25.517zm119.834 10v18.275h-17.753v-18.27zm-27.757 0v18.275h-16.903v-18.27zm-26.907 0v18.275h-16.903v-18.27zm-26.907 0v18.275h-16.903v-18.27zm-26.907 0v18.275h-16.556v-18.27zm131.773 138.575h-5.7v-115.3a5 5 0 0 0 -5-5h-2.591v-23.27a4.993 4.993 0 0 0 -4.872-4.987c-4-20.28-32.26-35.53-67.641-35.53s-63.646 15.25-67.641 35.529a4.993 4.993 0 0 0 -4.883 4.988v23.27h-2.592a5 5 0 0 0 -5 5v115.3h-8.826v-201.342h174.746zm-110.529-211.342v-3.713a21.325 21.325 0 0 1 42.65 0v3.713zm111.187 0h-58.541v-3.713a31.325 31.325 0 0 0 -62.65 0v3.713h-52.772v-.08c0-9.5 8.877-21 23.167-30.021 16.855-10.636 38.494-16.493 60.93-16.493 49.6 0 89.862 28.146 89.862 46.514zm0-22.186a84.182 84.182 0 0 0 -20.882-16.472c-19.7-11.4-44.845-17.936-68.984-17.936-37.439 0-68.943 15.162-84.211 33.278l-.154-38.088h174.227zm33.913-105.817h15.664v5h-15.664zm5.579 15h5.424l5.966 70.79a51.371 51.371 0 0 0 -9.98-.963 52.208 52.208 0 0 0 -7.339.515zm1.41 79.827c9.723 0 18.548 3.47 22.342 8.169h-44.681c3.794-4.699 12.621-8.169 22.343-8.169zm6.842 18.169v15.007h-14.751v-15.007zm-37.752 0h13v15.007h-13zm61.121 226.349h-61.771v-201.342h61.771zm0-211.342h-13.365v-15.007h13.365zm16.772-105.314h2.269l.057 6.475h-4.773l-.071-6.475zm-10.042 80.632 7.246-50.157h5.792l6.76 74.839h-16.528v-20.007a4.987 4.987 0 0 0 -3.27-4.675zm20.27 236.024h-17v-53.854h17zm0-63.854h-17v-57.941h17zm0-67.941h-17v-69.547h17zm.955-164.386h-21.39v-4h21.39zm40.223 296.181h-31.178v-63.961h24.092a7.08 7.08 0 0 1 7.087 7.058z"/></g></svg>