<svg id="Layer_1" height="512" viewBox="0 0 512 512" width="512" xmlns="http://www.w3.org/2000/svg" data-name="Layer 1"><path d="m122.43 155.18h22.38v50.22h-22.38z" fill="#e75163"/><path d="m144.81 155.18h60.95v50.22h-60.95z" fill="#a34853"/><path d="m205.76 155.18h22.38v50.22h-22.38z" fill="#e75163"/><path d="m228.14 155.18h60.96v50.22h-60.96z" fill="#a34853"/><path d="m289.1 155.18h22.38v50.22h-22.38z" fill="#e75163"/><path d="m311.48 155.18h61.31v50.22h-61.31z" fill="#a34853"/><path d="m372.79 155.18h21.66v50.22h-21.66z" fill="#e75163"/><path d="m54.13 283.86h400.83v29.23h-400.83z" fill="#e75163"/><path d="m54.13 313.09h135.7v60.56h-135.7z" fill="#747d83"/><path d="m189.83 313.09h131.78v60.56h-131.78z" fill="#8c969b"/><path d="m321.61 313.09h133.35v60.56h-133.35z" fill="#747d83"/><path d="m400.03 103.05h-286.66a213.327 213.327 0 0 0 15.33-21.43h257.19s5.43 9.24 14.14 21.43z" fill="#a57b5e"/><path d="m400.03 103.05h-286.66c-24.55 30.41-53.69 52.13-53.69 52.13h391.53a1.477 1.477 0 0 0 .21-.01c-19.66-11.11-38.9-34.65-51.39-52.12z" fill="#ce9e76"/><path d="m395.93 205.4h-274.28a128.959 128.959 0 0 1 -16.09 20.47h309.76c-11.52-11.71-19.39-20.47-19.39-20.47z" fill="#a57b5e"/><path d="m415.32 225.87h-309.76c-31.88 33.67-80.92 57.99-80.92 57.99h463.76c-19.79-6.29-52.35-36.92-73.08-57.99z" fill="#ce9e76"/><path d="m242.29 196.62h33.13v38.38h-33.13z" fill="#d9bb4b"/><path d="m54.13 373.65h400.83v37.63h-400.83z" fill="#e75163"/><g fill="#a34853"><path d="m419.78 350.87c-8.25-2.13-22.46-6.88-29.36-15.47a4.344 4.344 0 0 0 -6.78 0c-6.89 8.58-21.08 13.33-29.32 15.47a8.371 8.371 0 0 0 -6.3 8.1v52.31h78.07v-52.3a8.383 8.383 0 0 0 -6.31-8.11z"/><path d="m288.96 350.87c-8.25-2.13-22.47-6.88-29.36-15.47a4.355 4.355 0 0 0 -6.79 0c-6.88 8.58-21.07 13.33-29.31 15.47a8.38 8.38 0 0 0 -6.31 8.1v52.31h78.08v-52.3a8.383 8.383 0 0 0 -6.31-8.11z"/><path d="m158.14 350.87c-8.26-2.13-22.47-6.88-29.36-15.47a4.355 4.355 0 0 0 -6.79 0c-6.89 8.58-21.08 13.33-29.32 15.47a8.371 8.371 0 0 0 -6.3 8.1v52.31h78.07v-52.3a8.374 8.374 0 0 0 -6.3-8.11z"/></g><path d="m39.91 411.28h426.72v19.1h-426.72z" fill="#6b6f76"/><path d="m54.13 283.86h30v29.23h-30z" fill="#c45366"/><path d="m54.13 313.09h30v60.56h-30z" fill="#5c6266"/><path d="m143.37 103.05h-30c-24.55 30.41-53.69 52.13-53.69 52.13h30s29.14-21.72 53.69-52.13z" fill="#af8769"/><path d="m135.56 225.87h-30c-31.88 33.67-80.92 57.99-80.92 57.99h30s49.04-24.32 80.92-57.99z" fill="#af8769"/><path d="m54.13 373.65h30v37.63h-30z" fill="#c45366"/><path d="m158.7 81.62h-30a213.327 213.327 0 0 1 -15.33 21.43h30a213.327 213.327 0 0 0 15.33-21.43z" fill="#896851"/><path d="m151.65 205.4h-30a128.959 128.959 0 0 1 -16.09 20.47h30a128.959 128.959 0 0 0 16.09-20.47z" fill="#896851"/><path d="m39.91 411.28h30v19.1h-30z" fill="#585b60"/><path d="m493.83 261.764a5 5 0 0 0 -3.568 6.105c.815 3.109 1.217 8.617-.192 10.442a1.331 1.331 0 0 1 -.99.5c-29.437-10.232-88.83-76.08-89.432-76.751-.059-.065-.132-.112-.193-.174v-41.7h51.971c.1 0 .188-.019.283-.024a12.227 12.227 0 0 0 9.244-4.309c5.4-6.4 3.694-17.517 3.483-18.764a5 5 0 0 0 -9.861 1.664c.51 3.094.46 8.619-1.267 10.654a1.929 1.929 0 0 1 -.849.595c-31.317-18.724-61.953-70.392-62.264-70.919a5 5 0 0 0 -4.31-2.466h-257.185a5 5 0 0 0 -4.249 2.366c-21.948 35.4-58.148 64.712-66.157 70.965a1.916 1.916 0 0 1 -.7-.541c-1.726-2.035-1.777-7.556-1.268-10.65a5 5 0 0 0 -9.86-1.668c-.212 1.247-1.917 12.368 3.483 18.764a12.315 12.315 0 0 0 9.739 4.333h57.743v42.537c-.01.015-.022.029-.031.044-24.16 38.97-84.4 71.153-93.748 75.986a1.967 1.967 0 0 1 -1.1-.671c-1.727-2.035-1.777-7.556-1.268-10.65a5 5 0 0 0 -9.86-1.668c-.212 1.247-1.917 12.368 3.482 18.763a12.312 12.312 0 0 0 9.74 4.333h24.484v117.421h-9.222a5 5 0 0 0 -5 5v19.1a5 5 0 0 0 5 5h426.72a5 5 0 0 0 5-5v-19.1a5 5 0 0 0 -5-5h-6.666v-117.423h28.438a11.552 11.552 0 0 0 9.592-4.438c4.939-6.4 2.488-17.024 1.947-19.088a5 5 0 0 0 -6.109-3.568zm-90.338-40.894h-123.076v-10.47h113.3c1.854 2.037 5.275 5.747 9.776 10.47zm-161.2-29.247a5 5 0 0 0 -5 5v3.777h-4.147v-40.216h50.955v40.216h-3.681v-3.776a5 5 0 0 0 -5-5zm28.124 10v28.377h-23.124v-28.377zm23.684-1.223v-40.216h12.382v40.216zm22.382 0v-40.216h51.312v40.216zm61.312 0v-40.216h11.664v40.216zm-246.336-113.785h251.609c1.482 2.408 4.02 6.432 7.4 11.43h-266.9c2.738-3.711 5.388-7.525 7.891-11.43zm-57.6 63.569a338.247 338.247 0 0 0 41.9-42.139h281.713q2.225 3.064 4.691 6.311c11.58 15.205 22.737 27.195 33.321 35.828zm149.283 10v40.216h-12.379v-40.216zm-22.383 0v40.216h-50.948v-40.216zm-60.952 0v40.216h-12.379v-40.216zm-15.422 50.216h112.908v10.47h-120.65a124.8 124.8 0 0 0 7.742-10.47zm337.244 205.881v9.1h-416.72v-9.1zm-30.537-47.632v-9.672a13.386 13.386 0 0 0 -10.053-12.944c-12.569-3.255-22.306-8.273-26.715-13.767a9.3 9.3 0 0 0 -7.291-3.5 9.3 9.3 0 0 0 -7.292 3.5c-4.4 5.491-14.125 10.507-26.673 13.762a13.389 13.389 0 0 0 -10.048 12.942v9.675h-16.4v-50.559h123.35v50.563zm18.871 10v27.632h-18.871v-27.632zm-28.871-19.672v47.3h-68.074v-47.303a3.39 3.39 0 0 1 2.559-3.263c10.24-2.656 23.9-7.673 31.456-16.571 7.569 8.9 21.244 13.918 31.5 16.573a3.389 3.389 0 0 1 2.559 3.264zm-130.877-12.944c-12.569-3.255-22.306-8.273-26.715-13.767a9.3 9.3 0 0 0 -7.291-3.5 9.305 9.305 0 0 0 -7.293 3.5c-4.4 5.491-14.124 10.507-26.672 13.762a13.39 13.39 0 0 0 -10.049 12.942v9.675h-17.368v-50.559h121.786v50.563h-16.345v-9.672a13.387 13.387 0 0 0 -10.053-12.944zm.053 12.944v47.3h-68.075v-47.303a3.391 3.391 0 0 1 2.56-3.263c10.24-2.656 23.9-7.674 31.456-16.571 7.568 8.9 21.244 13.918 31.5 16.573a3.39 3.39 0 0 1 2.559 3.264zm-78.075 19.672v27.632h-42.749v-27.632zm88.075 0h42.75v27.632h-42.75zm-241.137-70.563v-19.228h390.832v19.228zm125.7 10v50.563h-15.387v-9.672a13.387 13.387 0 0 0 -10.054-12.944c-12.569-3.255-22.306-8.273-26.714-13.767a9.3 9.3 0 0 0 -7.291-3.5 9.305 9.305 0 0 0 -7.293 3.5c-4.4 5.491-14.125 10.507-26.672 13.762a13.388 13.388 0 0 0 -10.049 12.942v9.675h-22.24v-50.559zm-25.383 40.891v47.3h-68.079v-47.303a3.391 3.391 0 0 1 2.56-3.263c10.239-2.656 23.9-7.674 31.456-16.571 7.568 8.9 21.243 13.918 31.5 16.573a3.39 3.39 0 0 1 2.559 3.264zm-78.079 19.672v27.632h-22.238v-27.632zm-37.2-99.791c17.017-9.95 43.246-27.025 63.534-47.988h129.59v4.13a5 5 0 0 0 5 5h33.124a5 5 0 0 0 5-5v-4.13h132.784c15.4 15.572 36.707 35.717 55.014 47.988z" fill="#284268"/></svg>