<svg id="Layer_1" enable-background="new 0 0 512 512" height="512" viewBox="0 0 512 512" width="512" xmlns="http://www.w3.org/2000/svg"><path d="m258.5 17c-2.1-.6-4.2-.9-6.3-1-2.4-.1-4.8.2-7.2.9l-223.3 61.4 234.6 68.5 233.9-62.5z" fill="#b0b5ca"/><path d="m255.9 466.9v29.1c-1.1 0-2.2-.1-3.2-.4l-231-66.6v-27z" fill="#d9bb4b"/><path d="m256.1 328.8-.2 138.1-234.2-65v-138.2z" fill="#6d7486"/><path d="m256.2 265-.1 63.8-234.4-65.1v-66.5z" fill="#d9bb4b"/><path d="m256.2 214.2v50.8l-234.5-67.8v-50.3z" fill="#4a5160"/><path d="m256.3 146.9-.1 67.3-234.5-67.3v-68.6z" fill="#6d7486"/><path d="m490.3 84.4v60.4l-234 69.4h-.1l.1-67.3z" fill="#4a5160"/><path d="m490.3 144.8v52.4l-234 67.8h-.1v-50.8h.1z" fill="#383e49"/><path d="m256.3 328.8h-.2l-.2 138.1.2.1 234.2-65.1v-138.2z" fill="#4a5160"/><path d="m490.3 401.9v27l-231.2 66.6c-1 .3-2.1.4-3.2.4v-29.1h.2z" fill="#bc9f44"/><path d="m256.3 265h-.1l-.1 63.8h.2l234-65.1v-66.5z" fill="#bc9f44"/><path d="m352 281.2c5.3 26.9-8.9 101.7-28.5 120.7v-113.6z" fill="#6d6d93"/><path d="m391.2 293.8v91.2c-33.8-34.9-31.8-105.6-31.8-105.6l31.8-7.9z" fill="#6d6d93"/><path d="m391.2 385-67.7 16.9c19.6-19 33.8-93.9 28.5-120.7l7.3-1.8s-2 70.7 31.9 105.6z" fill="#aa8d3d"/><path d="m21.7 401.9v27.1l30 8.6v-27.3z" fill="#b79c48"/><path d="m51.7 272-30-8.3v138.2l30 8.4z" fill="#585e6b"/><path d="m51.7 205.9-30-8.7v66.5l30 8.3z" fill="#b79c48"/><path d="m51.7 155.5-30-8.6v50.3l30 8.7z" fill="#3d424c"/><path d="m51.7 87.1-30-8.8v68.6l30 8.6z" fill="#585e6b"/><path d="m491.6 79.5-234.2-67.4c-.9-.2-1.8-.3-2.7 0l-234.2 61.4c-2 .5-3.5 2.3-3.7 4.4v351.1c0 2.2 1.5 4.2 3.6 4.8l231 66.6c1.5.4 3 .6 4.5.6s3.1-.2 4.6-.6l231.1-66.6c2.1-.6 3.6-2.6 3.6-4.8v-345c-.1-2.1-1.6-3.9-3.6-4.5zm-6.3 114-224.1 64.9v-40.4l224-66.4zm-224 14 .1-56.8 223.9-59.8v50.2zm-10.4 282.3-224.2-64.6v-16.7l224.2 62.2zm0-29.4-224.2-62.3v-127.8l224.4 62.3zm.2-138.2-224.4-62.3v-56l224.5 64.8zm.1-63.9-224.5-64.8v-40l224.5 64.5zm.1-50.8-224.6-64.4v-58.1l224.6 65.6zm5-65.8-215.8-63.1 215.4-56.5 215.6 62.1zm228.9 283.6-224.3 64.6v-19l224.3-62.3zm.3-27.2h-.2l-224.3 62.3.2-127.7 57.2-14.9v84.2c0 2.8 2.2 5 5 5 .4 0 .8-.1 1.2-.1l67.7-16.9c2.2-.6 3.8-2.6 3.8-4.9v-87.5l89.4-27.1zm-103.4-15.9-46.6 11.6c8.7-15.6 14.2-37.7 16.5-48.2 2.2-9.9 3.8-20 5-30.1.2 1.5.5 3 .7 4.5 4.5 26.3 12.7 47.2 24.4 62.2zm-17.7-98.9 21.8-5.5v92.9c-19.6-29.8-21.7-74.3-21.8-87.4zm-35.9 102.2v-93.3l19.3-4.8c2.2 24.5-7 72.8-19.3 98.1zm157-125.5-89.4 27.1v-15.7c.1-1.5-.6-3-1.9-3.9-1.2-.9-2.8-1.3-4.3-.9l-67.7 16.9c-2.2.6-3.8 2.6-3.8 4.9v19l-57.1 15 .1-53.6 224.1-64.9z" fill="#284268"/></svg>