<svg id="Layer_1" height="512" viewBox="0 0 512 512" width="512" xmlns="http://www.w3.org/2000/svg" data-name="Layer 1"><path d="m38.97 148.25h434.061v22.96h-434.061z" fill="#b0b5ca"/><path d="m484.05 147.57-217.52-122.17-238.45 122.16a.364.364 0 0 0 .16.69h455.63a.363.363 0 0 0 .18-.68z" fill="#ccd3df"/><path d="m381.18 171.21h49.641v19.23h-49.641z" fill="#a7abb7"/><path d="m281.18 171.21h49.641v19.23h-49.641z" fill="#a7abb7"/><path d="m181.18 171.21h49.641v19.23h-49.641z" fill="#a7abb7"/><path d="m81.18 171.21h49.641v19.23h-49.641z" fill="#a7abb7"/><path d="m404.81 126.25h-291.17l152.46-75.16z" fill="#b0b5ca"/><path d="m420.58 190.44 2 196.82h-33.16l2-196.82z" fill="#ccd3df"/><path d="m320.58 190.44 2 196.82h-33.16l2-196.82z" fill="#ccd3df"/><path d="m220.58 190.44 2 196.82h-33.16l2-196.82z" fill="#ccd3df"/><path d="m120.58 190.44 2 196.82h-33.16l2-196.82z" fill="#ccd3df"/><g fill="#b0b5ca"><path d="m383.18 387.26h45.641v16h-45.641z"/><path d="m283.18 387.26h45.641v16h-45.641z"/><path d="m183.18 387.26h45.641v16h-45.641z"/><path d="m83.18 387.26h45.641v16h-45.641z"/></g><path d="m433.82 403.26h-55.64a4 4 0 0 0 -4 4v11.5h63.64v-11.5a4 4 0 0 0 -4-4z" fill="#a7abb7"/><path d="m333.82 403.26h-55.64a4 4 0 0 0 -4 4v11.5h63.64v-11.5a4 4 0 0 0 -4-4z" fill="#a7abb7"/><path d="m233.82 403.26h-55.64a4 4 0 0 0 -4 4v11.5h63.64v-11.5a4 4 0 0 0 -4-4z" fill="#a7abb7"/><path d="m133.82 403.26h-55.64a4 4 0 0 0 -4 4v11.5h63.64v-11.5a4 4 0 0 0 -4-4z" fill="#a7abb7"/><path d="m467.89 418.76h-423.78a4.005 4.005 0 0 0 -4 4v22.99h431.78v-22.99a4.005 4.005 0 0 0 -4-4z" fill="#ccd3df"/><path d="m480.72 445.75h-449.44a4.005 4.005 0 0 0 -4 4v21.85h457.44v-21.85a4.005 4.005 0 0 0 -4-4z" fill="#a7abb7"/><path d="m28.24 148.25h30a.364.364 0 0 1 -.16-.69l222.761-114.122-14.311-8.038-238.45 122.16a.364.364 0 0 0 .16.69z" fill="#b2b8c1"/><path d="m74.11 418.76h-30a4.005 4.005 0 0 0 -4 4v22.99h30v-22.99a4.005 4.005 0 0 1 4-4z" fill="#b0b7c1"/><path d="m38.97 148.25h30v22.96h-30z" fill="#9a9faf"/><path d="m61.28 445.75h-30a4.005 4.005 0 0 0 -4 4v21.85h30v-21.85a4.005 4.005 0 0 1 4-4z" fill="#8e919b"/><path d="m16 471.6h480v15h-480z" fill="#818b95"/><path d="m16 471.6h30v15h-30z" fill="#656e75"/><path d="m407.188 121.851-138.71-75.151a5 5 0 0 0 -4.593-.089l-152.451 75.152a5 5 0 0 0 2.211 9.485h291.161a5 5 0 0 0 2.382-9.4zm-272.092-.6 130.891-64.529 119.094 64.526z" fill="#284268"/><path d="m496 466.6h-6.285v-16.847a9.01 9.01 0 0 0 -9-9h-3.815v-17.989a9.011 9.011 0 0 0 -9-9h-25.079v-6.5a9.01 9.01 0 0 0 -9-9v-11a5 5 0 0 0 -5-5h-1.29l-1.9-186.825h5.188a5 5 0 0 0 5-5v-14.225h37.2a5 5 0 0 0 5-5v-17.967h5.848a5.361 5.361 0 0 0 2.625-10.036l-217.513-122.171a5.007 5.007 0 0 0 -4.729-.091l-238.443 122.161a5.361 5.361 0 0 0 2.435 10.137h5.732v17.967a5 5 0 0 0 5 5h37.205v14.224a5 5 0 0 0 5 5h5.188l-1.9 186.825h-1.29a5 5 0 0 0 -5 5v11a9.01 9.01 0 0 0 -9 9v6.5h-25.072a9.011 9.011 0 0 0 -9 9v17.989h-3.82a9.01 9.01 0 0 0 -9 9v16.848h-6.285a5 5 0 0 0 -5 5v15a5 5 0 0 0 5 5h480a5 5 0 0 0 5-5v-15a5 5 0 0 0 -5-5zm-63.179-58.338v5.5h-53.642v-5.5zm-99-10v-11a5 5 0 0 0 -5-5h-1.29l-1.9-186.825h5.188a5 5 0 0 0 5-5v-14.223h40.358v14.224a5 5 0 0 0 5 5h5.188l-1.9 186.825h-1.29a5 5 0 0 0 -5 5v11a9.01 9.01 0 0 0 -9 9v6.5h-26.354v-6.5a9.01 9.01 0 0 0 -9-9zm-100 0v-11a5 5 0 0 0 -5-5h-1.29l-1.9-186.825h5.188a5 5 0 0 0 5-5v-14.223h40.358v14.224a5 5 0 0 0 5 5h5.188l-1.9 186.825h-1.29a5 5 0 0 0 -5 5v11a9.01 9.01 0 0 0 -9 9v6.5h-26.354v-6.5a9.01 9.01 0 0 0 -9-9zm-100 0v-11a5 5 0 0 0 -5-5h-1.29l-1.9-186.825h5.188a5 5 0 0 0 5-5v-14.223h40.358v14.224a5 5 0 0 0 5 5h5.188l-1.9 186.825h-1.29a5 5 0 0 0 -5 5v11a9.01 9.01 0 0 0 -9 9v6.5h-26.354v-6.5a9.01 9.01 0 0 0 -9-9zm90-6v6h-35.642v-6zm-29.35-10 1.9-186.825h19.262l1.9 186.825zm-8.292-196.825v-9.224h39.642v9.224zm-7 222.825h53.642v5.5h-53.642zm144.642-16v6h-35.642v-6zm-29.35-10 1.9-186.825h19.262l1.9 186.825zm-8.292-196.825v-9.224h39.642v9.224zm-7 222.825h53.642v5.5h-53.642zm144.642-16v6h-35.642v-6zm-29.35-10 1.9-186.825h19.262l1.9 186.825zm31.35-196.825h-39.642v-9.224h39.642zm-159.399-154.364 199.722 112.174h-418.674zm-222.448 135.141v-12.967h424.052v12.967zm42.205 19.224v-9.224h39.642v9.224zm37.642 206.825v6h-35.642v-6zm-29.35-10 1.9-186.825h19.262l1.9 186.825zm-15.292 26h53.642v5.5h-53.642zm-34.074 15.5h421.795v16.989h-421.795zm-12.82 26.989h447.43v15.848h-447.43zm458.715 30.848h-470v-5h470z" fill="#284268"/></svg>