<svg id="Layer_1" height="512" viewBox="0 0 512 512" width="512" xmlns="http://www.w3.org/2000/svg" data-name="Layer 1"><path d="m344.97 469.51h119.24v26.49h-119.24z" fill="#4f6b79"/><path d="m434.07 125.02h21.1v47.89h-21.1z" fill="#aebecc"/><path d="m413.78 125.02h20.29v47.89h-20.29z" fill="#a2b0ba"/><path d="m393.5 125.02h20.28v47.89h-20.28z" fill="#aebecc"/><path d="m373.21 125.02h20.29v47.89h-20.29z" fill="#a2b0ba"/><path d="m354.01 125.02h19.2v47.89h-19.2z" fill="#aebecc"/><path d="m47.79 469.51h119.24v26.49h-119.24z" fill="#4f6b79"/><path d="m136.89 125.02h21.1v47.89h-21.1z" fill="#aebecc"/><path d="m116.61 125.02h20.28v47.89h-20.28z" fill="#a2b0ba"/><path d="m96.32 125.02h20.29v47.89h-20.29z" fill="#aebecc"/><path d="m76.04 125.02h20.28v47.89h-20.28z" fill="#a2b0ba"/><path d="m56.83 125.02h19.21v47.89h-19.21z" fill="#aebecc"/><path d="m385.92 49.85v31.53h37.24.1v-31.53z" fill="#4f6b79"/><path d="m88.74 81.38h37.24.1v-31.53h-37.34z" fill="#4f6b79"/><path d="m268.19 202.11h76.78v29.81h-76.78z" fill="#aba9b0"/><path d="m242.88 202.11h25.31v29.81h-25.31z" fill="#708696"/><path d="m167.03 202.11h75.85v29.81h-75.85z" fill="#aba9b0"/><path d="m423.26 81.38h-.1v43.64h19.08v-43.64z" fill="#708696"/><path d="m417.1 172.91h25.02v296.6h-25.02z" fill="#708696"/><path d="m385.63 81.38v43.64h18.76v-43.64h-18.47z" fill="#708696"/><path d="m367.06 172.91h25.02v296.6h-25.02z" fill="#708696"/><path d="m125.98 81.38v43.64h19.09v-43.64h-18.99z" fill="#708696"/><path d="m119.92 172.91h25.02v296.6h-25.02z" fill="#708696"/><path d="m88.45 81.38v43.64h18.77v-43.64h-18.48z" fill="#708696"/><path d="m69.88 172.91h25.02v296.6h-25.02z" fill="#708696"/><g fill="#90a4ae"><path d="m442.12 172.91h22.09v296.6h-22.09z"/><path d="m404.39 81.38h18.77v43.64h-18.77z"/><path d="m392.08 172.91h25.02v296.6h-25.02z"/><path d="m366.93 81.38h18.7v43.64h-18.7z"/><path d="m344.97 172.91h22.09v296.6h-22.09z"/><path d="m144.94 172.91h22.09v296.6h-22.09z"/><path d="m107.22 81.38h18.76v43.64h-18.76z"/><path d="m94.9 172.91h25.02v296.6h-25.02z"/><path d="m69.76 81.38h18.69v43.64h-18.69z"/><path d="m47.79 172.91h22.09v296.6h-22.09z"/></g><path d="m47.79 469.51h17v26.49h-17z" fill="#6d8c99"/><path d="m56.83 125.02h17v47.89h-17z" fill="#c9d7e2"/><path d="m88.74 49.85h17v31.53h-17z" fill="#6d8c99"/><path d="m69.76 81.38h17v43.64h-17z" fill="#b2c5cc"/><path d="m47.79 172.91h17v296.6h-17z" fill="#b2c5cc"/><path d="m464.206 167.911h-4.037v-42.893a5 5 0 0 0 -5-5h-7.928v-38.636a5 5 0 0 0 -5-5h-13.985v-26.533a5 5 0 0 0 -5-5h-13.668v-28.849a5 5 0 0 0 -10 0v28.849h-13.668a5 5 0 0 0 -5 5v26.533h-13.986a5 5 0 0 0 -5 5v38.636h-7.927a5 5 0 0 0 -5 5v42.893h-4.038a5 5 0 0 0 -5 5v24.2h-167.938v-24.2a5 5 0 0 0 -5-5h-4.038v-42.893a5 5 0 0 0 -5-5h-7.927v-38.636a5 5 0 0 0 -5-5h-13.986v-26.533a5 5 0 0 0 -5-5h-13.668v-28.849a5 5 0 0 0 -10 0v28.849h-13.668a5 5 0 0 0 -5 5v26.533h-13.985a5 5 0 0 0 -5 5v38.636h-7.928a5 5 0 0 0 -5 5v42.893h-4.037a5 5 0 0 0 -5 5v323.089a5 5 0 0 0 5 5h119.237a5 5 0 0 0 5-5v-176.773l77.933-82.3h11.136l78.866 82.321v176.752a5 5 0 0 0 5 5h119.24a5 5 0 0 0 5-5v-323.089a5 5 0 0 0 -5-5zm-322.313-37.893h11.1v37.893h-11.1zm-10.913-43.636h9.086v33.636h-9.086zm-9.373 43.636h10.286v37.893h-10.286zm18.332 47.893v286.6h-15.018v-286.6zm-46.195-123.062h27.336v21.533h-27.336zm21.177 123.062v286.6h-15.021v-286.6zm-13.6-10v-37.893h10.285v37.893zm10.895-47.893v-33.636h8.763v33.636zm-18.763-33.636h8.764v33.636h-8.764zm-2.131 43.636v37.893h-10.284v-37.893zm-1.422 47.893v286.6h-15.015v-286.6zm-15.141-91.529h8.694v33.636h-8.694zm-12.928 43.636h9.207v37.893h-9.207zm-9.037 47.893h12.091v286.6h-12.091zm109.237 313.089h-109.237v-16.492h109.237zm0-26.492h-12.092v-286.6h12.092zm10-159.826v-67.76h64.161zm65.845-77.76h-65.845v-19.808h65.845zm25.319 0h-15.319v-19.808h15.324zm76.774 77.866-65.017-67.866h65.017zm0-77.866h-66.769v-19.808h66.774zm99.1-96.9h11.1v37.893h-11.1zm-10.913-43.64h9.085v33.636h-9.085zm-9.373 43.636h10.285v37.893h-10.285zm18.332 47.893v286.6h-15.015v-286.6zm-46.195-123.062h27.336v21.533h-27.336zm21.18 123.062v286.6h-15.021v-286.6zm-13.6-10v-37.893h10.285v37.893zm10.895-47.893v-33.636h8.763v33.636zm-18.766-33.636h8.764v33.636h-8.764zm-2.129 43.636v37.893h-10.287v-37.893zm-1.419 47.893v286.6h-15.02v-286.6zm-15.147-91.529h8.695v33.636h-8.695zm-12.927 43.636h9.206v37.893h-9.206zm-9.038 47.893h12.092v286.6h-12.092zm109.237 313.089h-109.237v-16.492h109.237zm0-26.492h-12.091v-286.6h12.091z" fill="#284268"/></svg>