<svg id="Layer_1" height="512" viewBox="0 0 512 512" width="512" xmlns="http://www.w3.org/2000/svg" data-name="Layer 1"><g fill="#c79a83"><path d="m189.66 474.27h132.68v21.73h-132.68z"/><path d="m204.46 398.84h103.08v21.19h-103.08z"/><path d="m204.46 319.73h103.08v21.19h-103.08z"/><path d="m291.39 83.66-69.01.9-.01.01-17.47 23.7 102.22.02z"/></g><path d="m258.04 16.78a1.438 1.438 0 0 0 -2.55-.01l-31.85 51.25 66.04.55z" fill="#e1b7a3"/><path d="m307.12 108.29a5.436 5.436 0 0 1 1.29 3.54v36.34h-34.75v-41.82h29.26a5.51 5.51 0 0 1 4.2 1.94z" fill="#e1b7a3"/><path d="m237.77 106.35h35.89v41.82h-35.89z" fill="#b57768"/><path d="m204.9 108.27a5.484 5.484 0 0 1 4.18-1.92h28.69v41.82h-34.18v-36.34a5.433 5.433 0 0 1 1.31-3.56z" fill="#e1b7a3"/><rect fill="#c79a83" height="112.07" rx="3.95" width="117.82" x="197.09" y="148.17"/><path d="m275.79 420.03h31.75v54.24h-31.75z" fill="#e1b7a3"/><path d="m273.78 340.92h33.76v57.92h-33.76z" fill="#e1b7a3"/><path d="m273.78 260.24h33.76v59.49h-33.76z" fill="#e1b7a3"/><path d="m239.89 420.03h35.9v54.24h-35.9z" fill="#b57768"/><path d="m237.89 340.92h35.89v57.92h-35.89z" fill="#b57768"/><path d="m237.89 260.24h35.89v59.49h-35.89z" fill="#b57768"/><path d="m204.46 420.03h35.43v54.24h-35.43z" fill="#e1b7a3"/><path d="m204.46 340.92h33.43v57.92h-33.43z" fill="#e1b7a3"/><path d="m204.46 260.24h33.43v59.49h-33.43z" fill="#e1b7a3"/><path d="m189.66 474.27h26v21.73h-26z" fill="#ad8473"/><path d="m204.46 398.84h26v21.19h-26z" fill="#ad8473"/><path d="m204.46 319.73h26v21.19h-26z" fill="#ad8473"/><path d="m222.38 84.56-.01.01-17.47 23.7h26l17.47-23.7.01-.01z" fill="#ad8473"/><path d="m258.04 16.78a1.438 1.438 0 0 0 -2.55-.01l-31.85 51.25h26l20.022-32.22z" fill="#c9a495"/><path d="m201.04 260.24h26a3.952 3.952 0 0 1 -3.95-3.95v-104.17a3.952 3.952 0 0 1 3.95-3.95h-26a3.952 3.952 0 0 0 -3.95 3.95v104.17a3.952 3.952 0 0 0 3.95 3.95z" fill="#ad8473"/><path d="m229.59 111.83a5.473 5.473 0 0 1 5.49-5.48h-26a5.473 5.473 0 0 0 -5.49 5.48v36.34h26z" fill="#c9a495"/><path d="m204.46 420.03h26v54.24h-26z" fill="#c9a495"/><path d="m204.46 340.92h26v57.92h-26z" fill="#c9a495"/><path d="m204.46 260.24h26v59.49h-26z" fill="#c9a495"/><path d="m289.68 68.57a6.226 6.226 0 0 0 -4.28-1.69h-58.16a6.277 6.277 0 0 0 -6.27 6.28v7.69a5.657 5.657 0 0 0 5.63 5.63h60.7a4.365 4.365 0 0 0 4.09-2.82v-.01a4.174 4.174 0 0 0 .29-1.54v-8.95a6.249 6.249 0 0 0 -2-4.59z" fill="#b57768"/><path d="m248.38 84.56a5.565 5.565 0 0 1 -1.41-3.71v-7.69a6.277 6.277 0 0 1 6.27-6.28h-26a6.277 6.277 0 0 0 -6.27 6.28v7.69a5.657 5.657 0 0 0 5.63 5.63h26a5.553 5.553 0 0 1 -4.22-1.92z" fill="#9b655a"/><path d="m294.82 165.35v77.71h-77.64v-77.71z" fill="#8e6d65"/><path d="m256 179.31a24.9 24.9 0 1 1 -24.87 24.89 24.875 24.875 0 0 1 24.87-24.89z" fill="#e2e4ed"/><path d="m189.663 501h132.674a5 5 0 0 0 5-5v-21.729a5 5 0 0 0 -5-5h-9.8v-204.183a8.956 8.956 0 0 0 7.371-8.8v-104.166a8.959 8.959 0 0 0 -6.5-8.6v-31.688a10.426 10.426 0 0 0 -2.093-6.262l-14.662-22.972c.009-.163.025-.324.025-.49v-8.952a11.219 11.219 0 0 0 -3-7.628l-31.304-51.254a6.417 6.417 0 0 0 -5.574-3.276 6.339 6.339 0 0 0 -5.614 3.224l-31.355 50.457a11.241 11.241 0 0 0 -3.865 8.477v7.691a10.556 10.556 0 0 0 .523 3.279l-15.653 21.233h.007a10.429 10.429 0 0 0 -2.248 6.468v31.688a8.959 8.959 0 0 0 -6.5 8.6v104.171a8.956 8.956 0 0 0 7.371 8.8v204.183h-9.8a5 5 0 0 0 -5 5v21.729a5 5 0 0 0 4.997 5zm113.737-389.166v31.339h-24.736v-31.826h24.26a.484.484 0 0 1 .476.487zm-46.665-87.6 23 37.647h-46.392zm-30.769 48.924a1.276 1.276 0 0 1 1.274-1.275h58.16a1.276 1.276 0 0 1 1.274 1.275v8.323h-60.074a.632.632 0 0 1 -.632-.632zm-2.186 17.932a10.571 10.571 0 0 0 2.818.391h60.702a9.316 9.316 0 0 0 2.867-.452l6.583 10.318h-80.532zm44.884 20.257v31.826h-25.9v-31.826zm-60.069.487a.484.484 0 0 1 .481-.487h23.689v31.826h-24.165zm-6.5 41.339h107.812v102.063h-107.814zm7.371 261.86v-11.189h93.072v11.189zm93.072 10v44.238h-21.745v-44.238zm-31.743 0v44.238h-25.895v-44.238zm-35.9 0v44.238h-25.431v-44.238zm-25.431-31.189v-47.927h23.422v47.927zm33.422 0v-47.927h25.9v47.927zm35.9 0v-47.927h23.751v47.927zm-69.321-57.927v-11.189h93.072v11.189zm0-21.189v-49.492h23.422v49.492zm33.422 0v-49.492h25.9v49.492zm35.9 0v-49.492h23.751v49.492zm-84.124 164.543h122.674v11.729h-122.674z" fill="#284268"/><path d="m294.817 160.352h-77.634a5 5 0 0 0 -5 5v77.706a5 5 0 0 0 5 5h77.634a5 5 0 0 0 5-5v-77.706a5 5 0 0 0 -5-5zm-5 77.706h-67.634v-67.706h67.634z" fill="#284268"/><path d="m256 234.1a29.9 29.9 0 1 0 -29.874-29.9 29.919 29.919 0 0 0 29.874 29.9zm0-49.8a19.9 19.9 0 1 1 -19.874 19.9 19.908 19.908 0 0 1 19.874-19.893z" fill="#284268"/><path d="m255.25 212.8h9.6a5 5 0 0 0 0-10h-4.6v-7.317a5 5 0 0 0 -10 0v12.317a5 5 0 0 0 5 5z" fill="#284268"/></svg>