<svg id="Layer_1" height="512" viewBox="0 0 512 512" width="512" xmlns="http://www.w3.org/2000/svg" data-name="Layer 1"><path d="m269.95 48.3 31.318 4.544-88.271 1.282 29.583-7.646-30.41-26.1v86.2h9.29 3 65.6 3 8.73v-87.08z" fill="#4a5160"/><path d="m56.94 135.46h401.31v50.27h-401.31z" fill="#c79a83"/><path d="m55.35 215.74h401.3v26.65h-401.3z" fill="#c79a83"/><path d="m465.22 437.71h-420.42a4 4 0 0 0 -4 4v24.66h428.42v-24.66a4.005 4.005 0 0 0 -4-4z" fill="#aba9b0"/><path d="m491.04 466.37h-470.08a4 4 0 0 0 -4 4v22.13h478.08v-22.13a4 4 0 0 0 -4-4z" fill="#98979b"/><path d="m301.79 52.92v.42l-25.15 22.89 16.42 30.35-35.88-16.69-35.72 16.69 15.04-33.39-24.33-18.85 30.41-7.86 15.02-26.1 12.35 27.92z" fill="#e75163"/><path d="m201.22 106.58h111.91v28.88h-111.91z" fill="#98979b"/><path d="m227 149.96h53.66v22.4h-53.66z" fill="#b57768"/><g fill="#e1b7a3"><path d="m26.07 185.73 13 30.01h435.49l11.37-30.01z"/><path d="m55.35 242.39h39.35v195.32h-39.35z"/><path d="m172.18 242.39h39.73v195.32h-39.73z"/><path d="m294.36 242.39h39.73v195.32h-39.73z"/><path d="m415.55 242.39h41.1v195.32h-41.1z"/></g><path d="m56.94 135.46h30v50.27h-30z" fill="#aa816f"/><path d="m55.35 215.74h30v26.65h-30z" fill="#aa816f"/><path d="m74.8 437.71h-30a4 4 0 0 0 -4 4v24.66h30v-24.66a4 4 0 0 1 4-4z" fill="#8e8d93"/><path d="m50.96 466.37h-30a4 4 0 0 0 -4 4v22.13h30v-22.13a4 4 0 0 1 4-4z" fill="#7d7d7f"/><path d="m69.07 215.74-13-30.01h-30l13 30.01z" fill="#bf998a"/><path d="m55.35 242.39h30v195.32h-30z" fill="#bf998a"/><path d="m201.22 106.58h30v28.88h-30z" fill="#7d7d7f"/><path d="m491.042 461.373h-16.827v-19.665a9.01 9.01 0 0 0 -9-9h-3.561v-211.969h12.9a5 5 0 0 0 4.675-3.228l11.375-30a5 5 0 0 0 -4.676-6.772h-22.677v-45.281a5 5 0 0 0 -5-5h-140.117v-23.877a5 5 0 0 0 -5-5h-6.345v-46.655a5 5 0 0 0 .177-3.41 4.8 4.8 0 0 0 -.177-.46v-31.556a5 5 0 0 0 -8.355-3.708l-26.71 24.163-9.554-21.6a5 5 0 0 0 -8.907-.47l-12.007 20.872-25.831-22.172a5 5 0 0 0 -8.257 3.794v81.2h-5.948a5 5 0 0 0 -5 5v23.877h-139.276a5 5 0 0 0 -5 5v45.277h-25.874a5 5 0 0 0 -4.588 6.988l13 30a5 5 0 0 0 4.588 3.012h11.276v211.975h-5.546a9.01 9.01 0 0 0 -9 9v19.665h-14.842a9.01 9.01 0 0 0 -9 9v22.127a5 5 0 0 0 5 5h478.084a5 5 0 0 0 5-5v-22.127a9.01 9.01 0 0 0 -9-9zm-194.253-430.607v16.378l-15.6-2.263zm-52.958 20.557a5.007 5.007 0 0 0 3.083-2.348l10.1-17.556 8.363 18.907a5 5 0 0 0 3.855 2.925l21.758 3.157-17.715 16.122a5 5 0 0 0 -1.033 6.077l9.236 17.07-22.192-10.324a5 5 0 0 0 -4.226 0l-23.5 10.986 9.5-21.1a5 5 0 0 0 -1.5-6.005l-16.272-12.601zm52.958 13.329v36.929h-.747l-13.142-24.289zm-26.329 36.929h-26.492l13.214-6.181zm-53.292-70.321 14.888 12.778-14.888 3.848zm0 33.282 13.153 10.19-12.09 26.849h-1.063zm-10.948 47.039h101.914v18.877h-101.914zm-144.276 28.877h391.307v40.277h-391.307zm-19.592 70.281-8.667-20h445l-7.584 20zm17.994 26.648v-16.648h391.308v16.648zm391.308 10v185.321h-31.108v-185.321zm-41.108 0v185.321h-71.453v-185.321zm-81.453 0v185.321h-29.734v-185.321zm-39.734 0v185.321h-72.447v-185.321zm-82.447 0v185.321h-29.733v-185.321zm-39.733 0v185.321h-67.479v-185.321zm-77.481 0v185.321h-29.352v-185.321zm-43.898 195.321h418.415v18.665h-418.415zm444.242 44.792h-468.084v-16.127h468.084z" fill="#284268"/><path d="m436.06 155.99h-150.4v-6.034a5 5 0 0 0 -5-5h-53.66a5 5 0 0 0 -5 5v6.034h-146.06a5 5 0 0 0 0 10h146.06v6.371a5 5 0 0 0 5 5h53.661a5 5 0 0 0 5-5v-6.371h150.4a5 5 0 0 0 0-10zm-160.4 11.371h-43.66v-12.4h43.661z" fill="#284268"/></svg>