<svg id="Layer_1" height="512" viewBox="0 0 512 512" width="512" xmlns="http://www.w3.org/2000/svg" data-name="Layer 1"><path d="m494.02 169.96h-476.04a1.982 1.982 0 0 0 -1.49 3.28l16.94 19.52h445.14l16.94-19.52a1.982 1.982 0 0 0 -1.49-3.28z" fill="#aba9b0"/><path d="m24.15 465.48h465.84v23.02h-465.84z" fill="#999daa"/><path d="m33.43 192.76h445.14v35.67h-445.14z" fill="#c3c2c6"/><path d="m494.02 90.9h-476.04a1.975 1.975 0 0 0 -1.49 3.27l15.84 19.52h444.15l19.03-19.52a1.975 1.975 0 0 0 -1.49-3.27z" fill="#c3c2c6"/><path d="m171.92 90.9h168.16v79.06h-168.16z" fill="#878c96"/><path d="m190.98 108.63h129.15v44.75h-129.15z" fill="#999daa"/><path d="m321.71 56.13a5.792 5.792 0 0 0 -3.62-1.28h-125.14a5.726 5.726 0 0 0 -3.53 1.22l-44.77 34.83h220.14z" fill="#aba9b0"/><path d="m449.11 113.69h27.37v56.27h-27.37z" fill="#b0b5ca"/><path d="m421.74 113.69h27.37v56.27h-27.37z" fill="#999daa"/><path d="m394.36 113.69h27.38v56.27h-27.38z" fill="#b0b5ca"/><path d="m366.99 113.69h27.37v56.27h-27.37z" fill="#999daa"/><path d="m340.08 113.69h26.91v56.27h-26.91z" fill="#b0b5ca"/><path d="m144.4 113.69h27.52v56.27h-27.52z" fill="#b0b5ca"/><path d="m116.38 113.69h28.02v56.27h-28.02z" fill="#999daa"/><path d="m88.36 113.69h28.02v56.27h-28.02z" fill="#b0b5ca"/><path d="m60.34 113.69h28.02v56.27h-28.02z" fill="#999daa"/><path d="m32.33 113.69h28.01v56.27h-28.01z" fill="#b0b5ca"/><path d="m472.07 440.94h-50.28a3.841 3.841 0 0 0 -3.84 3.84v20.7h57.96v-20.7a3.841 3.841 0 0 0 -3.84-3.84z" fill="#c3c2c6"/><path d="m376.61 440.94h-50.29a3.841 3.841 0 0 0 -3.84 3.84v20.7h57.97v-20.7a3.841 3.841 0 0 0 -3.84-3.84z" fill="#c3c2c6"/><path d="m281.14 440.94h-50.28a3.841 3.841 0 0 0 -3.84 3.84v20.7h57.96v-20.7a3.841 3.841 0 0 0 -3.84-3.84z" fill="#c3c2c6"/><path d="m185.68 440.94h-50.29a3.841 3.841 0 0 0 -3.84 3.84v20.7h57.97v-20.7a3.841 3.841 0 0 0 -3.84-3.84z" fill="#c3c2c6"/><path d="m90.21 440.94h-50.28a3.841 3.841 0 0 0 -3.84 3.84v20.7h57.96v-20.7a3.841 3.841 0 0 0 -3.84-3.84z" fill="#c3c2c6"/><g fill="#aba9b0"><path d="m432.09 228.43h29.68v212.51h-29.68z"/><path d="m336.63 228.43h29.67v212.51h-29.67z"/><path d="m241.16 228.43h29.68v212.51h-29.68z"/><path d="m146.66 228.43h29.67v212.51h-29.67z"/><path d="m50.23 228.43h29.68v212.51h-29.68z"/></g><path d="m33.43 192.76h30v35.67h-30z" fill="#a9a9aa"/><path d="m47.98 90.9h-30a1.975 1.975 0 0 0 -1.49 3.27l15.84 19.52h30l-15.84-19.52a1.975 1.975 0 0 1 1.49-3.27z" fill="#a9a9aa"/><path d="m47.98 169.96h-30a1.982 1.982 0 0 0 -1.49 3.28l16.94 19.52h30l-16.94-19.52a1.982 1.982 0 0 1 1.49-3.28z" fill="#939296"/><path d="m24.15 465.48h30v23.02h-30z" fill="#7d8089"/><path d="m219.42 56.07a5.726 5.726 0 0 1 3.53-1.22h-30a5.726 5.726 0 0 0 -3.53 1.22l-44.77 34.83h30z" fill="#939296"/><path d="m32.33 113.69h26v56.27h-26z" fill="#999dad"/><path d="m190.977 158.379h129.152a5 5 0 0 0 5-5v-44.745a5 5 0 0 0 -5-5h-129.152a5 5 0 0 0 -5 5v44.745a5 5 0 0 0 5 5zm5-44.745h119.152v34.745h-119.152z" fill="#284268"/><path d="m17.982 164.964a6.976 6.976 0 0 0 -5.27 11.549l15.72 18.111v33.8a5 5 0 0 0 5 5h11.8v202.52h-5.3a8.849 8.849 0 0 0 -8.841 8.836v15.7h-6.937a5 5 0 0 0 -5 5v23.02a5 5 0 0 0 5 5h465.834a5 5 0 0 0 5-5v-23.02a5 5 0 0 0 -5-5h-9.078v-15.7a8.849 8.849 0 0 0 -8.841-8.836h-5.3v-202.516h11.8a5 5 0 0 0 5-5v-33.8l15.721-18.111a6.977 6.977 0 0 0 -5.271-11.549h-12.543v-49.245l17.617-18.064c.067-.069.133-.14.2-.214a6.976 6.976 0 0 0 -5.275-11.545h-127.462l-41.7-33.657a10.8 10.8 0 0 0 -6.757-2.385h-56.437v-26.358a5 5 0 0 0 -10 0v26.355h-58.707a10.814 10.814 0 0 0 -6.609 2.268l-43.415 33.777h-124.949a6.977 6.977 0 0 0 -5.341 11.467l14.687 18.1v49.5zm23.108 280.98h47.964v14.539h-47.964zm14.143-10v-202.516h19.676v202.516zm129.285 10v14.539h-47.963v-14.539zm-32.86-10v-202.516h19.676v202.516zm128.323 10v14.539h-47.962v-14.539zm-33.819-10v-202.516h19.676v202.516zm129.283 10v14.539h-47.963v-14.539zm-33.819-10v-202.516h19.674v202.516zm34.979 0h-5.3v-202.516h55.789v202.516h-5.3a8.849 8.849 0 0 0 -8.841 8.836v15.7h-27.5v-15.7a8.848 8.848 0 0 0 -8.848-8.836zm-44.979 0h-5.3a8.848 8.848 0 0 0 -8.84 8.836v15.7h-27.5v-15.7a8.848 8.848 0 0 0 -8.839-8.836h-5.3v-202.516h55.788zm-95.464 0h-5.3a8.848 8.848 0 0 0 -8.839 8.836v15.7h-27.5v-15.7a8.848 8.848 0 0 0 -8.84-8.836h-4.344v-202.516h54.828zm-94.5 0h-6.262a8.848 8.848 0 0 0 -8.84 8.836v15.7h-27.5v-15.7a8.849 8.849 0 0 0 -8.841-8.836h-5.3v-202.516h56.749zm343.33 34.539v13.017h-455.838v-13.02zm-14.082-24.539v14.539h-47.964v-14.539zm-33.819-10v-202.516h19.676v202.516zm36.477-212.516h-435.136v-25.672h435.136zm13.275-127.528-12.475 12.792h-129.287v-12.792zm-15.367 22.792v46.275h-17.371v-46.278zm-27.371 0v46.275h-17.37v-46.278zm-27.37 0v46.275h-17.37v-46.278zm-27.37 0v46.275h-17.365v-46.278zm-27.37 0v46.275h-16.914v-46.278zm-169.51-58.676a.768.768 0 0 1 .47-.161h125.139a.771.771 0 0 1 .479.169l32.06 25.876h-191.416zm142.596 35.884v69.067h-158.162v-69.067zm-310.752 0h142.59v12.792h-132.209zm142.59 22.792v46.275h-17.519v-46.278zm-27.523 0v46.275h-18.017v-46.278zm-28.017 0v46.275h-18.018v-46.278zm-28.018 0v46.275h-18.016v-46.278zm-28.016 0v46.275h-18.017v-46.278zm432.047 56.275-11.105 12.792h-440.574l-11.1-12.792z" fill="#284268"/></svg>