<svg id="Layer_1" height="512" viewBox="0 0 512 512" width="512" xmlns="http://www.w3.org/2000/svg" data-name="Layer 1"><path d="m389.57 424.77q1.965 23.775 1.58 49.51h-252.41z" fill="#65cef8"/><path d="m389.57 424.77-250.83 49.51h-7.14l-.69-55.85h258.1q.3 3.15.56 6.34z" fill="#8dd4ef"/><path d="m389.01 418.43h-250.27l240.04-61.55a441.664 441.664 0 0 1 10.23 61.55z" fill="#65cef8"/><path d="m378.78 356.88-240.04 61.55h-7.83l-.85-68.62h246.94q.915 3.51 1.78 7.07z" fill="#8dd4ef"/><path d="m377 349.81h-238.26l217.37-60.41a401.1 401.1 0 0 1 20.89 60.41z" fill="#65cef8"/><path d="m356.11 289.4-217.37 60.41h-8.68l-.85-68.63h223.18q1.89 4.065 3.72 8.22z" fill="#8dd4ef"/><path d="m352.39 281.18h-213.65l176.77-62.98a391.161 391.161 0 0 1 36.88 62.98z" fill="#65cef8"/><path d="m315.51 218.2-176.77 62.98h-9.53l-.86-68.63h183.02q2.085 2.79 4.14 5.65z" fill="#8dd4ef"/><path d="m311.37 212.55h-172.63l120.17-57.92v-.01a413.216 413.216 0 0 1 52.46 57.93z" fill="#65cef8"/><path d="m253.22 149.5h-125.65l.78 63.05h10.39l120.17-57.92v-.01c-1.9-1.74-3.79-3.44-5.69-5.12z" fill="#8dd4ef"/><path d="m253.22 149.5h-125.65l-.97-78.11s62.42 21.37 126.62 78.11z" fill="#65cef8"/><path d="m92.89 474.28h349.19v21.72h-349.19z" fill="#aba9b0"/><path d="m125.92 16.3-15.97-.3v458.28h21.65z" fill="#c3c2c6"/><path d="m328.46 177.92c-8.11-10.1-16.47-19.57-24.96-28.42-82.63-86.21-177.35-114.96-177.35-114.96l.45 36.85s62.42 21.37 126.62 78.11c1.9 1.68 3.79 3.38 5.69 5.12a413.216 413.216 0 0 1 52.46 57.93q2.085 2.79 4.14 5.65a391.161 391.161 0 0 1 36.88 62.98q1.89 4.065 3.72 8.22a401.1 401.1 0 0 1 20.89 60.41q.915 3.51 1.78 7.07a441.664 441.664 0 0 1 10.23 61.55q.3 3.15.56 6.34 1.965 23.775 1.58 49.51h32.89c1.86-133.29-41.44-229-95.58-296.36z" fill="#cccedd"/><path d="m363.9 149.5h-60.4l24.96 28.42c24.18-8.48 33.75-20.46 36.96-25.74a1.768 1.768 0 0 0 -1.52-2.68z" fill="#b0b5ca"/><path d="m94.13 149.5a14.21 14.21 0 0 0 0 28.42h33.79l-.35-28.42z" fill="#b0b5ca"/><g fill="#83c3d6"><path d="m138.74 349.81h-8.67-.01l.85 68.62h.01 7.82l22.1-5.667-.78-62.953z"/><path d="m138.74 418.43h-7.82-.01l.69 55.85h7.14l22.804-4.501-.634-51.349z"/><path d="m159.987 343.905-.777-62.725h-20.47-9.53l.85 68.63h.01 8.67z"/><path d="m138.74 212.55h-10.38-.01l.86 68.63h9.53l20.379-7.261-.769-61.369z"/><path d="m127.57 149.5.78 63.05h.01 10.38l19.494-9.396-.664-53.654z"/></g><path d="m126.6 71.39.97 78.11h30l-.807-64.963c-18.463-9.137-30.163-13.147-30.163-13.147z" fill="#5ebfdd"/><path d="m94.126 182.918h10.824v286.359h-12.064a5 5 0 0 0 -5 5v21.723a5 5 0 0 0 5 5h349.19a5 5 0 0 0 5-5v-21.723a5 5 0 0 0 -5-5h-13c.423-78.145-14.711-149.66-45.028-212.629a424.085 424.085 0 0 0 -47.448-76.494c20.415-8.515 29.43-19.346 33.094-25.378a6.763 6.763 0 0 0 -5.794-10.276h-58.284q-12.138-12.543-25.388-24.282c-65.928-58.353-133.249-83.818-149.128-89.296l-.182-14.687a5 5 0 0 0 -4.907-4.937l-15.97-.3a5 5 0 0 0 -5.093 5l.1 128.5h-10.922a19.208 19.208 0 0 0 0 38.415zm263.309-28.418c-4.467 4.993-12.74 11.845-27.35 17.487q-7.285-8.913-15.078-17.487zm-56.083 0a417.351 417.351 0 0 1 73.684 106.483c29.659 61.6 44.46 131.657 44.037 208.291h-22.873c.487-69.648-12.851-133.918-39.687-191.1-21.644-46.116-52.066-87.7-90.407-123.678zm-53.692 0-110.06 53.054h-4.308l-.658-53.051zm-115.148-10-.812-65.805c16.464 6.678 60.956 26.815 107.98 65.808zm125.505 16.109a410.028 410.028 0 0 1 43.218 46.942h-140.6zm44.414 56.942-164.552 58.628h-3.733l-.728-58.625zm11.186 6.63a387.019 387.019 0 0 1 30.818 51.995h-176.76zm35.418 61.995-210.973 58.629h-3.062l-.727-58.626zm4.208 9.21a395.621 395.621 0 0 1 17.211 49.416h-195.043zm13.508 59.416-228.639 58.629h-2.264l-.727-58.626zm8.29 8.2a438.748 438.748 0 0 1 8.411 50.428h-205.078zm-4.5 60.428-232.286 45.847h-1.713l-.569-45.846zm14.459 7.34q1.339 18.951 1.2 38.507h-196.3zm-111.4-303.061q9.253 8.19 17.948 16.794h-36.437c-56.018-49.123-109.723-71.4-123.55-76.631l-.327-26.3c19.818 7.168 81.549 32.309 142.366 86.137zm163.476 351.568v11.723h-339.19v-11.723zm-310.536-10h-11.59v-286.359h8.037zm-5.56-448.071 1.53 123.3h-7.459l-.1-123.409zm-26.854 133.294h28.508l.229 18.415h-28.737a9.208 9.208 0 0 1 0-18.415z" fill="#284268"/></svg>