<svg id="Layer_1" height="512" viewBox="0 0 512 512" width="512" xmlns="http://www.w3.org/2000/svg" data-name="Layer 1"><path d="m309.06 176.34 14.43 27.96-18.07-11.55-17.41 14.94-23.57-14.94-20.78 14.94-20.15-14.94-30.33 17.73 18.81-34.14z" fill="#ebb058"/><path d="m262.11 85.38 14.63 28.34h-30.24z" fill="#ebb058"/><path d="m276.74 113.72 10.77 20.87h-52.51l11.5-20.87z" fill="#71a173"/><path d="m287.51 134.59 10.78 20.88h-74.8l11.51-20.88z" fill="#ebb058"/><path d="m298.29 155.47 10.77 20.87h-97.07l11.5-20.87z" fill="#71a173"/><path d="m399.03 259.95h-.01a51.3 51.3 0 0 1 -7.13 18.29c-1.11 1.79-1.89 2.8-1.89 2.8l-64.49 130.82h-137.56v27.76h-118.17l.1-22.92h-45.35v79.3h465.61v-236.05z" fill="#5893c6"/><path d="m488.4 118.32c10.28 22.85-7.11 47.78-7.11 47.78h-44.57s43.78-19.54 51.68-47.78z" fill="#49bdff"/><path d="m403.05 186.82h78.24v73.13h-78.24z" fill="#71a173"/><path d="m403.05 166.1h78.24v20.72h-78.24z" fill="#dc6333"/><path d="m477.04 103.76a40.73 40.73 0 0 1 11.36 14.56c-7.9 28.24-51.68 47.78-51.68 47.78h-33.67s57.74-22.19 73.99-62.34z" fill="#71a173"/><path d="m460.86 92.61c6.24 4.26 12.52 8.1 16.18 11.15-16.25 40.15-73.99 62.34-73.99 62.34a70.923 70.923 0 0 1 -10.25-19.7s46.4-13.82 68.06-53.79z" fill="#49bdff"/><path d="m447.86 82.34a90.205 90.205 0 0 0 13 10.27c-21.66 39.97-68.06 53.79-68.06 53.79a44.666 44.666 0 0 1 -2.16-19.74c.84-.34 41.1-16.59 57.22-44.32z" fill="#71a173"/><path d="m442 71.62c0 3.55 2.34 7.18 5.86 10.72-16.12 27.73-56.38 43.98-57.22 44.32 1.07-7.85 4.86-15.85 13.31-22.9 9.22-7.69 38.05-20.35 38.05-32.14z" fill="#49bdff"/><path d="m387.52 230.1c11.27 9.35 13.03 20.42 11.5 29.85l-57.32-39.97c8.29-5.24 16.3-11.15 16.3-16.83 0 9.89 21.75 20.5 29.52 26.95z" fill="#e75163"/><path d="m341.7 219.98 57.32 39.97a51.3 51.3 0 0 1 -7.13 18.29l-67.95-46.36c.63-.6 1.29-1.19 2-1.78a44.152 44.152 0 0 1 4.11-2.93h.01c1.22-.8 2.55-1.62 3.96-2.48v-.01c2.43-1.48 5.07-3.06 7.68-4.7z" fill="#b0b5ca"/><path d="m323.94 231.88 67.95 46.36c-1.11 1.79-1.89 2.8-1.89 2.8h-27.85l-47.41-31.62c.09-.78.22-1.55.38-2.33a28.851 28.851 0 0 1 8.82-15.21z" fill="#e75163"/><path d="m362.15 281.04h-36.64a55.728 55.728 0 0 1 -7.03-11.54c-2.55-5.61-4.63-12.73-3.74-20.08z" fill="#b0b5ca"/><path d="m334.02 224.68v.01c-1.41.86-2.74 1.68-3.96 2.48h-.01l-24.63-13.42-17.41 14.95-23.57-14.95-20.78 14.95-20.15-14.95-19.97 14.71-.88.29a58.781 58.781 0 0 0 -9.73-18.07l.25-.2 30.33-17.73 20.15 14.94 20.78-14.94 23.57 14.94 17.41-14.94 18.07 11.55z" fill="#49bdff"/><path d="m305.42 213.75 24.63 13.42a44.152 44.152 0 0 0 -4.11 2.93c-.71.59-1.37 1.18-2 1.78a28.851 28.851 0 0 0 -8.82 15.21h-109.13a68.144 68.144 0 0 0 -3.33-18.34l.88-.29 19.97-14.71 20.15 14.95 20.78-14.95 23.57 14.95z" fill="#ebb058"/><path d="m318.48 269.5h-114.23a147.516 147.516 0 0 1 -16.72 44.17l.42 98.19h137.56v-130.82a55.728 55.728 0 0 1 -7.03-11.54z" fill="#e75163"/><path d="m318.48 269.5h-114.23a94.393 94.393 0 0 0 1.74-22.41h109.13c-.16.78-.29 1.55-.38 2.33-.89 7.35 1.19 14.47 3.74 20.08z" fill="#71a173"/><path d="m279.8 66.08a17.537 17.537 0 1 1 -17.44-15.73c.59 0 1.19.03 1.79.09a17.582 17.582 0 0 1 15.65 15.64z" fill="#49bdff"/><path d="m187.63 337.25h-146.87v30.31l147.19 72.06z" fill="#4689d3"/><path d="m187.95 439.62h-118.17l.1-22.92h-29.12v-49.14z" fill="#4ca987"/><path d="m187.53 313.67h-146.77v23.58h146.87z" fill="#4ca987"/><path d="m463.86 450.14v45.86h-47.07v-45.86a23.535 23.535 0 0 1 47.07 0z" fill="#56568c"/><path d="m459.46 339.95v42.4h-42.67v-42.4a21.32 21.32 0 0 1 21.32-21.32h.03a21.32 21.32 0 0 1 21.32 21.32z" fill="#56568c"/><path d="m306.05 458.19h23.48v16.74h-23.48z" fill="#4e6cca"/><path d="m251.31 458.19h23.49v16.74h-23.49z" fill="#4e6cca"/><path d="m196.58 458.19h23.48v16.74h-23.48z" fill="#4e6cca"/><path d="m325.51 281.04h64.49v154.76h-64.49z" fill="#ebb058"/><path d="m370.56 405.82v29.98h-24.22v-29.98a12.11 12.11 0 0 1 24.22 0z" fill="#d8a43d"/><path d="m289.12 373.27v38.59h-61.57v-38.59a30.785 30.785 0 0 1 61.57 0z" fill="#ad2a34"/><path d="m204.25 269.5a147.516 147.516 0 0 1 -16.72 44.17h-25.91s41.91-75.35-27.91-143.62c15.1 10.74 35.69 20.64 45.65 27.8a66.963 66.963 0 0 1 13.57 12.83 58.781 58.781 0 0 1 9.73 18.07 68.144 68.144 0 0 1 3.33 18.34 94.393 94.393 0 0 1 -1.74 22.41z" fill="#4689d3"/><path d="m133.71 170.05c69.82 68.27 27.91 143.62 27.91 143.62h-39.64c40.58-29.39.4-140.38-5.03-160.58l.02-.01c2.66 5.7 8.98 11.44 16.74 16.97z" fill="#db6433"/><path d="m116.95 153.09c5.43 20.2 45.61 131.19 5.03 160.58h-14.78c-41.65-40.33-.48-143.07 7.16-161.27a11.735 11.735 0 0 0 1.21-5.01 13.142 13.142 0 0 0 1.4 5.69z" fill="#ebb058"/><path d="m107.2 313.67h-42.41s-43.4-82.41 28.25-142.11c10-6.2 18.32-12.71 21.32-19.16-7.64 18.2-48.81 120.94-7.16 161.27z" fill="#db6433"/><path d="m46.28 197.85c9.49-6.82 30.39-16.14 46.76-26.29-71.65 59.7-28.25 142.11-28.25 142.11h-24.03s-49.42-76.32 5.52-115.82z" fill="#4689d3"/><path d="m187.906 425.469.044 14.151v-14.129z" fill="none"/><path d="m24.53 416.7h28.86v79.3h-28.86z" fill="#4d7ea3"/><path d="m69.62 367.56v-30.31h-28.86v30.31l147.19 72.06-.044-14.151z" fill="#3f7cb2"/><path d="m40.76 367.56v49.14h28.86v-35.011z" fill="#40896b"/><path d="m40.76 313.67h28.86v23.58h-28.86z" fill="#40896b"/><g fill="#284268"><path d="m416.8 387.35h42.663a5 5 0 0 0 5-5v-42.4a26.332 26.332 0 0 0 -52.663 0v42.4a5 5 0 0 0 5 5zm5-47.4a16.332 16.332 0 0 1 32.663 0v37.4h-32.663z"/><path d="m220.061 453.191h-23.485a5 5 0 0 0 -5 5v16.737a5 5 0 0 0 5 5h23.485a5 5 0 0 0 5-5v-16.737a5 5 0 0 0 -5-5zm-5 16.737h-13.485v-6.737h13.485z"/><path d="m274.8 453.191h-23.488a5 5 0 0 0 -5 5v16.737a5 5 0 0 0 5 5h23.488a5 5 0 0 0 5-5v-16.737a5 5 0 0 0 -5-5zm-5 16.737h-13.488v-6.737h13.488z"/><path d="m329.532 453.191h-23.484a5 5 0 0 0 -5 5v16.737a5 5 0 0 0 5 5h23.484a5 5 0 0 0 5-5v-16.737a5 5 0 0 0 -5-5zm-5 16.737h-13.484v-6.737h13.484z"/><path d="m159.577 464.192h-69.277a5 5 0 0 0 0 10h69.275a5 5 0 0 0 0-10z"/><path d="m74.331 464.192h-16.331a5 5 0 0 0 0 10h16.331a5 5 0 1 0 0-10z"/><path d="m480.245 99.923a127.772 127.772 0 0 0 -10.71-7.534c-8.428-5.556-22.535-14.855-22.535-20.774a5 5 0 1 0 -10 0c0 5.51-15.368 14.888-23.625 19.927a115.481 115.481 0 0 0 -12.633 8.38c-13.973 11.652-18.6 27.5-13.372 45.818a75.634 75.634 0 0 0 10.675 22v66.3a41.851 41.851 0 0 0 -7.332-7.79 107.748 107.748 0 0 0 -9.092-6.365c-6.506-4.267-18.621-12.214-18.621-16.733a5 5 0 0 0 -10 0c0 3.664-10.234 10.313-17 14.473l-66.323-128.488a22.448 22.448 0 0 0 15.1-23.55 22.506 22.506 0 0 0 -17.422-19.66v-11.971h7.971a5 5 0 0 0 0-10h-7.971v-7.956a5 5 0 0 0 -10 0v7.956h-6.914a5 5 0 1 0 0 10h6.914v11.965a22.51 22.51 0 0 0 -2.921 43.033l-62.378 113.213a74.475 74.475 0 0 0 -9.775-8.373c-4.749-3.414-11.732-7.383-19.126-11.586-16.955-9.64-42.589-24.208-42.589-34.818a5 5 0 0 0 -10 0 7.438 7.438 0 0 1 -.767 3.1l-.054-.022-.313.751c-5.279 9.579-27.931 21.5-43.569 29.728-9.263 4.874-17.264 9.084-22.5 12.848-24.226 17.418-32.98 44.354-25.316 77.9a155.34 155.34 0 0 0 17.718 43.405v96.6h-11.237a5 5 0 0 0 -5 5v79.3a5 5 0 0 0 5 5h465.608a5 5 0 0 0 5-5v-236.046a5 5 0 0 0 -5-5h-3.842v-87.371a72.859 72.859 0 0 0 9.076-22.15c3.967-18.215-1.263-33.952-15.125-45.51zm-16.215.815c2.469 1.628 4.851 3.2 6.842 4.613-8.583 17.8-25.966 31.646-39.454 40.321a195.591 195.591 0 0 1 -26.606 14.272 67.174 67.174 0 0 1 -5.6-10.47c12.333-4.635 44.4-19.1 63.3-49.739q.762.504 1.518 1.003zm-55.983 81.078v-10.716h68.247v10.713zm68.247 10v63.138h-68.247v-63.138zm-69.146-84.216a113.357 113.357 0 0 1 11.439-7.525c7.9-4.821 16.421-10.023 22.051-15.778-11.051 15.5-29.932 26.9-41.608 32.908a34.14 34.14 0 0 1 8.118-9.605zm-10.988 32.3a37.757 37.757 0 0 1 -.815-9.805c9.188-4.06 37.827-17.994 53.521-40.108 1.7 1.4 3.511 2.766 5.374 4.1-16.904 27.65-46.54 41.335-58.08 45.813zm-38.37 74.059c4.573 5.254 11.731 9.949 18.349 14.29 3.245 2.129 6.309 4.139 8.191 5.7 6.188 5.135 9 10.9 9.852 16.531l-43.615-30.412a51.268 51.268 0 0 0 7.223-6.11zm-19.116 13.75c.947-.575 1.905-1.157 2.865-1.746l51.961 36.231a44.02 44.02 0 0 1 -3.283 8.851l-57.81-39.44c1.829-1.2 4.006-2.524 6.267-3.897zm19.774 161.017a17.124 17.124 0 0 0 -17.111 17.1v24.974h-10.83v-144.762h54.493v144.762h-9.444v-24.978a17.124 17.124 0 0 0 -17.108-17.097zm7.111 17.1v24.974h-14.222v-24.978a7.111 7.111 0 0 1 14.222 0zm-107.227-68.3a35.805 35.805 0 0 0 -35.782 35.747v33.584h-29.624l-.393-91.832a154.115 154.115 0 0 0 15.784-40.525h107.045a62.9 62.9 0 0 0 5.145 8.248v124.11h-26.392v-33.584a35.806 35.806 0 0 0 -35.783-35.747zm25.783 35.747v33.584h-51.565v-33.583a25.783 25.783 0 0 1 51.565 0zm27.215-131.185h-100.73a73.081 73.081 0 0 0 -2.078-11.1l14.97-11.026 17.188 12.748a5 5 0 0 0 5.9.043l18.033-12.975 20.711 13.138a5 5 0 0 0 5.936-.428l14.8-12.7 14.847 8.085a34.948 34.948 0 0 0 -9.577 14.215zm13.34-3.656 55.119 37.606h-16.121l-43.427-28.96a22.821 22.821 0 0 1 4.429-8.646zm-13.39 26.068h-101.143a98.937 98.937 0 0 0 .935-12.413h98.473a40.676 40.676 0 0 0 1.735 12.413zm8.939-5.419 25.425 16.956h-17.644a50.712 50.712 0 0 1 -7.1-14.265c-.272-.912-.489-1.805-.681-2.69zm-70.333-189.919a12.523 12.523 0 0 1 12.495-13.806c.422 0 .848.021 1.273.063a12.644 12.644 0 0 1 11.173 11.155 12.537 12.537 0 0 1 -24.941 2.587zm18.647 39.562h-13.574l7.009-12.724zm-19.084 10h24.251l5.612 10.87h-35.852zm-11.5 20.87h46.519l5.611 10.871h-58.119zm-11.5 20.871h68.791l5.611 10.87h-80.391zm-11.5 20.87h91.064l4.509 8.738-2.409-1.54a5 5 0 0 0 -5.95.418l-14.605 12.539-20.441-12.967a5 5 0 0 0 -5.6.164l-17.81 12.813-17.222-12.774a5 5 0 0 0 -5.5-.3l-14.668 8.579zm8.231 17.394 17.5 12.982a5 5 0 0 0 5.9.042l18.032-12.975 20.712 13.139a5 5 0 0 0 5.936-.428l14.6-12.53 13.81 8.829 5.762 11.164-17.618-9.594a5 5 0 0 0 -5.648.6l-14.606 12.538-20.441-12.966a5 5 0 0 0 -5.6.163l-17.812 12.816-17.222-12.773a5 5 0 0 0 -5.943-.01l-15.51 11.424a63.944 63.944 0 0 0 -4.887-8.945zm-64.966-7.829c7.155 4.067 13.913 7.909 18.229 11.012 20.987 15.088 28.641 37.778 22.751 67.434-3.6 18.15-11.418 33.593-14.569 39.327h-15.169a130.378 130.378 0 0 0 9.381-40.893c1.3-20.385-2.025-48.55-21.521-77.389zm-84.794 222.274a5 5 0 0 0 -3.543-1.472h-24.112v-36.13l120.6 59.043h-91.565l.077-17.891a5 5 0 0 0 -1.457-3.55zm-27.655-48.736v-22.188h136.884l.3 69.63v19.72zm0-32.188v-13.577h136.784l.057 13.577zm84.74-158.336c27.544 27.065 40.459 58.286 38.379 92.806a119.621 119.621 0 0 1 -10.362 41.953h-24.7c10.146-14.2 13.346-37.012 9.5-68.08-3.106-25.09-10.166-50.821-15.476-68.635q1.3.984 2.659 1.956zm-15.472-9.75c.02.064.038.124.058.189 9.073 29.6 36.445 118.925 5.173 144.32h-10.955c-32.009-33.873-6.319-113.099 5.724-144.509zm-19.041 11.45q2.844-1.774 5.489-3.592a350.97 350.97 0 0 0 -14.1 51.816c-6.866 37.521-3.785 65.977 9.126 84.835h-28.559a132.947 132.947 0 0 1 -10.911-44c-2.394-35.456 10.715-65.415 38.955-89.059zm-68.251 93.611c-6.7-29.611.522-52.258 21.459-67.311 4.152-2.985 11-6.678 18.484-10.625-18.83 26.166-22.006 53.586-20.624 74.053a143.319 143.319 0 0 0 10 43.331h-13.479c-3.304-5.649-11.707-21.179-15.84-39.448zm431.122 221.775h-37.063v-40.859a18.534 18.534 0 0 1 37.068 0zm26.273 0h-16.273v-40.859a28.534 28.534 0 0 0 -57.068 0v40.859h-382.267v-69.3h35.327l-.077 17.892a5 5 0 0 0 5 5.021h118.169a5 5 0 0 0 5-5v-22.755h127.56v18.942a5 5 0 0 0 5 5h64.493a5 5 0 0 0 5-5v-153.173a59.236 59.236 0 0 0 8.071-17.673h82.062zm-6.59-329.9h-22.346c10.206-6.465 22.577-15.948 30.471-27.679.246 12.157-5.428 23.157-8.125 27.679zm-42.941 0h-10.574c3.632-2 7.56-4.3 11.62-6.907 19.872-12.751 33.946-26.832 41.942-41.944a33.88 33.88 0 0 1 4.426 6.516c-7.797 22.579-41.384 39.463-47.414 42.335z"/></g></svg>