<svg id="Layer_1" height="512" viewBox="0 0 512 512" width="512" xmlns="http://www.w3.org/2000/svg" data-name="Layer 1"><path d="m495.49 209.25v23.06h-53.91v-35.06h41.91a12 12 0 0 1 12 12z" fill="#aa7b4f"/><path d="m391.29 197.25h50.29v35.06h-50.29z" fill="#cba274"/><path d="m341 197.25h50.29v35.06h-50.29z" fill="#aa7b4f"/><path d="m341 197.25v35.06h-54.99v-23.06a12 12 0 0 1 12-12z" fill="#cba274"/><path d="m208.96 167h9.86c7.79 0 14.11 6.57 14.11 14.67v50.64h-52.16l-25.08-65.13.47-.18z" fill="#ccac92"/><path d="m115.62 60.5h-87.11a12 12 0 0 0 -12 12v56.9l125.7-.56z" fill="#e4c2a1"/><path d="m155.69 167.18-6.42-16.66h-132.76v81.79h164.26z" fill="#e4c2a1"/><path d="m190.77 258.28h-174.26v79.67h204.94z" fill="#e4c2a1"/><path d="m286.01 258.28 39.24 79.59 170.24.08v-79.67z" fill="#b29783"/><path d="m232.96 367.83h-216.45v83.67h248.67z" fill="#e4c2a1"/><path d="m342.03 367.83 42.75 83.67h110.71v-83.67z" fill="#b29783"/><path d="m286.01 258.28h-95.24l30.68 79.67h105.3z" fill="#ccac92"/><path d="m342.03 367.83h-109.07l32.22 83.67h119.64z" fill="#ccac92"/><g fill="#827264"><path d="m92.09 98.13v30.94l-36.12.16v-31.1c0-10.37 8.09-18.78 18.06-18.78a17.638 17.638 0 0 1 12.77 5.5 19.092 19.092 0 0 1 5.29 13.28z"/><path d="m136.08 201.7v30.61h-36.13v-30.61c0-10.37 8.09-18.78 18.06-18.78a17.678 17.678 0 0 1 12.78 5.5 19.11 19.11 0 0 1 5.29 13.28z"/><path d="m128.41 337.87v.08h-36.12v-30.69c0-10.37 8.09-18.77 18.06-18.77a17.638 17.638 0 0 1 12.77 5.5 19.068 19.068 0 0 1 5.29 13.27z"/><path d="m187.72 337.87v.08h-36.12v-30.69c0-10.37 8.09-18.77 18.06-18.77a17.655 17.655 0 0 1 12.77 5.5 19.068 19.068 0 0 1 5.29 13.27z"/></g><path d="m282.12 337.87v.08h-36.12v-30.69c0-10.37 8.09-18.77 18.06-18.77a17.655 17.655 0 0 1 12.77 5.5 19.068 19.068 0 0 1 5.29 13.27z" fill="#6d5f55"/><path d="m342.25 337.87v.08h-15.5l-19.3-37.75a18.094 18.094 0 0 1 16.74-11.71 17.655 17.655 0 0 1 12.77 5.5 19.068 19.068 0 0 1 5.29 13.27z" fill="#5b5048"/><path d="m407.54 337.87v.08h-36.12v-30.69c0-10.37 8.09-18.77 18.06-18.77a17.655 17.655 0 0 1 12.77 5.5 19.068 19.068 0 0 1 5.29 13.27z" fill="#5b5048"/><path d="m471.54 337.87v.08h-36.12v-30.69c0-10.37 8.09-18.77 18.06-18.77a17.655 17.655 0 0 1 12.77 5.5 19.068 19.068 0 0 1 5.29 13.27z" fill="#5b5048"/><path d="m125.54 419.8v31.7h-36.12v-31.7c0-10.37 8.08-18.78 18.06-18.78a17.672 17.672 0 0 1 12.77 5.5 19.11 19.11 0 0 1 5.29 13.28z" fill="#827264"/><path d="m183.01 419.8v31.7h-36.12v-31.7c0-10.37 8.09-18.78 18.06-18.78a17.638 17.638 0 0 1 12.77 5.5 19.11 19.11 0 0 1 5.29 13.28z" fill="#827264"/><path d="m236.49 419.8v31.7h-36.12v-31.7c0-10.37 8.09-18.78 18.06-18.78a17.638 17.638 0 0 1 12.77 5.5 19.11 19.11 0 0 1 5.29 13.28z" fill="#827264"/><path d="m328.02 419.8v31.7h-36.12v-31.7c0-10.37 8.09-18.78 18.06-18.78a17.655 17.655 0 0 1 12.77 5.5 19.11 19.11 0 0 1 5.29 13.28z" fill="#6d5f55"/><path d="m409.78 419.8v31.7h-24.96l-11.16-21.82v-9.88a19.11 19.11 0 0 1 5.29-13.28 17.672 17.672 0 0 1 12.77-5.5c9.98 0 18.06 8.41 18.06 18.78z" fill="#5b5048"/><path d="m470.02 419.8v31.7h-36.12v-31.7c0-10.37 8.09-18.78 18.06-18.78a17.655 17.655 0 0 1 12.77 5.5 19.11 19.11 0 0 1 5.29 13.28z" fill="#5b5048"/><path d="m297.14 232.31-11.13 25.97h209.48v-25.97z" fill="#b28876"/><path d="m180.77 232.31 10 25.97h95.24l11.13-25.97z" fill="#c79a83"/><path d="m16.51 129.4v21.12h132.76l18.71-21.79z" fill="#e1b7a3"/><path d="m180.77 232.31h-164.26v25.97h174.26z" fill="#e1b7a3"/><path d="m326.75 337.95 15.28 29.88h153.46v-29.88z" fill="#b28876"/><path d="m326.75 337.95h-105.3l11.51 29.88h109.07z" fill="#c79a83"/><path d="m221.45 337.95h-204.94v29.88h216.45z" fill="#e1b7a3"/><path d="m46.51 72.5a12 12 0 0 1 12-12h-30a12 12 0 0 0 -12 12v56.9l30-.134z" fill="#c4a58c"/><path d="m16.51 150.52h30v81.79h-30z" fill="#c4a58c"/><path d="m16.51 258.28h30v79.67h-30z" fill="#c4a58c"/><path d="m16.51 367.83h30v83.67h-30z" fill="#c4a58c"/><path d="m16.51 232.31h30v25.97h-30z" fill="#bf9888"/><path d="m16.51 337.95h30v29.88h-30z" fill="#bf9888"/><path d="m16.51 150.52h30v-21.253l-30 .133z" fill="#bf9888"/><path d="m71.97 201.7v30.61h-36.12v-30.61c0-10.37 8.09-18.78 18.06-18.78a17.638 17.638 0 0 1 12.77 5.5 19.11 19.11 0 0 1 5.29 13.28z" fill="#827264"/><path d="m69.1 337.87v.08h-36.12v-30.69c0-10.37 8.08-18.77 18.06-18.77a17.672 17.672 0 0 1 12.77 5.5 19.068 19.068 0 0 1 5.29 13.27z" fill="#827264"/><path d="m69.1 419.8v31.7h-36.12v-31.7c0-10.37 8.08-18.78 18.06-18.78a17.672 17.672 0 0 1 12.77 5.5 19.11 19.11 0 0 1 5.29 13.28z" fill="#827264"/><path d="m483.489 192.25h-185.483a17.018 17.018 0 0 0 -17 17v18.057h-43.078v-45.637c0-10.844-8.572-19.667-19.109-19.667h-59.771l-4.041-10.493 16.767-19.517a5 5 0 0 0 -3.792-8.258h-.022l-22.338.1-25.342-65.147a5 5 0 0 0 -4.66-3.188h-87.109a17.019 17.019 0 0 0 -17 17v379a5 5 0 0 0 5 5h478.978a5 5 0 0 0 5-5v-242.25a17.018 17.018 0 0 0 -17-17zm-87.2 10h40.293v25.057h-40.294zm-50.292 0h40.292v25.057h-40.289zm-54.99 7a7.008 7.008 0 0 1 7-7h37.993v25.057h-44.99zm32.686 133.7 10.165 19.876h-97.467l-7.655-19.876zm-72.692-10v-25.687c0-7.6 5.859-13.776 13.061-13.776s13.06 6.18 13.06 13.776v25.692zm78.81 0-16.793-32.836a12.893 12.893 0 0 1 11.171-6.632c7.2 0 13.061 6.18 13.061 13.776v25.692zm-11.232 0h-31.458v-25.687c0-13.11-10.345-23.776-23.061-23.776s-23.06 10.666-23.06 23.776v25.692h-16.115l-26.832-69.671h84.894zm-29.019-95.648-6.85 15.977h-88.51l-6.153-15.977zm-108.551-65.302v20.268a5 5 0 0 0 10 0v-20.268h12.95v20.268a5 5 0 1 0 10 0v-20.268h4.86c5.023 0 9.109 4.336 9.109 9.667v45.637h-43.728l-21.3-55.304zm-159.498-99.5a7.008 7.008 0 0 1 7-7h83.689l22.71 58.38-37.819.165v-25.918c0-13.109-10.345-23.775-23.06-23.775s-23.061 10.666-23.061 23.775v26.12l-29.459.129zm65.58 25.627v25.962l-26.121.111v-26.073c0-7.6 5.859-13.775 13.061-13.775s13.06 6.179 13.06 13.775zm-65.58 36.25 135.542-.594-10.083 11.735h-125.459zm0 21.141h124.323l27.647 71.789h-32.406v-25.607c0-13.11-10.345-23.775-23.061-23.775s-23.06 10.665-23.06 23.775v25.608h-17.98v-25.608c0-13.11-10.345-23.775-23.061-23.775s-23.06 10.665-23.06 23.775v25.608h-9.342zm109.564 46.182v25.608h-26.121v-25.608c0-7.595 5.859-13.775 13.06-13.775s13.061 6.175 13.061 13.775zm-64.1 0v25.608h-26.122v-25.608c0-7.595 5.859-13.775 13.06-13.775s13.061 6.175 13.061 13.775zm-45.464 35.607h155.822l6.153 15.977h-161.975zm0 25.977h165.826l26.832 69.671h-21.446v-25.692c0-13.11-10.345-23.776-23.061-23.776s-23.062 10.666-23.062 23.776v25.692h-13.19v-25.692c0-13.11-10.345-23.776-23.06-23.776s-23.06 10.666-23.06 23.776v25.692h-13.19v-25.692c0-13.11-10.345-23.776-23.06-23.776s-23.061 10.666-23.061 23.776v25.692h-6.468zm161.212 43.979v25.692h-26.123v-25.692c0-7.6 5.859-13.776 13.061-13.776s13.062 6.18 13.062 13.776zm-59.312 0v25.692h-26.121v-25.692c0-7.6 5.859-13.776 13.061-13.776s13.06 6.18 13.06 13.776zm-59.311 0v25.692h-26.121v-25.692c0-7.6 5.859-13.776 13.061-13.776s13.06 6.18 13.06 13.776zm-42.589 35.692h196.509l7.655 19.876h-204.164zm42.589 103.545h-26.121v-26.7c0-7.6 5.859-13.776 13.061-13.776s13.06 6.176 13.06 13.776zm56.438 0h-26.122v-26.7c0-7.6 5.859-13.776 13.061-13.776s13.061 6.18 13.061 13.776zm57.477 0h-26.121v-26.7c0-7.6 5.858-13.776 13.06-13.776s13.061 6.18 13.061 13.776zm53.479 0h-26.121v-26.7c0-7.6 5.859-13.776 13.061-13.776s13.06 6.18 13.06 13.776zm10 0v-26.7c0-13.11-10.345-23.776-23.06-23.776s-23.061 10.666-23.061 23.776v26.7h-7.358v-26.7c0-13.11-10.345-23.776-23.061-23.776s-23.06 10.666-23.06 23.776v26.7h-11.356v-26.7c0-13.11-10.345-23.776-23.061-23.776s-23.061 10.664-23.061 23.776v26.7h-10.316v-26.7c0-13.11-10.345-23.776-23.06-23.776s-23.061 10.664-23.061 23.776v26.7h-6.468v-73.669h208.015l28.374 73.669zm81.529 0h-26.123v-26.7c0-7.6 5.859-13.776 13.061-13.776s13.06 6.18 13.06 13.776zm10 0v-26.7c0-13.11-10.345-23.776-23.061-23.776s-23.062 10.664-23.062 23.776v26.7h-18.286l-28.372-73.669h98.729l37.676 73.669zm71.759 0h-16.9l-9.218-18.025v-8.675c0-7.6 5.859-13.776 13.06-13.776s13.061 6.18 13.061 13.776zm60.241 0h-26.123v-26.7c0-7.6 5.859-13.776 13.061-13.776s13.06 6.18 13.06 13.776zm25.466 0h-15.466v-26.7c0-13.11-10.345-23.776-23.061-23.776s-23.062 10.664-23.062 23.776v26.7h-14.12v-26.7c0-13.11-10.345-23.776-23.061-23.776a23.15 23.15 0 0 0 -21.665 15.628l-19.854-38.821h140.289zm0-83.669h-145.4l-10.165-19.876h155.565zm-114.068-29.876v-25.692c0-7.6 5.859-13.776 13.061-13.776s13.061 6.18 13.061 13.776v25.692zm64 0v-25.692c0-7.6 5.859-13.776 13.061-13.776s13.061 6.18 13.061 13.776v25.692zm50.068 0h-13.946v-25.692c0-13.11-10.345-23.776-23.061-23.776s-23.061 10.666-23.061 23.776v25.692h-17.878v-25.692c0-13.11-10.345-23.776-23.061-23.776s-23.061 10.666-23.061 23.776v25.692h-19.172v-25.692c0-13.11-10.345-23.776-23.061-23.776a22.611 22.611 0 0 0 -16.183 6.831l-13.826-27.034h196.31zm0-79.671h-196.9l6.85-15.977h190.05zm0-25.977h-43.908v-25.057h36.908a7.008 7.008 0 0 1 7 7z" fill="#284268"/></svg>