<svg id="Layer_1" height="512" viewBox="0 0 512 512" width="512" xmlns="http://www.w3.org/2000/svg" data-name="Layer 1"><path d="m411.93 470.19h-64.5a.41.41 0 0 0 -.11.01 3.845 3.845 0 0 0 -3.75 3.85v23.45h72.22v-23.45a3.856 3.856 0 0 0 -3.86-3.86z" fill="#6d7486"/><path d="m324.73 327.35h-135.68a3.862 3.862 0 0 0 -3.86 3.86v23.45h143.4v-23.45a3.862 3.862 0 0 0 -3.86-3.86z" fill="#bca891"/><path d="m290.28 220.22h-63.85a3.862 3.862 0 0 0 -3.86 3.86v23.45h71.57v-23.45a3.862 3.862 0 0 0 -3.86-3.86z" fill="#bca891"/><path d="m275.91 45.95h-34.1a3.862 3.862 0 0 0 -3.86 3.86v23.45h41.82v-23.45a3.862 3.862 0 0 0 -3.86-3.86z" fill="#bca891"/><path d="m164.57 470.19h-64.5a3.856 3.856 0 0 0 -3.86 3.86v23.45h72.22v-23.45a3.856 3.856 0 0 0 -3.86-3.86z" fill="#6d7486"/><path d="m406.91 470.19h-59.48a.41.41 0 0 0 -.11.01v-.01a93.6 93.6 0 0 0 -183.26 0h-56.88s39.2-41.37 78.4-115.53h143.01v-.25c37.25 74.08 78.32 115.78 78.32 115.78z" fill="#827264"/><path d="m316.83 327.35h-23.61l-18.42-51.06-31.38.27-17.57 50.79h-26.96a549.406 549.406 0 0 0 28.83-79.82h61.91a556.4 556.4 0 0 0 27.2 79.82z" fill="#827264"/><path d="m283.24 220.22h-48.84a541.939 541.939 0 0 0 11.05-146.96h27.61a564.29 564.29 0 0 0 10.18 146.96z" fill="#827264"/><path d="m107.18 470.19h15s39.2-41.37 78.4-115.53h-15c-39.2 74.16-78.4 115.53-78.4 115.53z" fill="#6d6056"/><path d="m198.89 327.35h15a549.406 549.406 0 0 0 28.83-79.82h-15a549.406 549.406 0 0 1 -28.83 79.82z" fill="#6d6056"/><path d="m260.45 73.26h-15a541.939 541.939 0 0 1 -11.05 146.96h15a541.939 541.939 0 0 0 11.05-146.96z" fill="#6d6056"/><path d="m185.19 331.21v23.45h19v-23.45a3.862 3.862 0 0 1 3.86-3.86h-19a3.862 3.862 0 0 0 -3.86 3.86z" fill="#a08e7d"/><path d="m222.57 224.08v23.45h19v-23.45a3.862 3.862 0 0 1 3.86-3.86h-19a3.862 3.862 0 0 0 -3.86 3.86z" fill="#a08e7d"/><path d="m241.81 45.95a3.862 3.862 0 0 0 -3.86 3.86v23.45h19v-23.45a3.862 3.862 0 0 1 3.86-3.86z" fill="#a08e7d"/><path d="m130.07 470.19h-30a3.856 3.856 0 0 0 -3.86 3.86v23.45h30v-23.45a3.856 3.856 0 0 1 3.86-3.86z" fill="#5b606d"/><g fill="#284268"><path d="m96.211 502.5h72.22a5 5 0 0 0 5-5v-23.453a8.845 8.845 0 0 0 -3.5-7.039 88.6 88.6 0 0 1 171.618.429 8.834 8.834 0 0 0 -2.98 6.61v23.453a5 5 0 0 0 5 5h72.22a5 5 0 0 0 5-5v-23.453a8.871 8.871 0 0 0 -8.861-8.861h-2.871a368.846 368.846 0 0 1 -23.624-28.486 555.32 555.32 0 0 1 -51.842-83.483v-22.009a8.872 8.872 0 0 0 -8.862-8.861h-4.57a548.8 548.8 0 0 1 -24.107-70.2 5 5 0 0 0 3.086-4.617v-23.45a8.871 8.871 0 0 0 -8.861-8.862h-2.915a558.248 558.248 0 0 1 -9.562-136.957h1.978a5 5 0 0 0 5-5v-23.453a8.871 8.871 0 0 0 -8.861-8.861h-11.863v-23.447a5 5 0 0 0 -10 0v23.447h-12.242a8.871 8.871 0 0 0 -8.861 8.861v23.453a5 5 0 0 0 5 5h2.763a534.969 534.969 0 0 1 -10.391 136.957h-3.894a8.871 8.871 0 0 0 -8.861 8.862v23.453a4.984 4.984 0 0 0 3.6 4.778 548.144 548.144 0 0 1 -25.526 70.036h-6.6a8.871 8.871 0 0 0 -8.861 8.861v22.915c-33.908 63.688-67.923 102.968-75.212 111.063h-4.905a8.871 8.871 0 0 0 -8.861 8.861v23.453a5 5 0 0 0 5.008 5zm314.578-27.314v17.314h-62.22v-17.314zm-167.838-424.239h31.822v17.314h-31.822zm7.777 27.314h17.053a568.26 568.26 0 0 0 9.394 136.957h-36.642a544.941 544.941 0 0 0 10.195-136.957zm-23.16 146.957h61.57v17.315h-61.57zm3.94 27.315h54.292a561.721 561.721 0 0 0 23.518 69.814h-12.586l-17.232-47.754a4.972 4.972 0 0 0 -4.747-3.3l-31.384.274a5 5 0 0 0 -4.682 3.366l-16.4 47.417h-15.715a559.707 559.707 0 0 0 24.936-69.817zm54.592 69.814h-53.228l14.116-40.814 24.312-.212zm-95.912 10h133.4v17.315h-133.4zm-54.4 110.743a657.735 657.735 0 0 0 52.79-83.428h137.072c27.5 53.911 56.412 90.043 69.928 105.524h-44.286a98.563 98.563 0 0 0 -191.222 0h-41.816c4.326-5.106 10.338-12.492 17.532-22.096zm-34.575 32.1h62.22v17.31h-62.22z"/><path d="m193.23 387h20.07a5 5 0 1 0 0-10h-20.07a5 5 0 1 0 0 10z"/><path d="m298.092 387h20.073a5 5 0 0 0 0-10h-20.073a5 5 0 0 0 0 10z"/><path d="m258.518 168.171a5 5 0 0 0 -5 5v27.515a5 5 0 0 0 10 0v-27.515a5 5 0 0 0 -5-5z"/></g></svg>