<svg id="Layer_1" height="512" viewBox="0 0 512 512" width="512" xmlns="http://www.w3.org/2000/svg" data-name="Layer 1"><path d="m208.09 73.29v151.79l7.1 207.46h80.88l6.22-207.46v-151.79z" fill="#659bd1"/><path d="m208.09 73.29h26v359.25h-26z" fill="#5c8eb7"/><path d="m296.26 195.08-.19 49.49h32.06v-49.49z" fill="#b0b5ca"/><path d="m296.07 244.57v187.97h24.41l32.96-108.32v-79.65z" fill="#a4c4f3"/><path d="m163.04 324.22 27.31 108.32h24.84v-187.97h-52.15z" fill="#a4c4f3"/><path d="m183.32 195.08h31.87v49.49h-31.87z" fill="#b0b5ca"/><path d="m190.35 432.54h130.13v37.19h-130.13z" fill="#aba9b0"/><path d="m271.37 50.63v22.66h-29.02v-22.66a14.51 14.51 0 0 1 29.02 0z" fill="#65cef8"/><path d="m375.11 407.3h49.93v62.43h-49.93z" fill="#aba9b0"/><path d="m86.96 407.3h48.77v62.43h-48.77z" fill="#aba9b0"/><path d="m356.24 314.22h18.87v155.51h-18.87z" fill="#999"/><path d="m338.5 314.22h17.74v155.51h-17.74z" fill="#686868"/><path d="m320.48 314.22h18.02v155.51h-18.02z" fill="#999"/><path d="m60.27 469.73h391.46v26.27h-391.46z" fill="#6d7486"/><path d="m219.65 455.13h73.2v27.74h-73.2z" fill="#888986"/><path d="m86.96 407.3h26v62.43h-26z" fill="#939296"/><path d="m163.04 244.57h26v79.65h-26z" fill="#90afd6"/><path d="m60.27 469.73h26v26.27h-26z" fill="#565b68"/><path d="m171.49 314.22h18.86v155.51h-18.86z" fill="#999"/><path d="m153.75 314.22h17.74v155.51h-17.74z" fill="#686868"/><path d="m135.73 314.22h18.02v155.51h-18.02z" fill="#999"/><path d="m230.87 363.05h51.9v34.43h-51.9z" fill="#a4c4f3"/><path d="m230.87 279.79h51.9v34.43h-51.9z" fill="#a4c4f3"/><path d="m230.87 196.54h51.9v34.42h-51.9z" fill="#a4c4f3"/><path d="m230.03 113.28h51.9v34.42h-51.9z" fill="#a4c4f3"/><g fill="#284268"><path d="m230.027 152.7h51.9a5 5 0 0 0 5-5v-34.423a5 5 0 0 0 -5-5h-51.9a5 5 0 0 0 -5 5v34.423a5 5 0 0 0 5 5zm5-34.426h41.9v24.426h-41.9z"/><path d="m282.771 191.535h-51.9a5 5 0 0 0 -5 5v34.426a5 5 0 0 0 5 5h51.9a5 5 0 0 0 5-5v-34.426a5 5 0 0 0 -5-5zm-5 34.426h-41.9v-24.426h41.9z"/><path d="m282.771 274.794h-51.9a5 5 0 0 0 -5 5v34.425a5 5 0 0 0 5 5h51.9a5 5 0 0 0 5-5v-34.425a5 5 0 0 0 -5-5zm-5 34.425h-41.9v-24.425h41.9z"/><path d="m282.771 358.052h-51.9a5 5 0 0 0 -5 5v34.426a5 5 0 0 0 5 5h51.9a5 5 0 0 0 5-5v-34.426a5 5 0 0 0 -5-5zm-5 34.426h-41.9v-24.426h41.9z"/><path d="m181.02 274.867h18.234a5 5 0 0 0 0-10h-18.234a5 5 0 0 0 0 10z"/><path d="m204.254 287.27a5 5 0 0 0 -5-5h-18.234a5 5 0 1 0 0 10h18.234a5 5 0 0 0 5-5z"/><path d="m315.928 274.867h18.234a5 5 0 0 0 0-10h-18.234a5 5 0 0 0 0 10z"/><path d="m334.162 292.27a5 5 0 1 0 0-10h-18.234a5 5 0 0 0 0 10z"/><path d="m117.137 420.769h-11.473a5 5 0 1 0 0 10h11.473a5 5 0 0 0 0-10z"/><path d="m117.137 444.323h-11.473a5 5 0 1 0 0 10h11.473a5 5 0 1 0 0-10z"/><path d="m404.965 421.61h-11.473a5 5 0 0 0 0 10h11.473a5 5 0 1 0 0-10z"/><path d="m404.965 445.165h-11.473a5 5 0 0 0 0 10h11.473a5 5 0 0 0 0-10z"/><path d="m451.729 464.734h-21.686v-57.434a5 5 0 0 0 -5-5h-44.935v-88.077a5 5 0 0 0 -5-5h-16.672v-64.657a5 5 0 0 0 -5-5h-20.305v-44.485a5 5 0 0 0 -5-5h-20.838v-116.794a5 5 0 0 0 -5-5h-25.928v-17.658a19.474 19.474 0 0 0 -14.507-18.774v-15.855a5 5 0 0 0 -10 0v15.855a19.474 19.474 0 0 0 -14.507 18.774v17.658h-29.263a5 5 0 0 0 -5 5v116.794h-19.769a5 5 0 0 0 -5 5v44.485h-15.28a5 5 0 0 0 -5 5v64.657h-22.313a5 5 0 0 0 -5 5v88.077h-43.769a5 5 0 0 0 -5 5v57.435h-21.686a5 5 0 0 0 -5 5v26.265a5 5 0 0 0 5 5h391.458a5 5 0 0 0 5-5v-26.266a5 5 0 0 0 -5-5zm-71.621-52.434h39.935v52.435h-39.935zm-18.865-93.076h8.865v145.51h-8.865zm-60-119.142h21.889v39.485h-22.04zm-.17 49.485h47.364v59.657h-27.957a5 5 0 0 0 -5 5v113.312h-14.408zm50.171 69.657v145.51h-7.744v-145.511zm-17.742 0v145.51h-8.022v-145.511zm-40.654 130.9h-73.2a5 5 0 0 0 -5 5v9.608h-19.294v-27.2h120.126v27.2h-17.633v-9.608a5 5 0 0 0 -5-4.998zm-5 10v17.741h-63.2v-17.739zm-40.5-409.5a9.507 9.507 0 0 1 19.014 0v17.663h-19.011zm-34.26 27.663h84.205v111.794h-1.032a5 5 0 0 0 -5 4.981l-.189 49.485v.019 182.97h-70.884v-232.455a5 5 0 0 0 -5-5h-2.1zm-24.769 121.794h21.869v39.485h-21.869zm-20.28 49.485h42.149v177.97h-14.834v-113.313a5 5 0 0 0 -5-5h-22.315zm17.315 69.657v145.511h-8.866v-145.511zm-26.608 0h7.742v145.511h-7.742zm-18.02 0h8.02v145.511h-8.02zm-48.769 93.077h38.769v52.435h-38.769zm354.772 78.7h-381.458v-16.266h149.375v8.133a5 5 0 0 0 5 5h73.2a5 5 0 0 0 5-5v-8.133h148.883z"/></g></svg>