<svg id="Layer_1" enable-background="new 0 0 512 512" height="512" viewBox="0 0 512 512" width="512" xmlns="http://www.w3.org/2000/svg"><path d="m361.9 113.8c-30-67.2-108.8-97.3-175.9-67.3s-97.3 108.8-67.3 175.9c8.1 18.1 20.1 34.2 35.2 47.1l190.8-18.6c16.3-20.6 26.2-45.5 28.4-71.7z" fill="#fb6771"/><path d="m137.1 168.2c0-67.8 50.9-124.7 118.2-132.3-5-.6-10-.8-15-.8-73.5 0-133.1 59.5-133.2 133 0 39 17.1 76.1 46.8 101.4l27-2.6c-28-25.2-43.9-61.1-43.8-98.7z" fill="#ce5f6f"/><path d="m474.9 151.5c.1 15.2-12.1 27.6-27.3 27.7h-89.8c-15.2 0-27.5-12.2-27.6-27.4s12.2-27.5 27.4-27.6h2.2c2-23.6 22.8-41.1 46.5-39 20.8 1.8 37.2 18.3 39 39h2.2c15 .1 27.3 12.2 27.4 27.3z" fill="#dde6ea"/><path d="m325.1 221.8-26 27.9c-5.7 6.1-15.3 6.5-21.4.7-.2-.1-.3-.3-.5-.5l-8.4-8.6c-5.9-6-15.5-6.1-21.4-.2-.6.6-1.2 1.3-1.8 2.1l-18.4 25.9c-4.8 6.8-14.3 8.5-21.1 3.6-2.6-1.8-4.6-4.5-5.6-7.5l-14.8-43.5-169.7 255.2h480z" fill="#818b95"/><path d="m301.8 186.9 23.3 34.8-26 27.9c-5.7 6.1-15.3 6.5-21.4.7-.2-.1-.3-.3-.5-.5l-8.4-8.6c-5.9-6-15.5-6.1-21.4-.2-.6.6-1.2 1.3-1.8 2.1l-18.4 25.9c-4.8 6.8-14.3 8.5-21.1 3.6-2.6-1.8-4.6-4.5-5.6-7.5l-14.8-43.5 23.1-34.8c2.8-4.2 7.5-6.7 12.6-6.8h68c4.9.3 9.6 2.8 12.4 6.9z" fill="#dde6ea"/><path d="m360.3 151.9c-.1-15.2 12.1-27.6 27.3-27.7h2.2c1.5-16.5 12.3-30.7 27.8-36.5-4.8-1.8-9.9-2.7-15-2.7-22.3.1-40.8 17.1-42.8 39.2h-2.2c-15.2 0-27.4 12.4-27.4 27.6s12.4 27.4 27.6 27.4h30c-15.1 0-27.4-12.2-27.5-27.3z" fill="#c4ccce"/><path d="m185.6 221.8-169.6 255.1h30l149.8-225.3z" fill="#6d757c"/><path d="m221.3 180.2c-5.1 0-9.8 2.5-12.6 6.8l-23.1 34.8 10.2 29.8 42.9-64.6c2.8-4.2 7.5-6.7 12.6-6.8z" fill="#c6ccce"/><g fill="#284268"><path d="m501 473.6-149.7-223.2c14.4-19.4 23.4-42.2 26.2-66.2h70.3c17.9-.1 32.4-14.8 32.3-32.7-.2-17-13.4-31-30.4-32.2-4.8-26-29.7-43.3-55.7-38.5-13.6 2.5-25 10.6-32 21.8-24-44.4-70.6-72.5-121.7-72.5-76.3 0-138.3 62-138.3 138.1 0 38.7 16.2 75.6 44.7 101.6l-135.7 203.8c-1.2 1.8-1.3 4.2-.3 6.2s3.1 3.2 5.3 3.2h480c2.2 0 4.3-1.2 5.3-3.2s.9-4.4-.3-6.2zm-95.2-383.3c18.4 1.6 32.9 16.1 34.5 34.5.2 2.6 2.4 4.6 5 4.6h2.2c12.4 0 22.5 10.1 22.4 22.5-.1 12.2-10 22.2-22.3 22.3h-89.8c-12.3 0-22.3-10-22.5-22.3-.1-12.4 9.9-22.5 22.3-22.6h2.2c2.6 0 4.7-2 5-4.5 1.8-20.9 20.2-36.3 41-34.5zm-293.7 77.9c0-70.6 57.5-128.1 128.2-128.1 49.9 0 95.3 29.1 116.3 74.3-.5 1.6-.9 3.2-1.2 4.9-17.1 1.3-30.2 15.5-30.1 32.6.2 17.8 14.6 32.2 32.5 32.3h9.6c-2.5 20.6-10 40.3-22 57.3l-43.6-64.9c-1.1-1.7-3-2.7-5-2.7h-83.1c-2 0-3.9 1-5 2.7l-56.4 84.8c-25.6-24.1-40.3-57.9-40.2-93.2zm205.2 53.2-22.6 24.2c-1.7 1.8-4.1 2.9-6.6 2.9s-4.9-.9-6.7-2.7l-8.4-8.6c-4.4-4.5-10.5-6.8-16.8-6.3s-11.9 3.7-15.6 8.9l-18.4 25.9c-2 2.9-5.3 4.3-8.8 3.8s-6.2-2.8-7.4-6.1l-13.8-40.4 24.7-37h76.7zm-290.1 249.6v-.1l156.7-235.4 10.8 31.7c2.6 7.6 9.1 13 17 14.1 1 .1 2.1.2 3.1.2 6.8 0 13.2-3.3 17.2-8.9l18.4-25.9c1.6-2.2 4-3.6 6.8-3.8 2.7-.2 5.4.8 7.3 2.7l8.4 8.6c4 4.1 9.4 6.3 15.1 6.3h.3c5.8-.1 11.2-2.5 15.2-6.7l20.7-22.2 160.5 239.4z"/><path d="m302.9 323.1c-3.1 1.3-4.5 4.8-3.2 7.8l33.8 81c1 2.3 3.2 3.7 5.5 3.7.8 0 1.6-.2 2.3-.5 3.1-1.3 4.5-4.8 3.2-7.8l-33.8-81c-1.3-3.1-4.8-4.5-7.8-3.2z"/><path d="m282.6 370.6c-1.2-3.1-4.6-4.7-7.7-3.5s-4.7 4.6-3.5 7.7l16.3 43c.9 2.4 3.2 3.9 5.6 3.9.7 0 1.4-.1 2.1-.4 3.1-1.2 4.7-4.6 3.5-7.7z"/></g></svg>