<svg id="Layer_1" height="512" viewBox="0 0 512 512" width="512" xmlns="http://www.w3.org/2000/svg" data-name="Layer 1"><path d="m259.4 20.47c215.55 0 210.37 443.29 210.37 443.29h-78.75s14.26-395.03-131.62-393.93z" fill="#686868"/><path d="m259.4 20.47v49.36c-41.94.32-71.21 36.87-91.63 87.59-2.51 6.23-4.89 12.68-7.14 19.3q-3.285 9.66-6.21 19.77c-25.72 88.44-31.9 198.65-33.38 245.05-.45 14.02-.47 22.22-.47 22.22h-83.21s-3.28-443.29 222.04-443.29z" fill="#888986"/><path d="m259.4 69.83c-41.94.32-71.21 36.87-91.63 87.59-2.51 6.23-4.89 12.68-7.14 19.3q-3.285 9.66-6.21 19.77c-25.72 88.44-31.9 198.65-33.38 245.05-.45 14.02-.47 22.22-.47 22.22h270.45s14.26-395.03-131.62-393.93z" fill="#89bde8"/><path d="m232.18 312.3h84.31v151.46h-84.31z" fill="#f3ce7d"/><path d="m121.53 441.56-.49-.02c-.45 14.02-.47 22.22-.47 22.22h111.61v-22.2z" fill="#c0c5d9"/><path d="m232.18 312.3v129.26h-36.12v-245.07h23.96 12.16z" fill="#b3d1e7"/><path d="m160.63 176.72q-3.285 9.66-6.21 19.77h65.6v-19.77z" fill="#c0c5d9"/><path d="m220.02 157.42v19.3h-59.39c2.25-6.62 4.63-13.07 7.14-19.3z" fill="#b0b5ca"/><path d="m158.58 196.49h37.48v245.07h-37.48z" fill="#e0eff9"/><path d="m158.58 196.49v245.07h-37.05l-.49-.02c1.48-46.4 7.66-156.61 33.38-245.05z" fill="#b3d1e7"/><path d="m16 463.76h480v27.77h-480z" fill="#5f6877"/><path d="m259.4 23.265v-2.8c-225.32.005-222.04 443.295-222.04 443.295h30s-2.98-402.98 192.04-440.495z" fill="#a3a3a3"/><path d="m16 463.76h30v27.77h-30z" fill="#4a5160"/><g fill="#284268"><rect height="10" rx="5" width="49.974" x="248.914" y="338.429"/><rect height="10" rx="5" width="49.974" x="248.914" y="367.731"/><rect height="10" rx="5" width="49.974" x="248.914" y="397.034"/><rect height="10" rx="5" width="49.974" x="248.914" y="426.337"/><path d="m496 458.761h-21.226a1122.946 1122.946 0 0 0 -12.244-153.206c-7.609-50.1-18.378-94.8-32.006-132.852-17.147-47.883-38.924-85.403-64.741-111.518-29.983-30.336-65.777-45.718-106.383-45.718-43.755 0-82.208 16.387-114.289 48.706-26.368 26.564-48.695 64.2-66.361 111.858-14.05 37.892-25.217 82.215-33.194 131.736a1076.9 1076.9 0 0 0 -13.169 150.994h-16.387a5 5 0 0 0 -5 5v27.772a5 5 0 0 0 5 5h480a5 5 0 0 0 5-5v-27.772a5 5 0 0 0 -5-5zm-231.6-433.199c35.781 1.217 67.476 15.541 94.268 42.646 24.769 25.056 45.769 61.32 62.417 107.786 13.41 37.429 24.023 81.474 31.54 130.912a1112.052 1112.052 0 0 1 12.153 151.855h-68.625a1301.085 1301.085 0 0 0 -5.653-147.143c-10.777-109-34.442-183-70.339-219.936-16.189-16.656-34.93-25.59-55.766-26.714zm-4.962 49.27h.557c19.8 0 37.634 8.012 53 23.819 42.685 43.916 60.293 140.526 67.55 213.838a1289.231 1289.231 0 0 1 5.612 146.274h-64.665v-146.463a5 5 0 0 0 -5-5h-79.316v-110.814a5 5 0 0 0 -5-5h-7.159v-34.07a5 5 0 0 0 -5-5h-44.746q4.187-9.717 8.679-18.262c20.617-39.14 46.013-59.099 75.484-59.322zm52.054 242.468v141.461h-74.316v-141.461zm-84.316 129.264v12.2h-101.544c.046-2.913.129-7.039.275-12.2zm-100.945-10c1.313-35.953 5.238-102.483 16.963-168.5q4.671-26.3 10.386-49.239v217.739zm88.786-254.839v9.761h-53.894q1.523-4.984 3.105-9.761zm-47.346-10q1.716-4.771 3.5-9.309h43.85v9.309zm23.391 29.761v235.078h-27.482v-235.078zm10 235.078v-235.078h26.114v235.078zm-145.608-127.364c7.878-48.853 18.88-92.516 32.7-129.778 17.163-46.275 38.716-82.683 64.059-108.211 28.901-29.111 63.258-44.451 102.187-45.657v39.491c-31.289 2.278-57.947 23.923-79.293 64.449-17.475 33.174-31.523 79.207-41.754 136.82-15.123 85.151-17.385 171.166-17.717 192.447h-73.249a1066.375 1066.375 0 0 1 13.067-149.561zm435.546 177.333h-470v-17.772h470z"/></g></svg>