<svg id="Layer_1" height="512" viewBox="0 0 512 512" width="512" xmlns="http://www.w3.org/2000/svg" data-name="Layer 1"><path d="m364.52 106.63h20.99v274.17h-20.99z" fill="#bc4861"/><path d="m127.27 106.63h21v274.17h-21z" fill="#bc4861"/><path d="m16 237.64h480v20.92h-480z" fill="#d96573"/><path d="m16 410.69h480v19.17h-480z" fill="#7fb9e1"/><path d="m148.43 379.8h-23.25a10.343 10.343 0 0 0 -10.35 10.34v20.55h43.95v-20.55a10.343 10.343 0 0 0 -10.35-10.34z" fill="#8a2144"/><path d="m386.72 379.8h-23.25a10.349 10.349 0 0 0 -10.35 10.34v20.55h43.95v-20.55a10.343 10.343 0 0 0 -10.35-10.34z" fill="#8a2144"/><path d="m16 237.64h30v20.92h-30z" fill="#b75868"/><path d="m16 410.69h30v19.17h-30z" fill="#6a9eba"/><path d="m496 232.644h-10.648v-11.217c2.779.207 5.568.333 8.366.333q1.194 0 2.388-.026a5 5 0 0 0 -.212-10 104.829 104.829 0 0 1 -68.051-23.434 105.962 105.962 0 0 1 -37.331-61.61v-20.056a5 5 0 0 0 -5-5h-5.5v-19.5a5 5 0 1 0 -10 0v19.5h-5.5a5 5 0 0 0 -5 5v20.057c-9.577 48.263-51.923 84-100.867 85.045a104.864 104.864 0 0 1 -68.045-23.436 105.962 105.962 0 0 1 -37.331-61.61v-20.056a5 5 0 0 0 -5-5h-5.479v-19.5a5 5 0 0 0 -10 0v19.5h-5.517a5 5 0 0 0 -5 5v20.373a104.913 104.913 0 0 1 -37.694 61.428 106.514 106.514 0 0 1 -68.473 23.3 5 5 0 0 0 -.212 10q1.209.025 2.415.026 4.017 0 8.015-.285v11.169h-10.324a5 5 0 0 0 -5 5v20.912a5 5 0 0 0 5 5h106.273v111.524a15.363 15.363 0 0 0 -12.445 15.055v15.55h-93.828a5 5 0 0 0 -5 5v19.178a5 5 0 0 0 5 5h480a5 5 0 0 0 5-5v-19.178a5 5 0 0 0 -5-5h-93.926v-15.55a15.356 15.356 0 0 0 -11.562-14.847v-111.733h105.488a5 5 0 0 0 5-5v-20.912a5 5 0 0 0 -5-5zm-45.135-19.291a114.7 114.7 0 0 0 24.487 6.884v12.407h-24.487zm-29.308-17.279a116.1 116.1 0 0 0 19.308 12.635v23.935h-21.394l-.09-38.409c.719.615 1.435 1.241 2.176 1.839zm-31.045-38.747a116.487 116.487 0 0 0 18.846 27.313l.113 48h-18.959zm-21-45.693h11v121.01h-11zm-34.54 78.721a116.617 116.617 0 0 0 24.54-33v75.291h-24.54zm-49.333 27.545a115.407 115.407 0 0 0 39.338-19.15v33.9h-39.338zm-49.339 2.03a113.037 113.037 0 0 0 20.175 1.833q1.194 0 2.388-.026a112.748 112.748 0 0 0 16.776-1.641v12.551h-39.339zm-49.338-21.8a115.707 115.707 0 0 0 39.338 19.51v15h-39.338zm-33.693-40.755a116.381 116.381 0 0 0 23.693 32.223v43.053h-23.693zm-21-45.734h11v121.01h-11zm-30.076 74.259a115.492 115.492 0 0 0 20.08-28.407v75.155h-20.08zm-31.382 23.2a117.622 117.622 0 0 0 20-12.837c.471-.375.921-.772 1.385-1.154v37.54h-21.385zm-34.487 11.22a116.56 116.56 0 0 0 24.487-6.71v19.034h-24.487zm83.5 169.816a5.352 5.352 0 0 1 5.352-5.339h23.25a5.351 5.351 0 0 1 5.351 5.339v15.55h-33.949zm12.449-15.336v-111.244h11v111.244zm21 .793v-112.037h206.244v111.776a15.356 15.356 0 0 0 -11.395 14.8v15.55h-184.341v-15.55a15.359 15.359 0 0 0 -10.512-14.542zm337.727 40.093v9.178h-470v-9.178zm-98.926-25.55v15.55h-33.952v-15.55a5.351 5.351 0 0 1 5.351-5.339h23.25a5.351 5.351 0 0 1 5.351 5.339zm-22.557-15.336v-111.244h11v111.244zm121.483-121.244h-470v-10.912h470z" fill="#284268"/></svg>