<svg id="Layer_1" height="512" viewBox="0 0 512 512" width="512" xmlns="http://www.w3.org/2000/svg" data-name="Layer 1"><path d="m445.58 101.09c-1.28-1.35-2.54-2.69-3.76-4.03l-372.83 2.03-.01-.01c-.95.99-1.93 1.98-2.92 2.97a291.454 291.454 0 0 1 -50.06 39.94h480a256.123 256.123 0 0 1 -50.42-40.9z" fill="#4a5160"/><path d="m473.82 32.98h-435.63a7.28 7.28 0 0 0 -5.58 11.98l5.57 6.6a39.831 39.831 0 0 0 30.41 14.1h376.08a39.791 39.791 0 0 0 35.7-22.18 7.2 7.2 0 0 0 .76-3.21 7.307 7.307 0 0 0 -7.31-7.29z" fill="#b0b5ca"/><path d="m32.32 455h446.4v24.02h-446.4z" fill="#8c969b"/><path d="m225.14 181.95h62.16v18.5h-62.16z" fill="#7f3d32"/><path d="m441.82 97.06-372.83 2.03-.01-.01a291.871 291.871 0 0 0 27.98-33.42h320.31a256.265 256.265 0 0 0 24.55 31.4z" fill="#6d7486"/><path d="m378.77 141.99h78.89v42.65h-78.89z" fill="#7f3d32"/><path d="m340.62 141.99v24.73h38.15v-24.73z" fill="#d9bb4b"/><path d="m302.22 141.99v24.73h38.4v-24.73z" fill="#edb740"/><path d="m271.92 141.99v24.73h30.3v-24.73z" fill="#d9bb4b"/><path d="m240.53 141.99v39.96h31.39v-39.96z" fill="#c79a83"/><path d="m204.3 141.99v24.73h36.23v-24.73z" fill="#d9bb4b"/><path d="m165.9 141.99v24.73h38.4v-24.73z" fill="#edb740"/><path d="m133.23 141.99h32.67v24.73h-32.67z" fill="#d9bb4b"/><path d="m240.53 200.01h31.39v30.46h-31.39z" fill="#c79a83"/><path d="m242.55 331.53v24.32h27.44v-24.35z" fill="#c79a83"/><path d="m271.88 229.77-31.32-.05a35.531 35.531 0 0 0 -31.65 35.32v32.01a35.531 35.531 0 0 0 33.64 35.48l27.44-.03a35.531 35.531 0 0 0 33.1-35.45v-32.01a35.531 35.531 0 0 0 -31.21-35.27z" fill="#de3c44"/><path d="m390.48 184.64h54.51v236.52h-54.51z" fill="#db3e63"/><path d="m66.05 184.64h54.51v236.52h-54.51z" fill="#db3e63"/><path d="m378.77 421.16h78.891v33.84h-78.891z" fill="#a34853"/><path d="m54.34 421.16h78.89v33.84h-78.89z" fill="#a34853"/><path d="m68.99 99.09-.01-.01c-.95.99-1.93 1.98-2.92 2.97a291.454 291.454 0 0 1 -50.06 39.94h30a291.454 291.454 0 0 0 50.06-39.94c.986-.987 1.963-1.973 2.91-2.96z" fill="#3c424c"/><path d="m98.98 99.08-.01.01h.02z" fill="#4a5160"/><path d="m38.18 51.56a39.831 39.831 0 0 0 30.41 14.1h30a39.831 39.831 0 0 1 -30.41-14.1l-5.57-6.6a7.28 7.28 0 0 1 5.58-11.98h-30a7.28 7.28 0 0 0 -5.58 11.98z" fill="#979caa"/><path d="m32.32 455h30v24.02h-30z" fill="#71797c"/><path d="m66.05 184.64h30v236.52h-30z" fill="#ba365c"/><path d="m99.127 98.926a291.984 291.984 0 0 0 27.833-33.266h-30a291.871 291.871 0 0 1 -27.98 33.42l.01.01z" fill="#5e6472"/><path d="m54.34 421.16h30v33.84h-30z" fill="#873e4b"/><path d="m54.34 141.99h78.89v42.65h-78.89z" fill="#7f3d32"/><path d="m54.34 141.99h30v42.65h-30z" fill="#68332c"/><path d="m238.91 297.05v-32.01a35.528 35.528 0 0 1 31.29-35.273l-29.642-.047a35.531 35.531 0 0 0 -31.65 35.32v32.01a35.531 35.531 0 0 0 33.64 35.48l27.44-.03c.332-.022.659-.059.988-.091a35.532 35.532 0 0 1 -32.066-35.359z" fill="#bf3c49"/><rect fill="#6d7486" height="39.09" rx="13.59" width="39.16" x="236.29" y="262.03"/><g fill="#284268"><path d="m280.45 287.531v-11.914a18.609 18.609 0 0 0 -18.587-18.588h-11.987a18.609 18.609 0 0 0 -18.587 18.588v11.914a18.608 18.608 0 0 0 18.587 18.587h11.987a18.608 18.608 0 0 0 18.587-18.587zm-10 0a8.6 8.6 0 0 1 -8.587 8.587h-11.987a8.6 8.6 0 0 1 -8.587-8.587v-11.914a8.6 8.6 0 0 1 8.587-8.588h11.987a8.6 8.6 0 0 1 8.587 8.588z"/><path d="m498.633 137.735a250.921 250.921 0 0 1 -49.433-40.095 254.048 254.048 0 0 1 -22.39-26.976h17.865a44.5 44.5 0 0 0 40.182-24.977 12.285 12.285 0 0 0 -11.035-17.708h-435.636a12.283 12.283 0 0 0 -9.4 20.208l5.575 6.6a44.725 44.725 0 0 0 34.228 15.877h18.4a284.972 284.972 0 0 1 -24.456 27.847 287.052 287.052 0 0 1 -49.2 39.248 5 5 0 0 0 2.667 9.227h33.343v37.653a5 5 0 0 0 5 5h6.711v226.519h-6.711a5 5 0 0 0 -5 5v28.842h-17.023a5 5 0 0 0 -5 5v24.021a5 5 0 0 0 5 5h446.4a5 5 0 0 0 5-5v-24.021a5 5 0 0 0 -5-5h-16.063v-28.842a5 5 0 0 0 -5-5h-7.671v-226.519h7.671a5 5 0 0 0 5-5v-37.653h33.343a5 5 0 0 0 2.633-9.251zm-430.044-77.071a34.741 34.741 0 0 1 -26.589-12.333l-5.576-6.6a2.175 2.175 0 0 1 -.326-2.425 2.229 2.229 0 0 1 2.087-1.328h435.634a2.236 2.236 0 0 1 1.955 1.083 2.212 2.212 0 0 1 .11 2.206 34.566 34.566 0 0 1 -31.212 19.4zm30.905 10h315.123a258.956 258.956 0 0 0 16.227 21.457l-350.293 1.9c6.636-7.387 12.971-15.2 18.943-23.357zm-40.151 108.975v-32.653h68.888v32.653zm176.183-7.921v5.229h-10.381a5 5 0 0 0 -5 5v18.5a5 5 0 0 0 5 5h10.381v20.063a40.587 40.587 0 0 0 -31.62 39.527v32.017a40.581 40.581 0 0 0 33.641 39.927v18.873a5 5 0 0 0 5 5h27.446a5 5 0 0 0 5-5v-18.969a40.584 40.584 0 0 0 33.1-39.831v-32.017a40.588 40.588 0 0 0 -31.171-39.423v-20.168h10.382a5 5 0 0 0 5-5v-18.5a5 5 0 0 0 -5-5h-10.381v-5.229h96.846v12.921a5 5 0 0 0 5 5h6.711v226.52h-6.711a5 5 0 0 0 -5 5v28.842h-235.538v-28.842a5 5 0 0 0 -5-5h-7.671v-226.519h7.671a5 5 0 0 0 5-5v-12.921zm-97.3-10v-14.732h22.674v14.732zm32.669 0v-14.732h28.4v14.732zm111.405 25.229v8.5h-52.16v-8.5zm-36.779-10v-29.961h21.4v29.961zm-1.095 150.631a30.559 30.559 0 0 1 -30.525-30.524v-32.017a30.559 30.559 0 0 1 30.525-30.524h23.138a30.559 30.559 0 0 1 30.525 30.524v32.017a30.559 30.559 0 0 1 -30.525 30.524zm20.562 10v13.276h-17.441v-13.276zm-19.462-113.065v-19.067h21.4v19.067zm-10-62.8h-26.226v-14.727h26.225zm41.4 0v-14.727h20.3v14.732zm30.3 0v-14.727h28.4v14.732zm38.4 0v-14.727h28.149v14.732zm-230.066 27.926v226.519h-44.506v-226.519zm-56.217 236.519h68.888v23.842h-68.888zm414.377 33.842v14.021h-436.4v-14.021zm-21.063-33.842v23.842h-68.888v-23.842zm-57.177-10v-226.519h44.506v226.519zm57.177-236.519h-68.888v-32.653h68.888zm-420.247-42.653a296.8 296.8 0 0 0 37.182-31.386c.5-.5.993-1.014 1.491-1.518l368.575-2c.766.824 1.526 1.654 2.3 2.469a260.4 260.4 0 0 0 37.483 32.444z"/></g></svg>