<svg id="Layer_1" height="512" viewBox="0 0 512 512" width="512" xmlns="http://www.w3.org/2000/svg" data-name="Layer 1"><path d="m359.16 163.14-47.75-49.1c-7.63-5.53-16.88-9.01-26.51-11.11a137.074 137.074 0 0 0 -28.82-2.82c-18.5 0-38.95 4.69-54.59 13.93l-48.89 48.13c-7.28 15.23-12.41 36.25-12.41 54.27v233.47h231.78v-233.47c0-17.19-6.14-38.62-12.81-53.3z" fill="#7a6756"/><path d="m140.19 449.91h231.78v46.09h-231.78z" fill="#747d83"/><path d="m256.08 100.11c-18.5 0-38.95 4.69-54.59 13.93l-48.89 48.13c-7.28 15.23-12.41 36.25-12.41 54.27v233.47h30v-233.47a116.729 116.729 0 0 1 1.432-17.636 93.591 93.591 0 0 1 26.948-52.356l19.484-19.181a93.164 93.164 0 0 1 53.853-26.267l.433-.052a154.623 154.623 0 0 0 -16.26-.838z" fill="#605145"/><path d="m140.19 449.91h30v46.09h-30z" fill="#5e666b"/><path d="m452.57 354.94a10.957 10.957 0 0 1 .73 16.03l-23.76 24.17-43.54-43.71 28.55-28.66z" fill="#c79a83"/><path d="m451.85 64.11a10.948 10.948 0 0 1 -.38 15.91l-37.5 33.77-26.98-27.08 43.55-43.71z" fill="#aa7b4f"/><path d="m430.54 43-43.55 43.71-28.55-28.66 32.05-38.17a10.846 10.846 0 0 1 15.96-.73z" fill="#c79a83"/><path d="m386 351.43-26.98 27.09 33.64 37.64a10.855 10.855 0 0 0 15.85.38l21.03-21.4z" fill="#aa7b4f"/><path d="m368.43 283.74-24.93 25.03 42.5 42.66 28.55-28.66z" fill="#aa7b4f"/><path d="m386.99 86.71 26.98 27.08-44.82 40.35-.05-.06-24.61-24.7z" fill="#c79a83"/><path d="m358.44 58.05 28.55 28.66-42.5 42.67-24.94-25.03z" fill="#aa7b4f"/><path d="m386 351.43-26.98 27.09-40.2-44.99.07-.06 24.61-24.7z" fill="#c79a83"/><path d="m369.1 154.08-24.61-24.7-44.22 44.38 18.77 17.13a6.9 6.9 0 0 0 9.27.03l40.84-36.78z" fill="#aa7b4f"/><path d="m324.45 246.52 43.98 37.22-24.93 25.03-44.22-44.39 15.59-17.22a6.9 6.9 0 0 1 9.58-.64z" fill="#c79a83"/><path d="m319.55 104.35-37.07 44.14a6.961 6.961 0 0 0 .64 9.62l17.15 15.65 44.22-44.38z" fill="#c79a83"/><path d="m299.28 264.38 44.22 44.39-24.61 24.7-.07.06-36.63-41a6.962 6.962 0 0 1 .03-9.31z" fill="#aa7b4f"/><path d="m282.4 193.11a7.375 7.375 0 0 0 -5.72-2.71h-40.16a7.4 7.4 0 0 0 -7.4 7.4v40.37a7.426 7.426 0 0 0 7.4 7.4h40.16a7.3 7.3 0 0 0 3.74-1.02 7.382 7.382 0 0 0 3.66-6.38v-40.37a7.344 7.344 0 0 0 -1.68-4.69z" fill="#747d83"/><path d="m229.81 145.74-36.63-41-.07.06-24.6 24.7 44.21 44.38 17.06-18.83a6.962 6.962 0 0 0 .03-9.31z" fill="#aa7b4f"/><path d="m228.88 280.16a6.949 6.949 0 0 1 .64 9.61l-37.07 44.15-24.94-25.03 44.22-44.39z" fill="#c79a83"/><path d="m168.51 129.5-24.94 25.03 43.98 37.21a6.893 6.893 0 0 0 9.58-.64l15.59-17.22z" fill="#c79a83"/><path d="m211.73 264.5-44.22 44.39-24.61-24.7-.06-.06 40.85-36.78a6.889 6.889 0 0 1 9.27.03z" fill="#aa7b4f"/><path d="m193.18 104.74-.07.06-24.6 24.7-42.51-42.67 26.98-27.08z" fill="#c79a83"/><path d="m167.51 308.89 24.94 25.03-38.89 46.3-28.56-28.67z" fill="#aa7b4f"/><path d="m168.51 129.5-24.94 25.03-46.12-39.03 28.55-28.67z" fill="#aa7b4f"/><path d="m142.9 284.19-.06-.06-44.81 40.34 26.97 27.08 42.51-42.66z" fill="#c79a83"/><path d="m125 351.55-43.54 43.71 24.09 23.85a10.846 10.846 0 0 0 15.96-.73l32.05-38.16z" fill="#c79a83"/><path d="m119.34 22.1 33.64 37.65-26.98 27.08-43.54-43.71 21.03-21.39a10.854 10.854 0 0 1 15.85.37z" fill="#aa7b4f"/><path d="m126 86.83-28.55 28.67-38.02-32.18a10.945 10.945 0 0 1 -.73-16.02l23.76-24.18z" fill="#c79a83"/><path d="m125 351.55-43.54 43.71-21.31-21.11a10.949 10.949 0 0 1 .38-15.91l37.5-33.77z" fill="#aa7b4f"/><path d="m286.02 369.18a43.592 43.592 0 0 0 -30.99-12.88v139.7h43.83v-95.71a43.9 43.9 0 0 0 -12.84-31.11z" fill="#7b7b7b"/><path d="m211.21 400.29v95.71h43.82v-139.7a43.9 43.9 0 0 0 -43.82 43.99z" fill="#999"/><path d="m259.12 238.17v-40.37a7.4 7.4 0 0 1 7.4-7.4h-30a7.4 7.4 0 0 0 -7.4 7.4v40.37a7.426 7.426 0 0 0 7.4 7.4h30a7.426 7.426 0 0 1 -7.4-7.4z" fill="#5b6266"/><path d="m56.2 87.141 90.288 76.4c-7.011 16.084-11.3 35.98-11.3 52.9v67.845l-78.007 70.239a15.955 15.955 0 0 0 -.55 23.18l45.4 44.962a15.91 15.91 0 0 0 11.17 4.6q.359 0 .719-.016a15.918 15.918 0 0 0 11.426-5.652l9.846-11.725v86.126a5 5 0 0 0 5 5h231.778a5 5 0 0 0 5-5v-89.9l11.963 13.388a15.928 15.928 0 0 0 11.455 5.3h.371a15.928 15.928 0 0 0 11.319-4.747l44.791-45.569a15.956 15.956 0 0 0 -1.068-23.351l-79.841-67.562 1.01-67.117c0-17.79-6.056-38.332-11.791-51.992l89.64-80.711a15.955 15.955 0 0 0 .55-23.18l-45.396-44.959a15.857 15.857 0 0 0 -23.315 1.072l-76.218 90.752c-13.373-8.166-31.618-12.315-54.361-12.315-19.047 0-38.291 4.575-53.519 12.625l-79.492-88.962a15.858 15.858 0 0 0 -23.146-.551l-44.791 45.569a15.956 15.956 0 0 0 1.069 23.351zm87.082 60.591-38.465-32.55 21.183-21.267 35.448 35.585zm25.225-11.151 37.322 37.465-12.407 13.7a1.9 1.9 0 0 1 -2.645.177l-39.836-33.71zm-23.318 79.861c0-14.429 3.572-31.857 9.3-46.123l29.825 25.239a11.86 11.86 0 0 0 16.517-1.1l12.195-13.458 12.317 11.466a12.3 12.3 0 0 0 -1.225 5.338v40.372a12.315 12.315 0 0 0 .889 4.585l-13.58 14.7-15.093-13.773a11.865 11.865 0 0 0 -15.992-.054l-35.154 31.652zm40.487 117.763-32.427 38.612-21.184-21.265 35.446-35.581zm-35.576-49.884 36.938-33.259a1.9 1.9 0 0 1 2.56.009l14.905 13.6-36.993 37.129zm24.473 24.565 37.324-37.466 13.62 12.429a1.956 1.956 0 0 1 .177 2.709l-33.558 39.959zm-31.914-17.865 17.8 17.865-35.446 35.582-19.723-19.8zm-78.991 79.579a5.954 5.954 0 0 1 .2-8.643l33.97-30.587 20.106 20.183-36.505 36.647zm54.017 44.564a5.859 5.859 0 0 1 -8.621.4l-20.52-20.323 36.462-36.6 21.785 21.869zm88.527 75.836h-61.024v-36.09h61.024zm43.822 0h-33.822v-90.714a38.982 38.982 0 0 1 33.822-38.654zm43.821 0h-33.821v-129.368a38.98 38.98 0 0 1 33.821 38.654zm73.115 0h-63.115v-36.09h63.115zm0-46.09h-63.115v-44.624a48.822 48.822 0 1 0 -97.643 0v44.624h-61.024v-46.947l88.159-104.974a11.932 11.932 0 0 0 -1.095-16.527l-13.439-12.262 13.338-14.436a12.3 12.3 0 0 0 4.367.809h40.162a12.446 12.446 0 0 0 2.348-.229l13.429 14.122-13.943 15.4a11.937 11.937 0 0 0 -.054 16l88.51 99.053zm-132.852-206.738v-40.372a2.4 2.4 0 0 1 2.4-2.4h40.162a2.4 2.4 0 0 1 2.4 2.4v40.372a2.4 2.4 0 0 1 -2.4 2.4h-40.162a2.4 2.4 0 0 1 -2.4-2.4zm109.376 63.511-37.322-37.466 12.407-13.7a1.9 1.9 0 0 1 2.645-.178l39.836 33.711zm0 14.169 35.446 35.581-19.721 19.8-33.519-37.517zm-7.057-7.085-17.413 17.479-33.107-37.046a1.956 1.956 0 0 1 .009-2.623l13.524-14.934zm68.509 104.266a5.707 5.707 0 0 1 -4.321 1.756 5.812 5.812 0 0 1 -4.236-1.961l-30.5-34.129 20.111-20.181 36.509 36.649zm44.395-54.276a5.954 5.954 0 0 1 .4 8.707l-20.219 20.571-36.462-36.6 21.787-21.87zm-42.157-35.675-21.184 21.267-35.446-35.582 18.167-18.236zm-40.214-106.715-.885 58.834-38.4-32.5a11.861 11.861 0 0 0 -16.517 1.1l-11.979 13.227-11.885-12.5a12.3 12.3 0 0 0 1.776-6.36v-40.368a12.319 12.319 0 0 0 -.628-3.872l12.122-13.122 15.093 13.773a11.864 11.864 0 0 0 15.992.053l25.617-23.065c4.924 12.579 9.694 29.866 9.694 44.8zm-59.47-42.776 36.988-37.129 17.412 17.481-36.933 33.257a1.9 1.9 0 0 1 -2.56-.009zm61.843-26.349-17.8-17.865 35.451-35.577 19.723 19.8zm78.987-79.578a5.954 5.954 0 0 1 -.2 8.643l-33.97 30.586-20.108-20.182 36.509-36.649zm-54.015-44.564a5.815 5.815 0 0 1 4.227-2.094c.093 0 .186-.006.278-.006a5.8 5.8 0 0 1 4.116 1.7l20.52 20.324-36.462 36.6-21.785-21.866zm-35.563 42.346 21.184 21.265-35.446 35.581-18.165-18.234zm-38.883 46.3 17.563 17.63-37.324 37.466-13.62-12.429a1.953 1.953 0 0 1 -.177-2.708zm-63.79-6.638c14.187 0 33.344 1.855 47.833 10.089l-25.259 30.076a11.931 11.931 0 0 0 1.094 16.527l13.439 12.264-11.469 12.416a12.306 12.306 0 0 0 -5.037-1.08h-40.162a12.341 12.341 0 0 0 -3.527.518l-13.252-12.336 13.747-15.18a11.937 11.937 0 0 0 .054-16l-24.091-26.96c13.384-6.525 30.351-10.333 46.63-10.333zm-30 43.958a1.956 1.956 0 0 1 -.009 2.623l-13.52 14.935-36.987-37.124 17.413-17.479zm-39.779-44.518-17.8 17.864-35.44-35.582 19.721-19.8zm-79.246-79.318a5.857 5.857 0 0 1 8.557.206l30.495 34.128-20.106 20.181-36.507-36.645zm-44.791 45.57 20.219-20.571 36.462 36.6-21.787 21.871-34.5-29.193a5.954 5.954 0 0 1 -.4-8.707z" fill="#284268"/></svg>