<svg id="Layer_1" height="512" viewBox="0 0 512 512" width="512" xmlns="http://www.w3.org/2000/svg" data-name="Layer 1"><path d="m270.63 224.58-13.75 5.66v.11l.02.07 70.37 247.03h15.39z" fill="#827364"/><path d="m169.34 477.45h15.41v-.06l70.38-247.09v-.06l-13.76-5.66z" fill="#827364"/><circle cx="256" cy="208.47" fill="#a0eaea" r="21.79"/><g fill="#d4e1f4"><path d="m432.11 192.4a16.03 16.03 0 1 1 -15.97 16.03 16 16 0 0 1 15.97-16.03z"/><path d="m424.83 117.14a15.982 15.982 0 0 1 -27.88 15.53c-.32-.61-.65-1.21-.98-1.8a15.98 15.98 0 0 1 28.86-13.73z"/><path d="m417.03 281.8a16.016 16.016 0 1 1 -21.78 6.03 16.043 16.043 0 0 1 21.78-6.03z"/><path d="m348.6 342.61a16.03 16.03 0 1 1 -15.98 16.03 16 16 0 0 1 15.98-16.03z"/><path d="m344.57 37.89a16.02 16.02 0 0 1 -12.87 29.25c-1.26-.68-2.53-1.35-3.81-1.99a16.013 16.013 0 0 1 16.68-27.26z"/><path d="m255.76 16a16.03 16.03 0 1 1 -15.98 16.03 16 16 0 0 1 15.98-16.03z"/><path d="m255.76 368.88a16.025 16.025 0 1 1 -15.98 16.03 16 16 0 0 1 15.98-16.03z"/><path d="m182.35 47.27a15.99 15.99 0 1 1 -21.7-6.3 16.045 16.045 0 0 1 21.7 6.3z"/><path d="m161.63 341.58a16.03 16.03 0 1 1 -15.98 16.03 16 16 0 0 1 15.98-16.03z"/><path d="m109.73 109.08a16.016 16.016 0 1 1 -21.78 6.03 16.063 16.063 0 0 1 21.78-6.03z"/><path d="m111.28 277.4a15.985 15.985 0 1 1 -21.32-7.48 16.04 16.04 0 0 1 21.32 7.48z"/><path d="m79.89 193.41a16.025 16.025 0 1 1 -15.98 16.02 15.994 15.994 0 0 1 15.98-16.02z"/></g><path d="m256 48.06a160.41 160.41 0 1 0 160.41 160.41 160.41 160.41 0 0 0 -160.41-160.41zm0 296.788a138.38 138.38 0 1 1 138.38-138.38 138.38 138.38 0 0 1 -138.38 138.38z" fill="#a0eaea"/><path d="m126.59 477.45h258.82v22.55h-258.82z" fill="#b0b5ca"/><path d="m256 368.88q6.566 0 13-.526a160.483 160.483 0 0 1 -132.052-91.326 138.424 138.424 0 0 1 12.273-158.585 160.3 160.3 0 0 1 119.779-69.857q-6.433-.516-13-.526a160.41 160.41 0 0 0 0 320.82z" fill="#84c1bf"/><path d="m126.59 477.45h26v22.55h-26z" fill="#9a9fad"/><path d="m256 351.848c78.814 0 142.936-64.321 142.936-143.381s-64.122-143.381-142.936-143.381-142.936 64.321-142.936 143.381 64.122 143.381 142.936 143.381zm-90.425-45.708 66.272-66.4-26.247 92.134a133.216 133.216 0 0 1 -40.025-25.734zm49.438 29.207 29.287-102.808a26.434 26.434 0 0 0 4.51 1.717l-29.2 102.493q-2.31-.663-4.597-1.402zm35.987 6.4a132.349 132.349 0 0 1 -21.671-2.609l21.671-76.085zm10 0v-78.694l21.671 76.082a132.349 132.349 0 0 1 -21.671 2.609zm31.389-5-29.189-102.491a26.456 26.456 0 0 0 4.509-1.717l29.284 102.807q-2.286.744-4.604 1.403zm14.007-4.875-26.242-92.129 66.27 66.395a133.2 133.2 0 0 1 -40.024 25.736zm47.083-32.822-74.807-74.95 96.574 43.268a133.932 133.932 0 0 1 -21.767 31.684zm25.847-40.81-97.326-43.604c.091-.387.175-.776.249-1.169h106.584a132.88 132.88 0 0 1 -9.507 44.775zm9.507-54.775h-105.78l98.847-37.83a133.022 133.022 0 0 1 6.933 37.832zm-10.5-47.175-99.6 38.12c-.208-.338-.423-.672-.645-1l75.389-75.531a133.844 133.844 0 0 1 24.861 38.413zm-31.913-45.5-74.807 74.947 43.229-96.85a133.528 133.528 0 0 1 31.583 21.907zm-85.42-35.6a131.669 131.669 0 0 1 44.732 9.589l-43.574 97.621c-.383-.09-.768-.174-1.158-.248zm11.721 133.277a16.721 16.721 0 1 1 -16.721-16.791 16.775 16.775 0 0 1 16.721 16.791zm-21.721-133.277v106.128l-37.8-99.138a131.83 131.83 0 0 1 37.8-6.99zm-47.131 10.586 38.094 99.908c-.336.209-.668.423-.993.646l-75.394-75.536a133.268 133.268 0 0 1 38.293-25.018zm-45.348 32.106 74.807 74.949-96.574-43.268a133.932 133.932 0 0 1 21.767-31.681zm-25.847 40.811 97.326 43.607c-.091.387-.175.776-.249 1.169h-106.584a132.869 132.869 0 0 1 9.507-44.776zm-9.507 54.774h105.778l-98.845 37.833a133.022 133.022 0 0 1 -6.933-37.833zm110.1 9.055q.312.507.644 1l-75.388 75.531a133.834 133.834 0 0 1 -24.86-38.41z" fill="#284268"/><path d="m79.886 230.463a20.807 20.807 0 0 0 12.2-3.959 164.533 164.533 0 0 0 8.472 37.173 20.766 20.766 0 0 0 -12.784 1.744 21.08 21.08 0 0 0 -9.785 28.065 20.922 20.922 0 0 0 37.236 1.035 166.509 166.509 0 0 0 38.516 43.617 21.012 21.012 0 1 0 28.859 19.474c0-.365-.037-.721-.055-1.082q6.939 3.477 14.238 6.3l-31.221 109.62h-38.968a5 5 0 0 0 -5 5v22.55a5 5 0 0 0 5 5h258.812a5 5 0 0 0 5-5v-22.55a5 5 0 0 0 -5-5h-38.968l-31.221-109.608q6.362-2.464 12.464-5.428c-.024.407-.062.811-.062 1.225a20.977 20.977 0 1 0 29.172-19.355 166.554 166.554 0 0 0 33.347-34.723 20.865 20.865 0 0 0 8.652 9.462 20.814 20.814 0 0 0 10.324 2.751 21.041 21.041 0 0 0 10.391-39.324 20.763 20.763 0 0 0 -12.482-2.617 164.453 164.453 0 0 0 12.993-49.253 20.8 20.8 0 0 0 12.1 3.879 21.028 21.028 0 0 0 0-42.056 20.8 20.8 0 0 0 -12.1 3.885 164.512 164.512 0 0 0 -11.749-46.288 20.605 20.605 0 0 0 2.19.131 21.057 21.057 0 1 0 -18.726-30.478 166.468 166.468 0 0 0 -44.731-44.053 20.855 20.855 0 0 0 8.638-8.708 21.08 21.08 0 0 0 -8.724-28.413 20.951 20.951 0 0 0 -28.362 8.751 20.936 20.936 0 0 0 -2.276 12.27 163.181 163.181 0 0 0 -43.247-10.565 20.978 20.978 0 1 0 -34.506.051 163.159 163.159 0 0 0 -49.332 13.271 20.962 20.962 0 1 0 -29.371 16.934 166.572 166.572 0 0 0 -39.071 39.771 21.078 21.078 0 1 0 -16.563 29.95 164.515 164.515 0 0 0 -12.286 48.312 20.8 20.8 0 0 0 -12.015-3.818 21.029 21.029 0 0 0 0 42.057zm352.228-33.063a11.028 11.028 0 1 1 -10.976 11.028 11.015 11.015 0 0 1 10.976-11.028zm-330.462 96.9a10.953 10.953 0 0 1 -14.645-5.142 11.062 11.062 0 0 1 5.125-14.732 10.952 10.952 0 0 1 14.645 5.143 11.059 11.059 0 0 1 -5.125 14.731zm59.975 74.343a11.029 11.029 0 1 1 10.973-11.031 11.016 11.016 0 0 1 -10.973 11.029zm44.606-2.473c1.525.485 3.061.942 4.6 1.384l-29.879 104.9h-5zm49.525 39.766a21.017 21.017 0 0 0 17.271-32.936 163.628 163.628 0 0 0 18.439-2.983l29.177 102.433h-129.29l29.178-102.437a163.486 163.486 0 0 0 17.99 2.935 21.015 21.015 0 0 0 17.235 32.986zm-10.978-21.03a10.977 10.977 0 1 1 10.978 11.028 11.017 11.017 0 0 1 -10.978-11.028zm135.626 97.544v12.55h-248.812v-12.55zm-44.366-10h-5l-29.873-104.885c1.543-.441 3.075-.911 4.6-1.4zm23.532-113.811a10.977 10.977 0 1 1 -10.972-11.029 11.015 11.015 0 0 1 10.972 11.029zm49.592-73.939a10.865 10.865 0 0 1 5.394 1.438 11.063 11.063 0 0 1 4.132 15.043 10.949 10.949 0 0 1 -14.953 4.148 11.064 11.064 0 0 1 -4.133-15.043 10.991 10.991 0 0 1 9.56-5.585zm-3.483-170.547a10.955 10.955 0 0 1 14.645 5.143 11.062 11.062 0 0 1 -5.125 14.732 10.952 10.952 0 0 1 -14.645-5.143 11.062 11.062 0 0 1 5.125-14.728zm-78.281-67.26a10.93 10.93 0 0 1 14.828-4.585 11.064 11.064 0 0 1 4.569 14.915 10.932 10.932 0 0 1 -13.497 5.177c-.837-.448-1.674-.9-2.52-1.329a11.066 11.066 0 0 1 -3.38-14.178zm-71.642-25.893a11.029 11.029 0 1 1 -10.978 11.028 11.014 11.014 0 0 1 10.978-11.028zm-97.011 39.333a11.064 11.064 0 0 1 4.321-14.99 10.949 10.949 0 0 1 14.9 4.336 11.064 11.064 0 0 1 -4.32 14.989 10.948 10.948 0 0 1 -14.9-4.335zm-62.315 72.283a11.064 11.064 0 0 1 -4.132-15.043 10.931 10.931 0 0 1 14.954-4.147 11.065 11.065 0 0 1 4.134 15.043 10.949 10.949 0 0 1 -14.954 4.147zm159.568-79.559a153.53 153.53 0 0 1 69.779 16.689c.486.312.977.619 1.5.9.615.326 1.244.611 1.878.873a155.615 155.615 0 0 1 81.743 136.948c0 85.694-69.486 155.41-154.895 155.41s-154.895-69.716-154.895-155.41 69.481-155.41 154.89-155.41zm-176.114 145.349a11.029 11.029 0 1 1 -10.977 11.029 11.015 11.015 0 0 1 10.977-11.029z" fill="#284268"/></svg>