<svg id="Layer_1" height="512" viewBox="0 0 512 512" width="512" xmlns="http://www.w3.org/2000/svg" data-name="Layer 1"><path d="m63.63 306.14h.01c-3.97 20.01-3.11 34.36-3.11 34.36h-14.17s-9.91-28.25-30.36-38.79c16.79-4.73 47.63 4.43 47.63 4.43z" fill="#d4e1f4"/><path d="m148.48 199.7-1.61 34.53a.037.037 0 0 0 -.01.03l-3.27 70.08-.49 10.49a104.3 104.3 0 0 0 -72.66-33.19c10.71-29.45 32.78-62.81 78.04-81.94z" fill="#ccd3df"/><path d="m220.22 150.83.01.01c-14.94 15.43-31.57 37.48-33.25 60.39a180.458 180.458 0 0 0 -43.39 93.11l3.27-70.08a.037.037 0 0 1 .01-.03c14.4-70.82 69.53-104.85 69.53-104.85z" fill="#e2e4ed"/><path d="m448.37 306.14s30.84-9.16 47.63-4.43c-20.45 10.54-30.36 38.79-30.36 38.79h-14.17s.86-14.35-3.11-34.36z" fill="#d4e1f4"/><path d="m363.52 199.7c45.26 19.13 67.33 52.49 78.04 81.94a104.3 104.3 0 0 0 -72.66 33.19l-.49-10.49-3.27-70.08a.037.037 0 0 0 -.01-.03z" fill="#ccd3df"/><path d="m244.39 129.38a206.183 206.183 0 0 0 -24.16 21.46c-14.94 15.43-31.57 37.48-33.25 60.39l54.85 76.09a134.118 134.118 0 0 1 14.57-7.91z" fill="#b0b5ca"/><path d="m291.89 150.96a206.405 206.405 0 0 0 -24.28-21.58l-11.21 150.03s5.16 2.54 12.89 7.14l55.73-75.32c-1.68-22.86-18.22-44.85-33.13-60.27z" fill="#b0b5ca"/><path d="m365.14 234.26 3.27 70.08a180.458 180.458 0 0 0 -43.39-93.11c-1.68-22.86-18.22-44.85-33.13-60.27h.01l3.7-21.58s55.13 41.33 69.53 104.85a.037.037 0 0 1 .01.03z" fill="#e2e4ed"/><path d="m161.25 340.5h-100.72s-.86-14.35 3.11-34.36a165.124 165.124 0 0 1 6.8-24.5 104.3 104.3 0 0 1 72.66 33.19c12.64 13.36 18.15 25.67 18.15 25.67z" fill="#b0b5ca"/><path d="m448.36 306.14c3.97 20.01 3.11 34.36 3.11 34.36h-100.72s5.51-12.31 18.15-25.67a104.3 104.3 0 0 1 72.66-33.19 165.124 165.124 0 0 1 6.8 24.5z" fill="#b0b5ca"/><path d="m329 340.5h-142.65s21.99-32.3 55.48-53.18a134.118 134.118 0 0 1 14.57-7.91s5.16 2.54 12.89 7.14c16.72 9.95 45.42 29.54 59.71 53.95z" fill="#a0a5b5"/><path d="m186.98 211.23c13.3-15.02 24.33-22.35 24.33-22.35 29.69 26.44 30.52 98.44 30.52 98.44-33.49 20.88-55.48 53.18-55.48 53.18h-25.1s-5.51-12.31-18.15-25.67l.49-10.49a180.458 180.458 0 0 1 43.39-93.11z" fill="#ccd3df"/><path d="m325.02 211.23a180.458 180.458 0 0 1 43.39 93.11l.49 10.49c-12.64 13.36-18.15 25.67-18.15 25.67h-21.75c-14.29-24.41-42.99-44-59.71-53.95 0 0 1.71-71.23 31.4-97.67 0 0 11.03 7.33 24.33 22.35z" fill="#ccd3df"/><path d="m27.99 357.3v23.34l459.21 1.98v-25.32z" fill="#747d83"/><path d="m38.7 340.5h435.4v16.8h-435.4z" fill="#8c969b"/><path d="m147.664 217.211.816-17.511c-45.26 19.13-67.33 52.49-78.04 81.94a108.369 108.369 0 0 1 28.582 5.074c8.015-21.714 23.793-51.004 48.642-69.503z" fill="#b5bbc4"/><path d="m93.64 306.14a166.645 166.645 0 0 1 5.09-19.519 108.458 108.458 0 0 0 -28.29-4.981 165.124 165.124 0 0 0 -6.8 24.5c-3.97 20.01-3.11 34.36-3.11 34.36h30s-.86-14.35 3.11-34.36z" fill="#969baa"/><path d="m27.99 357.3h30v23.34h-30z" fill="#61676b"/><path d="m38.7 340.5h30v16.8h-30z" fill="#70797c"/><path d="m497.356 296.9c-13.8-3.889-35.33.583-45.192 3.049a171.848 171.848 0 0 0 -4.688-16.555c-9.673-28.555-31.752-67.053-82.008-88.3a5 5 0 0 0 -6.942 4.839l.009.176c-21.346-45.389-58.043-73.319-59.932-74.734a5 5 0 0 0 -7.927 3.155l-2.069 12.07a198.46 198.46 0 0 0 -18.058-15.274 5 5 0 0 0 -7.925 3.674l-6.4 85.6-6.855-85.63a5 5 0 0 0 -7.923-3.646 198.746 198.746 0 0 0 -17.98 15.253l-2.148-12.077a5 5 0 0 0 -7.548-3.377c-1.91 1.177-39.17 24.677-60.57 72.924a5 5 0 0 0 -6.665-2.953c-50.256 21.243-72.335 59.741-82.008 88.3a171.848 171.848 0 0 0 -4.688 16.555c-9.862-2.466-31.39-6.939-45.192-3.049a5 5 0 0 0 -.935 9.257c12.6 6.494 21 20.853 25.07 29.343h-.082a5 5 0 0 0 -5 5v11.8h-5.71a5 5 0 0 0 -5 5v23.339a5 5 0 0 0 4.979 5l459.206 1.986h.022a5 5 0 0 0 5-5v-25.325a5 5 0 0 0 -5-5h-8.1v-11.8a5 5 0 0 0 -5-5h-.892c4.056-8.482 12.433-22.825 25.081-29.343a5 5 0 0 0 -.935-9.257zm-62.9-19.738a109 109 0 0 0 -61.077 26.452l-4.479-95.992c30.624 14.841 52.622 38.178 65.558 69.536zm3.634 9.714a164.248 164.248 0 0 1 8.442 48.624h-87.286c8.831-14.166 33.142-45.042 78.846-48.628zm-74.285 26.1a113.985 113.985 0 0 0 -16.135 22.524h-15.862c-14.568-23.106-40.6-41.509-57.4-51.733.691-12.842 4.807-64.906 26.724-88.335 11.8 9.194 52.484 45.094 62.292 109.442zm-64.74-174.2c14.682 12.942 50.1 48.271 61.1 96.2l1.18 25.267a186.613 186.613 0 0 0 -27.35-46.141q-2.094-2.584-4.142-4.933c-2.345-22.859-17.955-44.376-32.583-59.894zm-27.175.411c11.843 9.947 34.99 31.623 44.271 55.879a114.467 114.467 0 0 0 -12.71-10.338 5 5 0 0 0 -6.093.431c-25.072 22.333-31.179 72.976-32.633 93-1.182-.65-2.221-1.208-3.092-1.667zm-15.576 145.805a252.873 252.873 0 0 1 25.825 15.779c16.161 11.257 28.961 23.123 37.545 34.729h-123.284c9.99-12.47 31.888-36.843 59.914-50.508zm-16.159-145.853 10.989 137.255q-2.364 1.172-4.67 2.425a272.186 272.186 0 0 0 -3.851-31.705c-5.408-29.393-14.822-50.241-27.983-61.964a5 5 0 0 0 -6.093-.431 114.571 114.571 0 0 0 -12.709 10.337c9.293-24.287 32.488-45.988 44.317-55.917zm-88.315 95.771c11.014-53.634 46.59-85.763 61.021-96.871l1.99 11.173c-.56.593-1.121 1.192-1.683 1.8-18.722 20.329-29.124 39.869-31 58.118q-2.057 2.364-4.166 4.96a186.613 186.613 0 0 0 -27.35 46.141zm-3.268 69.96c9.782-64.176 50.492-100.2 62.294-109.433 21.94 23.567 25.371 76.522 25.881 89.184-28.01 18.148-47.488 43.321-52.979 50.875h-19.438a113.985 113.985 0 0 0 -16.137-22.526zm-5.472-97.248-4.485 95.988a109.005 109.005 0 0 0 -61.08-26.453c12.936-31.357 34.934-54.692 65.565-69.535zm-69.2 79.259a98.085 98.085 0 0 1 62.806 28.573 109.32 109.32 0 0 1 16.06 20.046h-87.306a163.532 163.532 0 0 1 8.44-48.619zm395.2 58.619v6.8h-425.4v-6.8zm-439.5-40.147c10.455.283 22.117 2.866 28.265 4.417a164.615 164.615 0 0 0 -2.42 25.726h-5.682c-2.629-6.258-9.215-19.94-20.163-30.143zm452.6 56.947v15.3l-449.208-1.94v-13.36zm-19.962-26.8h-5.684a164.682 164.682 0 0 0 -2.423-25.743c7.112-1.8 18.354-4.078 28.228-4.363-10.924 10.195-17.497 23.851-20.122 30.106z" fill="#284268"/></svg>