<svg id="Layer_1" height="512" viewBox="0 0 512 512" width="512" xmlns="http://www.w3.org/2000/svg" data-name="Layer 1"><path d="m98.26 418.43-.82 1.23h-72.21l36.4-54.48z" fill="#a4c4f3"/><path d="m134.13 364.45 37.97 55.21h-73l-.84-1.23z" fill="#a4c4f3"/><path d="m134.13 364.45-35.87 53.98-36.63-53.25 35.97-53.84z" fill="#659bd1"/><path d="m138.85 250.68 35.99 52.5-40.71 61.27-36.53-53.11 40.75-61z" fill="#a4c4f3"/><path d="m174.84 303.18 42.48 61.96-35.6 54.52h-9.62l-37.97-55.21z" fill="#659bd1"/><g fill="#a4c4f3"><path d="m217.32 365.14 37.38 54.52h-72.98z"/><path d="m451.36 366.66 35.41 53h-71.87z"/><path d="m377.87 364.45 36.69 55.21h-74.66z"/></g><path d="m414.4 311.34 36.96 55.32-36.46 53h-.34l-36.69-55.21z" fill="#659bd1"/><path d="m373.52 250.14 40.88 61.2-36.53 53.11-40.71-61.27z" fill="#a4c4f3"/><path d="m337.16 303.18 40.71 61.27-37.97 55.21h-9.62l-35.58-54.55z" fill="#659bd1"/><path d="m297.12 242.92 40.04 60.26-42.46 61.93-38.66-59.28z" fill="#a4c4f3"/><path d="m291.58 127.49 40.93 61.27-.06.04-35.33 54.12-41.12-61.87z" fill="#a4c4f3"/><path d="m297.12 242.92-41.08 62.91-41.09-63.01 41.05-61.77z" fill="#659bd1"/><path d="m332.51 188.76 41.01 61.38-36.36 53.04-40.04-60.26 35.33-54.12z" fill="#659bd1"/><path d="m291.58 127.49-35.58 53.56-35.58-53.56 35.58-53.26z" fill="#659bd1"/><path d="m220.42 127.49 35.58 53.56-41.05 61.77-35.36-54.21z" fill="#a4c4f3"/><path d="m214.95 242.82-40.11 60.36-35.99-52.5-.5-.34 41.24-61.73z" fill="#659bd1"/><path d="m214.95 242.82 41.09 63.01-38.72 59.31-42.48-61.96z" fill="#a4c4f3"/><path d="m256.04 305.83 38.66 59.28-37.4 54.55h-2.6l-37.38-54.52z" fill="#659bd1"/><path d="m294.7 365.11 35.58 54.55h-72.98z" fill="#a4c4f3"/><path d="m16 419.66h480v18.11h-480z" fill="#747d83"/><path d="m61.63 365.18-36.4 54.48h30l21.619-32.356z" fill="#8dadd3"/><path d="m97.6 311.34-35.97 53.84 15.219 22.124 35.969-53.84z" fill="#5486af"/><path d="m153.675 272.306-14.825-21.626-.5-.34-40.75 61 15.218 22.124z" fill="#8dadd3"/><path d="m271 96.683-15-22.453-35.58 53.26 14.958 22.516z" fill="#5486af"/><path d="m235.378 150.006-14.958-22.516-40.83 61.12 14.82 22.72z" fill="#8dadd3"/><path d="m153.675 272.306 40.735-60.976-14.82-22.72-41.24 61.73.5.34z" fill="#5486af"/><path d="m16 419.66h30v18.11h-30z" fill="#5c6468"/><path d="m496 414.662h-6.558l-229.284-343.208a5 5 0 0 0 -8.316 0l-229.284 343.208h-6.558a5 5 0 0 0 -5 5v18.107a5 5 0 0 0 5 5h480a5 5 0 0 0 5-5v-18.107a5 5 0 0 0 -5-5zm-18.584 0h-53.011l26.892-39.1zm-32.1-48.047-30.516 44.363-30.888-46.478 30.434-44.243zm-305.157-2.215 34.748-52.29 36.4 53.092-32.293 49.46h-4.282zm22.441 50.262h-55.842l27.442-41.287zm93.446-117.977-35.11-53.832 35.064-52.773 35.129 52.864zm41.112-44.677 33.972 51.121-36.33 52.983-32.792-50.276zm-47.084 53.825-32.848 50.31-36.346-53.014 34.031-51.209zm-32.645 68.291 27.792 40.538h-54.26zm5.914-9.058 32.7-50.083 32.645 50.053-32.688 47.67zm71.255 9.033 26.456 40.563h-54.27zm6.119-8.924 36.381-53.065 34.748 52.29-34.573 50.262h-4.28zm77.093 8.2 27.437 41.287h-55.842zm30.556-62.075-30.418 44.219-34.758-52.303 30.274-44.157zm-40.886-61.2-30.258 44.134-34.122-51.34 29.438-45.088zm-40.98-61.335-29.42 45.065-35.08-52.784 29.6-44.531zm-70.5-105.533 29.577 44.268-29.577 44.511-29.577-44.511zm-35.6 53.283 29.6 44.531-35.013 52.688-29.406-45.088zm-40.869 61.174 29.427 45.111-34.18 51.435-30.258-44.135zm-41 61.37 30.274 44.157-34.758 52.306-30.413-44.222zm-40.877 61.195 30.434 44.246-29.906 45-30.514-44.36zm-35.966 53.837 27.912 40.571h-55.016zm429.312 58.678h-470v-8.107h470z" fill="#284268"/></svg>