<svg id="Layer_1" height="512" viewBox="0 0 512 512" width="512" xmlns="http://www.w3.org/2000/svg" data-name="Layer 1"><g fill="#aab0bb"><path d="m29.89 383.8h445.91v56.35h-445.91z"/><path d="m153.93 43.08h199.48v36.31h-199.48z"/><path d="m138.99 154.47h230.55v46.42h-230.55z"/><path d="m74.15 263.1h359.33v57.57h-359.33z"/></g><path d="m51.64 320.62h399.85v63.13h-399.85z" fill="#77818f"/><path d="m168.07 79.29h173.66v75.08h-173.66z" fill="#77818f"/><path d="m97.57 200.79h310.69v62.21h-310.69z" fill="#77818f"/><path d="m16 440.15h480v28.77h-480z" fill="#595959"/><path d="m310.99 355.62h-113.91l-2.99 44.75h120.66z" fill="#666764"/><path d="m307.55 314.58h-107.73l-2.74 41.04h113.91z" fill="#878885"/><path d="m304.11 273.54 3.44 41.04h-107.73l2.74-41.04z" fill="#666764"/><path d="m300.67 232.5h-95.37l-2.74 41.04h101.55z" fill="#878885"/><path d="m297.23 191.46h-89.19l-2.74 41.04h95.37z" fill="#666764"/><path d="m294.13 154.47h-83.62l-2.47 36.99h89.19z" fill="#878885"/><path d="m224.42 79.39h55.91v75.08h-55.91z" fill="#666764"/><path d="m314.75 400.37 3.33 39.78h-126.65l2.66-39.78z" fill="#878885"/><path d="m29.89 383.8h30v56.35h-30z" fill="#959ba3"/><path d="m153.93 43.08h30v36.31h-30z" fill="#959ba3"/><path d="m138.99 154.47h30v46.42h-30z" fill="#959ba3"/><path d="m74.15 263.1h30v57.57h-30z" fill="#959ba3"/><path d="m51.64 320.574h30v63.126h-30z" fill="#636b75"/><path d="m168.07 79.29h30v75.08h-30z" fill="#636b75"/><path d="m97.57 200.79h30v62.21h-30z" fill="#636b75"/><path d="m16 440.15h30v28.77h-30z" fill="#424242"/><path d="m496 435.147h-15.195v-51.347a5 5 0 0 0 -5-5h-19.315v-58.133a5 5 0 0 0 -5-5h-13.011v-52.567a5 5 0 0 0 -5-5h-20.216v-57.208a5 5 0 0 0 -5-5h-33.724v-41.425a5 5 0 0 0 -5-5h-22.81v-65.079h6.682a5 5 0 0 0 5-5v-36.308a5 5 0 0 0 -5-5h-199.479a5 5 0 0 0 -5 5v36.308a5 5 0 0 0 5 5h9.136v65.079h-24.074a5 5 0 0 0 -5 5v41.425h-36.426a5 5 0 0 0 -5 5v57.208h-18.414a5 5 0 0 0 -5 5v52.567h-17.514a5 5 0 0 0 -5 5v58.133h-16.752a5 5 0 0 0 -5 5v51.343h-8.888a5 5 0 0 0 -5 5v28.777a5 5 0 0 0 5 5h480a5 5 0 0 0 5-5v-28.773a5 5 0 0 0 -5-5zm-25.195-46.347v46.343h-148.125l-3.88-46.343zm-24.315-63.133v53.133h-128.534l-4.456-53.133zm-18.011-57.567v47.567h-115.816l-3.989-47.567zm-138.948-108.633 2.263 26.992h-78.406l1.8-26.992zm-60.106-10v-65.079h45.907v65.079zm66.649 88.033 2.6 31.039h-90.769l2.073-31.039zm-85.428-10 2.074-31.04h79.913l2.6 31.04zm74.686-78.032v-65.08h51.4v65.079zm-65.907 0h-46.357v-65.08h46.357zm80.09 129.071 2.6 31.039h-96.952l2.073-31.039zm3.441 41.039 2.6 31.039h-103.135l2.074-31.039zm3.44 41.039 2.914 34.753h-109.879l2.322-34.753zm3.753 44.753 2.5 29.778h-115.875l1.989-29.778zm93.114-199.477v52.207h-95.427l-4.378-52.208zm-38.724-46.425v36.425h-61.919l-3.054-36.425zm-205.607-85.08v-26.308h189.479v26.308zm-14.938 85.079h61.175l-2.433 36.425h-58.742zm-41.426 46.425h99.5l-3.488 52.208h-96.012zm-23.414 62.208h118.758l-3.178 47.567h-115.58zm-22.514 57.567h137.426l-3.55 53.137h-133.876zm-21.752 63.133h154.96l-3.1 46.343h-151.86zm456.112 75.12h-470v-18.773h470z" fill="#284268"/></svg>