<svg id="Layer_1" height="512" viewBox="0 0 512 512" width="512" xmlns="http://www.w3.org/2000/svg" data-name="Layer 1"><path d="m76.46 398.79v94.61h-60.46v-102.77c0-7.43 3.59-14 8.24-19.8 7.82-9.77 29.35-14.24 33.5-15.49a51.041 51.041 0 0 0 18.72 43.45z" fill="#7a7a79"/><path d="m54.24 370.83a22.318 22.318 0 0 1 3.991-3.778 51.189 51.189 0 0 1 -.491-11.712c-4.15 1.25-25.68 5.72-33.5 15.49-4.65 5.8-8.24 12.37-8.24 19.8v102.77h30v-102.77c0-7.43 3.59-14 8.24-19.8z" fill="#60605f"/><path d="m338.01 433.73v59.67h111.45v-76.16z" fill="#838483"/><path d="m76.46 394.79v98.61h200.89v-99.27z" fill="#999"/><path d="m496 420.18v73.22h-46.54v-76.16a39.176 39.176 0 0 0 14.49-24.6h.01a36.494 36.494 0 0 1 14.05 1.76q.69.24 1.35.51a27.105 27.105 0 0 1 16.64 25.27z" fill="#686868"/><path d="m454.91 212.73a28.861 28.861 0 0 0 -1.4-7.15l6.83-.56c4.33-.35 8.49 2.19 9.4 6.11a5.552 5.552 0 0 1 .13.71l15.64 115.55c.8 5.9-4.42 11.01-10.86 10.64l-12.88-1.25-6.83-123.64c-.01-.14-.02-.27-.03-.41z" fill="#494948"/><path d="m464.39 384.28-9.48-174.55-139.66.07c-6.39 1.1-7.27 1.13-7.37 1.15l6.9 66.07c.81 7.68-4.44 14.34-10.92 13.86l-10.43-.88h-.01l3.38 61.17a51.026 51.026 0 0 1 -.54 10.73h.01a48.019 48.019 0 0 1 18.3 2.46c.59.21 1.18.43 1.75.66 13.29 5.35 21.69 18.61 21.69 32.94v37.77a172.323 172.323 0 0 0 41.65 2.26 174.471 174.471 0 0 0 62.17-16.06 39.19 39.19 0 0 0 22.12-29.29 38.694 38.694 0 0 0 .44-8.36z" fill="#757575"/><path d="m449.46 185.31v12.28a29.215 29.215 0 0 0 -11.07-9.26 148.8 148.8 0 0 0 -43.82-13.26 144.41 144.41 0 0 0 -22.2-1.37 122.255 122.255 0 0 0 -20.25 2.08c-18.75 3.42-35.66 10.38-46.29 15.52l-2.46-23.56c6.27-17.34 18.82-31.65 37.73-35.4a167.223 167.223 0 0 1 64.98-.02 53.97 53.97 0 0 1 43.38 52.99z" fill="#757575"/><path d="m316.32 365.02c-.57-.23-1.16-.45-1.75-.66a48.019 48.019 0 0 0 -18.3-2.46h-.01a50.984 50.984 0 0 1 -18.91 32.23v99.27h60.66v-95.44c0-14.33-8.4-27.59-21.69-32.94z" fill="#7a7a79"/><path d="m314.78 277.02-15.73-150.62c-.03-.32-.08-.63-.13-.93-.92-5.11-5.1-8.43-9.46-7.96l-6.83.73a38.037 38.037 0 0 1 1.82 9.3c.02.18.03.37.04.55l8.93 161.91h.01l10.43.88c6.48.48 11.73-6.18 10.92-13.86z" fill="#50514f"/><path d="m296.8 351.17-12.31-223.08c-.01-.18-.02-.37-.04-.55a207.187 207.187 0 0 0 -39.28-2.5h-142.77a188.534 188.534 0 0 0 -27.82 2.51l-16.84 227.79a51.041 51.041 0 0 0 18.72 43.45 49.989 49.989 0 0 0 13.75 7.9 226.374 226.374 0 0 0 177.2-6.45 51.038 51.038 0 0 0 29.39-49.07z" fill="#888986"/><path d="m277.35 91.82v16.03a38.008 38.008 0 0 0 -14.44-12.1 193.773 193.773 0 0 0 -57.12-17.28 189.481 189.481 0 0 0 -55.25.44 193.63 193.63 0 0 0 -54.45 17.03 38.359 38.359 0 0 0 -16.45 15.25v-19.37a70.312 70.312 0 0 1 56.46-69.05 217.757 217.757 0 0 1 84.71-.02 70.342 70.342 0 0 1 56.54 69.07z" fill="#888986"/><g fill="#50514f"><path d="m68.12 117.51 8.33.74a38 38 0 0 0 -1.87 9.3l-12.02 162.61-11.6.72a12.345 12.345 0 0 1 -13.01-13.86l18.74-150.62a9.012 9.012 0 0 1 .16-.93 10.457 10.457 0 0 1 11.27-7.96z"/><path d="m282.63 118.24a38.037 38.037 0 0 1 1.82 9.3 207.187 207.187 0 0 0 -39.28-2.5c-9.65.3-21.25 1.24-30.15 4.1l-9.23-50.67a193.773 193.773 0 0 1 57.12 17.28 38.119 38.119 0 0 1 19.72 22.49z"/><path d="m231.51 219.71a8.535 8.535 0 0 1 -8.39 10.07h-87.04a8.535 8.535 0 0 1 -8.42-9.91l1.45-8.92a100.945 100.945 0 0 1 100.8 0h.01z"/></g><path d="m205.79 78.47a189.481 189.481 0 0 0 -55.25.44l-21.43 132.04a100.945 100.945 0 0 1 100.8 0z" fill="#999"/><path d="m150.54 78.91-7.89 48.64c-9.51-1.57-27.27-2.72-40.25-2.51a188.534 188.534 0 0 0 -27.82 2.51 38 38 0 0 1 1.87-9.3h.01a36.94 36.94 0 0 1 3.18-7.05v-.01a38.359 38.359 0 0 1 16.45-15.25 193.63 193.63 0 0 1 54.45-17.03z" fill="#50514f"/><path d="m453.51 205.58a28.861 28.861 0 0 1 1.4 7.15 157.776 157.776 0 0 0 -30.13-1.93c-7.41.23-16.3.95-23.13 3.15l-7.08-38.88a148.8 148.8 0 0 1 43.82 13.26 29.1 29.1 0 0 1 15.12 17.25z" fill="#494948"/><path d="m414.3 283.43a6.558 6.558 0 0 1 -6.44 7.73h-66.78a6.559 6.559 0 0 1 -6.46-7.61l1.11-6.84a77.469 77.469 0 0 1 77.34 0h.01z" fill="#494948"/><path d="m394.57 175.07a144.41 144.41 0 0 0 -22.2-1.37 122.255 122.255 0 0 0 -20.25 2.08l-16.39 100.93a77.469 77.469 0 0 1 77.34 0h.01z" fill="#838483"/><path d="m352.12 175.78-6 36.95a207.46 207.46 0 0 0 -30.87-1.93c-6.39.1-7.27.13-7.37.15l-2.05-19.65c10.63-5.14 27.54-12.1 46.29-15.52z" fill="#494948"/><path d="m120.21 406.69a49.989 49.989 0 0 1 -13.75-7.9 51.041 51.041 0 0 1 -18.72-43.45l16.55-230.3h-1.89a188.534 188.534 0 0 0 -27.82 2.51l-16.84 227.79a51.041 51.041 0 0 0 18.72 43.45 49.989 49.989 0 0 0 13.75 7.9 228.119 228.119 0 0 0 96.16 14.49h.012a230.394 230.394 0 0 1 -66.172-14.49z" fill="#727272"/><path d="m106.46 118.25a36.94 36.94 0 0 1 3.18-7.05v-.01a38.359 38.359 0 0 1 16.45-15.25 195.524 195.524 0 0 1 23.218-9.435l1.232-7.595a193.63 193.63 0 0 0 -54.45 17.03 38.359 38.359 0 0 0 -16.45 15.25v.01a36.94 36.94 0 0 0 -3.18 7.05h-.01a38 38 0 0 0 -1.87 9.3 188.534 188.534 0 0 1 27.82-2.51q1.2-.02 2.457-.023a37.632 37.632 0 0 1 1.593-6.767z" fill="#434443"/><path d="m166.1 22.77a217.648 217.648 0 0 1 27.347-3.642c-4.221-.29-8.539-.479-12.977-.518a217.315 217.315 0 0 0 -44.37 4.16 70.312 70.312 0 0 0 -56.46 69.05v19.37a38.359 38.359 0 0 1 16.45-15.25c4.1-1.985 8.648-4 13.59-5.941a70.29 70.29 0 0 1 56.42-67.229z" fill="#727272"/><path d="m240.2 285.586a164.326 164.326 0 0 0 -133.612 0 5 5 0 0 0 4.061 9.138 154.326 154.326 0 0 1 125.489 0 5 5 0 0 0 4.062-9.139z" fill="#284268"/><path d="m421.433 332.905a127.235 127.235 0 0 0 -103.451 0 5 5 0 0 0 4.061 9.138 117.24 117.24 0 0 1 95.328 0 5 5 0 1 0 4.062-9.138z" fill="#284268"/><path d="m481.232 390.273q-.767-.309-1.567-.589a39.406 39.406 0 0 0 -10.235-2.029c.032-1.208.018-2.425-.049-3.649l-2.3-41.69 7.09.688c.065.006.131.012.2.015.317.018.631.027.946.027a15.569 15.569 0 0 0 11.489-4.94 13.977 13.977 0 0 0 3.662-11.383l-15.641-115.551c-.054-.4-.126-.79-.216-1.175-1.448-6.247-7.758-10.517-14.684-9.958l-3.147.259a34.307 34.307 0 0 0 -2.318-4.207v-10.78a59.079 59.079 0 0 0 -47.407-57.892 172.035 172.035 0 0 0 -66.927.016c-13.819 2.741-25.345 10.679-33.555 22.85l-2.55-24.4q-.067-.656-.183-1.3c-1.366-7.629-7.778-12.81-14.914-12.047l-3.022.322a43.267 43.267 0 0 0 -3.555-6.562v-14.482a75.485 75.485 0 0 0 -60.572-73.972 222.723 222.723 0 0 0 -86.645.02 75.463 75.463 0 0 0 -60.495 73.955v18.163c-.52.968-1.009 1.953-1.454 2.96l-4.618-.413a15.432 15.432 0 0 0 -16.608 11.894c-.1.446-.171.9-.229 1.359l-18.742 150.618a17.351 17.351 0 0 0 17.2 19.5c.36 0 .723-.011 1.085-.033l5.879-.366-4.135 55.922c-8.236 2.161-25.163 6.9-32.682 16.287-6.28 7.843-9.333 15.34-9.333 22.918v102.772a5 5 0 0 0 5 5h480a5 5 0 0 0 5-5v-73.223c0-13.124-7.944-25.141-19.768-29.904zm-20.485-180.268c1.919-.154 3.8.874 4.124 2.254.019.083.035.168.046.254l15.636 115.551a4 4 0 0 1 -1.092 3.25 5.653 5.653 0 0 1 -4.44 1.726l-8.5-.824-6.589-119.354c-.052-.931-.152-1.852-.277-2.767zm-86.9 51.362a82.324 82.324 0 0 0 -31.625 6.556l14.257-87.815a115.141 115.141 0 0 1 15.961-1.408 139.14 139.14 0 0 1 17.865.9l16.067 88.233a82.347 82.347 0 0 0 -32.521-6.466zm34.729 18.574.8 4.385a1.549 1.549 0 0 1 -1.519 1.83h-66.774a1.55 1.55 0 0 1 -1.524-1.8l.72-4.44a72.383 72.383 0 0 1 68.3.026zm-66.614-72.822a231.111 231.111 0 0 0 -26.8-1.322l-2.791.048-1.2-11.535a186.28 186.28 0 0 1 34.849-12.16zm63.636.652-4.838-26.591a145.241 145.241 0 0 1 35.463 11.654 24.261 24.261 0 0 1 12.43 13.988 164.179 164.179 0 0 0 -24.035-1.023 112.132 112.132 0 0 0 -19.018 1.972zm-63.528-70.528a162.066 162.066 0 0 1 63.039-.014 49.054 49.054 0 0 1 39.349 48.082v.719a34.121 34.121 0 0 0 -3.911-2.21 153.414 153.414 0 0 0 -68.247-15.12c-24.136.359-47.5 8.638-62.218 15.133l-1.613-15.446c3.947-10.364 13.352-27.126 33.605-31.144zm-52.084-14.763c1.834-.186 3.587 1.5 4.01 3.863.034.188.061.379.081.575l15.733 150.617a8.636 8.636 0 0 1 -2.129 6.883 4.37 4.37 0 0 1 -3.4 1.476l-6.1-.514-8.7-157.568a43.444 43.444 0 0 0 -.621-5.212zm-111.186 69.989a105.944 105.944 0 0 0 -43.176 9.536l19.268-118.674a186.116 186.116 0 0 1 22.044-1.649 182.751 182.751 0 0 1 24.6 1.292l21.659 118.941a106.365 106.365 0 0 0 -44.395-9.446zm46.62 21.7 1.172 6.438a3.538 3.538 0 0 1 -3.474 4.177h-87.037a3.538 3.538 0 0 1 -3.486-4.109l1.061-6.533a95.914 95.914 0 0 1 91.766.027zm-13.441-129.641a190.7 190.7 0 0 1 48.77 15.726 33.162 33.162 0 0 1 17.682 21.393 212.376 212.376 0 0 0 -33.418-1.609 138.959 138.959 0 0 0 -26.047 2.861zm-127.342 7.291a65.438 65.438 0 0 1 52.441-64.146 212.762 212.762 0 0 1 82.758-.02 65.464 65.464 0 0 1 52.513 64.163v3.856a43.112 43.112 0 0 0 -7.272-4.432 198.184 198.184 0 0 0 -88.29-19.557 195.674 195.674 0 0 0 -82.871 19.754 43.064 43.064 0 0 0 -9.279 6.086zm13.634 8.619a187.6 187.6 0 0 1 46.213-15.4l-5.984 36.884a296.1 296.1 0 0 0 -36.173-1.886 194.341 194.341 0 0 0 -21.656 1.572 33.392 33.392 0 0 1 17.6-21.17zm-47.62 185.448a7.35 7.35 0 0 1 -7.741-8.253l18.74-150.612q.033-.261.087-.513a5.5 5.5 0 0 1 5.936-4.019l2.516.225a42.821 42.821 0 0 0 -.592 4.472l-11.7 158.25zm20.805 202.514h-50.456v-97.772c0-5.289 2.269-10.585 7.139-16.668 4.807-6 16.991-9.983 24.534-12.086a56.487 56.487 0 0 0 18.783 39.166zm200.893 0h-190.893v-80.282a54.134 54.134 0 0 0 6.984 3.244 232.4 232.4 0 0 0 82.742 15.324q7.743 0 15.52-.521a231.858 231.858 0 0 0 82.818-21.394c.963-.45 1.9-.931 2.829-1.428zm-7.057-92.692a221.378 221.378 0 0 1 -173.308 6.3 46.066 46.066 0 0 1 -29.259-46.308l16.551-223.808a184.508 184.508 0 0 1 23.209-1.857 287.467 287.467 0 0 1 34.407 1.766l-14.168 87.269a13.538 13.538 0 0 0 13.357 15.712h87.039a13.538 13.538 0 0 0 13.312-15.968l-15.672-86.065a129.094 129.094 0 0 1 24.568-2.716 202.591 202.591 0 0 1 34.365 1.865l12.119 219.546a45.833 45.833 0 0 1 -26.52 44.264zm67.717 92.692h-50.66v-91.878a55.606 55.606 0 0 0 18.064-29.7 43.4 43.4 0 0 1 12.5 2.261q.787.276 1.541.579c11.1 4.47 18.552 15.841 18.552 28.3zm111.453 0h-101.453v-46.818a178.243 178.243 0 0 0 25.144 1.794q5.928 0 11.845-.4a179.034 179.034 0 0 0 63.95-16.52c.174-.081.342-.169.514-.252zm-4.741-71a168.123 168.123 0 0 1 -96.712 14.077v-33.521c0-16.494-9.973-31.592-24.817-37.572q-.967-.389-1.976-.742a53.141 53.141 0 0 0 -14.408-2.767 57.128 57.128 0 0 0 -.011-5.982l-3.06-55.431 4.753.4q.524.039 1.043.039a14.282 14.282 0 0 0 10.324-4.519 18.724 18.724 0 0 0 4.9-14.886l-6.337-60.668 1.91-.032a222.035 222.035 0 0 1 25.032 1.204l-10.674 65.75a11.549 11.549 0 0 0 11.4 13.4h66.776a11.548 11.548 0 0 0 11.357-13.622l-11.823-64.928a102.833 102.833 0 0 1 17.54-1.812 153.961 153.961 0 0 1 25.218 1.289l9.244 167.48a34.007 34.007 0 0 1 -19.679 32.843zm51.279 71h-36.538v-68.793a43.809 43.809 0 0 0 13.577-22.019 30.164 30.164 0 0 1 8.325 1.536c.386.134.762.276 1.132.425a22.224 22.224 0 0 1 13.504 20.628z" fill="#284268"/></svg>