<svg id="Layer_1" height="512" viewBox="0 0 512 512" width="512" xmlns="http://www.w3.org/2000/svg" data-name="Layer 1"><path d="m97.12 393.99 13.68 25.88a3.877 3.877 0 0 0 3.42 2.07h290.03a3.874 3.874 0 0 0 3.74-2.86l6.89-25.09z" fill="#888986"/><path d="m108.34 466.72h295.32v28.07h-295.32z" fill="#827364"/><path d="m214.66 72.8 9.69 30.88h63.3l9.69-30.88z" fill="#a3a3a3"/><path d="m287.29 58.04a28.744 28.744 0 0 1 -4.07 14.76h-54.44a28.744 28.744 0 0 1 -4.07-14.76c0-23.23 31.29-43.25 31.29-43.25s31.29 20.02 31.29 43.25z" fill="#d9bb4b"/><path d="m304.78 270.22 20.84 123.77h-139.24l47.76-290.31h42.59z" fill="#bdbdbd"/><path d="m119.46 421.94h273.08c0 25.34-34.31 44.78-34.31 44.78h-206.07s-32.7-19.44-32.7-44.78z" fill="#686868"/><path d="m140.8 419.87-13.68-25.88h-30l13.68 25.88a3.877 3.877 0 0 0 3.42 2.07h30a3.877 3.877 0 0 1 -3.42-2.07z" fill="#707070"/><path d="m108.34 466.72h30v28.07h-30z" fill="#6b6056"/><path d="m254.35 103.68-9.69-30.88h-30l9.69 30.88z" fill="#888889"/><path d="m258.78 72.8a28.744 28.744 0 0 1 -4.07-14.76c0-11.935 8.258-23.013 16.29-30.974a102.607 102.607 0 0 0 -15-12.276s-31.29 20.02-31.29 43.25a28.744 28.744 0 0 0 4.07 14.76z" fill="#bfa34b"/><path d="m264.14 103.68h-30l-47.76 290.31h30z" fill="#a7a7a8"/><path d="m149.46 421.94h-30c0 25.34 32.7 44.78 32.7 44.78h30s-32.7-19.44-32.7-44.78z" fill="#545454"/><path d="m106.376 422.208a8.861 8.861 0 0 0 7.849 4.728h.6c2.11 14.715 13.089 26.959 22.166 34.786h-28.65a5 5 0 0 0 -5 5v28.066a5 5 0 0 0 5 5h295.318a5 5 0 0 0 5-5v-28.066a5 5 0 0 0 -5-5h-29.68c9.508-7.834 20.975-20.068 23.178-34.786h7.092a8.9 8.9 0 0 0 8.562-6.528l6.9-25.089a5 5 0 0 0 -4.821-6.325h-85.043l-19.934-118.374c.011-.133.04-.26.04-.4a4.967 4.967 0 0 0 -.453-2.058l-26.856-159.477h5a5 5 0 0 0 4.77-3.5l9.7-30.883a5 5 0 0 0 -4.77-6.5h-6.521a33.76 33.76 0 0 0 1.462-9.761c0-25.675-32.22-46.587-33.591-47.465a5 5 0 0 0 -5.39 0c-1.371.878-33.591 21.79-33.591 47.465a33.76 33.76 0 0 0 1.462 9.761h-6.521a5 5 0 0 0 -4.77 6.5l9.7 30.883a5 5 0 0 0 4.77 3.5h3.9l-46.117 280.309h-85.022a5 5 0 0 0 -4.42 7.337zm292.283 49.514v18.066h-285.318v-18.066zm-41.818-10h-203.241a94.49 94.49 0 0 1 -14.283-11.457c-5.764-5.662-12.451-13.979-14.324-23.329h262c-3.643 17.516-25.093 31.664-30.152 34.786zm-113.062-430.37a100.845 100.845 0 0 1 12.221-10.478 100.859 100.859 0 0 1 12.221 10.478c6.417 6.517 14.065 16.438 14.065 26.689a23.84 23.84 0 0 1 -2.109 9.761h-48.355a23.855 23.855 0 0 1 -2.108-9.761c0-10.251 7.648-20.172 14.065-26.689zm-15.754 67.333-6.558-20.885h69.066l-6.558 20.883zm-29.3 251.106h15.875a5 5 0 0 0 0-10h-14.234l27.772-168.811h14.4a5 5 0 0 0 0-10h-12.755l8.6-52.295h34.117l26.36 156.539h-13.728a5 5 0 0 0 0 10h15.415l19.159 113.77h-127.435zm209.6 49.2-4.931 17.942h-288.494l-9.486-17.942z" fill="#284268"/></svg>