<svg id="Layer_1" height="512" viewBox="0 0 512 512" width="512" xmlns="http://www.w3.org/2000/svg" data-name="Layer 1"><path d="m257.47 16-.36 70.09-39.95-21.56z" fill="#ccd3df"/><path d="m257.47 16 39.77 48.53-39.77 21.76-.36-.2z" fill="#aaafbf"/><path d="m257.11 86.09-1.85 358.14h-72.38l34.28-379.7z" fill="#d0c6c2"/><path d="m297.24 64.53 31.88 379.7h-73.86l1.85-358.14.36.2z" fill="#aba9b0"/><path d="m117.69 471.01h276.62v24.99h-276.62z" fill="#aa7b4f"/><path d="m138.04 444.23h235.92v26.78h-235.92z" fill="#c79a83"/><path d="m257.47 16-40.31 48.53 28.581 15.719 11.542-27.907z" fill="#aeb6c1"/><path d="m217.16 64.53-34.28 379.7h30l32.886-364.262z" fill="#a09997"/><path d="m117.69 471.01h30v24.99h-30z" fill="#8e6543"/><path d="m138.04 444.23h30v26.78h-30z" fill="#aa8372"/><path d="m394.311 466.008h-15.351v-21.777a5 5 0 0 0 -5-5h-40.246l-31.491-375.12a4.991 4.991 0 0 0 -1.115-2.75l-39.768-48.53a5 5 0 0 0 -3.85-1.831h-.017a5 5 0 0 0 -3.846 1.8l-40.314 48.53a5.007 5.007 0 0 0 -1.134 2.745l-33.864 375.156h-40.275a5 5 0 0 0 -5 5v21.777h-15.351a5 5 0 0 0 -5 5v24.992a5 5 0 0 0 5 5h276.622a5 5 0 0 0 5-5v-24.992a5 5 0 0 0 -5-5zm-131.911-436.108 27.152 33.134-27.4 14.995zm-.307 59.561 30.807-16.856 30.777 366.626h-63.39zm-9.693-59.531-.247 47.81-27.247-14.71zm-30.944 42.6 30.644 16.542-1.809 350.159h-61.93zm-78.417 376.7h225.921v16.777h-225.92zm246.272 41.77h-266.622v-14.992h266.622z" fill="#284268"/></svg>