<svg id="Layer_1" height="512" viewBox="0 0 512 512" width="512" xmlns="http://www.w3.org/2000/svg" data-name="Layer 1"><path d="m239.14 415.69h34.24v36.18h-34.24z" fill="#777784"/><path d="m239.14 189.06h34.24v49.53h-34.24z" fill="#777784"/><path d="m239.14 415.69h24v36.18h-24z" fill="#64646d"/><path d="m239.14 189.06h24v49.53h-24z" fill="#64646d"/><path d="m355.37 497.03-67.03-105.29c.01.24.01.47.01.71l-8.19 21.49 28.07 44.66 25.39 40.4h20.68a1.282 1.282 0 0 0 1.07-1.97z" fill="#696977"/><path d="m286.49 161.02a32.39 32.39 0 0 1 -.65 23.32h-59.16a32.39 32.39 0 0 1 -.65-23.32z" fill="#c79a83"/><path d="m239.14 451.87h34.24v43.8h-34.24z" fill="#696977"/><path d="m239.14 324.12h34.24v45.1h-34.24z" fill="#696977"/><path d="m239.14 283.02h34.24v41.1h-34.24z" fill="#777784"/><path d="m239.14 238.59h34.24v44.43h-34.24z" fill="#696977"/><path d="m247.51 73.05v.01 77.78h17.5v-77.78-.01z" fill="#696977"/><path d="m224.17 392.45-67.74 106.55h23l25.39-40.41 27.84-44.32z" fill="#696977"/><path d="m286.49 161.02h-60.46a32.053 32.053 0 0 1 60.46 0z" fill="#59597c"/><path d="m226.68 184.34h59.16a32.322 32.322 0 0 1 -12.46 14.72 32.026 32.026 0 0 1 -34.24 0 32.322 32.322 0 0 1 -12.46-14.72z" fill="#59597c"/><path d="m256.26 56.81a14.593 14.593 0 0 1 8.75 26.24 14.55 14.55 0 0 1 -23.3-11.65 14.572 14.572 0 0 1 14.55-14.59z" fill="#59597c"/><path d="m288.34 391.74c.01.24.01.47.01.71a32.184 32.184 0 0 1 -2.24 11.85h-59.7a32.376 32.376 0 0 1 -.13-23.33h59.96a31.789 31.789 0 0 1 2.1 10.77z" fill="#c79a83"/><path d="m286.24 380.97h-59.96a32.218 32.218 0 0 1 12.86-15.75 32.026 32.026 0 0 1 34.24 0 32.218 32.218 0 0 1 12.86 15.75z" fill="#59597c"/><path d="m226.42 404.3h59.68a32.045 32.045 0 0 1 -46.96 15.39 32.222 32.222 0 0 1 -12.72-15.39z" fill="#59597c"/><path d="m239.14 283.02h24v41.1h-24z" fill="#64646d"/><path d="m239.14 451.87h24v43.8h-24z" fill="#5b5b66"/><path d="m239.14 324.12h24v45.1h-24z" fill="#5b5b66"/><path d="m239.14 238.59h24v44.43h-24z" fill="#5b5b66"/><path d="m250.28 380.97h-24a32.376 32.376 0 0 0 .13 23.33h24a32.376 32.376 0 0 1 -.13-23.33z" fill="#f2c5b1"/><g fill="#7a7a9e"><path d="m263.14 365.22a31.87 31.87 0 0 1 5.12-2.614 31.96 31.96 0 0 0 -29.12 2.614 32.218 32.218 0 0 0 -12.86 15.75h24a32.218 32.218 0 0 1 12.86-15.75z"/><path d="m256.66 414.27a32.094 32.094 0 0 1 -6.24-9.97h-24a32.011 32.011 0 0 0 41.84 18 32.034 32.034 0 0 1 -5.12-2.614 32.394 32.394 0 0 1 -6.48-5.416z"/><path d="m268.26 141.966a32.095 32.095 0 0 0 -20.75-1.126 32.174 32.174 0 0 0 -21.48 20.18h24a32.2 32.2 0 0 1 18.23-19.054z"/><path d="m250.68 184.34h-24a32.322 32.322 0 0 0 12.46 14.72 31.96 31.96 0 0 0 29.12 2.614 31.952 31.952 0 0 1 -5.12-2.614 32.322 32.322 0 0 1 -12.46-14.72z"/></g><path d="m250.03 161.02h-24a32.39 32.39 0 0 0 .65 23.32h24a32.39 32.39 0 0 1 -.65-23.32z" fill="#f2c5b1"/><path d="m156.425 504h23a5 5 0 0 0 4.234-2.34l22.854-36.373 27.625 15.576v14.81a5 5 0 0 0 5 5h34.242a5 5 0 0 0 5-5v-14.511l28.152-15.872 22.859 36.371a5 5 0 0 0 4.234 2.339h20.675a6.281 6.281 0 0 0 5.295-9.656l-66.319-104.167a37.2 37.2 0 0 0 -14.9-27.562v-160.949a37.219 37.219 0 0 0 -8.368-64.374v-51.986a19.579 19.579 0 0 0 -8.748-32.826v-33.48a5 5 0 0 0 -10 0v33.48a19.579 19.579 0 0 0 -8.753 32.826v51.986a37.22 37.22 0 0 0 -8.368 64.374v160.949a37.2 37.2 0 0 0 -14.934 28.324l-67 105.378a5 5 0 0 0 4.22 7.683zm77.714-34.618-22.3-12.572 21.889-34.836c.137.106.271.216.41.32zm34.241 21.291h-24.241v-33.8h24.241zm0-43.8h-24.241v-19.273a36.856 36.856 0 0 0 24.241 0zm-12.12-27.222a27.015 27.015 0 0 1 -21.25-10.351h42.5a27.015 27.015 0 0 1 -21.25 10.351zm22.12 50.031v-47.388c.256-.192.5-.394.756-.592l22.064 35.111zm12.683-64.361 56.453 88.679h-11.129l-50.111-79.731a37.161 37.161 0 0 0 4.787-8.948zm-34.803-343.515a9.594 9.594 0 1 1 -9.548 9.594 9.582 9.582 0 0 1 9.548-9.594zm3.752 28.817v44.2a37.151 37.151 0 0 0 -7.5 0v-44.2a19.163 19.163 0 0 0 7.5 0zm-3.752 54.007a27.041 27.041 0 0 1 22.023 11.385h-44.047a27.042 27.042 0 0 1 22.024-11.385zm-26.032 34.714a27.162 27.162 0 0 1 -.432-13.329h52.928a27.162 27.162 0 0 1 -.432 13.329zm13.911 139.779v-31.1h24.241v31.1zm24.241 10v28.185a36.856 36.856 0 0 0 -24.241 0v-28.185zm-24.241-51.1v-34.437h24.241v34.435zm0-44.435v-26.615a36.856 36.856 0 0 0 24.241 0v26.613zm12.121-34.563a27 27 0 0 1 -20.7-9.679h41.4a27 27 0 0 1 -20.7 9.677zm0 166.235a27.026 27.026 0 0 1 21.527 10.71h-43.055a27.027 27.027 0 0 1 21.528-10.712zm-26.309 20.71h52.617a27.265 27.265 0 0 1 -.085 13.328h-52.447a27.3 27.3 0 0 1 -.085-13.328zm-8.321 19.795a37.228 37.228 0 0 0 4.887 8.893l-49.854 79.342h-11.134z" fill="#284268"/></svg>