<svg id="Layer_1" height="512" viewBox="0 0 512 512" width="512" xmlns="http://www.w3.org/2000/svg" data-name="Layer 1"><path d="m283.1 434.3h58.9v41.49h-58.9z" fill="#e75163"/><path d="m305.43 355.01h21.56v34.24h-21.56z" fill="#e75163"/><path d="m305.43 276.85h21.56v37.22h-21.56z" fill="#e75163"/><path d="m293.63 196.43h21.08v43.83h-21.08z" fill="#e75163"/><path d="m206.08 355.01h99.35v34.24h-99.35z" fill="#a34853"/><path d="m206.08 276.85h99.35v37.22h-99.35z" fill="#a34853"/><path d="m281.59 120.54h21.07v43.58h-21.07z" fill="#e75163"/><path d="m218.37 196.43h75.26v43.83h-75.26z" fill="#a34853"/><path d="m228.9 434.3h54.2v41.49h-54.2z" fill="#a34853"/><path d="m230.41 120.54h51.18v43.58h-51.18z" fill="#a34853"/><g fill="#e75163"><path d="m209.34 120.54h21.07v43.58h-21.07z"/><path d="m170 434.3h58.9v41.49h-58.9z"/><path d="m197.29 196.43h21.08v43.83h-21.08z"/><path d="m185.01 355.01h21.07v34.24h-21.07z"/><path d="m185.01 276.85h21.07v37.22h-21.07z"/></g><path d="m397.18 401.49c-9.27 3.91-34.25 11.23-55.94-11.48a2.328 2.328 0 0 0 -1.68-.76h-167.28a1.939 1.939 0 0 0 -1.4.63c-21.73 22.87-46.78 15.53-56.06 11.61-1.58-.67-3.14 1.03-2.59 2.84 2.68 8.83 11.27 27.49 36.27 29.97h215c25-2.48 33.59-21.14 36.27-29.97.55-1.81-1.01-3.51-2.59-2.84z" fill="#5d6470"/><path d="m384.3 325.19c-8.42 3.56-31.12 10.21-50.84-10.43a2.077 2.077 0 0 0 -1.52-.69h-152.03a1.753 1.753 0 0 0 -1.27.58c-19.74 20.77-42.51 14.11-50.94 10.54-1.44-.61-2.86.94-2.36 2.58 2.44 8.03 10.25 24.99 32.97 27.24h195.38c22.72-2.25 30.53-19.21 32.97-27.24.5-1.64-.92-3.19-2.36-2.58z" fill="#5d6470"/><path d="m370.7 250.2c-7.53 3.18-27.82 9.12-45.45-9.33a1.87 1.87 0 0 0 -1.36-.61h-135.91a1.566 1.566 0 0 0 -1.14.51c-17.65 18.57-38 12.61-45.54 9.43-1.28-.55-2.55.83-2.11 2.3 2.19 7.18 9.17 22.34 29.47 24.35h174.68c20.3-2.01 27.28-17.17 29.47-24.35.44-1.47-.83-2.85-2.11-2.3z" fill="#5d6470"/><path d="m350.16 98.65c-6.18 2.62-54.54 2.94-73.44-21.25a1.382 1.382 0 0 0 -1.11-.5h-44.34a1.165 1.165 0 0 0 -.93.42c-19.19 24.36-62.31 19.42-68.5 16.8-1.05-.44-2.09.69-1.73 1.9 1.79 5.89 7.52 22.86 24.19 24.52h143.4c16.67-1.66 22.4-14.1 24.19-19.99.36-1.21-.68-2.34-1.73-1.9z" fill="#5d6470"/><path d="m350.16 174.55c-6.18 2.61-22.84 5.22-37.31-9.93a1.573 1.573 0 0 0 -1.12-.5h-111.57a1.318 1.318 0 0 0 -.93.42c-14.49 15.25-31.2 12.62-37.39 10.01-1.05-.45-2.09.69-1.73 1.89 1.79 5.89 7.52 18.34 24.19 19.99h143.4c16.67-1.65 22.4-14.1 24.19-19.99.36-1.2-.68-2.34-1.73-1.89z" fill="#5d6470"/><path d="m170 475.79v17.94a2.148 2.148 0 0 0 2.01 2.27h167.98a2.148 2.148 0 0 0 2.01-2.27v-17.94z" fill="#98979b"/><path d="m142.534 405.289a52.942 52.942 0 0 1 -27.714-3.8c-1.58-.67-3.14 1.03-2.59 2.84 2.68 8.83 11.27 27.49 36.27 29.97h30c-24.13-2.393-32.97-19.857-35.966-29.01z" fill="#4b5159"/><path d="m158.31 355.01h30c-22.348-2.213-30.266-18.653-32.842-26.833-11.984 2.559-22.586-.793-27.768-2.987-1.44-.61-2.86.94-2.36 2.58 2.44 8.03 10.25 24.99 32.97 27.24z" fill="#4b5159"/><path d="m168.66 276.85h30c-20.3-2.01-27.28-17.17-29.47-24.35a2.017 2.017 0 0 1 -.067-.414c-11.919 3.627-22.76.249-27.823-1.886-1.28-.55-2.55.83-2.11 2.3 2.19 7.18 9.17 22.34 29.47 24.35z" fill="#4b5159"/><path d="m184.3 120.54h30c-16.67-1.66-22.4-18.63-24.19-24.52-.008-.027-.006-.053-.013-.079-13.486 1.268-25.245-.546-28.257-1.821-1.05-.44-2.09.69-1.73 1.9 1.79 5.89 7.52 22.86 24.19 24.52z" fill="#4b5159"/><path d="m161.84 174.55c-1.05-.45-2.09.69-1.73 1.89 1.79 5.89 7.52 18.34 24.19 19.99h27c-16.007-1.584-22.639-13.774-24.912-22.71-10.446 4.541-20.151 2.68-24.548.83z" fill="#4b5159"/><path d="m395.23 396.882c-8.676 3.668-30.955 10-50.378-10.331a7.367 7.367 0 0 0 -5.288-2.3h-7.564v-24.244h21.7c.164 0 .329-.008.493-.024 25.969-2.574 34.706-22.367 37.256-30.758a7.208 7.208 0 0 0 -2.025-7.437 6.618 6.618 0 0 0 -7.065-1.2c-7.8 3.3-27.819 8.992-45.273-9.281a7.153 7.153 0 0 0 -5.086-2.232v-27.224h11.34c.165 0 .33-.009.494-.025 23.533-2.333 31.449-20.267 33.76-27.869a6.979 6.979 0 0 0 -1.963-7.2 6.439 6.439 0 0 0 -6.876-1.169c-6.87 2.905-24.509 7.921-39.883-8.175a6.926 6.926 0 0 0 -4.976-2.159h-4.185v-33.826h7.99c.164 0 .329-.008.493-.024 19.856-1.969 26.534-17.1 28.482-23.508a6.625 6.625 0 0 0 -1.867-6.835 6.173 6.173 0 0 0 -6.594-1.12c-.679.288-16.818 6.857-31.746-8.772a6.585 6.585 0 0 0 -4.731-2.047h-4.069v-33.585h20.031c.164 0 .329-.008.493-.024 19.856-1.969 26.533-17.1 28.482-23.509a6.624 6.624 0 0 0 -1.868-6.835 6.16 6.16 0 0 0 -6.56-1.133c-2.155.791-14.522 1.693-29.614-.961-12.333-2.168-28.933-7.175-37.973-18.752a6.359 6.359 0 0 0 -5.054-2.42h-14.606v-55.903a5 5 0 0 0 -10 0v55.9h-19.729a6.139 6.139 0 0 0 -4.861 2.326c-17.254 21.9-57.422 17.488-62.62 15.29a6.172 6.172 0 0 0 -6.593 1.119 6.623 6.623 0 0 0 -1.868 6.834c6.531 21.489 19.093 27.11 28.482 28.041.164.016.329.024.493.024h20.032v33.585h-4.174a6.323 6.323 0 0 0 -4.562 1.981c-14.94 15.723-31.133 9.13-31.814 8.842a6.174 6.174 0 0 0 -6.594 1.12 6.626 6.626 0 0 0 -1.868 6.833c1.949 6.413 8.627 21.541 28.483 23.51.164.016.329.024.493.024h7.99v33.828h-4.313a6.612 6.612 0 0 0 -4.762 2.068c-15.394 16.2-33.079 11.178-39.969 8.266a6.44 6.44 0 0 0 -6.876 1.169 6.978 6.978 0 0 0 -1.963 7.2c2.311 7.6 10.227 25.537 33.76 27.87.164.016.329.025.494.025h11.34v27.221h-.092a6.8 6.8 0 0 0 -4.9 2.129c-17.476 18.394-37.55 12.69-45.372 9.383a6.614 6.614 0 0 0 -7.063 1.2 7.208 7.208 0 0 0 -2.025 7.437c2.55 8.391 11.287 28.184 37.256 30.758.164.016.329.024.493.024h21.7v24.247h-7.727a6.976 6.976 0 0 0 -5.025 2.186c-19.446 20.466-41.783 14.12-50.484 10.441a6.78 6.78 0 0 0 -7.242 1.236 7.429 7.429 0 0 0 -2.083 7.664c2.778 9.136 12.29 30.689 40.564 33.491a4.773 4.773 0 0 0 .493.025h16.506v54.437a7.148 7.148 0 0 0 7.008 7.266h167.984a7.148 7.148 0 0 0 7.008-7.266v-54.434h16.5a4.773 4.773 0 0 0 .493-.025c28.274-2.8 37.786-24.355 40.564-33.49a7.43 7.43 0 0 0 -2.083-7.665 6.782 6.782 0 0 0 -7.244-1.238zm-210.665-281.345c-7.658-.849-13.549-5.95-17.564-15.192 15.131 2.21 48.25 2.23 66.041-18.442h40.9c11.233 13.164 29.686 18.742 43.42 21.1a118.822 118.822 0 0 0 27.366 1.609c-2.791 4.844-7.923 9.919-17.289 10.923zm113.1 10v33.585h-11.075v-33.585zm-21.074 0v33.585h-41.181v-33.585zm-51.18 0v33.585h-11.075v-33.585zm-40.849 65.891c-8.908-.955-13.986-5.593-16.863-10.212 9.33 1.287 22.414-.583 34.042-12.094h108.519c11.634 11.511 24.719 13.38 34.043 12.092-2.877 4.62-7.954 9.259-16.864 10.214zm125.145 10v33.828h-11.075v-33.828zm-21.074 0v33.828h-65.265v-33.828zm-75.264 0v33.828h-11.075v-33.828zm-44.449 70.423c-12.453-1.315-19-8.308-22.419-14.695 10.269 2.545 27.578 3.456 42.951-11.9h133.1c15.375 15.36 32.683 14.445 42.951 11.9-3.415 6.387-9.964 13.381-22.419 14.7zm153.076 10v27.221h-11.568v-27.221zm-21.567 0v27.221h-89.35v-27.221zm-99.349 0v27.221h-11.075v-27.221zm-42.52 68.156c-14.957-1.567-22.445-10.32-26.154-17.885 11.786 3.315 31.3 4.7 48.907-13.05h149.375c17.609 17.755 37.124 16.363 48.907 13.049-3.709 7.566-11.2 16.319-26.154 17.886zm163.436 10v24.247h-11.568v-24.247zm-21.567 0v24.247h-89.35v-24.247zm-99.349 0v24.247h-11.075v-24.247zm135.92 130.993h-162v-10.208h162zm-162-20.208v-31.492h48.9v31.495zm58.9 0v-31.492h44.2v31.495zm103.094 0h-48.894v-31.492h48.9zm26.251-41.492h-214.49c-17.382-1.811-25.728-12.319-29.684-20.977 12.75 3.832 34.763 5.991 54.536-14.066h164.786c19.776 20.059 41.791 17.9 54.537 14.066-3.957 8.655-12.303 19.163-29.685 20.977z" fill="#284268"/></svg>