<svg id="Layer_1" height="512" viewBox="0 0 512 512" width="512" xmlns="http://www.w3.org/2000/svg" data-name="Layer 1"><path d="m207.65 113.28-10.41 76.63 156.13 27.8 14.13-75.84z" fill="#c79a83"/><path d="m361.4 56.78-120.48-18.46c-.31-.05-.61-.11-.91-.18l-.01.04-9.54 58.17 122.81 21.18z" fill="#c79a83"/><path d="m189.25 208.94-9.14 76.77 158.27 28.98 9.26-78.31z" fill="#c79a83"/><path d="m165.42 380.18 158.23 29.1.03-.18 8.89-73.49-158.95-28.97z" fill="#c79a83"/><path d="m148.52 474.57v.3l163.88-.13 4.53-45.64-157.15-28.45z" fill="#c79a83"/><g fill="#8e6d65"><path d="m339.46 167.83a15.332 15.332 0 0 1 -.13 2.02l-5.78 44.33-27.52-4.9.01-.04 4.8-43.12c.94-8.41 8.37-14.33 16.4-13.07a14.8 14.8 0 0 1 12.22 14.78z"/><path d="m333.83 83.22a13.725 13.725 0 0 1 -.13 1.91l-3.96 28.34-28.32-4.88 3.24-27a14.545 14.545 0 0 1 16.71-12.39 14.329 14.329 0 0 1 12.46 14.02z"/><path d="m325.27 262.95a14.909 14.909 0 0 1 -.14 1.99l-5.48 46.32-29.07-5.32 5.39-44.66a14.7 14.7 0 0 1 29.3 1.67z"/><path d="m308.59 360.71a15.786 15.786 0 0 1 -.13 2.05l-5.74 42.67-27.94-5.14 4.64-41.32a14.734 14.734 0 0 1 16.71-13.23 15 15 0 0 1 12.46 14.97z"/><path d="m294.89 158.61a15.442 15.442 0 0 1 -.13 2.02l-5.72 45.62-27.87-4.96 5.11-44.4c.93-8.4 8.36-14.32 16.39-13.07a14.793 14.793 0 0 1 12.22 14.79z"/><path d="m278.68 253.8a14.885 14.885 0 0 1 -.13 1.99l-6.02 46.84-28.53-5.22 5.39-45.28a14.7 14.7 0 0 1 29.29 1.67z"/><path d="m262.7 351.31a15.786 15.786 0 0 1 -.13 2.05l-5.62 43.65-28.01-5.15 4.59-42.28a14.741 14.741 0 0 1 16.71-13.24 15 15 0 0 1 12.46 14.97z"/></g><path d="m372.23 120.8-161.28-27.81a10.26 10.26 0 0 0 -11.92 8.93 9.819 9.819 0 0 0 -.07 1.21 10.273 10.273 0 0 0 8.45 10.11l.24.04 160.96 28.79a10.26 10.26 0 0 0 12.01-9.21l.09-1.01a10.281 10.281 0 0 0 -8.48-11.05z" fill="#e1b7a3"/><path d="m240.01 38.14 124.48 19.11a10.857 10.857 0 0 0 12.45-9.76c.03-.34.05-.67.05-1a10.879 10.879 0 0 0 -9.16-10.75l-123.47-19.6a11.2 11.2 0 0 0 -12.93 10.59c-.01.17-.01.33-.01.5a11.2 11.2 0 0 0 8.59 10.91z" fill="#e1b7a3"/><path d="m358.44 218.61-166.51-29.65a9.651 9.651 0 0 0 -11.31 8.92l-.05.8a9.672 9.672 0 0 0 7.99 10.14l166.55 28.85a9.644 9.644 0 0 0 11.19-8.2 10.2 10.2 0 0 0 .09-1.35 9.663 9.663 0 0 0 -7.95-9.51z" fill="#e1b7a3"/><path d="m338.53 314.72-.15-.03-158.27-28.98-.24-.04a10.774 10.774 0 0 0 -12.69 10.06l-.02.43a10.812 10.812 0 0 0 6.46 10.48l161.07 29.35a10.782 10.782 0 0 0 12.67-10.22c.01-.14.01-.29.01-.43a10.777 10.777 0 0 0 -8.84-10.62z" fill="#e1b7a3"/><path d="m325.35 409.59-159.93-29.41-3.62-.66a10.558 10.558 0 0 0 -12.37 9.02 11.086 11.086 0 0 0 -.09 1.4 10.584 10.584 0 0 0 8.68 10.39l163.63 29.62a10.327 10.327 0 0 0 12.12-9.16c.03-.35.05-.69.05-1.03a10.345 10.345 0 0 0 -8.47-10.17z" fill="#e1b7a3"/><path d="m131.25 474.8h202.22v21.12h-202.22z" fill="#e1b7a3"/><path d="m207.65 113.28-10.41 76.63 29.183 5.196 11.175-76.47z" fill="#b28672"/><path d="m240.01 38.14-.01.04-9.54 58.17 29.94 5.163 9.593-58.738-29.073-4.455c-.31-.05-.61-.11-.91-.18z" fill="#b28672"/><path d="m219.226 214.133-29.976-5.193-9.14 76.77 29.501 5.402z" fill="#b28672"/><path d="m173.62 306.64-8.2 73.54 29.897 5.498 8.256-73.579z" fill="#b28672"/><path d="m159.78 400.65-11.26 73.92v.3l30.72-.024 10.476-68.776z" fill="#b28672"/><path d="m228.96 108.13a9.819 9.819 0 0 1 .07-1.21 10.263 10.263 0 0 1 10.112-9.069l-28.192-4.861a10.26 10.26 0 0 0 -11.92 8.93 9.819 9.819 0 0 0 -.07 1.21 10.273 10.273 0 0 0 8.45 10.11l.24.04 27.959 5c-3.56-2.456-6.649-6.658-6.649-10.15z" fill="#bf9c8e"/><path d="m261.42 32.23c0-.17 0-.33.01-.5.236-5.446 5.369-10.161 10.83-11.161l-27.9-4.429a11.2 11.2 0 0 0 -12.93 10.59c-.01.17-.01.33-.01.5a11.2 11.2 0 0 0 8.59 10.91l27.957 4.292a11.211 11.211 0 0 1 -6.547-10.202z" fill="#bf9c8e"/><path d="m210.57 203.68.05-.8a9.657 9.657 0 0 1 8.805-9.024l-27.5-4.9a9.651 9.651 0 0 0 -11.31 8.92l-.05.8a9.672 9.672 0 0 0 7.99 10.14l30 5a9.672 9.672 0 0 1 -7.985-10.136z" fill="#bf9c8e"/><path d="m197.16 301.16.02-.43a10.78 10.78 0 0 1 9.5-10.154l-26.57-4.866-.24-.04a10.774 10.774 0 0 0 -12.69 10.06l-.02.43a10.812 10.812 0 0 0 6.46 10.48l30.084 5.482c-3.704-2.022-6.768-6.673-6.544-10.962z" fill="#bf9c8e"/><path d="m179.34 394.94a11.086 11.086 0 0 1 .09-1.4 10.569 10.569 0 0 1 9.111-9.108l-23.121-4.252-3.62-.66a10.558 10.558 0 0 0 -12.37 9.02 11.086 11.086 0 0 0 -.09 1.4 10.584 10.584 0 0 0 8.68 10.39l27.16 4.916a13.349 13.349 0 0 1 -5.84-10.306z" fill="#bf9c8e"/><path d="m131.25 474.88v21.12l30-.024v-21.096z" fill="#bf9c8e"/><path d="m288.59 74.49a13.764 13.764 0 0 1 -.13 1.92l-4.08 29.24-28.3-4.88 3.34-27.9a14.559 14.559 0 0 1 16.71-12.4 14.329 14.329 0 0 1 12.46 14.02z" fill="#8e6d65"/><path d="m249.76 153.92a15.483 15.483 0 0 1 -.13 2.03l-5.49 42.31-27.57-4.91 4.58-41.13c.94-8.4 8.37-14.33 16.39-13.07a14.789 14.789 0 0 1 12.22 14.77z" fill="#8e6d65"/><path d="m231.55 249.11a14.846 14.846 0 0 1 -.13 1.98l-5.83 42.95-28.16-5.16 4.83-41.44a14.7 14.7 0 0 1 29.29 1.67z" fill="#8e6d65"/><path d="m216.24 346.51a15.963 15.963 0 0 1 -.14 2.06l-5.32 39.95-28.17-5.17 4.45-38.56a14.737 14.737 0 0 1 16.72-13.23 15 15 0 0 1 12.46 14.95z" fill="#8e6d65"/><path d="m131.253 501 202.215-.164a5 5 0 0 0 5-5v-21.12a5 5 0 0 0 -5-5l-15.546.013 3.455-34.772a15.139 15.139 0 0 0 2.1.161 15.345 15.345 0 0 0 5.681-29.6l7.787-64.374a15.767 15.767 0 0 0 15.415-15.184 15.9 15.9 0 0 0 -8.543-14.643l8.173-69.111 2.267.393a14.9 14.9 0 0 0 2.534.219 14.68 14.68 0 0 0 2.521-29.129l-.1-.017 12.385-66.5a15.249 15.249 0 0 0 14-13.87l.091-1.015a15.36 15.36 0 0 0 -12.6-16.42l-14.216-2.452 6.828-51.053c.137 0 .275.016.412.016a15.889 15.889 0 0 0 2.5-31.578l-123.473-19.6a16.229 16.229 0 0 0 -10.705 30.035l-8.088 49.331-14.546-2.507a15.277 15.277 0 0 0 -9.647 28.594l-9.164 67.417-.179-.032a14.648 14.648 0 0 0 -17.175 13.531l-.05.8a14.66 14.66 0 0 0 8.215 14.119l-8.119 68.171a15.773 15.773 0 0 0 -13.489 14.806l-.023.432a15.83 15.83 0 0 0 6.058 13.277l-7.2 65.215a15.368 15.368 0 0 0 -10.274 2.931 15.582 15.582 0 0 0 3.4 27.074l-9.982 65.472-12.925.011a5 5 0 0 0 -5 5v21.123a5 5 0 0 0 5 5zm107.452-478.6a6.1 6.1 0 0 1 4.867-1.317l123.472 19.6a5.9 5.9 0 0 1 2.681 10.464 5.778 5.778 0 0 1 -4.475 1.172l-123.575-18.938a6.236 6.236 0 0 1 -2.97-10.981zm5.43 21.48 111.665 17.101-6.79 50.737-13.641-2.352 3.288-23.541a19.337 19.337 0 0 0 -16.557-21.577 20.059 20.059 0 0 0 -15.008 3.874 18.955 18.955 0 0 0 -7.392 12.878l-2.609 21.767-7.091-1.224 3.413-24.443a19.338 19.338 0 0 0 -16.557-21.577 20.06 20.06 0 0 0 -15.008 3.877 18.959 18.959 0 0 0 -7.393 12.875l-2.717 22.674-15.538-2.682zm84.613 40.566-3.248 23.22-18.55-3.2 2.67-22.28a9.032 9.032 0 0 1 3.543-6.125 9.863 9.863 0 0 1 7.486-1.918 9.315 9.315 0 0 1 8.099 10.298zm-45.239-8.725-3.371 24.127-18.533-3.2 2.779-23.185a9.036 9.036 0 0 1 3.543-6.125 9.862 9.862 0 0 1 7.486-1.919 9.318 9.318 0 0 1 8.096 10.297zm-79.509 26.779a5.245 5.245 0 0 1 2.083-3.623 5.177 5.177 0 0 1 3.114-1.043 5.322 5.322 0 0 1 .9.078l161.286 27.811a5.306 5.306 0 0 1 4.343 5.678l-.091 1.015a5.234 5.234 0 0 1 -2.053 3.734 5.17 5.17 0 0 1 -4.093.994l-161.2-28.826a5.282 5.282 0 0 1 -4.289-5.818zm7.908 16.622 149.754 26.778-12.295 66.014-10.239-1.814 5.157-39.6c1.392-10.719-5.909-20.761-16.274-22.386a18.777 18.777 0 0 0 -14.426 3.69 20.167 20.167 0 0 0 -7.711 13.763l-4.218 37.859-7.062-1.258 5.124-40.894c1.392-10.719-5.908-20.761-16.274-22.386a18.786 18.786 0 0 0 -14.426 3.691 20.159 20.159 0 0 0 -7.709 13.744l-4.5 39.116-7.1-1.264 4.881-37.573c1.392-10.719-5.909-20.761-16.275-22.386a18.783 18.783 0 0 0 -14.426 3.69 20.166 20.166 0 0 0 -7.71 13.763l-3.992 35.824-9.35-1.665zm122.464 50.084-5.1 39.133-17.75-3.161 4.29-38.508a9.991 9.991 0 0 1 3.842-6.923 8.878 8.878 0 0 1 6.808-1.759c5.06.795 8.607 5.827 7.907 11.219zm-44.572-9.206-5.062 40.405-18.066-3.217 4.576-39.747a9.989 9.989 0 0 1 3.84-6.923 8.871 8.871 0 0 1 6.809-1.759c5.058.798 8.603 5.83 7.903 11.241zm-45.123-4.694-4.82 37.106-17.8-3.17 4.064-36.474a9.984 9.984 0 0 1 3.841-6.922 8.872 8.872 0 0 1 6.808-1.759c5.058.797 8.605 5.83 7.905 11.223zm-59.064 42.881a4.626 4.626 0 0 1 1.776-3.39 4.562 4.562 0 0 1 3.666-.919l166.506 29.652a4.685 4.685 0 0 1 1.92 8.387 4.582 4.582 0 0 1 -3.515.824l-166.556-28.847a4.662 4.662 0 0 1 -3.848-4.9zm127.887 45.353a19.688 19.688 0 0 0 -22.488 17.144l-4.753 39.378-8.161-1.494 5.41-42.109a19.7 19.7 0 0 0 -31.508-18.234 19.473 19.473 0 0 0 -7.578 13.314l-4.762 39.993-8.48-1.553 5.191-38.213a19.7 19.7 0 0 0 -31.5-18.235 19.486 19.486 0 0 0 -7.582 13.327l-4.207 36.142-7.451-1.365 7.965-66.871 148.526 25.736-8.079 68.315-8.873-1.624 4.915-41.576a19.74 19.74 0 0 0 -16.585-22.075zm6.67 20.813-4.852 41.03-19.2-3.516 4.829-40a9.687 9.687 0 0 1 11.074-8.432 9.719 9.719 0 0 1 8.144 10.918zm-46.576-9.2-5.346 41.616-18.724-3.428 4.837-40.629a9.687 9.687 0 0 1 11.075-8.431 9.706 9.706 0 0 1 8.153 10.868zm-47.124-4.729-5.129 37.757-18.4-3.369 4.287-36.793a9.688 9.688 0 0 1 11.075-8.432 9.7 9.7 0 0 1 8.162 10.833zm-54.291 45.573a5.74 5.74 0 0 1 2.2-4.26 5.666 5.666 0 0 1 3.539-1.243 5.79 5.79 0 0 1 1.06.1l158.66 29.049a5.826 5.826 0 0 1 4.735 5.938 5.739 5.739 0 0 1 -2.166 4.313 5.675 5.675 0 0 1 -4.624 1.179l-158.683-28.624a5.812 5.812 0 0 1 -4.748-6.024zm5.711 16.8 149.159 26.9-7.712 63.703-11.02-2.026 5.1-37.971c1.416-10.825-5.993-20.966-16.516-22.6a19.114 19.114 0 0 0 -14.669 3.757 20.342 20.342 0 0 0 -7.783 13.859l-4.038 35.99-7.9-1.452 5.013-38.948c1.416-10.826-5.993-20.966-16.515-22.6a19.12 19.12 0 0 0 -14.67 3.757 20.352 20.352 0 0 0 -7.785 13.877l-4 36.939-8.185-1.5 4.7-35.251c1.416-10.825-5.993-20.966-16.516-22.6a19.115 19.115 0 0 0 -14.669 3.757 20.329 20.329 0 0 0 -7.781 13.843l-3.836 33.249-7.361-1.353zm125.61 49.293-5.033 37.475-18.2-3.346 4.116-36.688a10.162 10.162 0 0 1 3.917-7.031 9.206 9.206 0 0 1 7.061-1.822 10.107 10.107 0 0 1 8.139 11.412zm-45.9-9.371-4.946 38.424-18.249-3.355 4.082-37.655a10.162 10.162 0 0 1 3.915-7.028 9.2 9.2 0 0 1 7.061-1.822 10.113 10.113 0 0 1 8.144 11.436zm-46.46-4.809-4.629 34.75-18.4-3.383 3.915-33.931a10.162 10.162 0 0 1 3.915-7.028 9.211 9.211 0 0 1 7.061-1.822 10.109 10.109 0 0 1 8.145 11.414zm-56.758 41.28a5.542 5.542 0 0 1 6.509-4.75l163.551 30.069a5.377 5.377 0 0 1 4.358 5.791 5.337 5.337 0 0 1 -6.254 4.74l-163.636-29.634a5.564 5.564 0 0 1 -4.521-6.216zm9.565 17.292 147.553 26.718-3.631 36.539-153.577.124zm-27.7 73.394 192.215-.156v11.12l-192.209.16z" fill="#284268"/></svg>