<svg id="Layer_1" height="512" viewBox="0 0 512 512" width="512" xmlns="http://www.w3.org/2000/svg" data-name="Layer 1"><path d="m475.24 401.76 20.76 41.24h-57.91v-41.24z" fill="#7c6a5e"/><path d="m455.18 361.9h-54.37v39.86h37.28 37.15z" fill="#c19784"/><path d="m455.18 361.9h-32.21v-42.89h10.62z" fill="#9b8572"/><path d="m380.09 401.76h58v41.24h-58z" fill="#917d6d"/><path d="m411.5 275.13h-15.69v43.81.07h37.78z" fill="#8c7768"/><path d="m372.97 319.01h50v42.89h-50z" fill="#bda28a"/><path d="m389.41 231.24h-16.4v43.81.08h38.49z" fill="#af8d80"/><path d="m350.81 361.9h50v39.86h-50z" fill="#ae957e"/><path d="m347.81 275.13v43.81.07h48v-.07-43.81z" fill="#c19784"/><path d="m367.32 187.36h-18.51v43.88h40.6z" fill="#c19784"/><path d="m328.09 401.76h52v41.24h-52z" fill="#7c6a5e"/><path d="m325.01 231.24v43.81.08h48v-.08-43.81z" fill="#9b8572"/><path d="m317.97 319.01h55v42.89h-55z" fill="#9b8572"/><path d="m345.23 143.47h-25.22v43.89h47.31z" fill="#9b8572"/><path d="m294.81 361.9h56v39.86h-56z" fill="#c19784"/><path d="m294.81 187.36h54v43.88h-54z" fill="#bda28a"/><path d="m294.81 275.13v43.81.07h53v-.07-43.81z" fill="#8c7768"/><path d="m307.74 69-18.42 74.47h55.91z" fill="#c19784"/><path d="m286.07 401.76 20.02 41.24h22v-41.24z" fill="#917d6d"/><path d="m278.7 231.24v43.89h46.31v-.08-43.81z" fill="#af8d80"/><path d="m289.32 143.47-10.86 43.89h.01 41.54v-43.89z" fill="#ae957e"/><path d="m271.29 319.01h46.68v42.89h-46.68z" fill="#bda28a"/><path d="m286.07 401.76 20.02 41.24h-60v-41.24z" fill="#7c6a5e"/><path d="m266.72 361.9 19.35 39.86h8.74v-39.86z" fill="#ae957e"/><g fill="#c19784"><path d="m256.75 275.13-10.85 43.88h48.91v-.07-43.81z"/><path d="m278.47 187.36h-.01l-10.85 43.88h27.2v-43.88z"/><path d="m266.72 361.9h-54.14v39.86h73.49z"/></g><path d="m278.7 231.24v43.89h-21.95l10.86-43.89z" fill="#9b8572"/><path d="m271.29 319.01v42.89h-4.57l-20.82-42.89z" fill="#9b8572"/><path d="m266.72 361.9h-39.14v-42.89h18.31.01z" fill="#bda28a"/><path d="m188.09 401.76h58v41.24h-58z" fill="#917d6d"/><path d="m228.02 282.18h-.01-17.43v36.83h35.31z" fill="#9b8572"/><path d="m208.67 242.32h-.01-21.08v39.86h40.43z" fill="#c19784"/><path d="m187.58 319.01h40v42.89h-40z" fill="#8c7768"/><path d="m165.58 361.9h47v39.86h-47z" fill="#ae957e"/><path d="m170.58 282.18h40v36.83h-40z" fill="#af8d80"/><path d="m189.22 202.27h-19.73v40.05h39.17z" fill="#bda28a"/><path d="m161.78 145.75-12.02 56.52h39.46z" fill="#c19784"/><path d="m136.09 401.76h52v41.24h-52z" fill="#7c6a5e"/><path d="m144.58 319.01h43v42.89h-43z" fill="#bda28a"/><path d="m154.58 242.32h33v39.86h-33z" fill="#b29580"/><path d="m132.77 282.18h-.01l-7.83 36.83h45.65v-36.83z" fill="#9b8572"/><path d="m149.76 202.27-8.52 40.05h28.25v-40.05z" fill="#ae957e"/><path d="m115.81 361.9-8.48 39.86h58.25v-39.86z" fill="#c19784"/><path d="m154.58 242.32v39.86h-21.81-.01l8.48-39.86z" fill="#c19784"/><path d="m144.58 319.01v42.89h-28.77l9.12-42.89z" fill="#8c7768"/><path d="m136.09 401.76v41.24h-37.53l8.77-41.24z" fill="#917d6d"/><path d="m217.12 259.73 28.77 59.28h.01l61.84-250.01z" fill="#f5bb82"/><path d="m16 443h82.56l63.22-297.25z" fill="#f5bb82"/><path d="m307.74 69-90.62 190.73 15.234 31.389 42.807-90.408z" fill="#d8a475"/><path d="m161.78 145.75-145.78 297.25h30l92.808-189.238z" fill="#d8a475"/><path d="m16 448h480a5 5 0 0 0 4.466-7.248l-188.259-374a5 5 0 0 0 -4.466-2.752h-.056a5 5 0 0 0 -4.46 2.854l-86.155 181.33-50.789-104.619a5 5 0 0 0 -4.488-2.816h-.01a5 5 0 0 0 -4.489 2.8l-145.783 297.251a5 5 0 0 0 4.489 7.2zm115.1-10h-26.361l6.643-31.237h19.718zm34.486-150.817v26.831h-34.478l5.707-26.831zm-26.64-10 6.351-29.86h4.289v29.86zm150.872 2.945v33.886h-37.531l8.381-33.886zm-26.671-10 8.381-33.885h2.172v33.885zm14.944 126.635h-60.51v-29.863h46.009zm-24.2-72.749h12.408v25.558zm20.815 42.886h15.107v29.86h-.613zm1.586-10v-32.886h36.678v32.886zm23.521-42.889v-33.883h43v33.886zm0 52.889h46v29.86h-46zm23.157-10v-32.886h45v32.886zm32.843 10h40v29.86h-40zm22.157-10v-32.886h40v32.886zm12.843-42.889h-38v-33.883h38zm-22.8-43.886h-38v-33.882h38zm-24.2-43.885h-44v-33.883h44zm-23.8 10v33.885h-36.313v-33.882zm-30.2-10h-15.813l8.382-33.886h7.434zm-31.078 130.66h-26.154v-32.886h10.187zm-43.154-42.889v-26.828h9.307l13.026 26.831zm7 10v32.889h-30v-32.886zm-52 42.889h37v29.86h-37zm-21-10v-32.886h33v32.886zm56-42.889h-30v-26.828h30zm-23-36.831h-23v-29.86h23zm-43 46.831v32.889h-17.595l6.995-32.889zm21 42.889v29.86h-47.072l6.351-29.86zm22.519 71.1h-42v-31.237h42zm58 0h-48v-31.237h48zm10 0v-31.237h31.84l15.165 31.237zm72 0h-13.878l-15.165-31.237h29.043zm52 0h-42v-31.237h42zm58 0h-48v-31.237h48zm54.791 0h-44.791v-31.237h29.067zm-20.758-41.237h-61.32v-29.863h46.287zm-39.163-72.749h2.539l16.555 32.886h-19.094zm-2.5-10h-24.657v-33.886h7.605zm-22.09-43.886h-25.367v-33.885h8.315zm-22.091-43.885h-27.476v-33.886h10.425zm-22.089-43.886h-34.187v-33.885h17.134zm-49.853-99.04 27.763 55.155h-41.402zm5.662 65.155v33.885h-30.16l8.381-33.885zm-24.027-32.555-46.619 188.483-21.7-44.693zm-70.949 161.266h-27.452v-29.86h12.956zm-19.351-39.86h-26.19v-30.057h11.6zm-37.037-76.292 17.59 36.235h-25.3zm.847 46.235v30.057h-17.073l6.393-30.057zm-16-23.062-53.977 253.796h-70.494z" fill="#284268"/></svg>