<svg id="Layer_1" height="512" viewBox="0 0 512 512" width="512" xmlns="http://www.w3.org/2000/svg" data-name="Layer 1"><path d="m43.74 473.63h424.52v22.37h-424.52z" fill="#e1b7a3"/><path d="m53.91 315.89h404.18v25.11h-404.18z" fill="#c79a83"/><path d="m149.86 210.58v35.75.09h212.28v-.09-35.75z" fill="#c79a83"/><path d="m299.3 37.99-52.45 5.66v-27.65z" fill="#5fa8ed"/><path d="m260.92 70.33h-27.81l-8.5 140.25h44.04z" fill="#aeaeaf"/><path d="m428.51 246.42-.27 69.47h-43.84v-69.47z" fill="#b8a58d"/><path d="m360.87 246.42h23.53v69.47h-23.53z" fill="#9e9e9e"/><path d="m306.64 246.42h54.23v69.47h-54.23z" fill="#b8a58d"/><path d="m283.1 246.42h23.54v69.47h-23.54z" fill="#9e9e9e"/><path d="m228.88 246.42h54.22v69.47h-54.22z" fill="#b8a58d"/><path d="m205.34 246.42h23.54v69.47h-23.54z" fill="#9e9e9e"/><path d="m151.11 246.42h54.23v69.47h-54.23z" fill="#b8a58d"/><path d="m127.58 246.42h23.53v69.47h-23.53z" fill="#9e9e9e"/><path d="m127.58 246.42v69.47h-43.82l-.27-69.47z" fill="#b8a58d"/><path d="m315.31 341h131.841v106.96h-131.841z" fill="#f5bb82"/><path d="m194.25 341h121.06v106.96h-121.06z" fill="#cc8f71"/><path d="m64.85 341h129.4v106.96h-129.4z" fill="#f5bb82"/><g fill="#a3766c"><path d="m338.53 377.65h75.4v70.31h-75.4z"/><path d="m217.8 378.67h75.39v69.29h-75.39z"/><path d="m97.06 378.67h75.4v69.29h-75.4z"/></g><path d="m53.91 447.96h404.18v25.67h-404.18z" fill="#c79a83"/><path d="m43.74 473.63h26v22.37h-26z" fill="#c1a195"/><path d="m259.11 70.33h-26l-8.5 140.25h26z" fill="#a0a0a0"/><path d="m109.76 315.89-.27-69.47h-26l.27 69.47z" fill="#998b7a"/><path d="m64.85 341h26v106.96h-26z" fill="#d3a175"/><path d="m53.91 315.89h26v25.11h-26z" fill="#a57f6f"/><path d="m175.86 246.33v-35.75h-26v35.75.09h26z" fill="#a57f6f"/><path d="m53.91 447.96h26v25.67h-26z" fill="#a57f6f"/><path d="m468.26 468.627h-5.173v-20.666a5 5 0 0 0 -5-5h-5.933v-96.961h5.933a5 5 0 0 0 5-5v-25.113a5 5 0 0 0 -5-5h-24.828l.254-64.451a5 5 0 0 0 -5-5.02h-61.378v-30.838a5 5 0 0 0 -5-5h-88.751l-7.467-135.52a5 5 0 0 0 -4.992-4.725h-9.071v-17.193l47.979-5.182a5 5 0 0 0 1.4-9.583l-52.446-21.986a5 5 0 0 0 -6.933 4.611v49.333h-8.74a5 5 0 0 0 -4.991 4.7l-8.215 135.548h-70.043a5 5 0 0 0 -5 5v30.838h-61.378a5 5 0 0 0 -5 5.02l.254 64.451h-24.828a5 5 0 0 0 -5 5v25.11a5 5 0 0 0 5 5h5.933v96.96h-5.933a5 5 0 0 0 -5 5v20.666h-5.173a5 5 0 0 0 -5 5v22.374a5 5 0 0 0 5 5h424.52a5 5 0 0 0 5-5v-22.373a5 5 0 0 0 -5-5zm-216.406-445.109 27.621 11.582-27.621 2.983zm137.546 227.898h34.094l-.234 59.471h-33.86zm-23.533 0h13.533v59.471h-13.534zm-128.047-176.083h18.372l7.177 130.245h-33.441zm-82.955 140.245h202.27v25.838h-202.27zm201 35.838v59.471h-44.227v-59.471zm-54.228 0v59.471h-13.537v-59.471zm-23.534 0v59.471h-44.227v-59.471zm-54.228 0v59.471h-13.532v-59.471zm-23.533 0v59.471h-44.228v-59.471zm-67.762 0h13.533v59.471h-13.532zm-10 0v59.471h-33.839l-.234-59.471zm-63.667 84.584v-15.113h394.174v15.113zm355.015 36.648h-75.4a5 5 0 0 0 -5 5v65.312h-13.217v-96.96h121.843v96.96h-23.226v-65.311a5 5 0 0 0 -5-5zm-5 10v60.312h-65.4v-60.311zm-115.736-8.976h-75.392a5 5 0 0 0 -5 5v64.288h-13.555v-96.96h111.066v96.96h-12.119v-64.287a5 5 0 0 0 -5-5zm-5 10v59.288h-65.392v-59.287zm-115.735-10h-75.395a5 5 0 0 0 -5 5v64.288h-22.216v-96.96h119.4v96.96h-11.789v-64.287a5 5 0 0 0 -5-5zm-5 10v59.288h-65.395v-59.287zm-108.544 69.289h394.174v15.666h-394.174zm404.347 38.039h-414.52v-12.373h414.52z" fill="#284268"/></svg>