<svg id="Layer_1" height="512" viewBox="0 0 512 512" width="512" xmlns="http://www.w3.org/2000/svg" data-name="Layer 1"><path d="m351.9 104.56h-191.82a8.537 8.537 0 0 0 -.3 5.39l6.71 22.85h180.2l5.63-23.16a8.511 8.511 0 0 0 -.42-5.08z" fill="#c5c3ca"/><path d="m160.17 151.82 7.27 21.85h177.12l7.27-21.85z" fill="#c5c3ca"/><path d="m311.76 421.73h-44.75v52.42h72.22a346.646 346.646 0 0 1 -27.47-52.42z" fill="#b0b5ca"/><path d="m172.88 132.8h166.24v19.02h-166.24z" fill="#858585"/><path d="m307.62 173.67h-40.61v234.31h39.36c-35.2-95.86-17.87-185.3 1.25-234.24z" fill="#b0b5ca"/><path d="m200.19 421.73v.12a346.077 346.077 0 0 1 -27.42 52.3h74.68v-52.42z" fill="#ccd3df"/><path d="m204.16 173.67v.04c19.23 48.87 36.72 138.3 1.48 234.27h41.81v-234.31z" fill="#ccd3df"/><path d="m347.73 100.06-62.38-37.84a8.074 8.074 0 0 0 -2.17-.74l-54.79-.17a8.464 8.464 0 0 0 -3.7.85l-60.34 37.79a8.508 8.508 0 0 0 -4.27 4.61h191.82a8.507 8.507 0 0 0 -4.17-4.5z" fill="#dedee1"/><path d="m270.26 41.55h-28.52a14.125 14.125 0 0 0 -12.95 19.76h52.72a8.525 8.525 0 0 1 1.67.17l.03-.17a14.125 14.125 0 0 0 -12.95-19.76z" fill="#858585"/><path d="m247.45 443.31h19.56v30.84h-19.56z" fill="#888986"/><path d="m247.45 421.73h19.56v21.58h-19.56z" fill="#686868"/><path d="m267.01 407.9v.08h-19.56v-.08-23.46h19.56z" fill="#888986"/><path d="m247.45 355.01h19.56v29.43h-19.56z" fill="#686868"/><path d="m247.45 325.58h19.56v29.43h-19.56z" fill="#888986"/><path d="m247.45 296.15h19.56v29.43h-19.56z" fill="#686868"/><path d="m247.45 266.72h19.56v29.43h-19.56z" fill="#888986"/><path d="m247.45 237.29h19.56v29.43h-19.56z" fill="#686868"/><path d="m247.45 207.85h19.56v29.44h-19.56z" fill="#888986"/><path d="m247.45 173.67h19.56v34.18h-19.56z" fill="#686868"/><path d="m352.01 474.15h-192.02a3.922 3.922 0 0 0 -3.93 3.92v17.68h199.88v-17.68a3.922 3.922 0 0 0 -3.93-3.92z" fill="#858585"/><path d="m326.05 407.98h-140.1a6.875 6.875 0 0 0 0 13.75h140.1a6.875 6.875 0 0 0 0-13.75z" fill="#858585"/><path d="m172.88 132.8h30v19.02h-30z" fill="#6b6b6b"/><path d="m194.35 99.95 60.34-37.79a8.442 8.442 0 0 1 2.537-.761l-28.837-.089a8.464 8.464 0 0 0 -3.7.85l-60.34 37.79a8.508 8.508 0 0 0 -4.27 4.61h30a8.508 8.508 0 0 1 4.27-4.61z" fill="#ccccce"/><path d="m166.49 132.8h30l-6.71-22.85a8.537 8.537 0 0 1 .3-5.39h-30a8.537 8.537 0 0 0 -.3 5.39z" fill="#afadb2"/><path d="m160.17 151.82 7.27 21.85h30l-7.27-21.85z" fill="#afadb2"/><path d="m283.18 61.48.03-.17h-1.7a8.525 8.525 0 0 1 1.67.17z" fill="#858585"/><g fill="#6b6b6b"><path d="m258.79 61.31a14.122 14.122 0 0 1 12.21-19.736c-.245-.013-.491-.024-.74-.024h-28.52a14.125 14.125 0 0 0 -12.95 19.76z"/><path d="m189.99 474.15h-30a3.922 3.922 0 0 0 -3.93 3.92v17.68h30v-17.68a3.922 3.922 0 0 1 3.93-3.92z"/><path d="m209.08 414.86a6.88 6.88 0 0 1 6.87-6.88h-30a6.875 6.875 0 0 0 0 13.75h30a6.875 6.875 0 0 1 -6.87-6.87z"/></g><path d="m156.062 500.75h199.876a5 5 0 0 0 5-5v-17.676a8.936 8.936 0 0 0 -8.924-8.928h-10a343.747 343.747 0 0 1 -22.636-42.415h6.677a11.874 11.874 0 0 0 0-23.748h-16.149a333.744 333.744 0 0 1 1.179-224.313h33.477a5 5 0 0 0 4.744-3.421l7.268-21.847a5 5 0 0 0 -4.744-6.578h-7.712v-9.024h2.576a5 5 0 0 0 4.859-3.82l5.643-23.247a13.554 13.554 0 0 0 -7.04-15.053l-61.006-37a19.137 19.137 0 0 0 -18.889-22.133h-9.261v-20.797a5 5 0 0 0 -10 0v20.8h-9.261a19.142 19.142 0 0 0 -19.034 21.029c-.059.027-.121.045-.179.073a5.05 5.05 0 0 0 -.5.272l-60.12 37.664a13.594 13.594 0 0 0 -6.962 15.672c.009.034.019.069.03.1l6.714 22.853a5 5 0 0 0 4.8 3.59h1.392v9.023h-7.71a5 5 0 0 0 -4.744 6.578l7.268 21.847a5 5 0 0 0 4.744 3.421h33.27a327.131 327.131 0 0 1 19.623 94.807 327.45 327.45 0 0 1 -18.231 129.504h-16.15a11.874 11.874 0 0 0 0 23.748h6.681a343.9 343.9 0 0 1 -22.64 42.415h-10a8.936 8.936 0 0 0 -8.924 8.928v17.676a5 5 0 0 0 4.995 5zm174.207-31.6h-58.262v-42.419h36.469a351.6 351.6 0 0 0 21.793 42.415zm-48.635-196.172a338.377 338.377 0 0 0 17.666 130.005h-27.3v-224.313h28.43a340.9 340.9 0 0 0 -18.796 94.308zm-47.52-222.313a8.978 8.978 0 0 1 7.625-4.12h28.522a9.136 9.136 0 0 1 9.1 9.769h-46.725a9.006 9.006 0 0 1 1.478-5.649zm-7.066 15.912a3.61 3.61 0 0 1 1.344-.263h53.122a3.589 3.589 0 0 1 1.454.31l54.307 32.939h-162.881zm-62.174 42.986h182.317l-4.428 18.237h-172.531zm169.244 28.237v9.023h-156.236v-9.023zm-163.074 30.87-3.944-11.846h177.8l-3.941 11.846zm81.406 210.774v-19.432h9.557v19.432zm9.557 10v13.539h-9.557v-13.539zm-9.557-39.432v-19.431h9.557v19.431zm0-29.431v-19.432h9.557v19.432zm0-29.432v-19.431h9.557v19.431zm0-29.431v-19.432h9.557v19.432zm0-29.432v-19.432h9.557v19.432zm0-29.432v-24.184h9.557v24.184zm-22.137 70.038a339.554 339.554 0 0 0 -18.947-94.222h31.084v224.313h-29.75a337.479 337.479 0 0 0 17.613-130.091zm-44.364 143.839a1.874 1.874 0 0 1 0-3.748h140.1a1.874 1.874 0 0 1 0 3.748zm66.5 21.576v-11.576h9.557v11.576zm9.557 10v20.839h-9.556v-20.839zm-58.479-21.576h38.923v42.415h-60.719a351.631 351.631 0 0 0 21.797-42.415zm-42.466 52.415h189.877v11.6h-189.876z" fill="#284268"/></svg>