<svg id="Layer_1" height="512" viewBox="0 0 512 512" width="512" xmlns="http://www.w3.org/2000/svg" data-name="Layer 1"><path d="m485.69 441.73-118.08-193.05a19.257 19.257 0 0 0 -5.69 13.68l-28.48 1.4a19.292 19.292 0 0 0 -12.64-18.12l-7.6-2.78a90.61 90.61 0 0 1 -20.66-14.03h-.01c-8.7-8.21-13.58-17.68-13.89-28.93q-.03-.6-.03-1.2l-50.51-2.31q0 1.77-.15 3.51c-.9 10.72-5.96 20.51-14.52 28.93a81.52 81.52 0 0 1 -19.92 14.03l-7.6 2.78a19.3 19.3 0 0 0 -12.65 18.12l-28.47-1.4a19.186 19.186 0 0 0 -3.65-11.28h-.01l-114.54 188.53a3.431 3.431 0 0 0 -.51 2.02 3.521 3.521 0 0 0 3.52 3.35h454.26a2.14 2.14 0 0 0 1.83-3.25z" fill="#b8a58d"/><path d="m485.47 444.25a2.112 2.112 0 0 1 -1.61.73h-454.26a3.521 3.521 0 0 1 -3.52-3.35h-.01l-.75 28.43a19.988 19.988 0 0 0 19.97 20h421.42a19.988 19.988 0 0 0 19.97-20z" fill="#827364"/><path d="m56.08 441.63a3.431 3.431 0 0 1 .51-2.02l107.122-176.32-18.922-.93a19.186 19.186 0 0 0 -3.65-11.28h-.01l-114.54 188.53a3.431 3.431 0 0 0 -.51 2.02 3.521 3.521 0 0 0 3.52 3.35h30a3.521 3.521 0 0 1 -3.52-3.35z" fill="#9e8c78"/><path d="m55.32 470.06.662-25.08h-26.382a3.521 3.521 0 0 1 -3.52-3.35h-.01l-.75 28.43a19.988 19.988 0 0 0 19.97 20h30a19.988 19.988 0 0 1 -19.97-20z" fill="#685d52"/><path d="m109.78 228.83h103.65a81.52 81.52 0 0 1 -19.92 14.03l-7.6 2.78a19.3 19.3 0 0 0 -12.65 18.12v48.63h-6.44c-7.77 0-14.07 8.63-14.07 19.28v14.47a14.8 14.8 0 0 0 -7.95 2.44l-.01-.02v-86.2a19.314 19.314 0 0 0 -13.44-18.38 42.552 42.552 0 0 1 -21.57-15.15z" fill="#d9bb4b"/><path d="m208.27 172.27 19.83 24.12q0 1.77-.15 3.51h-126.18a44.955 44.955 0 0 1 7.01-19.89l5.83-9.04h92.6c.34.45.69.88 1.06 1.3z" fill="#d9bb4b"/><path d="m101.77 199.9h126.18c-.9 10.72-5.96 20.51-14.52 28.93h-103.65c-.39-.52-.77-1.06-1.14-1.61a41.542 41.542 0 0 1 -6.87-27.32z" fill="#edb740"/><path d="m207.21 170.97h-92.6l19.29-29.89 68.31.2h.01l1.21 19.36a19.254 19.254 0 0 0 3.78 10.33z" fill="#edb740"/><path d="m201.17 124.64 1.05 16.64h-.01l-68.31-.2 18.67-28.93h37.25.01z" fill="#d9bb4b"/><path d="m172.86 93.46 16.97 18.69h-37.26l18.39-28.51h.01a9.631 9.631 0 0 0 1.89 9.82z" fill="#edb740"/><path d="m335.88 83.85 18.26 28.3h-36.24l16.24-18.29a9.653 9.653 0 0 0 1.74-10.01z" fill="#edb740"/><path d="m354.14 112.15 18.66 28.93-66.04.19 1.11-17.83 10.03-11.29z" fill="#d9bb4b"/><path d="m372.8 141.08 19.26 29.85-.06.04h-90.11a19.3 19.3 0 0 0 3.64-10.12l1.23-19.58z" fill="#edb740"/><path d="m404.93 199.9h-126.29q-.03-.6-.03-1.2l22.31-26.5c.34-.4.66-.81.97-1.23h90.11l.06-.04 5.86 9.08a44.789 44.789 0 0 1 7.01 19.89z" fill="#d9bb4b"/><path d="m404.93 199.9a41.542 41.542 0 0 1 -6.87 27.32c-.37.55-.75 1.09-1.14 1.61h-104.39c-8.7-8.21-13.58-17.68-13.89-28.93z" fill="#edb740"/><path d="m292.54 228.83h104.38a42.531 42.531 0 0 1 -21.56 15.15 19.285 19.285 0 0 0 -13.44 18.38l-.01 83.89v.01a13.832 13.832 0 0 0 -1.83-.12h-3.85v-14.47c0-10.65-6.29-19.28-14.06-19.28h-8.73v-48.63a19.292 19.292 0 0 0 -12.64-18.12l-7.6-2.78a90.61 90.61 0 0 1 -20.66-14.03z" fill="#d9bb4b"/><path d="m288.77 101.93h-68.57a19.256 19.256 0 0 0 -19.24 19.28l2.47 39.43a19.254 19.254 0 0 0 3.78 10.33l37.23 45.3h19.38l38.07-45.3a19.3 19.3 0 0 0 3.64-10.12l2.48-39.64a19.256 19.256 0 0 0 -19.24-19.28z" fill="#7a6756"/><path d="m378.41 379.89-242.15.13a19.257 19.257 0 0 0 -17.06 19.15v45.9l278.45.61v-46.51a19.256 19.256 0 0 0 -19.24-19.28z" fill="#878885"/><path d="m361.91 346.26-209.16-.12a14.8 14.8 0 0 0 -7.95 2.44c-5.1 3.28-8.54 9.59-8.54 16.84v14.6a17.641 17.641 0 0 1 2.19-.13h238.25v-14.47c0-9.93-6.47-18.11-14.79-19.16z" fill="#666764"/><path d="m356.23 331.67v14.47h-203.48v-14.47c0-10.65 6.3-19.28 14.07-19.28h175.35c7.77 0 14.06 8.63 14.06 19.28z" fill="#878885"/><path d="m335.88 83.85a9.616 9.616 0 0 0 -2.43-3.52c-21.89-20.13-40.48-29.48-60.08-32.87l-6.57 54.47h21.97a19.256 19.256 0 0 1 19.24 19.28l-.14 2.23 10.03-11.29 16.24-18.29a9.653 9.653 0 0 0 1.74-10.01z" fill="#656672"/><path d="m233.25 47.55c-29.26 5.46-50.06 22.76-59.99 32.52a9.717 9.717 0 0 0 -.4 13.39l16.97 18.69 11.34 12.49-.21-3.43a19.256 19.256 0 0 1 19.24-19.28h20.1z" fill="#656672"/><path d="m264.56 401.01h-19.38a9.635 9.635 0 0 0 -9.62 9.64v17.68l4.87 16.65h29.24l4.51-16.16v-18.17a9.628 9.628 0 0 0 -9.62-9.64z" fill="#d9bb4b"/><path d="m233.43 160.64-2.47-39.43a19.256 19.256 0 0 1 19.24-19.28h-30a19.256 19.256 0 0 0 -19.24 19.28l2.47 39.43a19.254 19.254 0 0 0 3.78 10.33l37.23 45.3h19.38l5.369-6.389-31.979-38.911a19.254 19.254 0 0 1 -3.78-10.33z" fill="#635447"/><path d="m200.97 83.64a9.575 9.575 0 0 1 2.29-3.57 128.076 128.076 0 0 1 31.269-22.655l-1.279-9.865c-29.26 5.46-50.06 22.76-59.99 32.52a9.717 9.717 0 0 0 -.4 13.39l16.97 18.69 11.34 12.49-.21-3.43a19.263 19.263 0 0 1 11.2-17.5l-9.3-10.248a9.631 9.631 0 0 1 -1.89-9.822z" fill="#55565e"/><path d="m270.63 71.15-3.24 28.06a14.3 14.3 0 0 1 -.59 2.72 13.926 13.926 0 0 1 -26.5 0 13.728 13.728 0 0 1 -.58-2.59l-3.52-28.19z" fill="#aba9b0"/><path d="m266.22 16h-26.01a9.643 9.643 0 0 0 -9.53 10.99l5.52 44.16h34.43l5.06-43.78a9.639 9.639 0 0 0 -9.47-11.37z" fill="#8e8d93"/><path d="m174.8 348.58a14.824 14.824 0 0 1 7.59-2.423l-29.64-.017a14.8 14.8 0 0 0 -7.95 2.44c-5.1 3.28-8.54 9.59-8.54 16.84v14.6a17.641 17.641 0 0 1 2.19-.13h27.81v-14.47c0-7.25 3.44-13.56 8.54-16.84z" fill="#565655"/><path d="m378.41 379.89-242.15.13a19.257 19.257 0 0 0 -17.06 19.15v45.9h30v-45.9a19.257 19.257 0 0 1 17.06-19.15l212.465-.114c-.106-.006-.209-.016-.315-.016z" fill="#7a7a79"/><path d="m182.75 346.14v-14.47c0-10.65 6.3-19.28 14.07-19.28h-30c-7.77 0-14.07 8.63-14.07 19.28v14.47z" fill="#7a7a79"/><path d="m203.64 428.29a18.21 18.21 0 0 0 -4.11-6.35 17.99 17.99 0 0 0 -12.8-5.32 18.44 18.44 0 0 0 -18.46 18.14v43.1a17.933 17.933 0 0 0 5.48 12.83 18.646 18.646 0 0 0 12.98 5.31 18.118 18.118 0 0 0 18.1-18.14v-43.1a18.042 18.042 0 0 0 -1.19-6.47z" fill="#c79a83"/><path d="m323.36 416.62a17.966 17.966 0 0 0 -12.79 5.32 18.132 18.132 0 0 0 -5.3 12.82v43.1a18.118 18.118 0 0 0 18.09 18.14 18.61 18.61 0 0 0 12.98-5.31 17.9 17.9 0 0 0 5.49-12.83v-43.1a18.442 18.442 0 0 0 -18.47-18.14z" fill="#c79a83"/><path d="m235.56 426.33a24.218 24.218 0 0 0 -19.4-9.71h-1.04c-6.01 0-11.48 5.64-11.48 11.67a18.042 18.042 0 0 1 1.19 6.47v43.1a18.1 18.1 0 0 1 -1.19 6.48 11.423 11.423 0 0 0 3.64 8.2 12.2 12.2 0 0 0 8.36 3.46 24.808 24.808 0 0 0 24.79-24.83v-30.24a24.2 24.2 0 0 0 -4.87-14.6z" fill="#aa8574"/><path d="m305.27 434.76a18.042 18.042 0 0 1 1.19-6.47h-.01c0-6.03-5.46-11.67-11.47-11.67h-1.04a24.3 24.3 0 0 0 -24.27 24.31v30.24a24.808 24.808 0 0 0 24.79 24.83 12.2 12.2 0 0 0 8.36-3.46 11.453 11.453 0 0 0 3.63-8.2h.01a18.1 18.1 0 0 1 -1.19-6.48z" fill="#aa8574"/><path d="m132.46 481.3a17.394 17.394 0 0 1 -17.18 14.7h-1.42a17.406 17.406 0 0 1 -17.39-17.39v-44.59a17.4 17.4 0 0 1 17.39-17.4h1.42a16.889 16.889 0 0 1 3.92.45 17.394 17.394 0 0 1 13.27 14.32v.01a17.472 17.472 0 0 1 .2 2.62v44.59a17.127 17.127 0 0 1 -.21 2.69z" fill="#c79a83"/><path d="m397.65 416.68q-.69-.06-1.41-.06h-1.42a17.41 17.41 0 0 0 -17.2 14.79 18.643 18.643 0 0 0 -.19 2.61v44.59a17.72 17.72 0 0 0 .28 3.11 17.4 17.4 0 0 0 17.11 14.28h1.42a17.406 17.406 0 0 0 17.39-17.39v-44.59a17.4 17.4 0 0 0 -15.98-17.34z" fill="#c79a83"/><path d="m162.97 421.94a18.013 18.013 0 0 0 -30.5 9.45v.01l-.01 49.9a18.7 18.7 0 0 0 6.21 10.44 17.737 17.737 0 0 0 11.5 4.26 18.117 18.117 0 0 0 18.1-18.14v-43.1a18.12 18.12 0 0 0 -5.3-12.82z" fill="#aa8574"/><path d="m377.62 431.41a18.048 18.048 0 0 0 -35.79 3.35v43.1a18.159 18.159 0 0 0 35.88 3.86z" fill="#aa8574"/><path d="m268.6 283.02-5.54-77.26c-2.05-9.75-15.99-9.58-17.82.22l-5.98 76.96a14.713 14.713 0 1 0 29.38 1.17c0-.36-.01-.72-.04-1.09z" fill="#656672"/><path d="m491.674 469.825-1.44-25.685a20.006 20.006 0 0 0 -2.907-9.316l-113.1-184.917a14.5 14.5 0 0 1 2.653-1.162 47.5 47.5 0 0 0 25.336-18.737 46.288 46.288 0 0 0 7.436-19.252 48.751 48.751 0 0 0 -7.524-33.455l-61.878-95.901a14.509 14.509 0 0 0 -3.417-4.748c-20.007-18.4-38.084-28.782-57.971-33.192l1.774-15.365a14.641 14.641 0 0 0 -4.707-13.4 15.072 15.072 0 0 0 -10.079-3.695h-25.394a14.918 14.918 0 0 0 -7.039 1.663 14.675 14.675 0 0 0 -7.694 14.948l2 15.993c-26.374 6.127-45.955 21.086-57.962 32.9a14.708 14.708 0 0 0 -3.279 4.859l-61.9 95.94a48.745 48.745 0 0 0 -7.523 33.455 46.273 46.273 0 0 0 7.435 19.252 47.5 47.5 0 0 0 25.337 18.737 14.349 14.349 0 0 1 5.113 2.9l-110.059 181.135a20 20 0 0 0 -2.871 9.177l-1.692 27.968v.056a25.014 25.014 0 0 0 24.972 25.076h53.4a22.3 22.3 0 0 0 15.169 5.941h1.414a22.354 22.354 0 0 0 17.356-8.264 22.89 22.89 0 0 0 35.675-.572 23.551 23.551 0 0 0 18.426 8.836 22.984 22.984 0 0 0 15.761-6.246 17.183 17.183 0 0 0 13.144 6.246 29.667 29.667 0 0 0 20.684-8.39h37.452a29.667 29.667 0 0 0 20.684 8.39 17.185 17.185 0 0 0 13.144-6.246 22.984 22.984 0 0 0 15.761 6.246 23.553 23.553 0 0 0 18.426-8.836 23.075 23.075 0 0 0 35.76.681 22.356 22.356 0 0 0 17.27 8.155h1.415a22.3 22.3 0 0 0 15.17-5.941h55.3a25.014 25.014 0 0 0 24.972-25q.003-.117-.003-.234zm-117.839-230.605a24.222 24.222 0 0 0 -16.916 23.144v53.749c-3.47-5.361-8.741-8.725-14.744-8.725h-3.735v-43.63a24.365 24.365 0 0 0 -15.924-22.811l-7.3-2.672q-4.215-2.185-7.841-4.448h77.373a39.628 39.628 0 0 1 -10.913 5.393zm-120.288-122.648a18.917 18.917 0 0 0 16.476-9.643h18.745a14.281 14.281 0 0 1 14.243 14.14l-2.472 39.464a14.424 14.424 0 0 1 -3.441 8.448l-29.363 34.873a13.739 13.739 0 0 0 -13.54-10.315h-.186a13.743 13.743 0 0 0 -13.378 10.219l-28.5-34.662c-.041-.051-.084-.1-.127-.149a14.37 14.37 0 0 1 -3.589-8.617l-2.46-39.261a14.28 14.28 0 0 1 14.245-14.14h16.877a18.956 18.956 0 0 0 16.47 9.643zm-11.686-40.419h23.16l-2.6 22.483a8.935 8.935 0 0 1 -17.748.082zm19.167 214.578a9.713 9.713 0 0 1 -16.78-7.408l5.957-76.653a3.893 3.893 0 0 1 3.922-3.13 3.851 3.851 0 0 1 3.979 2.975l5.511 76.866a9.663 9.663 0 0 1 -2.589 7.35zm-21.728-72.842-5.025 64.659a19.714 19.714 0 1 0 39.314.118l-4.641-64.73 6.248-7.421c4.038 14.416 15.819 26.53 35.707 36.79a5.029 5.029 0 0 0 .573.252l7.6 2.781a14.328 14.328 0 0 1 9.361 13.42v43.63h-150.172v-43.63a14.33 14.33 0 0 1 9.361-13.42l7.6-2.781a5.044 5.044 0 0 0 .574-.252c19.215-9.913 31.524-23.449 35.7-38.9zm102.868 99.5c4.912 0 9.062 6.542 9.062 14.285v9.465h-193.477v-9.465c0-7.743 4.15-14.285 9.062-14.285zm17.914 33.75c6.405 0 11.617 6.408 11.617 14.285v9.464h-230.438v-9.464c0-7.877 5.211-14.285 11.616-14.285zm39.674-141.839a36.368 36.368 0 0 1 -5.459 14.523h-99.76c-5.718-5.8-9.125-12.05-10.377-18.929h115.96a36.337 36.337 0 0 1 -.364 4.406zm-6.032-26.582a40.441 40.441 0 0 1 5.282 12.176h-110.658l15.938-18.928h85.081zm-10.809-16.748h-73.215a24.25 24.25 0 0 0 .818-4.812l.933-14.9 58.632-.17zm-19.269-29.87-51.566.149.675-10.783 7.391-8.321h31.27zm-25.765-38.918c.129-.145.239-.3.361-.451l6.722 10.418h-15.936zm-60.174-43.72c17.706 4.157 34.075 13.729 52.356 30.547a4.688 4.688 0 0 1 .341 6.533l-19.164 21.575a24.277 24.277 0 0 0 -22.472-15.188h-15.968l-.181.6zm-40.977-30.872a4.549 4.549 0 0 1 3.482-1.59h26.008a4.637 4.637 0 0 1 4.547 5.477c-.02.107-.036.215-.048.323l-4.543 39.353h-25.564l-4.976-39.86a4.587 4.587 0 0 1 1.094-3.703zm-59.959 61.04c8.97-8.824 27.243-23.918 52.2-30.043l5.47 43.814-.142-.472h-14.099a24.285 24.285 0 0 0 -22.82 16.092l-20.812-22.921a4.658 4.658 0 0 1 .203-6.47zm-8.031 12.67c.142.171.272.348.423.514l9.379 10.333h-16.8zm-13.45 20.847h32.33l8.669 9.551.6 9.56-53.829-.158zm-18.67 28.936 60.895.176.92 14.695a24.2 24.2 0 0 0 .873 5.014h-75.517zm-23.639 36.638 4.357-6.753h87.5l15.562 18.932h-112.7a40.452 40.452 0 0 1 5.281-12.177zm-6.032 26.58a36.3 36.3 0 0 1 -.364-4.405h115.474a42.463 42.463 0 0 1 -10.78 18.929h-98.87a36.363 36.363 0 0 1 -5.46-14.525zm25.922 29.917a39.648 39.648 0 0 1 -10.912-5.393h77.166q-3.573 2.329-7.635 4.449l-7.3 2.671a24.365 24.365 0 0 0 -15.924 22.811v43.63h-1.45c-7.537 0-13.919 5.308-17.029 13.211v-58.232a24.223 24.223 0 0 0 -16.916-23.145zm-87.579 245.841a15 15 0 0 1 -14.972-14.939l.533-20.138h60.619v28.628a22.3 22.3 0 0 0 .951 6.449zm46.18-51.044v5.967h-59.261l107.575-177.058v83.191a25.383 25.383 0 0 0 -8.525 19.308v10.553a24.325 24.325 0 0 0 -17.058 23.2v12.452h-.34a22.416 22.416 0 0 0 -22.391 22.387zm36.2 44.6a12.4 12.4 0 0 1 -12.395 12.385h-1.414a12.4 12.4 0 0 1 -12.391-12.39v-44.6a12.4 12.4 0 0 1 12.391-12.39h1.414a12.4 12.4 0 0 1 12.39 12.39zm35.6-.747a13.044 13.044 0 0 1 -25.733 3.132 22.371 22.371 0 0 0 .128-2.385v-44.6a22.428 22.428 0 0 0 -.125-2.359 13.039 13.039 0 0 1 25.726 3.106zm36.563 0a13.132 13.132 0 0 1 -13.101 13.132 13.483 13.483 0 0 1 -13.466-13.137v-43.1a13.483 13.483 0 0 1 13.466-13.137 13.132 13.132 0 0 1 13.1 13.137zm35.6-6.691a19.833 19.833 0 0 1 -19.796 19.823 7.192 7.192 0 0 1 -6.949-5.968 23.066 23.066 0 0 0 1.141-7.169v-43.1a23.07 23.07 0 0 0 -1.137-7.16c.407-3.064 3.442-5.977 6.428-5.977h1.034a19.314 19.314 0 0 1 19.276 19.31zm7.719 11.438a29.7 29.7 0 0 0 2.281-11.438v-21.19h19.234v21.19a29.7 29.7 0 0 0 2.281 11.438zm26.033-57.288a29.136 29.136 0 0 0 -4.494 14.66h-19.285a29.135 29.135 0 0 0 -4.846-15.209v-14.124a4.638 4.638 0 0 1 4.622-4.643h19.378a4.638 4.638 0 0 1 4.622 4.643zm25.272 65.673a19.833 19.833 0 0 1 -19.793-19.828v-30.237a19.314 19.314 0 0 1 19.275-19.31h1.035c2.985 0 6.02 2.912 6.428 5.976a23.077 23.077 0 0 0 -1.137 7.161v43.1a23.069 23.069 0 0 0 1.139 7.165 7.3 7.3 0 0 1 -6.947 5.973zm42.37-13.137a13.482 13.482 0 0 1 -13.465 13.137 13.132 13.132 0 0 1 -13.1-13.137v-43.1a13.132 13.132 0 0 1 13.1-13.137 13.482 13.482 0 0 1 13.465 13.137zm23.098 13.137a13.132 13.132 0 0 1 -13.1-13.137v-43.1a13.036 13.036 0 0 1 25.724-3.088 22.647 22.647 0 0 0 -.122 2.341v44.6a22.69 22.69 0 0 0 .185 2.836 13.273 13.273 0 0 1 -12.687 9.548zm17.56-71.139a22.937 22.937 0 0 0 -35.7.6 23.553 23.553 0 0 0 -18.426-8.836 22.988 22.988 0 0 0 -15.75 6.235 16.558 16.558 0 0 0 -12.638-6.235h-1.035a29.065 29.065 0 0 0 -14.757 4.012v-4.983a14.65 14.65 0 0 0 -14.622-14.643h-19.375a14.65 14.65 0 0 0 -14.622 14.643v4.781a29.057 29.057 0 0 0 -14.406-3.81h-1.034a16.556 16.556 0 0 0 -12.638 6.236 22.986 22.986 0 0 0 -15.75-6.236 23.551 23.551 0 0 0 -18.426 8.836 22.947 22.947 0 0 0 -35.7-.606 22.513 22.513 0 0 0 -8.4-6.369v-14.313a14.281 14.281 0 0 1 14.243-14.286h239.959a14.281 14.281 0 0 1 14.244 14.286v12.559a22.371 22.371 0 0 0 -15.167 8.129zm31.138 58.749a12.4 12.4 0 0 1 -12.39 12.39h-1.415a12.4 12.4 0 0 1 -12.389-12.39v-44.6a12.4 12.4 0 0 1 12.389-12.39h1.415a12.4 12.4 0 0 1 12.39 12.39zm-5.971-66.043v-13.394a24.3 24.3 0 0 0 -20.954-24.056v-9.694c0-10.711-6.206-19.818-14.79-23.037l.007-80.021a14.351 14.351 0 0 1 .634-4.2l111.209 181.817h-60.135v-5.967a22.427 22.427 0 0 0 -15.971-21.448zm64.054 72.492h-49.034a22.3 22.3 0 0 0 .951-6.449v-28.628h62.107l.948 20.186a15 15 0 0 1 -14.972 14.891z" fill="#284268"/></svg>