<svg id="Layer_1" enable-background="new 0 0 512 512" height="512" viewBox="0 0 512 512" width="512" xmlns="http://www.w3.org/2000/svg"><path d="m409.7 130.6c-45.7-11.6-81.4-12.7-106.2-11.3-15.9.9-37.4 3.3-80.2 5.5-16.5.8-30.1 1.4-39.2 1.7-.4 0-2 0-4.7 2.5-3.8 3.7-5.9 8.8-5.9 14.1v24.3c0 5.7 4.7 10.4 10.4 10.4h225.6c5.7 0 10.4-4.6 10.4-10.3v-26.5c0-5.7-4.5-10.3-10.2-10.4z" fill="#b0acb4"/><path d="m136.9 126c-23.6-1-96.1-3-117 10.6-.9.6-1.4 1.7-1.1 2.8l6.8 32.4c.7 3.5 3.9 5.9 7.4 5.7l4-.2 92.4-5 4.6-.2c3.5-.2 6.4-2.9 6.8-6.5l3-31.8c.4-3.9-2.5-7.4-6.5-7.8-.2 0-.3 0-.4 0z" fill="#b0acb4"/><path d="m496 205v163.7c0 3.7-2.3 7-5.8 8.3l-33.2 12c-4.6 1.7-9.6-.7-11.3-5.3-.3-1-.5-2-.5-3v-175.6c0-2 .3-4 .8-5.9l1.6-5.5c3.2-11.1 14.9-17.6 26-14.3 1 .3 2 .7 3 1.1.1.1.2.1.3.2 7.8 3.9 14 10.2 17.6 18.1 1 1.9 1.5 4 1.5 6.2z" fill="#a9a9aa"/><path d="m412.5 384c.1 4-3.1 7.4-7.1 7.5-.1 0-.1 0-.2 0h-43.3c-1.9 0-3.8-.8-5.2-2.1-1.4-1.4-2.1-3.2-2.1-5.2 2.1-36.7 5.7-63.5 4-83.6-1.4-17.4-.9-37.8-1-59.1-.1-24.4-4.4-50.7-2.4-63.8h50.9c2 12.6 5 38.9 6 63.8 1 25.2-.2 38.8-.5 71.6-.2 15.3-.1 42.9.9 70.9z" fill="#949099"/><path d="m329.6 385.3c.3 4-2.8 7.5-6.9 7.8-.2 0-.3 0-.5 0h-40.1c-1.9 0-3.7-.7-5.1-2.1-1.4-1.3-2.2-3.1-2.2-5 1.8-47 6.8-97.9-1.9-150.3-3.6-21.5 1.5-41.1-.1-57.9h42.2c2 16 5.2 38.6 6.8 55.2 5 53.2 7.4 104.1 7.8 152.3z" fill="#b0b5ca"/><path d="m246 312.9c1.6 24.8 0 49.7-4.8 74 0 3.4-2.8 6.2-6.2 6.2h-42.7c-1.6 0-3.2-.6-4.4-1.8-1.1-1.2-1.8-2.7-1.8-4.4-2.9-34.6-4.6-72.3-4.3-112.7.2-33.4 1.8-67.1 4.2-96.5h55.1c-.1 16.7 1.4 35-.1 59.2-2 31.9 3 46.5 5 76z" fill="#a9a9aa"/><path d="m140.9 271.5c2.3 36.6 2.2 73.2-.4 109.8-.2 2.8-2.6 4.8-5.3 4.6-.2 0-.3 0-.5-.1l-37.3-6.4c-2.3-.4-4-2.3-4.1-4.5-2.1-31.2 1.7-67.3 2.8-105.9.9-30.4 4.9-55.8 5.4-95.3l28-1.5c4.9 28.1 9.2 65 11.4 99.3z" fill="#b0b5ca"/><path d="m74.2 175.2c9.4 56.8-.6 110.9-3.2 168.3-.4 9.1-.2 18.2-.1 27.3 0 3.9-3.1 7-6.9 7.1-.2 0-.4 0-.6 0l-38.8-2.6c-3.7-.2-6.6-3.1-6.9-6.8-1.3-16.1-2-33.2-1.7-51.4.8-47.3 7.8-94.3 20.9-139.8z" fill="#949099"/><path d="m179.4 129.1c-3.8 3.7-5.9 8.8-5.9 14.1v24.3c0 5.7 4.7 10.4 10.4 10.4h30c-5.7 0-10.4-4.6-10.4-10.3v-24.3c0-5.3 2.1-10.4 5.9-14.1 1.6-1.4 3.3-2.6 5.1-3.7-12.5.6-22.9 1-30.4 1.2-.4-.1-2-.1-4.7 2.4z" fill="#8a898c"/><path d="m55.5 171.8-6.8-32.4c-.2-1.1.2-2.2 1.2-2.8 12.1-7.9 41.8-10.6 69.1-11.2-31.2-.6-82.2.2-99.1 11.2-.9.6-1.4 1.7-1.1 2.8l6.8 32.4c.7 3.5 3.9 5.9 7.4 5.7l4-.2 21.4-1.1c-1.5-1.1-2.5-2.7-2.9-4.4z" fill="#8a898c"/><path d="m477 180.6c-.1-.1-.2-.1-.3-.2-10.5-4.9-23-.3-27.9 10.2-.5 1-.8 2-1.1 3l-1.6 5.5c-.6 1.9-.8 3.9-.8 5.9v175.5c0 4.9 4 8.8 8.8 8.8 1 0 2-.2 3-.5l18.4-6.6c-.1-.5-.2-1.1-.2-1.6v-169.5c0-4 .3-8 .8-11.9l1.6-5.5c1-3.5 2.9-6.7 5.5-9.2-2-1.6-4-2.8-6.2-3.9z" fill="#999"/><path d="m47.8 368.5c-1.3-16.1-2-33.2-1.7-51.4.8-51.5 11.7-104.1 22-141.5l-31 1.7c-13.1 45.5-20.1 92.5-20.9 139.8-.3 18.2.4 35.3 1.7 51.4.3 3.7 3.2 6.5 6.9 6.8l38.8 2.6c1.8.1 3.7-.5 5.1-1.7l-13.8-.9c-3.9-.3-6.8-3.2-7.1-6.8z" fill="#817f84"/><g fill="#284268"><path d="m410.4 125.7c-37.1-9.4-73.2-13.2-107.2-11.3-5.8.3-12.3.8-20.4 1.5-13.8 1.1-32.6 2.6-59.7 4-13 .7-26.1 1.2-39 1.7-2.6 0-5.4 1.3-8.1 3.9-4.8 4.6-7.5 11-7.4 17.7v24.3c0 7.2 5.1 13.5 12.2 15-2.3 29.2-3.6 60.8-3.9 91.8-.3 37.5 1.2 75.5 4.3 113 .1 2.9 1.2 5.6 3.3 7.6 2.1 2.1 4.9 3.3 7.9 3.3h42.6c6 0 10.9-4.7 11.2-10.6 4.8-24.7 6.4-49.8 4.8-74.9-.7-10.3-1.8-18.7-2.8-26.8-1.9-15.1-3.5-28.1-2.2-48.5 1.1-16.3.7-30.1.4-42.2-.1-4.3-.2-8.4-.2-12.3h21.9c.2 5.5-.2 11.5-.6 17.7-.7 10.8-1.6 23.1.6 36 7.1 42.7 5 84.1 3 124.1l-1.2 25.6c.1 3.2 1.5 6.2 3.7 8.5 2.3 2.2 5.4 3.5 8.6 3.5h40.1c6.8 0 12.3-5.5 12.3-12.3 0-.2 0-.4 0-.6-.4-50.8-3.1-102.1-7.9-152.6-1.1-11.8-3.1-26.6-4.8-39.7-.5-3.5-.9-6.8-1.3-10h29.1c-.3 7.4.4 16.9 1.2 27.5.7 9.8 1.6 20.9 1.6 31.3v15.4c0 15.8-.1 30.7 1 44.1s-.2 30-1.8 51.1c-.7 9.5-1.6 20.2-2.2 31.8v.3c0 3.3 1.3 6.4 3.6 8.7s5.5 3.6 8.7 3.6h43.3c6.8 0 12.3-5.5 12.3-12.3 0-.1 0-.3 0-.4-1.2-30.9-1.1-59.7-1-70.6.1-11.7.3-21 .5-29.2.4-14.7.7-26.3 0-42.7-.9-22.3-3.4-45.3-5.2-58.7 7.5-1.1 13.1-7.6 13.1-15.2v-26.8c0-8.1-6.3-14.8-14.4-15.3zm-173.5 257.3c-.1.4-.2.8-.3 1.1-.9 2.4-3.2 4-5.8 4h-37.2c-.8 0-1.5-.4-2-1-.3-.4-.5-.8-.5-1.3-3.1-36.9-4.5-74.5-4.2-111.5.2-30.5 1.6-62.8 3.9-91.5h45.5c0 4.1.1 8.2.2 12.6.3 11.9.7 25.4-.4 41.3-1.4 21.3.4 35.4 2.2 50.3 1 8 2 16.2 2.7 26.3 1.5 23.3.1 46.7-4.1 69.7zm87.7 1.5c0 .5-.1 1.1-.4 1.6-.6 1.2-1.8 2-3.2 2h-38.9c-.6 0-1.2-.2-1.6-.7-.4-.4-.6-.9-.7-1.5.3-8.2.7-16.3 1.2-24.9 2-40.5 4.1-82.4-3.1-126.2-1.9-11.7-1.2-22.9-.4-33.7.4-6.4.8-12.5.7-18.4h32.4c.5 3.6 1 7.4 1.5 11.3 1.7 13 3.6 27.8 4.7 39.4 4.7 50 7.4 100.8 7.8 151.1zm82.3 1.4c-.4.5-1.1.7-1.7.7h-43.3c-.6 0-1.2-.2-1.7-.7-.4-.4-.6-1-.7-1.5.7-11.4 1.5-22 2.2-31.4 1.7-21.5 3-38.5 1.8-52.7-1.1-13-1-27.7-1-43.3 0-5.1 0-10.2 0-15.4 0-10.8-.9-22.1-1.6-32-.8-10.1-1.5-19.8-1.2-26.7h42c1.8 12.9 4.4 36.3 5.3 59 .7 16 .4 27.5 0 42-.2 8.2-.4 17.6-.5 29.4-.1 11-.2 40 1 71.1 0 .4-.2 1-.6 1.5zm2.6-213.1h-225.6c-3 0-5.4-2.4-5.4-5.4v-24.3c0-3.9 1.5-7.7 4.3-10.4.4-.5.9-.8 1.5-1.1 12.9-.4 26.1-1 39.2-1.7 27.3-1.4 46.2-2.9 60-4.1 8.1-.7 14.5-1.2 20.2-1.5 33.1-1.8 68.4 1.9 104.7 11.1.4.1.8.1 1.1.2 2.9.1 5.3 2.4 5.3 5.3v26.5h.1c0 3-2.4 5.4-5.4 5.4z"/><path d="m498.9 196.6c-3.9-8.9-11-16.1-19.8-20.5l-.4-.2c-6.8-3.2-14.7-3.3-21.6-.2-7 3.1-12.2 9.2-14.4 16.5l-1.6 5.5c-.7 2.4-1 4.8-1 7.3v175.5c0 7.6 6.2 13.8 13.8 13.8 1.6 0 3.2-.3 4.6-.8l33.2-12c5.5-2 9.1-7.2 9.1-13v-163.5c0-2.9-.6-5.8-1.9-8.4zm-7.9 172c0 1.6-1 3-2.5 3.5l-33.2 12c-1.2.4-2.5.3-3.5-.5-1-.7-1.6-1.9-1.6-3.1v-175.4c0-1.5.2-3.1.6-4.5l1.6-5.5c1.3-4.5 4.6-8.2 8.9-10.2 2.1-.9 4.3-1.4 6.5-1.4 2.3 0 4.6.5 6.7 1.5l.3.1c6.7 3.4 12.1 8.9 15.3 15.7.6 1.3.9 2.7.9 4.1z"/><path d="m137.7 121c-.2 0-.4 0-.6 0-12.2-.5-36.2-1.3-60-.2-30.5 1.4-50.1 5.2-60 11.6-2.6 1.7-4 4.9-3.3 8l6.8 32.4c1 4.9 4.9 8.6 9.7 9.5-12 43.9-18.5 89.1-19.2 134.7-.3 17.2.3 34.7 1.7 51.9.5 6.1 5.4 11 11.5 11.4l39.6 2.7c6.6 0 12-5.3 12-11.9v-3.3c-.1-7.8-.2-15.9.1-23.8.7-15.9 2.1-31.9 3.4-47.3 3.3-39.6 6.4-77.1.7-116.5l16.3-.9c-.4 19.8-1.7 36-2.9 51.6-1 12.9-2 25.1-2.4 38.3-.4 12.8-1 25.4-1.7 37.5-1.3 24.5-2.5 47.7-1.1 68.8.3 4.6 3.7 8.4 8.3 9.1l37.3 6.4c5.4.9 10.6-2.7 11.5-8.2.1-.3.1-.7.1-1 2.6-36.8 2.7-73.7.4-110.4-2-31.9-6-66.7-10.6-94.3 5.5-1 9.8-5.4 10.4-11.1l3-31.8c.6-6.7-4.3-12.6-11-13.2zm-68.3 174.7c-1.3 15.5-2.6 31.5-3.4 47.7-.4 8.2-.3 16.5-.1 24.5v3.1c0 .5-.2 1.1-.6 1.4-.4.4-1 .6-1.5.5l-38.8-2.7c-1.2-.1-2.2-1-2.3-2.2-1.4-16.9-2-34-1.7-50.9.7-45.7 7.4-91.1 19.8-135.1l29.2-1.6c5.8 38.8 2.7 76-.6 115.3zm66.5-23.9c2.3 36.3 2.2 72.8-.4 109.1l-37.3-6.3c-1.4-20.5-.2-43.4 1.1-67.6.6-12.2 1.3-24.9 1.7-37.8.4-13 1.3-25 2.3-37.8 1.3-16 2.6-32.5 3-53l18.9-1c4.7 27.6 8.7 62.4 10.7 94.4zm2.7-138.5-2.9 31.8c-.1 1.1-1 1.9-2 1.9l-101 5.4c-1.1.1-2-.7-2.2-1.7l-6.6-30.7c17.2-9.5 69.1-10.9 112.7-9 .6 0 1.1.3 1.5.7s.6 1 .5 1.6z"/></g></svg>