<svg id="Layer_1" height="512" viewBox="0 0 512 512" width="512" xmlns="http://www.w3.org/2000/svg" data-name="Layer 1"><path d="m431.29 325.87v150.3h-41.67v-120.85z" fill="#b0b5ca"/><path d="m334.57 401.02h34.26v75.15h-34.26z" fill="#b0b5ca"/><path d="m203.92 447.3h104.16v28.87h-104.16z" fill="#65cef8"/><path d="m290.77 382.34 17.31 64.96h-104.16l17.31-64.96z" fill="#96e1fc"/><path d="m210.85 349.68 10.38 32.66h69.54l10.38-32.66z" fill="#65cef8"/><path d="m222.32 161.57h67.36.13l10.84-40.59h-89.3l10.84 40.59z" fill="#65cef8"/><path d="m221.45 237.56h69.1.12l9.98-37.38h-89.3l9.98 37.38z" fill="#65cef8"/><path d="m288.89 312.3 11.76-37.37h-89.3l11.76 37.37z" fill="#65cef8"/><path d="m272.06 84.35 13.79-38.31h-59.7l13.79 38.31z" fill="#65cef8"/><path d="m143.17 401.02h34.26v75.15h-34.26z" fill="#b0b5ca"/><path d="m122.38 355.32v120.85h-41.67v-150.3z" fill="#b0b5ca"/><path d="m65.63 476.17h380.74v19.83h-380.74z" fill="#888986"/><path d="m246.08 16h19.84v30.04h-19.84z" fill="#d4e1f4"/><path d="m289.49 120.98 11.16-36.63h-89.3l11.16 36.63z" fill="#96e1fc"/><path d="m222.51 200.18h66.98l11.16-38.61h-89.3z" fill="#96e1fc"/><path d="m222.07 274.93h67.86l10.72-37.37h-89.3z" fill="#96e1fc"/><path d="m221.53 349.68h68.94l10.18-37.38h-89.3z" fill="#96e1fc"/><path d="m80.71 325.87v150.3h26v-131.925z" fill="#9a9faf"/><path d="m65.63 476.17h26v19.83h-26z" fill="#686868"/><path d="m203.92 447.3h30v28.87h-30z" fill="#5babc4"/><path d="m251.23 382.34-10.38-32.66h-30l10.38 32.66z" fill="#5babc4"/><path d="m222.32 161.57h29.87l-10.84-40.59h-30l10.84 40.59z" fill="#5babc4"/><path d="m221.45 237.56h29.88l-9.98-37.38h-30l9.98 37.38z" fill="#5babc4"/><path d="m253.11 312.3-11.76-37.37h-30l11.76 37.37z" fill="#5babc4"/><path d="m269.94 84.35-13.79-38.31h-30l13.79 38.31z" fill="#5babc4"/><path d="m221.23 382.34-17.31 64.96h30l17.31-64.96z" fill="#80c4d6"/><path d="m252.51 120.98-11.16-36.63h-30l11.16 36.63z" fill="#80c4d6"/><path d="m252.51 200.18-11.16-38.61h-30l11.16 38.61z" fill="#80c4d6"/><path d="m252.07 274.93-10.72-37.37h-30l10.72 37.37z" fill="#80c4d6"/><path d="m251.53 349.68-10.18-37.38h-30l10.18 37.38z" fill="#80c4d6"/><g fill="#284268"><path d="m163.159 421.891h-6.186a5 5 0 0 0 0 10h6.186a5 5 0 0 0 0-10z"/><path d="m163.159 448.621h-6.186a5 5 0 0 0 0 10h6.186a5 5 0 0 0 0-10z"/><path d="m355.629 421.891h-6.187a5 5 0 0 0 0 10h6.187a5 5 0 0 0 0-10z"/><path d="m355.629 448.621h-6.187a5 5 0 0 0 0 10h6.187a5 5 0 0 0 0-10z"/><path d="m107 393.908h-11.424a5 5 0 0 0 0 10h11.424a5 5 0 0 0 0-10z"/><path d="m107 421.265h-11.424a5 5 0 0 0 0 10h11.424a5 5 0 0 0 0-10z"/><path d="m107 448.621h-11.424a5 5 0 0 0 0 10h11.424a5 5 0 0 0 0-10z"/><path d="m405.6 376.551h11.424a5 5 0 0 0 0-10h-11.424a5 5 0 0 0 0 10z"/><path d="m417.025 421.265h-11.425a5 5 0 0 0 0 10h11.424a5 5 0 0 0 0-10z"/><path d="m417.025 448.621h-11.425a5 5 0 0 0 0 10h11.424a5 5 0 0 0 0-10z"/><path d="m107 366.551h-11.424a5 5 0 1 0 0 10h11.424a5 5 0 1 0 0-10z"/><path d="m417.188 393.908h-11.425a5 5 0 0 0 0 10h11.425a5 5 0 0 0 0-10z"/><path d="m446.372 471.166h-10.081v-145.292a5 5 0 0 0 -7.886-4.084l-41.674 29.451a5 5 0 0 0 -2.114 4.083v115.842h-10.783v-70.146a5 5 0 0 0 -5-5h-34.26a5 5 0 0 0 -5 5v70.146h-16.493v-23.866a4.991 4.991 0 0 0 -.169-1.287l-16.932-63.552 9.932-31.273a5 5 0 0 0 -4.766-6.513h-4.132l8.461-31.059a5 5 0 0 0 -4.825-6.314h-4.95l9.718-30.872a5 5 0 0 0 -4.77-6.5h-4.088l8.894-30.994a5 5 0 0 0 -4.806-6.379h-3.468l8.3-31.084a5 5 0 0 0 -4.831-6.289h-4.506l9.31-32.224a5 5 0 0 0 -4.8-6.387h-4.327l9.158-34.3a5 5 0 0 0 -4.831-6.29h-4.406l9.19-30.17a5 5 0 0 0 -4.784-6.457h-21.483l11.383-31.626a5 5 0 0 0 -4.7-6.693h-14.938v-25.037a5 5 0 0 0 -5-5h-19.83a5 5 0 0 0 -5 5v25.037h-14.934a5 5 0 0 0 -4.7 6.693l11.379 31.623h-21.48a5 5 0 0 0 -4.784 6.457l9.19 30.17h-4.406a5 5 0 0 0 -4.831 6.29l9.158 34.3h-4.327a5 5 0 0 0 -4.8 6.387l9.31 32.224h-4.51a5 5 0 0 0 -4.831 6.289l8.3 31.084h-3.469a5 5 0 0 0 -4.806 6.379l8.894 30.994h-4.088a5 5 0 0 0 -4.77 6.5l9.72 30.873h-4.95a5 5 0 0 0 -4.825 6.314l8.461 31.059h-4.132a5 5 0 0 0 -4.766 6.513l9.932 31.273-16.932 63.547a4.991 4.991 0 0 0 -.169 1.287v23.871h-16.493v-70.144a5 5 0 0 0 -5-5h-34.26a5 5 0 0 0 -5 5v70.146h-10.783v-115.842a5 5 0 0 0 -2.114-4.083l-41.669-29.451a5 5 0 0 0 -7.886 4.084v145.292h-10.086a5 5 0 0 0 -5 5v19.834a5 5 0 0 0 5 5h380.744a5 5 0 0 0 5-5v-19.834a5 5 0 0 0 -5-5zm-51.755-113.253 31.674-22.383v135.636h-31.674zm-55.043 48.107h24.26v65.146h-24.26zm-88.489-385.02h9.83v20.037h-9.83zm27.649 30.037-10.192 28.316h-25.084l-10.192-28.316zm15.166 38.316-8.11 26.627h-59.58l-8.11-26.627zm.241 36.627-8.169 30.591h-59.944l-8.169-30.591zm-.141 40.591-8.267 28.611h-59.467l-8.266-28.611zm.14 38.611-7.309 27.373h-61.663l-7.309-27.373zm-7.981 64.746h-60.319l-7.854-27.373h76.028zm7.675 10-8.616 27.372h-58.436l-8.617-27.374zm.271 37.374-7.457 27.373h-61.3l-7.454-27.375zm.206 37.373-7.2 22.664h-62.23l-7.2-22.664zm-69.244 32.664h61.864l14.643 54.961h-91.148zm-16.148 64.961h94.162v18.871h-94.162zm-60.753-46.28h24.26v65.146h-24.26zm-62.457-70.49 31.674 22.383v113.253h-31.674zm355.663 155.47h-370.744v-9.834h370.744z"/></g></svg>