<svg id="Layer_1" height="512" viewBox="0 0 512 512" width="512" xmlns="http://www.w3.org/2000/svg" data-name="Layer 1"><path d="m31.61 370.42h448.78v48.99h-448.78z" fill="#e5e5e5"/><path d="m476.69 133.66a13.982 13.982 0 0 1 -1.99 7.2v.12h-26.57v-.12a14.071 14.071 0 0 1 -1.98-7.2c0-11.32 15.27-21.07 15.27-21.07s15.27 9.75 15.27 21.07z" fill="#e2e4ed"/><path d="m398.21 251.68.86 89.24h-36.75l-1.87-89.65h.17l37.51.41z" fill="#b0b5ca"/><path d="m291.26 150.62c40.03 27.57 29.37 62.29 29.06 63.27v.01a34.215 34.215 0 0 0 -3.2 3.15c-13.14-6.52-34.23-10.56-58.56-10.56-26.45 0-49.59 5.03-62.23 12.53a32.493 32.493 0 0 0 -4.57-4.91l-.01-.02c-.39-.91-12.89-31.06 26.15-60.64 19.27-14.59 37.28-25.51 39.23-34.84a.45.45 0 0 1 .47-.32.458.458 0 0 1 .47.32c1.94 9.33 10.48 16.38 33.19 32.01z" fill="#e2e4ed"/><path d="m315.71 245.15c-13.13-9.16-32.82-16.64-57.15-16.64-26.45 0-49.79 6.09-62.43 16.64v95.77h121.42z" fill="#b0b5ca"/><path d="m317.12 217.05c-12.79 14.36-1.41 28.1-1.41 28.1-13.13-9.16-32.82-16.64-57.15-16.64-26.45 0-49.79 6.09-62.43 16.64 0 0 10.36-12.5.2-26.13 12.64-7.5 35.78-12.53 62.23-12.53 24.33 0 45.42 4.04 58.56 10.56z" fill="#c3d0e0"/><path d="m151.52 251.25v89.67h-37.65v-89.22z" fill="#b0b5ca"/><path d="m476.57 153.65h-30.3l-6.77 187.27h43.84z" fill="#ccd3df"/><path d="m65.73 153.65h-30.3l-6.77 187.27h43.84z" fill="#ccd3df"/><path d="m65.85 133.66a14.071 14.071 0 0 1 -1.98 7.2v.12h-26.57v-.12a13.982 13.982 0 0 1 -1.99-7.2c0-11.32 15.27-21.07 15.27-21.07s15.27 9.75 15.27 21.07z" fill="#e2e4ed"/><path d="m286.48 293.68v47.24h-60.65v-47.24a30.325 30.325 0 0 1 60.65 0z" fill="#d4e1f4"/><path d="m16 340.92h480v29.5h-480z" fill="#e2e4ed"/><path d="m484.24 273.18h-45.65a3.9 3.9 0 0 0 -3.9 3.9v11.2a3.9 3.9 0 0 0 3.9 3.9h45.65a3.892 3.892 0 0 0 3.9-3.9v-11.2a3.892 3.892 0 0 0 -3.9-3.9z" fill="#b0b5ca"/><path d="m440.54 213.85h41.75a3.892 3.892 0 0 0 3.9-3.9v-9.25a3.9 3.9 0 0 0 -3.9-3.91h-41.75a3.907 3.907 0 0 0 -3.9 3.91v9.25a3.9 3.9 0 0 0 3.9 3.9z" fill="#b0b5ca"/><path d="m443.15 153.65h36.54a3.9 3.9 0 0 0 3.9-3.9v-4.87a3.905 3.905 0 0 0 -3.9-3.9h-36.54a3.907 3.907 0 0 0 -3.91 3.9v4.87a3.9 3.9 0 0 0 3.91 3.9z" fill="#b0b5ca"/><path d="m413.18 243.75h-15.05l.94 97.17h15.04z" fill="#d4e1f4"/><path d="m360.32 245.15h-44.61c0 29.54 1.84 66.24 1.84 95.77h44.77z" fill="#ccd3df"/><path d="m341.57 204.74a7.867 7.867 0 0 0 -3.22-.67 7.786 7.786 0 0 0 -3.21.67 61.391 61.391 0 0 0 -14.82 9.15v.01a34.215 34.215 0 0 0 -3.2 3.15c-12.79 14.36-1.41 28.1-1.41 28.1h44.61s19.59-22.83-18.75-40.41z" fill="#d4e1f4"/><path d="m196.33 219.02c10.16 13.63-.2 26.13-.2 26.13h-45.28s-18.92-22.83 19.42-40.41a7.867 7.867 0 0 1 3.22-.67 7.786 7.786 0 0 1 3.21.67 60.918 60.918 0 0 1 15.05 9.35l.01.02a32.493 32.493 0 0 1 4.57 4.91z" fill="#d4e1f4"/><path d="m151.52 245.15h44.61v95.77h-44.61z" fill="#ccd3df"/><path d="m98.86 242.83h15.01v98.09h-15.01z" fill="#d4e1f4"/><path d="m73.41 273.18h-45.65a3.892 3.892 0 0 0 -3.9 3.9v11.2a3.892 3.892 0 0 0 3.9 3.9h45.65a3.9 3.9 0 0 0 3.9-3.9v-11.2a3.9 3.9 0 0 0 -3.9-3.9z" fill="#b0b5ca"/><path d="m29.71 213.85h41.75a3.9 3.9 0 0 0 3.9-3.9v-9.25a3.907 3.907 0 0 0 -3.9-3.91h-41.75a3.9 3.9 0 0 0 -3.9 3.91v9.25a3.892 3.892 0 0 0 3.9 3.9z" fill="#b0b5ca"/><path d="m32.31 153.65h36.54a3.9 3.9 0 0 0 3.91-3.9v-4.87a3.907 3.907 0 0 0 -3.91-3.9h-36.54a3.905 3.905 0 0 0 -3.9 3.9v4.87a3.9 3.9 0 0 0 3.9 3.9z" fill="#b0b5ca"/><path d="m31.61 370.42h30v48.99h-30z" fill="#cccece"/><path d="m16 340.92h30v29.5h-30z" fill="#cbccd3"/><path d="m243.9 153.45c9.376-7.1 18.448-13.328 25.523-18.929-6.928-5.927-10.237-10.543-11.353-15.911a.458.458 0 0 0 -.47-.32.45.45 0 0 0 -.47.32c-1.95 9.33-19.96 20.25-39.23 34.84-39.04 29.58-26.54 59.73-26.15 60.64l.01.02a32.493 32.493 0 0 1 4.57 4.91c5.208-3.09 12.2-5.759 20.471-7.832-2.214-8.34-5.241-33.235 27.099-57.738z" fill="#c9ccd3"/><path d="m343.12 217.05a34.215 34.215 0 0 1 3.2-3.15v-.01a47.664 47.664 0 0 1 5.026-3.784 71.377 71.377 0 0 0 -9.776-5.366 7.867 7.867 0 0 0 -3.22-.67 7.786 7.786 0 0 0 -3.21.67 61.391 61.391 0 0 0 -14.82 9.15v.01a34.215 34.215 0 0 0 -3.2 3.15c-12.79 14.36-1.41 28.1-1.41 28.1h26s-11.38-13.74 1.41-28.1z" fill="#bfcad8"/><path d="m186.483 210.1a72.176 72.176 0 0 0 -9.783-5.361 7.786 7.786 0 0 0 -3.21-.67 7.867 7.867 0 0 0 -3.22.67c-38.34 17.58-19.42 40.41-19.42 40.41h26s-15.344-18.523 9.633-35.049z" fill="#bfcad8"/><path d="m315.71 245.15c0 29.54 1.84 66.24 1.84 95.77h26c0-29.53-1.84-66.23-1.84-95.77z" fill="#b0b7c1"/><path d="m151.52 245.15h26v95.77h-26z" fill="#b0b7c1"/><g fill="#284268"><path d="m173.582 285.684a5 5 0 0 0 5-5v-13.691a5 5 0 0 0 -10 0v13.691a5 5 0 0 0 5 5z"/><path d="m173.582 325.719a5 5 0 0 0 5-5v-13.69a5 5 0 0 0 -10 0v13.69a5 5 0 0 0 5 5z"/><path d="m133.474 269a5 5 0 0 0 -5 5v13.69a5 5 0 0 0 10 0v-13.69a5 5 0 0 0 -5-5z"/><path d="m133.474 305.032a5 5 0 0 0 -5 5v13.69a5 5 0 0 0 10 0v-13.69a5 5 0 0 0 -5-5z"/><path d="m339.027 285.684a5 5 0 0 0 5-5v-13.691a5 5 0 0 0 -10 0v13.691a5 5 0 0 0 5 5z"/><path d="m339.027 325.719a5 5 0 0 0 5-5v-13.69a5 5 0 0 0 -10 0v13.69a5 5 0 0 0 5 5z"/><path d="m381.141 292.689a5 5 0 0 0 5-5v-13.689a5 5 0 0 0 -10 0v13.69a5 5 0 0 0 5 4.999z"/><path d="m381.141 328.722a5 5 0 0 0 5-5v-13.69a5 5 0 0 0 -10 0v13.69a5 5 0 0 0 5 5z"/><path d="m496 335.923h-7.838l-1.414-39.105a8.913 8.913 0 0 0 6.4-8.535v-11.207a8.908 8.908 0 0 0 -7.426-8.768l-1.798-49.608a8.91 8.91 0 0 0 7.268-8.744v-9.256a8.907 8.907 0 0 0 -8.239-8.868l-1.208-33.423a8.91 8.91 0 0 0 6.846-8.65v-4.874a8.913 8.913 0 0 0 -7.072-8.708 18.928 18.928 0 0 0 .169-2.509c0-13.665-15.78-24.139-17.58-25.288a5 5 0 0 0 -5.382 0c-1.8 1.149-17.579 11.623-17.579 25.288a18.928 18.928 0 0 0 .169 2.509 8.914 8.914 0 0 0 -7.073 8.708v4.874a8.909 8.909 0 0 0 6.847 8.65l-1.208 33.423a8.907 8.907 0 0 0 -8.239 8.868v9.257a8.91 8.91 0 0 0 7.268 8.744l-1.794 49.611a8.908 8.908 0 0 0 -7.427 8.768v11.207a8.915 8.915 0 0 0 6.4 8.536l-1.414 39.1h-15.61l-.886-92.223a5 5 0 0 0 -5-4.952h-15.045a5 5 0 0 0 -5 5.048l.027 2.828-27.532-.3c2.289-3.5 6.135-11.076 4.134-20.206-2.254-10.289-11.04-19.011-26.115-25.924a13.24 13.24 0 0 0 -10.6 0c-2.222 1.019-4.292 2.082-6.243 3.178a57.713 57.713 0 0 0 -.871-11.493c-2.163-12.185-9.442-29.948-31.845-45.375-21.628-14.892-29.582-21.5-31.129-28.918a5.5 5.5 0 0 0 -10.73 0c-1.132 5.433-13.333 14.3-25.131 22.872-3.946 2.867-8.026 5.832-12.219 9.009-26.594 20.151-30.941 40.75-30.35 53.621-1.8-1-3.715-1.963-5.746-2.9a13.243 13.243 0 0 0 -10.6 0c-15.154 6.95-24.034 15.719-26.394 26.063-2.072 9.079 1.606 16.609 3.783 20.061l-26.712.32v-3.807a5 5 0 0 0 -5-5h-15a5 5 0 0 0 -5 5v93.091h-16.535l-1.414-39.1a8.915 8.915 0 0 0 6.4-8.536v-11.204a8.908 8.908 0 0 0 -7.428-8.768l-1.796-49.608a8.91 8.91 0 0 0 7.268-8.744v-9.256a8.907 8.907 0 0 0 -8.239-8.868l-1.208-33.427a8.908 8.908 0 0 0 6.847-8.65v-4.874a8.914 8.914 0 0 0 -7.073-8.708 18.928 18.928 0 0 0 .169-2.509c0-13.665-15.779-24.139-17.579-25.288a5 5 0 0 0 -5.382 0c-1.8 1.149-17.58 11.623-17.58 25.288a18.928 18.928 0 0 0 .169 2.509 8.913 8.913 0 0 0 -7.072 8.708v4.874a8.91 8.91 0 0 0 6.846 8.65l-1.207 33.423a8.906 8.906 0 0 0 -8.24 8.868v9.257a8.91 8.91 0 0 0 7.268 8.744l-1.793 49.611a8.908 8.908 0 0 0 -7.427 8.768v11.207a8.912 8.912 0 0 0 6.4 8.535l-1.414 39.105h-7.842a5 5 0 0 0 -5 5v29.5a5 5 0 0 0 5 5h10.609v43.987a5 5 0 0 0 5 5h448.782a5 5 0 0 0 5-5v-43.991h10.609a5 5 0 0 0 5-5v-29.5a5 5 0 0 0 -5-4.996zm-34.576-217.167c4.178 3.308 10.264 9.331 10.264 14.908a8.969 8.969 0 0 1 -.306 2.318h-19.929a8.957 8.957 0 0 1 -.306-2.318c0-5.543 6.101-11.588 10.277-14.908zm-17.181 27.226h34.348v2.672h-34.348zm28.7 45.813h-23.052l1.2-33.141h20.657zm-31.3 10h39.549v7.059h-39.549zm34.062 66.38h-28.575l1.782-49.321h25.011zm-36.015 10h43.454v9.009h-43.454zm38.464 57.748h-33.473l1.4-38.739h30.673zm-69.926-87.176.834 87.176h-5.043l-.836-87.176zm-14.97 7.877.76 79.3h-26.8l-1.666-79.6zm-56.039-47.339a3.193 3.193 0 0 1 2.262 0c11.84 5.43 18.926 11.958 20.494 18.879 1.153 5.095-.865 9.617-2.27 11.983h-39.317a16.6 16.6 0 0 1 -1.983-11.665c1.61-7.052 8.807-13.69 20.814-19.197zm20 126.638h-34.683c-.087-13.57-.5-28.514-.9-43.027-.4-14.436-.814-29.3-.9-42.749h34.692zm-136.297-178.483c4.114-3.118 8.153-6.052 12.058-8.891 10.485-7.618 19.034-13.83 24.141-19.85 5.13 7.492 14.98 14.8 31.3 26.043 32.943 22.683 28.993 49.841 27.494 56.264-14.193-6.066-34.789-9.512-57.351-9.512-24.376 0-46.743 4.152-61.057 11.217q-.713-.741-1.485-1.468c-1.676-4.927-7.688-29.111 24.9-53.803zm36.012 100.978a35.3 35.3 0 0 0 -36.1 35.264v42.241h-19.7v-88.334c12.016-8.843 33.218-14.075 57.436-14.075 25.478 0 42.987 8.395 52.159 14.309.05 14.179.486 30 .913 45.352.4 14.436.814 29.3.9 42.748h-21.059v-42.241a35.5 35.5 0 0 0 -34.549-35.264zm24.549 35.264v42.241h-50.653v-42.241a25.3 25.3 0 0 1 25.885-25.265 25.441 25.441 0 0 1 24.768 25.265zm24.659-59.823c-11.063-5.294-27-10.345-47.579-10.345-20.719 0-39.141 3.516-52.834 9.878a24.314 24.314 0 0 0 -.546-7.134 25.631 25.631 0 0 0 -1.837-5.253c12.919-5.925 33.412-9.511 55.217-9.511 19.941 0 38.049 2.764 50.885 7.67a26.058 26.058 0 0 0 -2.792 7.094 24.376 24.376 0 0 0 -.514 7.601zm-154.6-5.377c1.609-7.052 8.807-13.69 20.813-19.2a3.2 3.2 0 0 1 2.263 0c11.946 5.479 19.136 12.081 20.79 19.093a16.623 16.623 0 0 1 -1.967 11.769h-39.916a16.609 16.609 0 0 1 -1.982-11.662zm39.584 21.665v85.776h-34.605v-85.776zm-72.262 6.493 27.656-.332v79.615h-27.655zm-15-8.808h5v88.091h-5zm-53.274-129.076c4.178 3.308 10.263 9.331 10.263 14.908a8.963 8.963 0 0 1 -.306 2.318h-19.929a8.963 8.963 0 0 1 -.306-2.318c0-5.543 6.101-11.588 10.278-14.908zm-17.181 27.226h34.348v2.672h-34.348zm28.7 45.813h-23.053l1.2-33.141h20.656zm-31.3 10h39.548v7.059h-39.549zm34.062 66.38h-28.571l1.783-49.321h25.004zm-36.014 10h43.453v9.009h-43.454zm38.463 57.748h-33.474l1.4-38.739h30.673zm408.071 78.487h-438.782v-38.991h438.782zm15.609-48.991h-470v-19.5h470z"/></g></svg>