<svg id="Layer_1" height="512" viewBox="0 0 512 512" width="512" xmlns="http://www.w3.org/2000/svg" data-name="Layer 1"><path d="m163.1 136.52s5.7 1.8 18.18 11.07c-28.47 20.98-38.85 48.82-39.64 51.05a480.574 480.574 0 0 1 21.46-62.12z" fill="#d4e1f4"/><path d="m192.15 81.93h79.78s-8.53 18.58-29.89 34.19a255.108 255.108 0 0 0 -49.89-34.19z" fill="#d4e1f4"/><path d="m318.92 81.93q3.645 5.5 7.05 11.2c-9.33 25.99-24.01 44.61-42.08 59.85-12.71-10.24-24.53-20.67-34.82-30.44-2.35-2.23-4.7-4.38-7.03-6.42 21.36-15.61 29.89-34.19 29.89-34.19z" fill="#4689d3"/><path d="m192.15 81.93a255.108 255.108 0 0 1 49.89 34.19 105.787 105.787 0 0 1 -28.83 14.9 115.461 115.461 0 0 0 -31.93 16.57c-12.48-9.27-18.18-11.07-18.18-11.07a349.992 349.992 0 0 1 29.05-54.59z" fill="#4689d3"/><path d="m283.89 152.98c-16.57 13.98-36 25.12-56.76 36.5-20.4-21.31-35.47-34.19-45.85-41.89a115.461 115.461 0 0 1 31.93-16.57 105.787 105.787 0 0 0 28.83-14.9c2.33 2.04 4.68 4.19 7.03 6.42 10.29 9.77 22.11 20.2 34.82 30.44z" fill="#d4e1f4"/><path d="m353.74 150.35h-.01c-4.56 12.71-11.74 25.28-20.72 37.45a462.527 462.527 0 0 1 -49.12-34.82c18.07-15.24 32.75-33.86 42.08-59.85a375.743 375.743 0 0 1 27.77 57.22z" fill="#d4e1f4"/><path d="m353.74 150.35a511.163 511.163 0 0 1 18.34 57.34 264.8 264.8 0 0 1 -39.07-19.89c8.98-12.17 16.16-24.74 20.72-37.45z" fill="#4689d3"/><path d="m373.82 214.57a720.67 720.67 0 0 1 15.85 89.91c-16.13-4.32-33.55-11.71-50.87-21.12 16.31-20.1 29.04-42.94 35.02-68.79z" fill="#4689d3"/><path d="m372.08 207.69q.9 3.435 1.74 6.88c-5.98 25.85-18.71 48.69-35.02 68.79a362.988 362.988 0 0 1 -59.68-40.82c20.36-16.56 39.45-35.15 53.89-54.74a264.8 264.8 0 0 0 39.07 19.89z" fill="#d4e1f4"/><path d="m283.89 152.98a462.527 462.527 0 0 0 49.12 34.82c-14.44 19.59-33.53 38.18-53.89 54.74a285.193 285.193 0 0 1 -30.05-29.1c-7.91-8.98-15.22-16.93-21.94-23.96 20.76-11.38 40.19-22.52 56.76-36.5z" fill="#4689d3"/><path d="m227.13 189.48c-7.14 3.92-14.44 7.87-21.84 11.97a210.606 210.606 0 0 0 -51.94 40.17c-12.4-5.45-20.18-7.96-20.18-7.96 2.46-11.68 5.27-23.38 8.46-35.01l.01-.01c.79-2.23 11.17-30.07 39.64-51.05 10.38 7.7 25.45 20.58 45.85 41.89z" fill="#4689d3"/><path d="m153.35 241.62c-20.48 21.85-28.34 40.31-28.76 41.29 2.26-16.16 5.08-32.67 8.58-49.25 0 0 7.78 2.51 20.18 7.96z" fill="#d4e1f4"/><path d="m249.07 213.44a285.193 285.193 0 0 0 30.05 29.1 511.768 511.768 0 0 1 -56.31 39.62 355.141 355.141 0 0 0 -69.46-40.54 210.606 210.606 0 0 1 51.94-40.17c7.4-4.1 14.7-8.05 21.84-11.97 6.72 7.03 14.03 14.98 21.94 23.96z" fill="#d4e1f4"/><path d="m222.81 282.16c-6.04 3.67-11.91 7.08-17.52 10.19a259.968 259.968 0 0 0 -56.42 42.18c-17.37-9.85-28.24-13.45-28.67-13.59 1.14-12.34 2.59-25.07 4.39-38.02.01-.01 0-.01 0-.01.42-.98 8.28-19.44 28.76-41.29a355.141 355.141 0 0 1 69.46 40.54z" fill="#4689d3"/><path d="m279.12 242.54a362.988 362.988 0 0 0 59.68 40.82c-15.93 19.63-35.27 36.65-55.07 51.28-12.66-10.19-24.41-20.57-34.66-30.3a301.814 301.814 0 0 0 -26.26-22.18 511.768 511.768 0 0 0 56.31-39.62z" fill="#4689d3"/><path d="m391.88 326.05h-.01c-11.8 21.53-28.22 36.99-47.38 50.21-20.91-11.56-41.84-26.37-60.76-41.62 19.8-14.63 39.14-31.65 55.07-51.28 17.32 9.41 34.74 16.8 50.87 21.12q1.26 10.965 2.21 21.57z" fill="#d4e1f4"/><path d="m395.52 396.78h-.1c-16.19-3.52-33.55-10.9-50.93-20.52 19.16-13.22 35.58-28.68 47.38-50.21h.01c2.32 25.87 3.33 49.93 3.64 70.73z" fill="#4689d3"/><path d="m395.52 396.78c.08 4.95.11 9.72.11 14.28-21.48 17.05-21.81 21.66-61.56 34.15-4.93 1.55-11.29 5.15-17.57 9.21a490.563 490.563 0 0 1 -52.47-31.25q7.38-4.95 15.79-9.63c23.05-12.77 45.26-23.87 64.67-37.28 17.38 9.62 34.74 17 50.93 20.52z" fill="#d4e1f4"/><path d="m344.49 376.26c-19.41 13.41-41.62 24.51-64.67 37.28q-8.415 4.665-15.79 9.63c-18.26-12.44-35.03-25.64-48.08-38.04q-2.64-2.5-5.24-4.9c20.82-11.55 47.31-26.57 73.02-45.59 18.92 15.25 39.85 30.06 60.76 41.62z" fill="#4689d3"/><path d="m249.07 304.34c10.25 9.73 22 20.11 34.66 30.3-25.71 19.02-52.2 34.04-73.02 45.59-24.09-22.08-45.75-36.57-61.84-45.7a259.968 259.968 0 0 1 56.42-42.18c5.61-3.11 11.48-6.52 17.52-10.19a301.814 301.814 0 0 1 26.26 22.18z" fill="#d4e1f4"/><path d="m120.2 320.94c.43.14 11.3 3.74 28.67 13.59-21.89 21.56-32.05 39.31-32.05 39.31.58-16.4 1.64-34.21 3.38-52.9z" fill="#d4e1f4"/><path d="m210.71 380.23q-2.775 1.56-5.42 3.01c-61.25 33.95-85.1 88.17-85.1 88.17h-1.74s-3.68-40.13-1.63-97.57c0 0 10.16-17.75 32.05-39.31 16.09 9.13 37.75 23.62 61.84 45.7z" fill="#4689d3"/><path d="m264.03 423.17a199.829 199.829 0 0 0 -50.82 48.24h-93.02s23.85-54.22 85.1-88.17q2.64-1.455 5.42-3.01 2.595 2.4 5.24 4.9c13.05 12.4 29.82 25.6 48.08 38.04z" fill="#d4e1f4"/><path d="m316.5 454.42c-10.83 7.02-21.39 15.4-23.87 16.99h-79.42a199.829 199.829 0 0 1 50.82-48.24 490.563 490.563 0 0 0 52.47 31.25z" fill="#4689d3"/><path d="m355.64 471.41h-63.01c2.48-1.59 13.04-9.97 23.87-16.99a307 307 0 0 0 39.14 16.99z" fill="#d4e1f4"/><path d="m395.63 411.06c.01 36.82-2.08 60.35-2.08 60.35h-37.91a307 307 0 0 1 -39.14-16.99c6.28-4.06 12.64-7.66 17.57-9.21 39.75-12.49 40.08-17.1 61.56-34.15z" fill="#4689d3"/><path d="m109.37 471.41h293.26v24.59h-293.26z" fill="#98979b"/><path d="m257.36 16.61a3.136 3.136 0 0 0 -3.71 0c-24.56 17.62-44.82 39.99-61.5 65.32h126.77c-16.72-25.33-36.99-47.7-61.56-65.32z" fill="#a5c9f7"/><g fill="#bac6d3"><path d="m181.28 147.59c-12.48-9.27-18.18-11.07-18.18-11.07a480.574 480.574 0 0 0 -21.46 62.12c.79-2.23 11.17-30.07 39.64-51.05z"/><path d="m222.15 81.93h-30c6.761 3.583 14.154 7.823 21.943 12.925q3.884-6.577 8.057-12.925z"/><path d="m133.17 233.66c-3.5 16.58-6.32 33.09-8.58 49.25.42-.98 8.28-19.44 28.76-41.29-12.4-5.45-20.18-7.96-20.18-7.96z"/><path d="m148.87 334.53c-17.37-9.85-28.24-13.45-28.67-13.59-1.74 18.69-2.8 36.5-3.38 52.9 0 0 10.16-17.75 32.05-39.31z"/><path d="m146.477 431.73c-18.384 21.719-26.287 39.68-26.287 39.68h28.26s-1.371-14.958-1.973-39.68z"/></g><path d="m191.215 141.043c.625-1.509 1.242-3.023 1.885-4.523a364.07 364.07 0 0 1 20.993-41.665c-7.789-5.1-15.182-9.342-21.943-12.925a349.992 349.992 0 0 0 -29.05 54.59s5.7 1.8 18.18 11.07a114.3 114.3 0 0 1 9.935-6.547z" fill="#3d7ab2"/><path d="m163.667 231.38c2.343-10.923 4.981-21.857 7.963-32.73l.01-.01c4.332-15.806 9.375-31.472 15.229-46.744-1.991-1.584-3.861-3.024-5.589-4.306-28.47 20.98-38.85 48.82-39.64 51.05l-.01.01c-3.19 11.63-6 23.33-8.46 35.01 0 0 7.78 2.51 20.18 7.96 3.135-3.351 6.57-6.781 10.317-10.24z" fill="#3d7ab2"/><path d="m149.055 334.351q.516-6.623 1.145-13.411c1.14-12.34 2.59-25.07 4.39-38.02.01-.01 0-.01 0-.01 1.742-12.457 3.821-25.122 6.284-37.867-2.655-1.244-5.179-2.392-7.524-3.423-20.48 21.85-28.34 40.31-28.76 41.29 0 0 .01 0 0 .01-1.8 12.95-3.25 25.68-4.39 38.02.43.14 11.3 3.74 28.67 13.59z" fill="#3d7ab2"/><path d="m146.477 431.73c-.385-15.772-.455-35.517.343-57.89.437-12.348 1.146-25.5 2.212-39.216l-.162-.094c-21.89 21.56-32.05 39.31-32.05 39.31-2.05 57.44 1.63 97.57 1.63 97.57h1.74s7.903-17.961 26.287-39.68z" fill="#3d7ab2"/><path d="m270.508 26.827q-6.361-5.338-13.148-10.217a3.136 3.136 0 0 0 -3.71 0c-24.56 17.62-44.82 39.99-61.5 65.32h30c13.606-20.662 29.597-39.352 48.358-55.103z" fill="#90b0d3"/><path d="m109.37 471.41h30v24.59h-30z" fill="#7c7c7f"/><path d="m402.631 466.408h-3.7c1.35-20.244 5.03-94.4-6.277-178.408-7.782-57.816-21.035-108.973-39.391-152.047-23.089-54.18-54.377-95.7-92.993-123.4a8.074 8.074 0 0 0 -9.536 0c-38.617 27.705-69.851 69.226-92.837 123.41-18.273 43.076-31.411 94.233-39.049 152.052-11.094 83.988-7.206 158.13-5.8 178.4h-3.683a5 5 0 0 0 -5 5v24.585a5 5 0 0 0 5 5h293.266a5 5 0 0 0 5-5v-24.592a5 5 0 0 0 -5-5zm-12.038-57.721c-2.916 2.349-5.442 4.459-7.712 6.357-12.991 10.86-18.368 15.355-50.306 25.394-4.753 1.493-10.534 4.611-16.335 8.232a483.9 483.9 0 0 1 -43.14-25.389q4.406-2.73 9.15-5.366c5.577-3.091 11.169-6.119 16.576-9.046 15.973-8.648 31.581-17.1 45.928-26.766 16.493 8.912 31.812 15.162 45.789 18.658q.04 4.052.05 7.926zm-63.735 45.3a49.481 49.481 0 0 1 8.715-4.006c33.832-10.634 40.065-15.845 53.722-27.262l1.247-1.041c-.231 21.584-1.131 37.4-1.632 44.733h-32.41a286.448 286.448 0 0 1 -29.642-12.427zm3.026 12.424h-21.961c2.774-2 5.822-4.149 8.93-6.226q6.602 3.306 13.031 6.223zm-84.253-340.24c10.516 9.988 20.63 18.89 30.272 26.851-14.238 11.209-30.472 20.666-47.822 30.234-13.978-14.442-26.8-26.311-38.3-35.439a110.747 110.747 0 0 1 25.024-12.06 111.4 111.4 0 0 0 26.879-13.248c1.323 1.204 2.643 2.42 3.947 3.659zm-34.745-39.244h52.323a100.939 100.939 0 0 1 -21 22.726 255.912 255.912 0 0 0 -31.323-22.726zm41.632 213.783c-6.875-6.53-13.894-12.552-20.91-18.1a507.5 507.5 0 0 0 47.472-33.585 368.649 368.649 0 0 0 51.945 35.7c-14.006 16.333-30.377 30.8-47.209 43.519-14.092-11.53-25.155-21.699-31.298-27.534zm63.036 63.664q9.959 6.678 19.447 12.231c-12.633 8.141-26.419 15.608-40.94 23.47-5.429 2.939-11.043 5.978-16.664 9.094q-7.031 3.9-13.343 8.007a378.767 378.767 0 0 1 -44.663-35.669l-.258-.243c18.907-10.584 41.821-23.926 64.436-40.362 10.736 8.526 21.539 16.468 31.985 23.472zm-62.727-154.239q-9.069-10.3-17.611-19.4c17.665-9.786 34.174-19.551 48.7-31.225a453.159 453.159 0 0 0 41.822 29.654q-15.02 19.3-37.721 39.305-4.416 3.888-8.862 7.575a276.488 276.488 0 0 1 -26.328-25.909zm-31.087-12.007 4.417-2.411c5.924 6.258 12.309 13.239 19.165 21.026a282.57 282.57 0 0 0 25.978 25.683 508.188 508.188 0 0 1 -48.2 33.683 356.775 356.775 0 0 0 -61.14-36.144 207.466 207.466 0 0 1 45.756-34.142q7.076-3.923 14.024-7.695zm23.891 109.833c9.547 9.068 19.628 17.972 29.867 26.414-22.645 16.25-45.537 29.407-64.088 39.748a351.533 351.533 0 0 0 -54.244-40.586 255.108 255.108 0 0 1 50.544-36.818q7.287-4.038 14.765-8.513a292.135 292.135 0 0 1 23.156 19.755zm-37.114 79.208 1.447-.8q1.266 1.182 2.54 2.391a381.367 381.367 0 0 0 42.734 34.429 205.223 205.223 0 0 0 -44.55 43.221h-82.3c8.638-15.489 33.226-53.241 79.322-78.792zm55.512 42.055c13.893 9.323 28.441 18.086 42.741 25.732-4.692 3.275-9 6.481-12.305 8.937-1.323.985-2.527 1.882-3.4 2.515h-67.665a198.606 198.606 0 0 1 40.629-37.184zm126.345-38.836a188.406 188.406 0 0 1 -36.545-14.708c12.969-9.662 24.637-20.681 34.265-34.219 1.268 17.475 1.961 33.956 2.28 48.927zm-3.629-65.434c-10.8 19.155-25.413 33.28-42.605 45.478-18.882-10.707-36.955-23.635-52.278-35.717 17.177-13.144 33.864-28.121 48.145-45.081 15.486 8.149 30.848 14.623 45.07 18.753q.923 8.385 1.668 16.567zm-4.026-35.81q.569 4.221 1.087 8.406a241.507 241.507 0 0 1 -37.436-15.818 181.414 181.414 0 0 0 26.8-47.631q5.659 26.354 9.549 55.043zm-14.061-74.544c-5.562 23.12-16.8 43.845-31.225 62.32a356.079 356.079 0 0 1 -50.5-34.334c17.919-15.043 34.317-31.34 47.342-48.248a277.082 277.082 0 0 0 33.57 17.026c.276 1.073.544 2.154.813 3.236zm-15.222-50.742q6.041 16.864 11.133 35.157c-7.773-3.571-15.926-7.858-24.335-12.79a163.447 163.447 0 0 0 13.202-22.368zm-9.411-24.076c1.482 3.476 2.918 7.027 4.333 10.611a140.961 140.961 0 0 1 -16.631 30.681 459.254 459.254 0 0 1 -39.983-28.227 138.851 138.851 0 0 0 35.046-48.285 366.846 366.846 0 0 1 17.235 35.219zm-23.6-46.114c-8.437 22.339-21.1 38.976-36.662 52.784-10.555-8.62-21.046-17.851-31.24-27.534-.882-.837-1.772-1.663-2.664-2.487a105.486 105.486 0 0 0 25.116-29.5h41.216q2.143 3.313 4.229 6.736zm-64.925-72.226c20.062 14.585 38.07 33.146 53.9 55.485h-107.747c15.797-22.34 33.788-40.9 53.847-55.485zm-61.641 67.114a252.265 252.265 0 0 1 39.94 27.1 100.448 100.448 0 0 1 -22.187 10.624 121.67 121.67 0 0 0 -30.345 15.12 108.839 108.839 0 0 0 -11.628-7.347 343.157 343.157 0 0 1 24.22-45.497zm-28.167 54.738c1.79.991 4.166 2.417 7.169 4.448a123.121 123.121 0 0 0 -14.275 13.9q3.403-9.404 7.106-18.348zm-19.305 56.93c.811-2.227 10.171-26.738 34.928-46.336 8.579 6.635 21.06 17.387 37.656 34.359l-2.02 1.1q-6.969 3.8-14.089 7.728a217.362 217.362 0 0 0 -50.757 38.51c-5.6-2.382-10.085-4.094-13.11-5.195q3.39-15.506 7.392-30.166zm-9.477 40.084c2.1.792 4.777 1.835 7.946 3.148-4.393 5.04-8.116 9.836-11.237 14.215q1.548-8.811 3.291-17.363zm-8.121 48.823c.216-1.636.453-3.247.678-4.872 1.394-3.1 8.695-18.34 25.131-36.575a354.077 354.077 0 0 1 59.163 34.054c-4.09 2.409-7.764 4.5-10.9 6.235a266.11 266.11 0 0 0 -54.826 40.321 195.322 195.322 0 0 0 -22.5-10.717c.905-9.306 1.978-18.809 3.254-28.446zm-4.2 38.877c3.77 1.59 9.216 4.079 16 7.7a238.972 238.972 0 0 0 -17.976 20.864c.493-9.209 1.14-18.757 1.973-28.564zm-2.789 47.259c2.378-3.843 11.446-17.735 27.908-34.458a336.591 336.591 0 0 1 52.449 38.461 217.564 217.564 0 0 0 -79.691 77.261c-.888-16.323-1.89-45.377-.666-81.264zm275.831 115.733h-283.262v-14.592h283.262z" fill="#284268"/></svg>