<svg id="Layer_1" height="512" viewBox="0 0 512 512" width="512" xmlns="http://www.w3.org/2000/svg" data-name="Layer 1"><path d="m263.45 17.69a15.864 15.864 0 0 0 -14.24 0c-26.39 15.29-23.44 51.22-23.26 53.21l59.95.19.03-.1s4.67-37.57-22.48-53.3z" fill="#686868"/><path d="m271.315 23.637a40.547 40.547 0 0 0 -7.865-5.947 15.864 15.864 0 0 0 -14.24 0c-26.39 15.29-23.44 51.22-23.26 53.21h30c-.159-1.764-2.478-30.177 15.365-47.263z" fill="#4f4f4f"/><path d="m225.95 70.9a106.218 106.218 0 0 1 29.81-3.61 108.976 108.976 0 0 1 30.14 3.8c49.01 14.05 44.52 62.24 44.52 62.24v.01c-1.42.1-2.84.23-4.26.41-13.84 1.71-44.11 1.17-61.8.7q-9.045-.24-18.09.12c-16.39.63-45.99.94-60.29-.8-1.46-.18-2.93-.32-4.4-.42v-.01c-.08-.96-3.95-48.8 44.37-62.44z" fill="#3e3f3c"/><path d="m255.95 70.9a91.855 91.855 0 0 1 14.45-2.806 127.7 127.7 0 0 0 -14.641-.8 106.218 106.218 0 0 0 -29.81 3.61c-48.32 13.64-44.45 61.48-44.37 62.44v.01c1.47.1 2.94.24 4.4.42 6.178.752 15.216 1.119 24.806 1.244.745-15.318 6.577-53.225 45.165-64.118z" fill="#4b4c4a"/><path d="m146.91 409.09h-.01c-1.69 43.07-38.82 35.36-25.29 2.38 9.66-23.53-24.5-100.57-24.5-100.57-9.83-20.92-.25-30.83 10.05-31.16 7.44-.24 15.27 4.53 16.44 13.76.92 7.28 5.62 8.47 8.62 7.98a7.244 7.244 0 0 0 5.63-9.06c-5.34-20.07-21.87-96.6 40.55-84.13 41.67 8.33 113.73 8.29 155.2 0 62.42-12.47 45.89 64.06 40.55 84.13a7.244 7.244 0 0 0 5.63 9.06c3 .49 7.7-.7 8.62-7.98 1.17-9.23 9-14 16.44-13.76 10.3.33 19.88 10.24 10.05 31.16 0 0-34.16 77.04-24.5 100.57 13.53 32.98-25.71 39.73-27.41-3.34-14.95 42.51-45.81 86.87-109.54 87.87-63.24-.99-92.77-44.69-106.53-86.91z" fill="#686868"/><path d="m361.3 137.25a76.511 76.511 0 0 0 -30.88-3.91l-148.84.01v-.01a76.9 76.9 0 0 0 -29.75 3.53c-75.75 25.23-44.67 142.87-44.67 142.87 7.44-.24 15.27 4.53 16.44 13.76.92 7.28 5.62 8.47 8.62 7.98a7.244 7.244 0 0 0 5.63-9.06c-5.34-20.07-21.87-96.6 40.55-84.13 41.67 8.33 113.73 8.29 155.2 0 62.42-12.47 45.89 64.06 40.55 84.13a7.244 7.244 0 0 0 5.63 9.06c3 .49 7.7-.7 8.62-7.98 1.17-9.23 9-14 16.44-13.76 0 0 30.77-116.47-43.54-142.49z" fill="#888986"/><path d="m284.95 334.81c23.61-55.07 68.16-17.16 68.16-17.16s-16.35 30.5-55.78 13.01c-2.6-1.15-7.33 4.15-12.38 4.15z" fill="#3e3f3c"/><path d="m253.57 261.73a7.965 7.965 0 1 1 -7.97 7.96 7.964 7.964 0 0 1 7.97-7.96z" fill="#3e3f3c"/><path d="m284.06 374.25c5.07 7.66 0 23.63-19.23 13.33 1.84-4.28 2.45-10.35 2.21-17.83 0 0 11.39-4.02 17.02 4.5z" fill="#8c8c8c"/><path d="m244.96 369.75c-.27 8.61.57 15.35 3.11 19.64-19.31 8.92-23.64-7.2-19.13-15.2 4.56-8.08 16.02-4.44 16.02-4.44z" fill="#8c8c8c"/><path d="m198.261 452.543a125.616 125.616 0 0 1 -22.93-63.784l-5.141-66.178a448.933 448.933 0 0 0 -5.758-45.486c-4.188-23.067-6.307-58.93 18.159-68.015-1.427-.255-2.827-.517-4.191-.79-62.42-12.47-45.89 64.06-40.55 84.13a7.244 7.244 0 0 1 -5.63 9.06c-3 .49-7.7-.7-8.62-7.98-1.17-9.23-9-14-16.44-13.76-10.3.33-19.88 10.24-10.05 31.16 0 0 34.16 77.04 24.5 100.57-13.53 32.98 23.6 40.69 25.29-2.38h.01c13.76 42.22 43.29 85.92 106.53 86.91a128.621 128.621 0 0 0 15.007-1.1c-32.547-4.362-54.877-21.11-70.186-42.357z" fill="#545454"/><path d="m227.05 334.81c-5.05 0-9.78-5.3-12.38-4.15-39.43 17.49-55.78-13.01-55.78-13.01s44.55-37.91 68.16 17.16z" fill="#3e3f3c"/><path d="m181.83 136.87a73.587 73.587 0 0 1 17.949-3.521h-18.2v-.01a76.9 76.9 0 0 0 -29.75 3.53c-75.75 25.23-44.67 142.87-44.67 142.87 7.44-.24 15.27 4.53 16.44 13.76.92 7.28 5.62 8.47 8.62 7.98a7.244 7.244 0 0 0 5.63-9.06c-2.244-8.436-6.464-26.845-5.969-44.428-3.55-36.739-.41-94.348 49.95-111.121z" fill="#6b6b6b"/><g fill="#284268"><path d="m253.569 282.66a12.967 12.967 0 1 0 -12.969-12.967 12.985 12.985 0 0 0 12.969 12.967zm0-15.934a2.967 2.967 0 1 1 -2.973 2.967 2.974 2.974 0 0 1 2.973-2.967z"/><path d="m306.717 269.717c-22.684 5.013-40.221 24.531-44.679 49.725-1.82 10.29-2.938 19.2-.74 40.229 1.263 12.089 2.054 28.167-5.311 29.829-3.695-.786-7.848-5.288-5.285-29.829 2.2-21.029 1.08-29.939-.74-40.229-4.458-25.194-21.995-44.712-44.679-49.725-30.75-6.789-54.177 13.677-55.159 14.552a5 5 0 0 0 6.65 7.468c.205-.18 20.538-17.958 46.351-12.255 18.721 4.137 33.239 20.506 36.989 41.7 1.408 7.959 2.865 16.19.643 37.447-.16 1.533-.348 3.344-.512 5.328-.557-.024-1.133-.033-1.727-.017-6.252.18-11.2 2.946-13.931 7.79-3.68 6.526-2.846 15.361 1.939 20.55a15.019 15.019 0 0 0 11.424 4.74 26.078 26.078 0 0 0 8.55-1.6 14.821 14.821 0 0 0 8.913 4.1 4.94 4.94 0 0 0 1.174 0 14.684 14.684 0 0 0 10.212-5.534 25.036 25.036 0 0 0 9.131 1.933 14.57 14.57 0 0 0 11.051-4.6c4.67-5.126 5.219-13.84 1.25-19.839-4.233-6.4-10.985-7.92-16.485-7.647-.162-1.939-.346-3.709-.5-5.213-2.222-21.256-.765-29.487.643-37.446 3.75-21.2 18.268-37.566 36.989-41.7 25.653-5.67 46.152 12.08 46.359 12.263a5 5 0 0 0 6.642-7.476c-.985-.861-24.402-21.337-55.162-14.544zm-72.84 115.783c-2.038-2.211-1.941-6.443-.579-8.859 1.353-2.4 4.222-2.817 6.57-2.7a48.531 48.531 0 0 0 1.654 12.546c-3.494.913-6.184.597-7.645-.987zm38.256-11.69c2.514-.181 5.813.253 7.759 3.195 1.455 2.2 1.311 5.816-.3 7.587-1.547 1.7-4.677 1.757-8.682.27a52.035 52.035 0 0 0 1.223-11.049z"/><path d="m289.705 420.681c-1.509.6-5.041 2-6.812 1.364-11.755-4.193-20.471-1.882-25.706.788a29.745 29.745 0 0 0 -26.6-.6c-2.373 1.128-4.937.41-8.054-1.013a5 5 0 1 0 -4.154 9.1c2.58 1.179 9.433 4.308 16.5.95 10.277-4.882 19.037 1.158 19.377 1.4a5 5 0 0 0 5.741.095c2.987-2.023 9.5-4.881 19.54-1.3 4.676 1.667 9.422.27 13.856-1.486a5 5 0 0 0 -3.684-9.3z"/><path d="m273.146 439.142c-16.326 12.539-33.617.475-34.406-.089a5 5 0 0 0 -5.874 8.093 42.9 42.9 0 0 0 24.034 7.615 36.007 36.007 0 0 0 22.337-7.689 5 5 0 1 0 -6.091-7.93z"/><path d="m410.9 275.778c2.157-9.95 6.261-32.762 5.028-57.772-2.2-44.551-20.518-74.107-52.982-85.473a81.038 81.038 0 0 0 -27.447-4.4c-.274-9.178-2.7-27.758-16.614-43.02-7.229-7.929-16.506-13.792-27.7-17.6a80.855 80.855 0 0 0 -1.4-18.237c-3.2-16.321-11.435-28.739-23.822-35.913a20.633 20.633 0 0 0 -19.255 0c-12.359 7.158-20.724 19.549-24.192 35.833a82.028 82.028 0 0 0 -1.739 18.073c-11.056 3.707-20.244 9.462-27.428 17.275-14.123 15.36-16.57 34.29-16.844 43.588a79.833 79.833 0 0 0 -26.249 3.988c-33.096 11.025-51.822 40.549-54.156 85.38-1.315 25.2 2.83 48.255 5 58.272a18.79 18.79 0 0 0 -8.316 5.512c-3.649 4.227-8.527 13.963-.22 31.686 9.272 20.932 31.671 78.941 24.425 96.6-5.04 12.283-4.317 23.43 1.934 29.819a14.567 14.567 0 0 0 10.482 4.431 15.6 15.6 0 0 0 5.606-1.06c5.942-2.288 10.578-7.728 13.493-15.405 6.292 14.531 14.814 28.9 26.354 40.956 20.291 21.189 46.704 32.189 78.502 32.689h.157c48.784-.766 85.817-26.693 107.749-75.154 3.028 8.081 8 13.846 14.409 16.315a15.811 15.811 0 0 0 17.262-3.5c6.182-6.319 6.958-17.194 2.076-29.092-7.246-17.656 15.153-75.665 24.425-96.6 8.307-17.723 3.429-27.459-.22-31.686a18.785 18.785 0 0 0 -8.318-5.505zm-159.186-253.758a11.036 11.036 0 0 1 9.232 0c9.888 5.727 16.269 15.454 18.967 28.911a70.379 70.379 0 0 1 1.317 13.854 121.159 121.159 0 0 0 -25.344-2.5h-.086a119.151 119.151 0 0 0 -25 2.289c.242-10.474 3.017-32.189 20.914-42.554zm-51.009 69.3c11.772-12.8 30.325-19.206 55.06-19.027h.082c25.036 0 43.732 6.553 55.571 19.476 11.937 13.031 13.867 29.502 14.082 37.031-9.965 1.224-31.056 1.45-61 .656-6.005-.161-12.2-.121-18.412.12-16.238.627-45.483.94-59.494-.766l-.1-.01c.186-7.6 2.092-24.3 14.211-37.484zm-94.611 126.5c2.181-40.832 18.1-66.469 47.317-76.2a72.7 72.7 0 0 1 31.968-2.876c14.6 1.777 44.527 1.472 61.089.831 6-.231 11.971-.27 17.761-.116 30.92.822 51.962.574 62.543-.734a72.928 72.928 0 0 1 32.872 3.256c28.66 10.034 44.233 35.71 46.287 76.314 1.261 24.929-3.212 48.186-5.112 56.723a22.271 22.271 0 0 0 -2.84.655 20.191 20.191 0 0 0 -14.538 17.207 5.2 5.2 0 0 1 -1.361 3.38 2.073 2.073 0 0 1 -1.5.294 1.883 1.883 0 0 1 -1.287-.877 2.446 2.446 0 0 1 -.311-1.957c4.693-17.645 13.545-60.88-5.561-81.224-9.054-9.639-22.786-12.7-40.806-9.1-40.816 8.155-112.422 8.155-153.238 0-18.021-3.6-31.754-.541-40.806 9.1-19.106 20.344-10.254 63.579-5.561 81.224a2.446 2.446 0 0 1 -.311 1.957 1.883 1.883 0 0 1 -1.286.877 2.075 2.075 0 0 1 -1.5-.294 5.2 5.2 0 0 1 -1.361-3.381 20.191 20.191 0 0 0 -14.538-17.206 22.141 22.141 0 0 0 -2.84-.655c-1.905-8.601-6.423-32.098-5.08-57.207zm304.269 90.961c-.015.033-.031.066-.046.1-3.584 8.085-34.726 79.711-24.556 104.5 3.907 9.522 2.576 15.7.028 18.3a5.814 5.814 0 0 1 -6.52 1.16c-4.958-1.909-10.445-9.227-11.235-23.987a267.444 267.444 0 0 0 14-78.16 5 5 0 0 0 -4.981-5.019h-.019a5 5 0 0 0 -5 4.981c0 .4-.324 40.408-15.357 80.2-19.8 52.4-54.533 79.366-103.239 80.16-28.977-.473-52.977-10.424-71.334-29.578-22.813-23.806-33.058-57.9-37.634-82.317a256.519 256.519 0 0 1 -4.506-48.306 5 5 0 0 0 -4.862-5.133c-.046 0-.092 0-.139 0a5 5 0 0 0 -5 4.861 261.309 261.309 0 0 0 4.628 50.183 236.245 236.245 0 0 0 7.266 28.927c-.751 14.848-6.059 22.1-10.447 23.794a4.718 4.718 0 0 1 -5.346-1.033c-2.482-2.537-3.927-9.043.17-19.028 10.17-24.785-20.972-96.411-24.556-104.5-.015-.034-.031-.067-.046-.1-4.339-9.235-4.807-16.871-1.285-20.949 2.392-2.77 6.721-3.81 10.782-2.587a10.359 10.359 0 0 1 7.5 8.893c.715 5.639 3.274 8.622 5.3 10.132a11.995 11.995 0 0 0 17.171-3.175 12.471 12.471 0 0 0 1.581-9.964c-3.326-12.508-12.928-54.65 3.186-71.808 6.53-6.952 17.145-9.017 31.558-6.138 41.857 8.365 115.3 8.365 157.156 0 14.413-2.88 25.028-.814 31.558 6.138 16.114 17.158 6.512 59.3 3.186 71.807a12.473 12.473 0 0 0 1.575 9.965 11.995 11.995 0 0 0 17.162 3.157c2.022-1.51 4.581-4.493 5.3-10.131a10.359 10.359 0 0 1 7.5-8.894c4.056-1.222 8.391-.184 10.782 2.587 3.526 4.081 3.056 11.718-1.281 20.953z"/><path d="m356.354 313.839c-.874-.743-21.672-18.148-43.9-12.94-13.584 3.187-24.387 13.935-32.107 31.946a5 5 0 0 0 4.593 6.97h.057c3.84-.018 7.167-1.852 9.6-3.2.521-.288 1.225-.677 1.746-.926 9.1 3.89 17.082 5.366 23.955 5.366a42.633 42.633 0 0 0 22.292-6.055 43.384 43.384 0 0 0 14.9-14.923l.021-.037.014-.025a5 5 0 0 0 -1.171-6.176zm-18.929 12.593c-10.489 6.328-23.3 6.214-38.071-.339a6.982 6.982 0 0 0 -3.853-.526c5.4-8.163 11.826-13.179 19.2-14.921 12.6-2.979 25.425 4.049 31.523 8.137a34.663 34.663 0 0 1 -8.799 7.649z"/><path d="m217.4 336.615c2.433 1.344 5.76 3.179 9.6 3.2h.056a5 5 0 0 0 4.593-6.97c-7.721-18.011-18.524-28.759-32.108-31.946-22.228-5.215-43.022 12.2-43.9 12.94a5 5 0 0 0 -1.164 6.169l.018.032.013.024a43.408 43.408 0 0 0 14.902 14.936 42.622 42.622 0 0 0 22.29 6.06c6.871 0 14.853-1.476 23.955-5.366.52.244 1.224.633 1.745.921zm-4.753-10.522c-26.9 11.927-41.492-.654-46.9-7.3 6.055-4.086 18.838-11.132 31.516-8.156 7.389 1.733 13.827 6.751 19.241 14.93a6.978 6.978 0 0 0 -3.857.526z"/></g></svg>