<svg id="Layer_1" height="512" viewBox="0 0 512 512" width="512" xmlns="http://www.w3.org/2000/svg" data-name="Layer 1"><path d="m385.36 134.53h-37.25l7.63 315.53a2 2 0 0 0 2 1.94h53.2a2 2 0 0 0 1.99-2.2z" fill="#db3e63"/><path d="m130.67 134.53-27.57 315.27a2 2 0 0 0 1.99 2.2h53.2a2 2 0 0 0 2-1.94l7.63-315.53z" fill="#db3e63"/><path d="m133.1 449.8 27.57-315.27h-30l-27.57 315.27a2 2 0 0 0 1.99 2.2h30a2 2 0 0 1 -1.99-2.2z" fill="#af4361"/><path d="m491.44 60.04c-66.82 10.06-149.69 18.6-236.93 18.73a1576.423 1576.423 0 0 1 -235.64-17.37 2.491 2.491 0 0 0 -2.43 3.87l31.07 45.41h417.43l30.51-44.7a3.969 3.969 0 0 0 -4.01-5.94z" fill="#5d6470"/><path d="m67.69 110.68h377.25v23.85h-377.25z" fill="#e75163"/><path d="m442.94 171.48h-373.25a1.993 1.993 0 0 0 -2 2v21.57a2 2 0 0 0 2 2h373.25a2.006 2.006 0 0 0 2-2v-21.57a2 2 0 0 0 -2-2z" fill="#e75163"/><path d="m237.1 134.53h41.66v62.52h-41.66z" fill="#5d6470"/><path d="m67.69 110.68h30v23.85h-30z" fill="#cc4a5f"/><path d="m18.87 61.4a2.491 2.491 0 0 0 -2.43 3.87l31.07 45.41h30l-31.066-45.4q-14.087-1.859-27.574-3.88z" fill="#4d525b"/><path d="m97.69 195.05v-21.57a1.993 1.993 0 0 1 2-2h-30a1.993 1.993 0 0 0 -2 2v21.57a2 2 0 0 0 2 2h30a2 2 0 0 1 -2-2z" fill="#cc4a5f"/><path d="m497.884 57.172a8.961 8.961 0 0 0 -7.192-2.071c-81.6 12.28-161.07 18.562-236.19 18.67a1574.327 1574.327 0 0 1 -234.887-17.319 7.493 7.493 0 0 0 -7.3 11.64l31.073 45.408a5 5 0 0 0 4.126 2.177h15.174v18.848a5 5 0 0 0 5 5h57.461l-2.683 26.951h-52.778a7.007 7.007 0 0 0 -7 7v21.573a7.007 7.007 0 0 0 7 7h49.806l-21.368 247.261a7 7 0 0 0 6.965 7.69h53.2a6.966 6.966 0 0 0 7-6.823l5.932-248.128h173.6l5.923 248.151a6.963 6.963 0 0 0 7 6.805h53.2a7 7 0 0 0 6.971-7.626l-21.378-247.33h46.4a7.007 7.007 0 0 0 7-7v-21.571a7.007 7.007 0 0 0 -7-7h-49.372l-2.683-26.951h54.054a5 5 0 0 0 5-5v-18.846h15a5 5 0 0 0 4.129-2.181l30.514-44.7c.06-.089.118-.179.173-.272a8.963 8.963 0 0 0 -1.867-11.357zm-342.524 389.828h-47l21.169-244.951h31.685zm76.74-254.951h-159.412v-15.569h159.412zm-99.585-25.569 2.684-26.951h27.583l-.742 26.951zm99.584 0h-60.055l.742-26.951h59.314zm41.666 25.569h-31.665v-52.52h31.666zm133.906 254.951h-47l-5.857-244.951h31.686zm32.267-270.52v15.569h-156.173v-15.569zm-156.173-10v-26.951h59.482l.742 26.951zm69.486-26.951h27.583l2.684 26.951h-29.525zm86.687-10h-367.25v-13.848h367.25zm22.356-23.848h-412.143l-26.341-38.5a1588.441 1588.441 0 0 0 230.707 16.59c74.891-.108 154.046-6.308 235.315-18.43z" fill="#284268"/></svg>