<svg id="Layer_1" height="512" viewBox="0 0 512 512" width="512" xmlns="http://www.w3.org/2000/svg" data-name="Layer 1"><path d="m302.98 295.64h17.04c-1.26 14.16-2.77 28.32-4.57 42.27h-6.63c-1.87-13.98-3.83-28.13-5.84-42.27z" fill="#747d83"/><path d="m296.77 253.37h26.31c-.8 13.98-1.8 28.13-3.06 42.27h-17.04c-2.03-14.16-4.11-28.31-6.21-42.27z" fill="#8c969b"/><path d="m324.92 211.1h.01c-.43 13.78-1.03 27.93-1.85 42.27h-26.31c-2.16-14.36-4.34-28.51-6.5-42.27z" fill="#747d83"/><path d="m283.52 168.91 42.21.03c-.11 13.48-.36 27.61-.8 42.16h-34.66c-2.3-14.58-4.56-28.72-6.75-42.19z" fill="#8c969b"/><path d="m325.61 126.56c.17 13.09.23 27.33.12 42.38l-42.21-.03c-2.45-15.06-4.81-29.28-7.01-42.35z" fill="#747d83"/><path d="m325.61 126.56h-49.1c-2.69-16.02-5.13-30.31-7.2-42.27h55.3c.41 11.97.79 26.26 1 42.27z" fill="#8c969b"/><path d="m324.61 84.29h-55.3c-4.25-24.5-6.93-39.28-6.93-39.28h60.41s.98 14.8 1.82 39.28z" fill="#747d83"/><path d="m269.31 84.29h-66.88c-1.62-24.71-2.25-39.28-2.25-39.28h62.2s2.68 14.78 6.93 39.28z" fill="#babcbe"/><path d="m276.51 126.56h-70.99c-.95-11.88-1.75-22.75-2.42-32.41q-.36-5.175-.67-9.86h66.88c2.07 11.96 4.51 26.25 7.2 42.27z" fill="#a9a9aa"/><path d="m283.52 168.91-74.35-.07c-1.41-15.13-2.62-29.31-3.65-42.28h70.99c2.2 13.07 4.56 27.29 7.01 42.35z" fill="#babcbe"/><path d="m290.27 211.1h-76.87c-1.58-14.71-2.98-28.86-4.23-42.26l74.35.07c2.19 13.47 4.45 27.61 6.75 42.19z" fill="#a9a9aa"/><path d="m296.77 253.37h-78.55c-1.76-14.48-3.36-28.62-4.82-42.27h76.87c2.16 13.76 4.34 27.91 6.5 42.27z" fill="#babcbe"/><path d="m302.98 295.64h-79.27c-1.98-14.32-3.81-28.45-5.49-42.27h78.55c2.1 13.96 4.18 28.11 6.21 42.27z" fill="#a9a9aa"/><path d="m308.82 337.91h-78.88c-2.23-14.19-4.31-28.32-6.23-42.27h79.27c2.01 14.14 3.97 28.29 5.84 42.27z" fill="#babcbe"/><path d="m314.18 380.18h-77.15c-2.53-14.08-4.89-28.2-7.09-42.27h78.88q1.62 12.255 3.15 24.3 1.14 9.075 2.21 17.97z" fill="#a9a9aa"/><path d="m318.91 422.45h-73.77c-2.87-13.97-5.57-28.09-8.11-42.27h77.15c1.76 14.57 3.35 28.73 4.73 42.27z" fill="#babcbe"/><path d="m322.65 464.72h-68.11c-3.32-13.84-6.45-27.97-9.4-42.27h73.77c1.53 14.96 2.79 29.15 3.74 42.27z" fill="#a9a9aa"/><path d="m324.32 496h-61.8q-4.17-15.33-7.98-31.28h68.11c.81 11.29 1.38 21.78 1.67 31.28z" fill="#babcbe"/><path d="m209.17 168.84-17.82-.01c2.63-26.56 6.44-51.9 11.75-74.68.67 9.66 1.47 20.53 2.42 32.41 1.03 12.97 2.24 27.15 3.65 42.28z" fill="#9b9d9f"/><path d="m213.4 211.1h-25.27c.79-14.3 1.84-28.45 3.22-42.27l17.82.01c1.25 13.4 2.65 27.55 4.23 42.26z" fill="#b1b1b2"/><path d="m213.4 211.1h-25.27c-.77 14.01-1.28 28.16-1.58 42.27h31.67c-1.76-14.48-3.36-28.62-4.82-42.27z" fill="#9b9d9f"/><path d="m223.71 295.64h-37.46c-.09-13.93 0-28.08.3-42.27h31.67c1.68 13.82 3.51 27.95 5.49 42.27z" fill="#b1b1b2"/><path d="m229.94 337.91h-42.93c-.4-13.72-.67-27.88-.76-42.27h37.46c1.92 13.95 4 28.08 6.23 42.27z" fill="#9b9d9f"/><path d="m237.03 380.18h-48.36c-.66-13.43-1.24-27.6-1.66-42.27h42.93c2.2 14.07 4.56 28.19 7.09 42.27z" fill="#b1b1b2"/><path d="m245.14 422.45h-53.97c-.89-12.92-1.75-27.13-2.5-42.27h48.36c2.54 14.18 5.24 28.3 8.11 42.27z" fill="#9b9d9f"/><path d="m254.54 464.72h-60.08c-1.02-11.54-2.18-25.87-3.29-42.27h53.97c2.95 14.3 6.08 28.43 9.4 42.27z" fill="#b1b1b2"/><path d="m262.52 496h-65.02s-1.31-11.6-3.04-31.28h60.08q3.81 15.93 7.98 31.28z" fill="#9b9d9f"/><path d="m261.32 16 1.06 29.01h-46.73v-29.01z" fill="#b0b5ca"/><g fill="#848689"><path d="m205.52 126.56c-.95-11.88-1.75-22.75-2.42-32.41-5.31 22.78-9.12 48.12-11.75 74.68l17.82.01c-1.41-15.13-2.62-29.31-3.65-42.28z"/><path d="m212.13 211.1h-24c-.77 14.01-1.28 28.16-1.58 42.27h24c.3-14.11.81-28.26 1.58-42.27z"/><path d="m210.25 295.64h-24c.09 14.39.36 28.55.76 42.27h24c-.4-13.72-.67-27.88-.76-42.27z"/><path d="m212.67 380.18h-24c.75 15.14 1.61 29.35 2.5 42.27h24c-.89-12.92-1.75-27.13-2.5-42.27z"/><path d="m218.46 464.72h-24c1.73 19.68 3.04 31.28 3.04 31.28h24s-1.31-11.6-3.04-31.28z"/></g><path d="m209.17 168.84-17.82-.01c-1.38 13.82-2.43 27.97-3.22 42.27h25.27c-1.58-14.71-2.98-28.86-4.23-42.26z" fill="#989899"/><path d="m210.55 253.37h-24c-.3 14.19-.39 28.34-.3 42.27h24c-.09-13.93 0-28.08.3-42.27z" fill="#989899"/><path d="m211.01 337.91h-24c.42 14.67 1 28.84 1.66 42.27h24c-.66-13.43-1.24-27.6-1.66-42.27z" fill="#989899"/><path d="m215.17 422.45h-24c1.11 16.4 2.27 30.73 3.29 42.27h24c-1.02-11.54-2.18-25.87-3.29-42.27z" fill="#989899"/><path d="m327.774 44.677a5 5 0 0 0 -4.989-4.67h-55.585l-.89-24.191a5 5 0 0 0 -5-4.816h-45.663a5 5 0 0 0 -5 5v24.007h-10.469a5 5 0 0 0 -5 5.217c.029.681.844 18.76 2.906 48.4-9.835 42.49-20.471 121.429-15.683 256.925 2.872 81.282 10.052 145.372 10.125 146.011a5 5 0 0 0 4.974 4.44h126.818a5 5 0 0 0 5-5.152c-1.044-34.422-5.831-82-12.318-133.418 22.123-140.825 10.89-315.998 10.774-317.753zm-7.289 76.883h-39.762c-2-11.858-3.843-22.694-5.492-32.27h44.5c.302 9.549.569 20.4.754 32.27zm-10.763 263.617c1.314 11.044 2.53 21.835 3.627 32.269h-64.1q-3.249-16.02-6.2-32.269zm-1.03-84.539h5.83q-1.121 12.031-2.5 23.98-1.622-11.952-3.33-23.98zm-67.436 74.539q-2.845-16.122-5.414-32.27h68.558c1.44 10.9 2.817 21.686 4.113 32.27zm-6.985-42.27q-2.511-16.223-4.756-32.269h69.085c1.532 10.789 3.026 21.571 4.467 32.269zm-6.139-42.269q-2.225-16.336-4.19-32.27h68.487c1.6 10.686 3.187 21.468 4.742 32.27zm-5.408-42.27c-1.319-10.985-2.547-21.762-3.69-32.269h66.922c1.652 10.569 3.314 21.355 4.967 32.269zm-4.761-42.268c-1.172-11.116-2.248-21.893-3.233-32.254l64.505.053c1.684 10.393 3.408 21.16 5.15 32.2zm-4.163-42.256c-1.045-11.363-1.977-22.163-2.806-32.284h61.273c1.7 10.173 3.494 21 5.345 32.336zm104.272-113.837c.308 5.492.826 15.622 1.324 29.283h-45.896c-2.312-13.326-4.095-23.4-5.144-29.283zm-52.987 39.283c1.643 9.53 3.5 20.376 5.5 32.27h-60.4c-.939-11.923-1.725-22.751-2.375-32.27zm-44.438-68.29h35.853l.7 19.007h-36.553zm37.553 29.007c.943 5.277 2.743 15.414 5.153 29.283h-56.207c-.879-13.578-1.429-23.631-1.719-29.283zm-57.2 81.977c.818 9.993 1.736 20.645 2.763 31.852l-6.843-.006c1.144-10.88 2.496-21.53 4.08-31.846zm-5.075 41.845 8.77.008c.982 10.359 2.055 21.141 3.224 32.262h-14.44c.647-10.888 1.453-21.673 2.441-32.27zm-2.987 42.27h16.049c1.139 10.5 2.364 21.282 3.678 32.269h-20.928c.263-10.777.657-21.559 1.196-32.268zm-1.405 42.269h22.346q1.959 15.9 4.174 32.27h-26.746c-.034-10.671.033-21.454.221-32.27zm-.159 42.27h28.056q2.238 16.016 4.735 32.269h-32.215c-.28-10.549-.481-21.335-.581-32.269zm.872 42.269h33.482q2.559 16.118 5.386 32.27h-37.6c-.49-10.377-.922-21.177-1.273-32.27zm1.754 42.27h38.887q2.937 16.216 6.162 32.269h-43.149c-.666-10.085-1.31-20.891-1.9-32.269zm2.573 42.269h44.527q3.4 16.327 7.124 32.27h-49.15c-.789-9.305-1.648-20.166-2.497-32.27zm5.421 63.554c-.446-4.3-1.174-11.57-2.047-21.284h50.662q2.619 10.779 5.4 21.284zm117.146 0h-52.788q-2.806-10.491-5.451-21.284h57.077c.505 7.499.899 14.619 1.162 21.284zm-1.886-31.284h-58.754q-3.754-15.906-7.183-32.27h63.06c1.123 11.276 2.091 22.078 2.877 32.27zm-1.846-169.078h-8.142c-1.551-10.8-3.134-21.582-4.732-32.27h15.206c-.646 10.705-1.419 21.488-2.332 32.27zm2.9-42.27h-17.278c-1.65-10.911-3.309-21.695-4.959-32.269h23.638c-.354 10.584-.815 21.37-1.4 32.269zm1.706-42.269h-25.514c-1.737-11.032-3.458-21.8-5.14-32.193l31.263.026c-.105 10.393-.302 21.153-.608 32.168zm.689-42.167-32.966-.027c-1.847-11.327-3.637-22.155-5.339-32.345h38.217c.109 10.198.149 21.034.085 32.372z" fill="#284268"/></svg>