<svg id="Layer_1" height="512" viewBox="0 0 512 512" width="512" xmlns="http://www.w3.org/2000/svg" data-name="Layer 1"><path d="m400.5 155.08h25.58v42.72h-25.58z" fill="#c3c2c6"/><path d="m457.61 176.44h18.74v21.36h-18.74z" fill="#b0b5ca"/><path d="m42.95 176.44h18.75v21.36h-18.75z" fill="#b0b5ca"/><path d="m89.87 155.08h25.22v42.72h-25.22z" fill="#c3c2c6"/><path d="m115.09 136.86h285.41v60.94h-285.41z" fill="#d0c6c2"/><path d="m27.29 214.83h146.49v205.67h-146.49z" fill="#dad9db"/><path d="m331.74 214.83h155.42v205.67h-155.42z" fill="#dad9db"/><path d="m303.93 62.88v28.28l-48.09-.3v-27.98z" fill="#e75163"/><path d="m173.78 214.83h157.96v38.91h-157.96z" fill="#d0c6c2"/><path d="m197.85 253.74h42.45v166.76h-42.45z" fill="#c3c2c6"/><path d="m264 253.74h42.45v166.76h-42.45z" fill="#c3c2c6"/><path d="m17.87 197.8h477.15v17.03h-477.15z" fill="#aba9b0"/><path d="m173.78 253.74h24.07v166.76h-24.07z" fill="#aba9b0"/><path d="m240.3 253.74h23.7v166.76h-23.7z" fill="#aba9b0"/><path d="m306.45 253.74h25.29v166.76h-25.29z" fill="#aba9b0"/><path d="m354.43 306.11h25.17v90.93h-25.17z" fill="#b0b5ca"/><path d="m396.39 306.11h25.17v90.93h-25.17z" fill="#b0b5ca"/><path d="m438.35 306.11h25.17v90.93h-25.17z" fill="#b0b5ca"/><path d="m438.35 244.97h25.17v31.36h-25.17z" fill="#b0b5ca"/><path d="m396.39 244.97h25.17v31.36h-25.17z" fill="#b0b5ca"/><path d="m354.43 244.97h25.17v31.36h-25.17z" fill="#b0b5ca"/><path d="m88.36 244.97h25.17v31.36h-25.17z" fill="#b0b5ca"/><path d="m130.32 244.97h25.17v31.36h-25.17z" fill="#b0b5ca"/><path d="m130.32 306.11h25.17v90.93h-25.17z" fill="#b0b5ca"/><path d="m88.36 306.11h25.17v90.93h-25.17z" fill="#b0b5ca"/><path d="m16 420.5h480v28.62h-480z" fill="#d0c6c2"/><path d="m115.09 136.86h30v60.94h-30z" fill="#b2acaa"/><path d="m27.29 214.83h30v205.67h-30z" fill="#bfbfbf"/><path d="m17.87 197.8h30v17.03h-30z" fill="#908f93"/><path d="m16 420.5h30v28.62h-30z" fill="#b2acaa"/><path d="m46.4 244.97h25.17v31.36h-25.17z" fill="#b0b5ca"/><path d="m46.4 306.11h25.17v90.93h-25.17z" fill="#b0b5ca"/><path d="m255.84 113.61-135.71 84.19h272.72z" fill="#dad9db"/><path d="m332.79 181.01h-150.13l74.08-46.19z" fill="#d0c6c2"/><g fill="#284268"><path d="m496 415.5h-3.84v-195.671h2.864a5 5 0 0 0 5-5v-17.029a5 5 0 0 0 -5-5h-13.671v-16.358a5 5 0 0 0 -5-5h-18.743a5 5 0 0 0 -5 5v16.358h-21.529v-37.717a5 5 0 0 0 -5-5h-20.581v-13.223a5 5 0 0 0 -5-5h-105.406l-34.253-21.049v-14.921l43.058.271a5 5 0 0 0 5.032-5v-28.282a5 5 0 0 0 -5-5h-48.09a5 5 0 0 0 -5 5v47.946l-33.9 21.035h-101.854a5 5 0 0 0 -5 5v13.223h-20.214a5 5 0 0 0 -5 5v37.717h-18.178v-16.358a5 5 0 0 0 -5-5h-18.742a5 5 0 0 0 -5 5v16.358h-20.079a5 5 0 0 0 -5 5v17.029a5 5 0 0 0 5 5h4.414v195.671h-6.288a5 5 0 0 0 -5 5v28.621a5 5 0 0 0 5 5h480a5 5 0 0 0 5-5v-28.621a5 5 0 0 0 -5-5zm-235.159-347.621h38.09v18.25l-38.09-.24zm201.769 113.563h8.743v11.358h-8.743zm-57.11-21.359h15.58v32.717h-15.58zm-10-18.223v50.94h-1.24l-82.894-50.94zm-139.646-22.377 119.308 73.317h-237.484zm-135.767 22.377h80.731l-80.731 50.086zm-25.214 18.223h15.214v32.717h-15.214zm-46.92 21.359h8.747v11.358h-8.747zm-25.079 21.358h467.15v7.029h-467.15zm459.286 17.029v195.671h-145.419v-195.671zm-303.384 28.911v-28.911h147.965v28.911zm147.965 10v156.76h-15.29v-156.76zm-25.29 0v156.76h-32.451v-156.76zm-42.453 0v156.76h-13.698v-156.76zm-23.695 0v156.76h-32.453v-156.76zm-42.453 0v156.76h-14.074v-156.76zm-24.074-38.911v195.671h-136.488v-195.671zm322.224 224.292h-470v-18.621h470z"/><path d="m177.855 182.384a5 5 0 0 0 4.807 3.624h150.124a5 5 0 0 0 2.595-9.274l-76.049-46.185a5 5 0 0 0 -5.241.031l-74.074 46.185a5 5 0 0 0 -2.162 5.619zm78.916-41.691 58.149 35.315h-114.788z"/><path d="m46.4 281.331h25.168a5 5 0 0 0 5-5v-31.356a5 5 0 0 0 -5-5h-25.168a5 5 0 0 0 -5 5v31.356a5 5 0 0 0 5 5zm5-31.356h15.168v21.356h-15.168z"/><path d="m130.319 281.331h25.168a5 5 0 0 0 5-5v-31.356a5 5 0 0 0 -5-5h-25.168a5 5 0 0 0 -5 5v31.356a5 5 0 0 0 5 5zm5-31.356h15.168v21.356h-15.168z"/><path d="m88.359 281.331h25.168a5 5 0 0 0 5-5v-31.356a5 5 0 0 0 -5-5h-25.168a5 5 0 0 0 -5 5v31.356a5 5 0 0 0 5 5zm5-31.356h15.168v21.356h-15.168z"/><path d="m46.4 402.042h25.168a5 5 0 0 0 5-5v-90.936a5 5 0 0 0 -5-5h-25.168a5 5 0 0 0 -5 5v90.936a5 5 0 0 0 5 5zm5-90.936h15.168v80.936h-15.168z"/><path d="m130.319 402.042h25.168a5 5 0 0 0 5-5v-90.936a5 5 0 0 0 -5-5h-25.168a5 5 0 0 0 -5 5v90.936a5 5 0 0 0 5 5zm5-90.936h15.168v80.936h-15.168z"/><path d="m88.359 402.042h25.168a5 5 0 0 0 5-5v-90.936a5 5 0 0 0 -5-5h-25.168a5 5 0 0 0 -5 5v90.936a5 5 0 0 0 5 5zm5-90.936h15.168v80.936h-15.168z"/><path d="m354.431 281.331h25.169a5 5 0 0 0 5-5v-31.356a5 5 0 0 0 -5-5h-25.169a5 5 0 0 0 -5 5v31.356a5 5 0 0 0 5 5zm5-31.356h15.169v21.356h-15.169z"/><path d="m438.35 281.331h25.168a5 5 0 0 0 5-5v-31.356a5 5 0 0 0 -5-5h-25.168a5 5 0 0 0 -5 5v31.356a5 5 0 0 0 5 5zm5-31.356h15.168v21.356h-15.168z"/><path d="m396.391 281.331h25.168a5 5 0 0 0 5-5v-31.356a5 5 0 0 0 -5-5h-25.168a5 5 0 0 0 -5 5v31.356a5 5 0 0 0 5 5zm5-31.356h15.168v21.356h-15.168z"/><path d="m354.431 402.042h25.169a5 5 0 0 0 5-5v-90.936a5 5 0 0 0 -5-5h-25.169a5 5 0 0 0 -5 5v90.936a5 5 0 0 0 5 5zm5-90.936h15.169v80.936h-15.169z"/><path d="m438.35 402.042h25.168a5 5 0 0 0 5-5v-90.936a5 5 0 0 0 -5-5h-25.168a5 5 0 0 0 -5 5v90.936a5 5 0 0 0 5 5zm5-90.936h15.168v80.936h-15.168z"/><path d="m396.391 402.042h25.168a5 5 0 0 0 5-5v-90.936a5 5 0 0 0 -5-5h-25.168a5 5 0 0 0 -5 5v90.936a5 5 0 0 0 5 5zm5-90.936h15.168v80.936h-15.168z"/></g></svg>