<svg id="Capa_1" enable-background="new 0 0 512 512" height="512" viewBox="0 0 512 512" width="512" xmlns="http://www.w3.org/2000/svg"><g><path d="m448 256v32c0 17.67-14.33 32-32 32-17.06.082-31.847-14.017-32-32v-160c0-70.69-57.31-128-128-128-35.34 0-67.34 14.33-90.51 37.49-23.16 23.17-37.49 55.17-37.49 90.51v160c0 17.67-14.33 32-32 32-17.06.082-31.847-14.017-32-32v-32h-64v32c0 41.8 26.72 77.35 64 90.53v37.47c-.05 52.49 42.77 96.03 96 96 53.02 0 96-42.98 96-96 0 53.02 42.98 96 96 96 52.49.05 96.03-42.77 96-96v-37.47c37.28-13.18 64-48.73 64-90.53v-32zm-256 160c.08 17.06-14.02 31.85-32 32-17.67 0-32-14.33-32-32v-37.47c37.28-13.18 64-48.73 64-90.53zm192 0c0 17.67-14.33 32-32 32-17.06.08-31.85-14.02-32-32v-128c0 41.8 26.72 77.35 64 90.53z" fill="#ff7901"/><path d="m448 256v32c0 17.67-14.33 32-32 32-17.06.082-31.847-14.017-32-32v-160c0-70.69-57.31-128-128-128v416c0 53.02 42.98 96 96 96 52.49.05 96.03-42.77 96-96v-37.47c37.28-13.18 64-48.73 64-90.53v-32zm-64 160c0 17.67-14.33 32-32 32-17.06.08-31.85-14.02-32-32v-128c0 41.8 26.72 77.35 64 90.53z" fill="#fb2f00"/><path d="m195.875 120.5h30v30h-30z" fill="#714b55"/><path d="m286.125 120.5h30v30h-30z" fill="#5c344b"/><circle cx="256" cy="224" fill="#fcbe2c" r="32"/><path d="m288 224c0 17.67-14.33 32-32 32v-64c17.67 0 32 14.33 32 32z" fill="#ff7901"/></g></svg>