<svg id="Capa_1" enable-background="new 0 0 512 512" height="512" viewBox="0 0 512 512" width="512" xmlns="http://www.w3.org/2000/svg"><g><path d="m58.938 169.061c-23.533-55.225-12.089-123.892 35.362-169.061l66.513 78.342z" fill="#714b55"/><path d="m453.062 169.061c23.533-55.225 12.089-123.892-35.362-169.061l-66.513 78.342z" fill="#5c344b"/><path d="m498.43 414.62c-86.95 1.09-131.26 30.82-193.27 69.55h-98.32c-74.12-48.39-121.55-69.01-193.27-69.55l12.36-145.68c10.15-119.52 110.12-211.36 230.07-211.36 59.98 0 114.96 22.96 156.21 60.86s68.79 90.74 73.86 150.5z" fill="#9b7870"/><path d="m498.43 414.62c-86.95 1.09-131.26 30.82-193.27 69.55h-49.16v-426.59c59.98 0 114.96 22.96 156.21 60.86s68.79 90.74 73.86 150.5z" fill="#714b55"/><path d="m435.67 334.62v15.09c-30.92 0-59.57 16.22-75.47 42.73l-55.04 91.73c-5.18 8.63-12.44 15.59-20.91 20.39-4.16 2.35-8.61 4.19-13.25 5.44-4.83 1.31-15-6.27-15-6.27s-10.17 7.58-15 6.27c-14.12-3.82-26.44-12.97-34.16-25.83l-55.04-91.73c-7.95-13.26-19.09-23.94-32.1-31.31-13.02-7.37-27.91-11.42-43.37-11.42v-15.09c0-13.76 5.58-26.22 14.6-35.24 9.01-9.01 21.47-14.59 35.24-14.59v-32.46c0-17.93 7.27-34.15 19.01-45.9 11.75-11.75 27.98-19.02 45.9-19.02 35.86 0 64.92 29.07 64.92 64.92 0-17.93 7.26-34.15 19.01-45.9s27.98-19.02 45.91-19.02c35.85 0 64.91 29.07 64.91 64.92v32.46c27.53 0 49.84 22.31 49.84 49.83z" fill="#f1eeff"/><path d="m435.67 334.62v15.09c-30.92 0-59.57 16.22-75.47 42.73l-55.04 91.73c-5.18 8.63-12.44 15.59-20.91 20.39-4.16 2.35-8.61 4.19-13.25 5.44-4.83 1.31-15-6.27-15-6.27v-251.4c0-17.93 7.26-34.15 19.01-45.9s27.98-19.02 45.91-19.02c35.85 0 64.91 29.07 64.91 64.92v32.46c27.53 0 49.84 22.31 49.84 49.83z" fill="#c7c4d2"/><path d="m180.75 241h30v30h-30z" fill="#714b55"/><path d="m301.25 241h30v30h-30z" fill="#5c344b"/><path d="m299.83 397.36-28.83 21.17v91.47c-4.83 1.31-9.87 2-15 2s-10.17-.69-15-2v-91.47l-28.83-21.17 17.76-24.18 26.07 19.15 26.07-19.15z" fill="#714b55"/><path d="m299.83 397.36-28.83 21.17v91.47c-4.83 1.31-9.87 2-15 2v-119.67l26.07-19.15z" fill="#5c344b"/></g></svg>