<svg id="Capa_1" enable-background="new 0 0 512 512" height="512" viewBox="0 0 512 512" width="512" xmlns="http://www.w3.org/2000/svg"><g><path d="m220.857 331.25h-85.357c-24.882 0-45.125-20.243-45.125-45.125v-30.125h30v30.125c0 8.34 6.785 15.125 15.125 15.125h85.357z" fill="#714b55"/><path d="m376.5 361.375h-83.643v-30h83.643c8.34 0 15.125-6.785 15.125-15.125v-30.125h30v30.125c0 24.882-20.243 45.125-45.125 45.125z" fill="#5c344b"/><path d="m376.5 482-120.5 15.06-120.5-15.06c17.03 0 32.64-6.52 44.34-17.29s19.5-25.78 20.91-42.75l26.84-321.13h56.9l26.76 321.13c2.82 33.94 31.19 60.04 65.25 60.04z" fill="#9b7870"/><path d="m376.5 482-120.5 15.06v-396.23h28.49l26.76 321.13c2.82 33.94 31.19 60.04 65.25 60.04z" fill="#714b55"/><path d="m466.875 436.812h-30.125l-14 60.25h74.25v-30.125c0-16.637-13.487-30.125-30.125-30.125z" fill="#61da4c"/><path d="m45.125 436.812h30.125l14 60.25h-74.25v-30.125c0-16.637 13.487-30.125 30.125-30.125z" fill="#b6f94d"/><path d="m75.25 205.25c-16.638 0-30.125 13.487-30.125 30.125v30.125h120.5v-30.125c0-16.638-13.487-30.125-30.125-30.125 0-16.638-13.487-30.125-30.125-30.125-16.638 0-30.125 13.487-30.125 30.125z" fill="#61da4c"/><path d="m436.75 235.375c16.638 0 30.125 13.487 30.125 30.125v30.125h-120.5v-30.125c0-16.638 13.487-30.125 30.125-30.125 0-16.638 13.487-30.125 30.125-30.125 16.638 0 30.125 13.487 30.125 30.125z" fill="#01b763"/><path d="m406.692 406.688h-.135c-16.6 0-30.058 13.457-30.058 30.058v60.317h60.25v-60.317c.001-16.601-13.456-30.058-30.057-30.058z" fill="#01b763"/><path d="m361.44 90.37v30.13h-42.66c0 8.32-3.37 15.85-8.82 21.3-5.46 5.45-12.99 8.82-21.31 8.82-16.63 0-30.12-13.48-30.12-30.12h-107.97v-30.13c0-16.63 13.49-30.12 30.13-30.12h15.06c0-16.64 6.74-31.7 17.65-42.61 10.9-10.9 25.96-17.64 42.6-17.64 33.28 0 60.25 26.97 60.25 60.25h15.06c16.64 0 30.13 13.49 30.13 30.12z" fill="#61da4c"/><path d="m361.44 90.37v30.13h-42.66c0 8.32-3.37 15.85-8.82 21.3-5.46 5.45-12.99 8.82-21.31 8.82-16.63 0-30.12-13.48-30.12-30.12h-2.53v-120.5c33.28 0 60.25 26.97 60.25 60.25h15.06c16.64 0 30.13 13.49 30.13 30.12z" fill="#01b763"/><path d="m105.308 406.688h.134c16.6 0 30.058 13.457 30.058 30.058v60.317h-60.25v-60.317c0-16.601 13.457-30.058 30.058-30.058z" fill="#61da4c"/><path d="m0 482h512v30h-512z" fill="#714b55"/><path d="m256 482h256v30h-256z" fill="#5c344b"/></g></svg>