<svg id="Capa_1" enable-background="new 0 0 512 512" height="512" viewBox="0 0 512 512" width="512" xmlns="http://www.w3.org/2000/svg"><g><path d="m77.017 146.984-21.866-69.26c-6.713-21.251-1.038-44.471 14.72-60.23 23.327-23.327 61.146-23.327 84.473 0l28.651 28.651z" fill="#714b55"/><path d="m434.983 146.984 21.866-69.26c6.713-21.251 1.038-44.471-14.72-60.23-23.327-23.327-61.146-23.327-84.473 0l-28.651 28.651z" fill="#5c344b"/><path d="m484.14 354.82-100.14 125.18h-256l-100.14-125.18c-17.11-21.39-20.87-50.54-9.75-75.57l57.9-130.28c31.62-71.13 102.15-116.97 179.99-116.97 38.92 0 76.01 11.46 107.33 31.81 31.31 20.35 56.85 49.59 72.66 85.16l57.9 130.28c11.12 25.03 7.36 54.18-9.75 75.57z" fill="#9b7870"/><path d="m484.14 354.82-100.14 125.18h-128v-448c38.92 0 76.01 11.46 107.33 31.81 31.31 20.35 56.85 49.59 72.66 85.16l57.9 130.28c11.12 25.03 7.36 54.18-9.75 75.57z" fill="#714b55"/><path d="m150.625 180.75h30v30h-30z" fill="#714b55"/><path d="m331.375 180.75h30v30h-30z" fill="#5c344b"/><path d="m384 384v96c0 17.67-14.33 32-32 32h-81l-15-15-15 15h-81c-17.67 0-32-14.33-32-32v-96c0-70.69 57.31-128 128-128 35.34 0 67.34 14.33 90.51 37.49 23.16 23.17 37.49 55.17 37.49 90.51z" fill="#fedd55"/><path d="m384 384v96c0 17.67-14.33 32-32 32h-81l-15-15v-241c35.34 0 67.34 14.33 90.51 37.49 23.16 23.17 37.49 55.17 37.49 90.51z" fill="#fcbe2c"/><path d="m304 370.16c0 16.64-18.92 30.45-33 38.43v103.41h-30v-103.41c-14.08-7.98-33-21.79-33-38.43 0-26.51 21.49-34.16 48-34.16s48 7.65 48 34.16z" fill="#714b55"/><path d="m304 370.16c0 16.64-18.92 30.45-33 38.43v103.41h-15v-176c26.51 0 48 7.65 48 34.16z" fill="#5c344b"/></g></svg>