<svg id="Capa_1" enable-background="new 0 0 512 512" height="512" viewBox="0 0 512 512" width="512" xmlns="http://www.w3.org/2000/svg"><g><path d="m512 320c0 88.37-114.62 160-256 160-70.69 0-134.69-17.91-181.02-46.86-46.32-28.96-74.98-68.96-74.98-113.14 0-17.68 7.16-33.68 18.74-45.26s27.58-18.74 45.26-18.74c1.804-92.164 86.707-158.984 192-160 105.267.656 190.295 68.424 192 160 17.68 0 33.68 7.16 45.26 18.74s18.74 27.58 18.74 45.26z" fill="#61da4c"/><path d="m512 320c0 88.37-114.62 160-256 160v-384c105.267.656 190.295 68.424 192 160 17.68 0 33.68 7.16 45.26 18.74s18.74 27.58 18.74 45.26z" fill="#01b763"/><path d="m210.875 301.25h30v30h-30z" fill="#714b55"/><path d="m271.125 301.25h30v30h-30z" fill="#5c344b"/><circle cx="128" cy="128" fill="#b6f94d" r="96"/><path d="m451.75 316.25c0 30.12-21.75 57.58-61.23 77.32-36.18 18.09-83.96 28.05-134.52 28.05s-98.34-9.96-134.52-28.05c-39.48-19.74-61.23-47.2-61.23-77.32h30c0 17.9 16.27 36.3 44.65 50.49 32.1 16.05 75.1 24.88 121.1 24.88s89-8.83 121.1-24.88c28.38-14.19 44.65-32.59 44.65-50.49z" fill="#b6f94d"/><path d="m451.75 316.25c0 30.12-21.75 57.58-61.23 77.32-36.18 18.09-83.96 28.05-134.52 28.05v-30c46 0 89-8.83 121.1-24.88 28.38-14.19 44.65-32.59 44.65-50.49z" fill="#61da4c"/><circle cx="384" cy="128" fill="#61da4c" r="96"/><path d="m113 113h30v30h-30z" fill="#714b55"/><path d="m369 113h30v30h-30z" fill="#5c344b"/></g></svg>