<svg id="Capa_1" enable-background="new 0 0 512 512" height="512" viewBox="0 0 512 512" width="512" xmlns="http://www.w3.org/2000/svg"><g><path d="m241 60.44h30v128.1h-30z" fill="#714b55"/><path d="m256 60.44h15v128.1h-15z" fill="#5c344b"/><path d="m336 207.4v44.18h-160v-44.18c0-17.67 14.33-32 32-32h96c17.67 0 32 14.33 32 32z" fill="#fcbe2c"/><path d="m336 207.4v44.18h-80v-76.18h48c17.67 0 32 14.33 32 32z" fill="#ff7901"/><path d="m336 415.84v47.56c0 17.67-14.33 32-32 32h-96c-17.67 0-32-14.33-32-32v-47.56z" fill="#fcbe2c"/><path d="m336 415.84v47.56c0 17.67-14.33 32-32 32h-48v-79.56z" fill="#ff7901"/><path d="m384 271.4v46.65h-256v-46.65c0-17.67 14.33-32 32-32h192c17.67 0 32 14.33 32 32z" fill="#fedd55"/><path d="m384 271.4v46.65h-128v-78.65h96c17.67 0 32 14.33 32 32z" fill="#fcbe2c"/><path d="m384 358.12v41.28c0 17.67-14.33 32-32 32h-192c-17.67 0-32-14.33-32-32v-41.28z" fill="#fedd55"/><path d="m384 358.12v41.28c0 17.67-14.33 32-32 32h-96v-73.28z" fill="#fcbe2c"/><path d="m432 335.4c0 17.67-14.32 32-32 32h-288c-17.68 0-32-14.33-32-32 0-8.84 3.58-16.84 9.37-22.63s13.79-9.37 22.63-9.37h288c17.68 0 32 14.33 32 32z" fill="#fcbe2c"/><path d="m432 335.4c0 17.67-14.32 32-32 32h-144v-64h144c17.68 0 32 14.33 32 32z" fill="#ff7901"/><ellipse cx="256" cy="335.4" fill="#714b55" rx="48.21" ry="48.21" transform="matrix(.851 -.526 .526 .851 -138.097 184.679)"/><path d="m304.21 335.4c0 26.62-21.59 48.21-48.21 48.21v-96.42c26.62 0 48.21 21.58 48.21 48.21z" fill="#5c344b"/><path d="m136.139 126.564h-66.707v-30h53.792l52.78-55.784 21.792 20.618z" fill="#714b55"/><path d="m512 64v96l-96-15.4-96-64-64-6.4-256-25.6v-32h352l96 47.4z" fill="#9b7870"/><path d="m512 64v96l-96-15.4-96-64-64-6.4v-57.6h96l96 47.4z" fill="#714b55"/></g></svg>