<svg id="Capa_1" enable-background="new 0 0 512 512" height="512" viewBox="0 0 512 512" width="512" xmlns="http://www.w3.org/2000/svg"><g><path d="m512 161.24c0-88.37-71.64-160.01-160.01-160.01-36.01 0-69.25 11.9-95.99 32-26.74-20.1-59.98-32-95.99-32-88.37 0-160.01 71.64-160.01 160.01 0 42 16.19 80.23 42.67 108.77-6.87 15.68-10.68 33-10.68 51.22 0 55.83 35.77 103.32 85.62 120.81 8.58-12.78 31.89-22.27 31.89-22.27 22.5 53.16 106.5 91 106.5 91s84-37.84 106.5-91c0 0 23.31 9.49 31.89 22.27 49.85-17.49 85.62-64.98 85.62-120.81 0-18.22-3.81-35.54-10.68-51.22 26.48-28.54 42.67-66.77 42.67-108.77z" fill="#ff7901"/><path d="m469.33 270.01c6.87 15.68 10.68 33 10.68 51.22 0 55.83-35.77 103.32-85.62 120.81-8.58-12.78-31.89-22.27-31.89-22.27-22.5 53.16-106.5 91-106.5 91v-477.54c26.74-20.1 59.98-32 95.99-32 88.37 0 160.01 71.64 160.01 160.01 0 42-16.19 80.23-42.67 108.77z" fill="#fb2f00"/><path d="m104.38 31.928c-28.516-28.516-88.16-15.104-88.16-15.104s-13.412 59.645 15.104 88.16c13.906 13.906 35.216 17.841 53.4 18.223l37.875-38.064c-.405-18.144-4.36-39.356-18.219-53.215z" fill="#fcbe2c"/><path d="m495.78 16.824s-59.645-13.412-88.16 15.104c-13.859 13.859-17.814 35.071-18.219 53.215l37.875 38.064c18.185-.382 39.494-4.317 53.4-18.223 28.516-28.516 15.104-88.16 15.104-88.16z" fill="#ff7901"/><path d="m438.54 166.38c.28 35.59-19.46 66.61-48.63 82.45-16.27 8.83-28.55 23.51-33.69 41.29l-18.59 64.34c-5.25 18.18-16.2 33.52-30.57 44.32-10.49 7.89-22.81 13.36-36.06 15.72-4.89.89-15-9.03-15-9.03s-10.11 9.92-15 9.03c-31.4-5.61-57.54-28.59-66.63-60.04l-18.59-64.34c-5.14-17.78-17.42-32.46-33.69-41.29-29.17-15.84-48.91-46.86-48.63-82.45.39-49.88 40.74-90.93 90.61-92.13 19.48-.47 37.65 5.06 52.78 14.88 11.86 7.69 25.51 11.54 39.15 11.54s27.29-3.85 39.15-11.54c15.13-9.82 33.3-15.35 52.78-14.88 49.87 1.2 90.22 42.25 90.61 92.13z" fill="#fedd55"/><path d="m438.54 166.38c.28 35.59-19.46 66.61-48.63 82.45-16.27 8.83-28.55 23.51-33.69 41.29l-18.59 64.34c-5.25 18.18-16.2 33.52-30.57 44.32-10.49 7.89-22.81 13.36-36.06 15.72-4.89.89-15-9.03-15-9.03v-304.8c13.64 0 27.29-3.85 39.15-11.54 15.13-9.82 33.3-15.35 52.78-14.88 49.87 1.2 90.22 42.25 90.61 92.13z" fill="#fcbe2c"/><path d="m150.625 150.625h30v30h-30z" fill="#714b55"/><path d="m331.375 150.625h30v30h-30z" fill="#5c344b"/><path d="m303.92 290.87c0 16.6-18.86 30.39-32.92 38.35v85.28c-4.89.89-9.9 1.34-15 1.34s-10.11-.45-15-1.34v-85.28c-14.06-7.96-32.92-21.75-32.92-38.35 0-26.47 21.46-34.1 47.92-34.1s47.92 7.63 47.92 34.1z" fill="#714b55"/><path d="m303.92 290.87c0 16.6-18.86 30.39-32.92 38.35v85.28c-4.89.89-9.9 1.34-15 1.34v-159.07c26.46 0 47.92 7.63 47.92 34.1z" fill="#5c344b"/></g></svg>