<svg id="Capa_1" enable-background="new 0 0 512 512" height="512" viewBox="0 0 512 512" width="512" xmlns="http://www.w3.org/2000/svg"><g><path d="m0 138.622h78.812l-14.812-44.497c0-16.638-13.487-30.125-30.125-30.125h-33.875z" fill="#fcbe2c"/><path d="m512 138.622h-78.076l14.076-44.497c0-16.638 13.487-30.125 30.125-30.125h33.875z" fill="#ff7901"/><path d="m416 0h-320c-17.67 0-32 14.33-32 32v182.19h384v-182.19c0-17.67-14.33-32-32-32z" fill="#714b55"/><path d="m448 32v182.19h-192v-214.19h160c17.67 0 32 14.33 32 32z" fill="#5c344b"/><path d="m94.14 30.14h323.72v184.05h-323.72z" fill="#f1eeff"/><path d="m256 30.14h161.86v184.05h-161.86z" fill="#c7c4d2"/><path d="m87.231 156.9h170.225v30.145h-170.225z" fill="#714b55" transform="matrix(.888 -.459 .459 .888 -59.707 98.287)"/><path d="m224.39 156.9h170.225v30.145h-170.225z" fill="#5c344b" transform="matrix(.888 -.459 .459 .888 -44.406 161.241)"/><path d="m480 224v178.79h-448v-178.79c0-17.67 14.33-32 32-32h384c17.67 0 32 14.33 32 32z" fill="#fedd55"/><path d="m480 224v178.79h-224v-210.79h192c17.67 0 32 14.33 32 32z" fill="#fcbe2c"/><path d="m210.657 242.657h30.145v90.686h-30.145z" fill="#fcbe2c"/><path d="m271.198 242.657h30.145v90.686h-30.145z" fill="#ff7901"/><path d="m129.875 512h-35.75c-16.638 0-30.125-13.487-30.125-30.125v-44.08h96v44.08c0 16.638-13.487 30.125-30.125 30.125z" fill="#714b55"/><path d="m417.875 512h-35.75c-16.638 0-30.125-13.487-30.125-30.125v-44.08h96v44.08c0 16.638-13.487 30.125-30.125 30.125z" fill="#5c344b"/><circle cx="128" cy="288" fill="#ff7901" r="32"/><path d="m512 384v64h-192l-64-7.13-64 7.13h-192v-64h192l64 8.53 64-8.53z" fill="#fcbe2c"/><path d="m512 384v64h-192l-64-7.13v-48.34l64-8.53z" fill="#ff7901"/><circle cx="384" cy="288" fill="#fb2f00" r="32"/><path d="m192 384h128v64h-128z" fill="#714b55"/><path d="m256 384h64v64h-64z" fill="#5c344b"/></g></svg>