<svg id="Capa_1" enable-background="new 0 0 512 512" height="512" viewBox="0 0 512 512" width="512" xmlns="http://www.w3.org/2000/svg"><g><path d="m416 128c35.346 0 64-28.654 64-64s-28.654-64-64-64-64 28.654-64 64l18.953 45.86z" fill="#fb2f00"/><path d="m96 128c-35.346 0-64-28.654-64-64s28.654-64 64-64 64 28.654 64 64l-25.118 46.117z" fill="#ff7901"/><path d="m480 416h-448c0-17.68 7.16-33.68 18.74-45.26s27.58-18.74 45.26-18.74h-96c0-17.68 7.16-33.68 18.74-45.26s27.58-18.74 45.26-18.74v-64c0-52.82 21.33-100.66 55.84-135.37l136.16-46.31 135.91 46.06c34.66 34.73 56.09 82.67 56.09 135.62v64c17.68 0 33.68 7.16 45.26 18.74s18.74 27.58 18.74 45.26h-96c35.35 0 64 28.65 64 64z" fill="#fcbe2c"/><path d="m480 416h-224v-373.68l135.91 46.06c34.66 34.73 56.09 82.67 56.09 135.62v64c17.68 0 33.68 7.16 45.26 18.74s18.74 27.58 18.74 45.26h-96c35.35 0 64 28.65 64 64z" fill="#ff7901"/><path d="m150.747 197.389h30v30h-30z" fill="#714b55"/><path d="m180.75 227.388h30v79.906h-30z" fill="#714b55"/><path d="m331.245 197.385h30v30h-30z" fill="#5c344b"/><path d="m301.25 227.388h30v79.906h-30z" fill="#5c344b"/><path d="m391.91 88.38-20.96 21.48c-.13-.14-.26-.28-.4-.41-27.03-27.04-61.94-43.33-99.55-46.76v28.51c30.52 3.34 58.79 16.84 80.81 38.86l-21.21 21.21c-16.35-16.34-37.11-26.66-59.6-29.84v30.69c14.38 2.89 27.6 9.94 38.21 20.55l-21.21 21.21c-4.88-4.88-10.68-8.5-17-10.71v21.76h-30v-21.76c-6.32 2.21-12.12 5.83-17 10.71l-21.21-21.21c10.61-10.61 23.83-17.66 38.21-20.55v-30.69c-22.49 3.18-43.25 13.5-59.6 29.84l-21.21-21.21c22.02-22.02 50.29-35.52 80.81-38.86v-28.51c-37.61 3.43-72.52 19.72-99.55 46.76-.22.22-.43.45-.65.67l-20.96-21.48c34.78-34.98 82.94-56.64 136.16-56.64 53.09 0 101.15 21.55 135.91 56.38z" fill="#714b55"/><path d="m391.91 88.38-20.96 21.48c-.13-.14-.26-.28-.4-.41-27.03-27.04-61.94-43.33-99.55-46.76v28.51c30.52 3.34 58.79 16.84 80.81 38.86l-21.21 21.21c-16.35-16.34-37.11-26.66-59.6-29.84v30.69c14.38 2.89 27.6 9.94 38.21 20.55l-21.21 21.21c-4.88-4.88-10.68-8.5-17-10.71v21.76h-15v-172.93c53.09 0 101.15 21.55 135.91 56.38z" fill="#5c344b"/><path d="m320 360v120c0 17.67-14.33 32-32 32h-64c-17.67 0-32-14.33-32-32v-120z" fill="#ff7901"/><path d="m320 360v120c0 17.67-14.33 32-32 32h-32v-152z" fill="#fb2f00"/><path d="m384 328v56c0 35.35-28.65 64-64 64s-64-28.65-64-64c0 17.68-7.16 33.68-18.74 45.26s-27.58 18.74-45.26 18.74-33.68-7.16-45.26-18.74-18.74-27.58-18.74-45.26v-56c0-17.67 14.33-32 32-32h192c17.67 0 32 14.33 32 32z" fill="#f1eeff"/><path d="m384 328v56c0 35.35-28.65 64-64 64s-64-28.65-64-64v-88h96c17.67 0 32 14.33 32 32z" fill="#c7c4d2"/><path d="m304 290.16c0 26.51-48 45.84-48 45.84s-48-19.33-48-45.84 21.49-34.16 48-34.16 48 7.65 48 34.16z" fill="#714b55"/><path d="m304 290.16c0 26.51-48 45.84-48 45.84v-80c26.51 0 48 7.65 48 34.16z" fill="#5c344b"/></g></svg>