<svg id="Capa_1" enable-background="new 0 0 512 512" height="512" viewBox="0 0 512 512" width="512" xmlns="http://www.w3.org/2000/svg"><g><path d="m498.87 446.47-85.57-8.22-26.24 73.75-72.06-65.53-59 65.53-59-65.53-72.06 65.53-26.24-73.75-85.57 8.22c15.21-29.91 26.78-61.4 34.55-93.81 7.76-32.4 11.73-65.72 11.73-99.27v-56.8c0-15.87 1.88-31.31 5.44-46.09 1.22-5.07 12.67-10.06 14.27-14.97 1.67-5.1-6.51-10.12-4.44-15.03 29.74-70.79 99.72-120.5 181.32-120.5 54.29 0 103.44 22 139.01 57.58 17.9 17.9 32.36 39.23 42.31 62.92 1.96 4.66-6.64 9.42-5.04 14.26 1.7 5.16 13.59 10.41 14.87 15.74 3.56 14.78 5.44 30.22 5.44 46.09v56.8c0 67.11 15.86 133.26 46.28 193.08z" fill="#f1eeff"/><path d="m498.87 446.47-85.57-8.22-26.24 73.75-72.06-65.53-59 65.53v-512c54.29 0 103.44 22 139.01 57.58 17.9 17.9 32.36 39.23 42.31 62.92 1.96 4.66-6.64 9.42-5.04 14.26 1.7 5.16 13.59 10.41 14.87 15.74 3.56 14.78 5.44 30.22 5.44 46.09v56.8c0 67.11 15.86 133.26 46.28 193.08z" fill="#c7c4d2"/><path d="m135.5 180.75h30v30h-30z" fill="#714b55"/><path d="m346.5 180.75h30v30h-30z" fill="#5c344b"/><path d="m447.15 150.5h-70.65c-15.42 0-29.92 6-40.82 16.91l-17.65 17.64c-16.57 16.57-38.6 25.7-62.03 25.7s-45.46-9.13-62.03-25.7l-17.65-17.64c-11.38-11.38-24.08-16.91-38.82-16.91h-72.65c2.48-10.34 5.78-20.37 9.83-30h62.82c22.79 0 42.98 8.65 60.03 25.7l17.65 17.64c10.9 10.91 25.4 16.91 40.82 16.91s29.92-6 40.82-16.91l17.65-17.64c16.57-16.57 38.6-25.7 62.03-25.7h60.82c4.05 9.63 7.35 19.66 9.83 30z" fill="#c7c4d2"/><path d="m447.15 150.5h-70.65c-15.42 0-29.92 6-40.82 16.91l-17.65 17.64c-16.57 16.57-38.6 25.7-62.03 25.7v-30c15.42 0 29.92-6 40.82-16.91l17.65-17.64c16.57-16.57 38.6-25.7 62.03-25.7h60.82c4.05 9.63 7.35 19.66 9.83 30z" fill="#a29eb0"/><path d="m356.69 262.09c-26.95 22.37-76.73 85.02-100.69 131.09-24.13-46.48-73.74-108.77-100.69-131.09 0 0 33.83-53.77 44.02-68.49 6.45-9.32 14.97-16.77 24.7-21.88s20.67-7.89 31.97-7.89 22.24 2.78 31.97 7.89 18.25 12.56 24.7 21.88c10.19 14.72 44.02 68.49 44.02 68.49z" fill="#fcbe2c"/><path d="m356.69 262.09c-26.95 22.37-76.73 85.02-100.69 131.09v-229.35c11.3 0 22.24 2.78 31.97 7.89s18.25 12.56 24.7 21.88c10.19 14.72 44.02 68.49 44.02 68.49z" fill="#ff7901"/><path d="m212.875 236.431h30v30h-30z" fill="#714b55"/><path d="m269.125 236.431h30v30h-30z" fill="#5c344b"/></g></svg>