<svg id="Capa_1" enable-background="new 0 0 513.06 513.06" height="512" viewBox="0 0 513.06 513.06" width="512" xmlns="http://www.w3.org/2000/svg"><g><path d="m240.94 120.91-16.3-15 16.3-15c-8.34 0-15.13-6.79-15.13-15.13v-75.25h-134.37v75.25c0 8.34-6.79 15.13-15.13 15.13l18.34 15-18.34 15c8.34 0 15.13 6.78 15.13 15.12v90.38c0 8.33-6.79 15.12-15.13 15.12v30c8.34 0 15.13 6.79 15.13 15.12v90.38c0 8.34-6.79 15.12-15.13 15.12l18.34 15-18.34 15c8.34 0 15.13 6.79 15.13 15.13v75.25h134.37v-75.25c0-8.34 6.79-15.13 15.13-15.13l-16.3-15 16.3-15c-8.34 0-15.13-6.78-15.13-15.12v-90.38c0-8.33 6.79-15.12 15.13-15.12l-16.3-15 16.3-15c-8.34 0-15.13-6.79-15.13-15.12v-90.38c0-8.34 6.79-15.12 15.13-15.12z" fill="#61da4c"/><path d="m225.81 136.03v90.38c0 8.33 6.79 15.12 15.13 15.12l-16.3 15 16.3 15c-8.34 0-15.13 6.79-15.13 15.12v90.38c0 8.34 6.79 15.12 15.13 15.12l-16.3 15 16.3 15c-8.34 0-15.13 6.79-15.13 15.13v75.25h-67.19v-512h67.19v75.25c0 8.34 6.79 15.13 15.13 15.13l-16.3 15 16.3 15c-8.34 0-15.13 6.78-15.13 15.12z" fill="#01b763"/><path d="m76.31 90.91h164.63v30h-164.63z" fill="#b6f94d"/><path d="m76.31 392.15h164.63v30h-164.63z" fill="#b6f94d"/><path d="m435.69 211.28-16.87-15 16.87-15c-8.34 0-15.13-6.79-15.13-15.13v-75.24h-134.37v75.24c0 8.34-6.79 15.13-15.13 15.13l14.83 15-14.83 15c8.34 0 15.13 6.79 15.13 15.13v90.37c0 8.34-6.79 15.13-15.13 15.13l14.83 16-14.83 14c8.34 0 15.13 6.78 15.13 15.12v90.38c0 8.33-6.79 15.12-15.13 15.12l14.83 14.81h132.93l16.87-14.81c-8.34 0-15.13-6.79-15.13-15.12v-90.38c0-8.34 6.79-15.12 15.13-15.12v-30c-8.34 0-15.13-6.79-15.13-15.13v-90.37c0-8.34 6.79-15.13 15.13-15.13z" fill="#61da4c"/><path d="m420.56 226.41v90.37c0 8.34 6.79 15.13 15.13 15.13v30c-8.34 0-15.13 6.78-15.13 15.12v90.38c0 8.33 6.79 15.12 15.13 15.12l-16.87 14.81h-65.45v-406.43h67.19v75.24c0 8.34 6.79 15.13 15.13 15.13l-16.87 15 16.87 15c-8.34 0-15.13 6.79-15.13 15.13z" fill="#01b763"/><path d="m271.06 482.53h164.63v30h-164.63z" fill="#b6f94d"/><path d="m271.06 181.28h164.63v30h-164.63z" fill="#b6f94d"/><path d="m240.94 241.53v30h-180.27c-33.46 0-60.67-27.22-60.67-60.67v-29.58h60.77c33.31 0 60.43 26.99 60.66 60.25z" fill="#b6f94d"/><g fill="#61da4c"><path d="m158.62 90.91h82.32v30h-82.32z"/><path d="m158.62 241.53h82.32v30h-82.32z"/><path d="m158.62 392.15h82.32v30h-82.32z"/></g><path d="m513.06 271.65v29.59c0 33.45-27.21 60.67-60.67 60.67h-181.33v-30h120.57c.23-33.26 27.35-60.26 60.66-60.26z" fill="#b6f94d"/><path d="m353.37 181.28h82.32v30h-82.32z" fill="#61da4c"/><path d="m353.37 482.53h82.32v30h-82.32z" fill="#61da4c"/><path d="m513.06 271.65v29.59c0 33.45-27.21 60.67-60.67 60.67h-99.02v-30h38.26c.23-33.26 27.35-60.26 60.66-60.26z" fill="#61da4c"/></g></svg>