<svg id="Capa_1" enable-background="new 0 0 512 512" height="512" viewBox="0 0 512 512" width="512" xmlns="http://www.w3.org/2000/svg"><g><path d="m218.59 313.083-10.29 76.29-65.5-14.06-11.519-25.094-15.411-15.586c-2-2.76-4.21-5.35-6.61-7.75-8.22-8.22-18.66-14.21-30.35-16.99l-24.89-36.08c-2.51-3.96-5.46-7.63-8.76-10.93-11.58-11.58-27.58-18.74-45.26-18.74v-51.51c0-47.79 34.92-87.42 80.64-94.77l25.43 32.47 16.96 56.75c.94 3.16 2.15 6.16 3.6 8.99 3.025 5.925 12.036 27.087 12.036 27.087l16.094-1.797c11 4.24 23.48 4.87 35.58.89z" fill="#714b55"/><path d="m106.07 130.333-27.16 179.56c-4.78-1.15-9.78-1.75-14.91-1.75 0-12.64-3.66-24.41-9.98-34.33l26.62-175.95c5-.81 10.13-1.23 15.36-1.23z" fill="#9b7870"/><path d="m154.76 221.363-11.96 153.95-14.8-3.17c0-14.02-4.5-26.98-12.13-37.51l10.76-138.56c6.05 11.85 16.22 20.69 28.13 25.29z" fill="#9b7870"/><path d="m293.41 313.083 10.29 76.29 65.5-14.06 11.519-25.094 15.411-15.586c2-2.76 4.21-5.35 6.61-7.75 8.22-8.22 18.66-14.21 30.35-16.99l24.89-36.08c2.51-3.96 5.46-7.63 8.76-10.93 11.58-11.58 27.58-18.74 45.26-18.74v-51.51c0-47.79-34.92-87.42-80.64-94.77l-25.43 32.47-16.96 56.75c-.94 3.16-2.15 6.16-3.6 8.99-3.025 5.925-12.036 27.087-12.036 27.087l-16.094-1.797c-11 4.24-23.48 4.87-35.58.89z" fill="#5c344b"/><g fill="#714b55"><path d="m405.93 130.333 27.16 179.56c4.78-1.15 9.78-1.75 14.91-1.75 0-12.64 3.66-24.41 9.98-34.33l-26.62-175.95c-5-.81-10.13-1.23-15.36-1.23z"/><path d="m357.24 221.363 11.96 153.95 14.8-3.17c0-14.02 4.5-26.98 12.13-37.51l-10.76-138.56c-6.05 11.85-16.22 20.69-28.13 25.29z"/><path d="m160 59.107c35.346 0 64 28.654 64 64v52.533c-35.346 0-64-28.654-64-64z"/></g><path d="m352 59.107c-35.346 0-64 28.654-64 64v52.533c35.346 0 64-28.654 64-64z" fill="#5c344b"/><path d="m321.66 222.253-17.96 167.12c-1.22 13.27-13.15 29.15-24.77 41.72-11.62 12.56-22.93 21.8-22.93 21.8s-45.25-36.97-47.7-63.52l-17.96-167.12c-3.88-42.09 26.62-78.61 65.66-78.61s69.54 36.52 65.66 78.61z" fill="#9b7870"/><path d="m321.66 222.253-17.96 167.12c-1.22 13.27-13.15 29.15-24.77 41.72-11.62 12.56-22.93 21.8-22.93 21.8v-309.25c39.04 0 69.54 36.52 65.66 78.61z" fill="#714b55"/></g></svg>