<svg id="Capa_1" enable-background="new 0 0 512 512" height="512" viewBox="0 0 512 512" width="512" xmlns="http://www.w3.org/2000/svg"><g><path d="m416 128c35.346 0 64-28.654 64-64s-28.654-64-64-64-64 28.654-64 64l24.5 46.86z" fill="#ff7901"/><path d="m96 128c-35.346 0-64-28.654-64-64s28.654-64 64-64 64 28.654 64 64l-24.5 51.19z" fill="#fcbe2c"/><g><path d="m448 224v119.44c0 40.07-32.49 72.56-72.56 72.56h-238.88c-40.07 0-72.56-32.49-72.56-72.56v-119.44c0-106.04 85.96-192 192-192 53.02 0 101.02 21.49 135.76 56.24 34.75 34.74 56.24 82.74 56.24 135.76z" fill="#fedd55"/></g><path d="m448 224v119.44c0 40.07-32.49 72.56-72.56 72.56h-119.44v-384c53.02 0 101.02 21.49 135.76 56.24 34.75 34.74 56.24 82.74 56.24 135.76z" fill="#fcbe2c"/><path d="m150.747 197.389h30v30h-30z" fill="#714b55"/><path d="m180.75 227.388h30v79.906h-30z" fill="#714b55"/><path d="m331.245 197.385h30v30h-30z" fill="#5c344b"/><path d="m301.25 227.388h30v79.906h-30z" fill="#5c344b"/><path d="m320 360v120c0 17.67-14.33 32-32 32h-64c-17.67 0-32-14.33-32-32v-120z" fill="#fcbe2c"/><path d="m320 360v120c0 17.67-14.33 32-32 32h-32v-152z" fill="#ff7901"/><path d="m384 328v56c0 35.35-28.65 64-64 64s-64-28.65-64-64c0 17.68-7.16 33.68-18.74 45.26s-27.58 18.74-45.26 18.74-33.68-7.16-45.26-18.74-18.74-27.58-18.74-45.26v-56c0-17.67 14.33-32 32-32h192c17.67 0 32 14.33 32 32z" fill="#f1eeff"/><path d="m384 328v56c0 35.35-28.65 64-64 64s-64-28.65-64-64v-88h96c17.67 0 32 14.33 32 32z" fill="#c7c4d2"/><path d="m304 290.16c0 26.51-48 45.84-48 45.84s-48-19.33-48-45.84 21.49-34.16 48-34.16 48 7.65 48 34.16z" fill="#714b55"/><path d="m304 290.16c0 26.51-48 45.84-48 45.84v-80c26.51 0 48 7.65 48 34.16z" fill="#5c344b"/><path d="m196.875 90.38h30v30h-30z" fill="#fcbe2c"/><path d="m285.125 90.38h30v30h-30z" fill="#ff7901"/><path d="m241 136.625h30v30h-30z" fill="#fcbe2c"/><path d="m256 136.625h15v30h-15z" fill="#ff7901"/></g></svg>