<svg id="Capa_1" enable-background="new 0 0 512 512" height="512" viewBox="0 0 512 512" width="512" xmlns="http://www.w3.org/2000/svg"><g><path d="m406.625 358.8h-101.748v-30h101.748c8.34 0 15.125-6.785 15.125-15.125v-56.355h30v56.355c0 24.882-20.243 45.125-45.125 45.125z" fill="#5c344b"/><path d="m274.904 271h-79.154c-24.882 0-45.125-20.243-45.125-45.125v-50.166h30v50.166c0 8.34 6.785 15.125 15.125 15.125h79.154z" fill="#714b55"/><path d="m94.125 421.75c-8.34 0-15.125-6.785-15.125-15.125v-30.125h-30v30.125c0 24.882 20.243 45.125 45.125 45.125h47.205l-20.83-30z" fill="#714b55"/><path d="m120.5 421.75h65.274v75.25h-65.274z" fill="#9b7870"/><path d="m256 160.36h64v336.64h-64z" fill="#9b7870"/><path d="m287.07 160.36h32.93v336.64h-32.93z" fill="#714b55"/><path d="m480 433h-32l-8.68 64h72.68v-32c0-17.673-14.327-32-32-32z" fill="#61da4c"/><path d="m416 401c-17.673 0-32 14.327-32 32v64h64v-64c0-17.673-14.327-32-32-32z" fill="#01b763"/><path d="m384 96c0 53.02-42.98 96-96 96-.31 0-.62 0-.93-.01-52.59-.49-95.07-43.28-95.07-95.99s42.48-95.5 95.07-95.99c.31-.01.62-.01.93-.01 53.02 0 96 42.98 96 96z" fill="#61da4c"/><path d="m384 96c0 53.02-42.98 96-96 96-.31 0-.62 0-.93-.01v-191.98c.31-.01.62-.01.93-.01 53.02 0 96 42.98 96 96z" fill="#01b763"/><circle cx="165.625" cy="128" fill="#b6f94d" r="64"/><circle cx="436.75" cy="238.632" fill="#61da4c" r="46.632"/><path d="m0 482h512v30h-512z" fill="#714b55"/><path d="m287.07 482h224.93v30h-224.93z" fill="#5c344b"/><circle cx="64" cy="320" fill="#61da4c" r="64"/></g></svg>