<svg id="Capa_1" enable-background="new 0 0 512 512" height="512" viewBox="0 0 512 512" width="512" xmlns="http://www.w3.org/2000/svg"><g><path d="m306.1 50.1v54l-50.1 23.39-50.1-23.39v-54c0-13.84 5.61-26.36 14.67-35.43 9.07-9.06 21.59-14.67 35.43-14.67 27.67 0 50.1 22.43 50.1 50.1z" fill="#61da4c"/><path d="m306.1 50.1v54l-50.1 23.39v-127.49c27.67 0 50.1 22.43 50.1 50.1z" fill="#01b763"/><path d="m306.1 407.9c0 40.03-50.1 104.1-50.1 104.1-.06-.07-49.98-63.96-50.1-104.1l50.1-25.66z" fill="#61da4c"/><path d="m306.1 407.9c0 40.03-50.1 104.1-50.1 104.1v-129.76z" fill="#01b763"/><path d="m331.578 135.387 60.328-60.328c12.51-12.51 32.792-12.51 45.302 0l22.652 22.651-82.981 82.981z" fill="#01b763"/><path d="m176.626 380.943-79.184 79.184-22.651-22.651c-12.51-12.51-12.51-32.792 0-45.302l56.533-56.533z" fill="#61da4c"/><path d="m131.997 177.567-79.857-79.857 22.651-22.651c12.51-12.51 32.792-12.51 45.302 0l57.205 57.205z" fill="#61da4c"/><path d="m336.809 382.379 77.748 77.748 22.651-22.651c12.51-12.51 12.51-32.792 0-45.302l-55.093-55.093z" fill="#01b763"/><path d="m406.87 256.27s9.07 10.06 8.61 15c-4.43 47.69-29.77 89.3-66.75 115.61-4.07 2.89-17.01.16-17.01.16s-4.39 12.75-8.96 14.85c-20.32 9.34-42.93 14.54-66.76 14.54s-46.44-5.2-66.76-14.54c-4.57-2.1-9.56-16.15-9.56-16.15s-12.34 4.03-16.41 1.14c-36.98-26.31-62.32-67.92-66.75-115.61-.46-4.94 11.92-15 11.92-15s-12.38-10.06-11.92-15c4.43-47.69 29.77-89.31 66.75-115.61 4.07-2.89 17.28 1.83 17.28 1.83s4.12-14.75 8.69-16.85c20.32-9.34 42.93-14.54 66.76-14.54s46.44 5.2 66.76 14.53c4 1.84 7.22 12.55 7.22 12.55s14.17-.78 18.74 2.47h.01c36.98 26.31 62.32 67.93 66.75 115.62.46 4.94-8.61 15-8.61 15z" fill="#714b55"/><path d="m406.87 256.27s9.07 10.06 8.61 15c-4.43 47.69-29.77 89.3-66.75 115.61-4.07 2.89-17.01.16-17.01.16s-4.39 12.75-8.96 14.85c-20.32 9.34-42.93 14.54-66.76 14.54v-320.33c23.83 0 46.44 5.2 66.76 14.53 4 1.84 7.22 12.55 7.22 12.55s14.17-.78 18.74 2.47h.01c36.98 26.31 62.32 67.93 66.75 115.62.46 4.94-8.61 15-8.61 15z" fill="#5c344b"/><path d="m415.48 271.27c.46-4.94.69-9.94.69-15s-.23-10.06-.69-15h-76.13l-28.69-49.68 38.06-65.94c-8.12-5.78-16.81-10.81-25.96-15.02l-38.08 65.96h-57.36l-38.08-65.95c-9.15 4.2-17.84 9.24-25.97 15.02l38.07 65.93-28.69 49.68h-76.13c-.46 4.94-.69 9.94-.69 15s.23 10.06.69 15h76.13l28.69 49.68-38.07 65.93c8.13 5.77 16.82 10.81 25.97 15.01l38.08-65.94h57.36l38.08 65.94c9.15-4.2 17.84-9.24 25.97-15.01l-38.07-65.93 28.69-49.68zm-130.8 34.68h-57.36l-28.69-49.68 28.69-49.68h57.36l28.69 49.68z" fill="#9b7870"/><path d="m339.35 271.27-28.69 49.68 38.07 65.93c-8.13 5.77-16.82 10.81-25.97 15.01l-38.08-65.94h-28.68v-30h28.68l28.69-49.68-28.69-49.68h-28.68v-30h28.68l38.08-65.96c9.15 4.21 17.84 9.24 25.96 15.02l-38.06 65.94 28.69 49.68h76.13c.46 4.94.69 9.94.69 15s-.23 10.06-.69 15z" fill="#714b55"/></g></svg>