<svg id="Capa_1" enable-background="new 0 0 512 512" height="512" viewBox="0 0 512 512" width="512" xmlns="http://www.w3.org/2000/svg"><g><path d="m512 287.465-15 13.86 15 16.14v30.25l-15 15.83 15 14.16v30.25l-15 18.04c-12.15 5.59-16.9 16.97-36.21 16.97-25.6 0-25.6-20-51.2-20s-25.6 20-51.2 20-25.6-20-51.2-20-25.6 19.99-51.19 20h-.01c-25.6 0-25.6-20-51.19-20-25.6 0-25.6 20-51.2 20s-25.6-20-51.2-20-25.6 20-51.2 20c-19.2 0-24-11.25-36-16.88l-15.2-18.13v-30.25l15-15.35-15-14.64v-30.25l15-16.36-15-13.64v-30.25l15-11.97c12.15 5.59 16.89 16.97 36.2 16.97 25.6 0 25.6-20 51.2-20s25.6 20 51.2 20 25.6-20 51.2-20c25.59 0 25.59 20 51.19 20h.01c25.59-.01 25.59-20 51.19-20s25.6 20 51.2 20 25.6-20 51.2-20 25.6 20 51.2 20c19.21 0 24.01-11.25 36.01-16.88l15.2 11.88z" fill="#00c8c9"/><path d="m512 287.465-15 13.86 15 16.14v30.25l-15 15.83 15 14.16v30.25l-15 18.04c-12.15 5.59-16.9 16.97-36.21 16.97-25.6 0-25.6-20-51.2-20s-25.6 20-51.2 20-25.6-20-51.2-20-25.6 19.99-51.19 20v-180.75c25.59-.01 25.59-20 51.19-20s25.6 20 51.2 20 25.6-20 51.2-20 25.6 20 51.2 20c19.21 0 24.01-11.25 36.01-16.88l15.2 11.88z" fill="#00a0ab"/><path d="m512 347.705v30c-7.64 0-10.74 2.43-16.37 6.83-7.12 5.56-16.87 13.17-34.84 13.17-17.96 0-27.71-7.61-34.83-13.17-8.51-8.52-23.29-9.33-32.74 0-22.32 20.17-54.35 14.45-69.66 0-8.51-8.52-23.29-9.33-32.73 0-10.4 9.39-22.89 13.17-34.83 13.06-13.7-.11-26.65-5.34-34.84-13.07-8.51-8.51-23.29-9.32-32.73.01-22.32 20.17-54.35 14.45-69.67 0-8.5-8.52-23.28-9.33-32.73 0-22.32 20.17-54.35 14.45-69.66 0-5.63-4.4-8.74-6.83-16.37-6.83v-30c17.96 0 27.71 7.62 34.83 13.18 8.51 8.52 23.29 9.33 32.73 0 22.33-20.17 54.36-14.45 69.67 0 8.51 8.52 23.29 9.33 32.73 0 22.32-20.17 54.36-14.45 69.67 0 4.34 4.35 10.3 6.69 16.37 6.7 5.82.01 11.73-2.13 16.36-6.7 22.32-20.17 54.35-14.45 69.66 0 8.51 8.52 23.29 9.33 32.73 0 22.33-20.17 54.36-14.45 69.68 0 8.5 8.52 23.29 9.33 32.73 0 7.12-5.56 16.87-13.18 34.84-13.18z" fill="#5ee1dd"/><path d="m512 227.205v30c-7.64 0-10.74 2.43-16.37 6.83-7.12 5.56-16.87 13.17-34.84 13.17-17.96 0-27.71-7.61-34.83-13.17-8.51-8.52-23.29-9.33-32.74 0-22.32 20.17-54.35 14.45-69.66 0-8.51-8.52-23.29-9.33-32.73 0-10.4 9.39-22.89 13.17-34.83 13.06-13.7-.11-26.65-5.34-34.84-13.07-8.51-8.51-23.29-9.32-32.73.01-22.32 20.17-54.35 14.45-69.67 0-8.5-8.52-23.28-9.33-32.73 0-22.32 20.17-54.35 14.45-69.66 0-5.63-4.4-8.74-6.83-16.37-6.83v-30c17.96 0 27.71 7.62 34.83 13.18 8.51 8.52 23.29 9.33 32.73 0 22.33-20.17 54.36-14.45 69.67 0 8.51 8.52 23.29 9.33 32.73 0 22.32-20.17 54.36-14.45 69.67 0 4.34 4.35 10.3 6.69 16.37 6.7 5.82.01 11.73-2.13 16.36-6.7 22.32-20.17 54.35-14.45 69.66 0 8.51 8.52 23.29 9.33 32.73 0 22.33-20.17 54.36-14.45 69.68 0 8.5 8.52 23.29 9.33 32.73 0 7.12-5.56 16.87-13.18 34.84-13.18z" fill="#5ee1dd"/><path d="m512 227.205v30c-7.64 0-10.74 2.43-16.37 6.83-7.12 5.56-16.87 13.17-34.84 13.17-17.96 0-27.71-7.61-34.83-13.17-8.51-8.52-23.29-9.33-32.74 0-22.32 20.17-54.35 14.45-69.66 0-8.51-8.52-23.29-9.33-32.73 0-10.4 9.39-22.89 13.17-34.83 13.06v-30.01c5.82.01 11.73-2.13 16.36-6.7 22.32-20.17 54.35-14.45 69.66 0 8.51 8.52 23.29 9.33 32.73 0 22.33-20.17 54.36-14.45 69.68 0 8.5 8.52 23.29 9.33 32.73 0 7.12-5.56 16.87-13.18 34.84-13.18z" fill="#00c8c9"/><g><g><path d="m399.823 312.578-143.823.789-121.008.668c10.721-21.116 22.518-67.879 18.406-118.344l25.293-20.318-33.573-7.769c.288-6.702-13.997-74.691-30.621-113.304 52.025-2.023 99.344 7.537 141.503 29.284 22.323 11.51 43.189 26.435 62.551 44.859 49.565 47.672 78.432 115.56 81.272 184.135z" fill="#f1eeff"/></g></g><path d="m399.823 312.578-143.823.789v-229.783c22.323 11.51 43.189 26.435 62.551 44.859 49.565 47.672 78.432 115.56 81.272 184.135z" fill="#c7c4d2"/><path d="m512 287.465v30c-7.64 0-10.74 2.42-16.37 6.82-7.12 5.56-16.87 13.18-34.84 13.18-17.96 0-27.71-7.62-34.83-13.18-8.51-8.52-23.29-9.33-32.74 0-22.32 20.17-54.35 14.45-69.66 0-8.51-8.52-23.29-9.33-32.73 0-10.4 9.39-22.89 13.17-34.83 13.06-13.7-.11-26.65-5.34-34.84-13.07-8.51-8.51-23.29-9.32-32.73.01-22.32 20.17-54.35 14.45-69.67 0-8.5-8.52-23.28-9.33-32.73 0-22.32 20.17-54.35 14.45-69.66 0-5.63-4.4-8.74-6.82-16.37-6.82v-30c17.96 0 27.71 7.61 34.83 13.17 8.51 8.52 23.29 9.33 32.73 0 22.33-20.17 54.36-14.45 69.67 0 8.51 8.52 23.29 9.33 32.73 0 22.32-20.17 54.36-14.45 69.67 0 4.34 4.35 10.3 6.69 16.37 6.7 5.82.01 11.73-2.13 16.36-6.7 22.32-20.17 54.35-14.45 69.66 0 8.51 8.52 23.29 9.33 32.73 0 22.33-20.17 54.36-14.45 69.68 0 8.5 8.52 23.29 9.33 32.73 0 7.12-5.56 16.87-13.17 34.84-13.17z" fill="#5ee1dd"/><path d="m512 407.965v30c-7.64 0-10.74 2.42-16.37 6.82-7.12 5.56-16.87 13.18-34.84 13.18-17.96 0-27.71-7.62-34.83-13.18-8.51-8.52-23.29-9.33-32.74 0-22.32 20.17-54.35 14.45-69.66 0-8.51-8.52-23.29-9.33-32.73 0-10.4 9.39-22.89 13.17-34.83 13.06-13.7-.11-26.65-5.34-34.84-13.07-8.51-8.51-23.29-9.32-32.73.01-22.32 20.17-54.35 14.45-69.67 0-8.5-8.52-23.28-9.33-32.73 0-22.32 20.17-54.35 14.45-69.66 0-5.63-4.4-8.74-6.82-16.37-6.82v-30c17.96 0 27.71 7.61 34.83 13.17 8.51 8.52 23.29 9.33 32.73 0 22.33-20.17 54.36-14.45 69.67 0 8.51 8.52 23.29 9.33 32.73 0 22.32-20.17 54.36-14.45 69.67 0 4.34 4.35 10.3 6.69 16.37 6.7 5.82.01 11.73-2.13 16.36-6.7 22.32-20.17 54.35-14.45 69.66 0 8.51 8.52 23.29 9.33 32.73 0 22.33-20.17 54.36-14.45 69.68 0 8.5 8.52 23.29 9.33 32.73 0 7.12-5.56 16.87-13.17 34.84-13.17z" fill="#5ee1dd"/><g fill="#00c8c9"><path d="m477.16 300.635c7.12-5.56 16.87-13.17 34.84-13.17v30c-7.64 0-10.74 2.42-16.37 6.82-7.12 5.56-16.87 13.18-34.84 13.18-17.96 0-27.71-7.62-34.83-13.18-8.51-8.52-23.29-9.33-32.74 0-22.32 20.17-54.35 14.45-69.66 0-8.51-8.52-23.29-9.33-32.73 0-10.4 9.39-22.89 13.17-34.83 13.06v-30.01c5.82.01 11.73-2.13 16.36-6.7 22.32-20.17 54.35-14.45 69.66 0 8.51 8.52 23.29 9.33 32.73 0 22.33-20.17 54.36-14.45 69.68 0 8.5 8.52 23.29 9.33 32.73 0z"/><path d="m477.16 360.885c7.12-5.56 16.87-13.18 34.84-13.18v30c-7.64 0-10.74 2.43-16.37 6.83-7.12 5.56-16.87 13.17-34.84 13.17-17.96 0-27.71-7.61-34.83-13.17-8.51-8.52-23.29-9.33-32.74 0-22.32 20.17-54.35 14.45-69.66 0-8.51-8.52-23.29-9.33-32.73 0-10.4 9.39-22.89 13.17-34.83 13.06v-30.01c5.82.01 11.73-2.13 16.36-6.7 22.32-20.17 54.35-14.45 69.66 0 8.51 8.52 23.29 9.33 32.73 0 22.33-20.17 54.36-14.45 69.68 0 8.5 8.52 23.29 9.33 32.73 0z"/><path d="m477.16 421.135c7.12-5.56 16.87-13.17 34.84-13.17v30c-7.64 0-10.74 2.42-16.37 6.82-7.12 5.56-16.87 13.18-34.84 13.18-17.96 0-27.71-7.62-34.83-13.18-8.51-8.52-23.29-9.33-32.74 0-22.32 20.17-54.35 14.45-69.66 0-8.51-8.52-23.29-9.33-32.73 0-10.4 9.39-22.89 13.17-34.83 13.06v-30.01c5.82.01 11.73-2.13 16.36-6.7 22.32-20.17 54.35-14.45 69.66 0 8.51 8.52 23.29 9.33 32.73 0 22.33-20.17 54.36-14.45 69.68 0 8.5 8.52 23.29 9.33 32.73 0z"/></g></g></svg>