<svg id="Capa_1" enable-background="new 0 0 512 512" height="512" viewBox="0 0 512 512" width="512" xmlns="http://www.w3.org/2000/svg"><g><path d="m421.62 173.19v52.69c0 24.88-20.24 45.12-45.12 45.12h-90.38c-8.33 0-15.12 6.79-15.12 15.12v178.24h-30v-133.11h-105.5c-24.88 0-45.12-20.24-45.12-45.13v-82.81h30v82.81c0 8.34 6.78 15.13 15.12 15.13h105.5v-15.13c0-13.31 5.8-25.3 15-33.56 7.99-7.19 18.55-11.56 30.12-11.56 8.34 0 15.13-6.79 15.13-15.12v-173.19h30v173.19c0 5.3-.93 10.39-2.62 15.12h47.87c8.34 0 15.12-6.79 15.12-15.12v-52.69z" fill="#714b55"/><path d="m421.62 173.19v52.69c0 24.88-20.24 45.12-45.12 45.12h-90.38c-8.33 0-15.12 6.79-15.12 15.12v178.24h-15v-211.8c7.99-7.19 18.55-11.56 30.12-11.56 8.34 0 15.13-6.79 15.13-15.12v-173.19h30v173.19c0 5.3-.93 10.39-2.62 15.12h47.87c8.34 0 15.12-6.79 15.12-15.12v-52.69z" fill="#5c344b"/><path d="m472 158.12v33.88h-256v-33.88c0-16.63 13.49-30.12 30.12-30.12h195.76c16.63 0 30.12 13.49 30.12 30.12z" fill="#61da4c"/><path d="m472 158.12v33.88h-216v-64h185.88c16.63 0 30.12 13.49 30.12 30.12z" fill="#01b763"/><path d="m380 30.12v33.88h-192v-33.88c0-16.63 13.49-30.12 30.12-30.12h131.76c16.63 0 30.12 13.49 30.12 30.12z" fill="#61da4c"/><path d="m380 30.12v33.88h-124v-64h93.88c16.63 0 30.12 13.49 30.12 30.12z" fill="#01b763"/><path d="m224 448h-18.745c-28.976 0-56.766-11.511-77.255-32-20.489-20.489-48.279-32-77.255-32h-50.745v64l82.413 16.36z" fill="#fedd55"/><path d="m71.5 160h67.75c16.638 0 30.125 13.487 30.125 30.125v33.875h-128v-33.875c0-16.638 13.487-30.125 30.125-30.125z" fill="#61da4c"/><path d="m512 384v128h-512v-64h274.75c14.49 0 28.67-2.88 41.81-8.32 13.12-5.44 25.2-13.44 35.44-23.68 20.49-20.49 48.28-32 77.25-32z" fill="#fcbe2c"/><path d="m512 384v128h-256v-64h18.75c14.49 0 28.67-2.88 41.81-8.32 13.12-5.44 25.2-13.44 35.44-23.68 20.49-20.49 48.28-32 77.25-32z" fill="#ff7901"/></g></svg>