<svg id="Capa_1" enable-background="new 0 0 512 512" height="512" viewBox="0 0 512 512" width="512" xmlns="http://www.w3.org/2000/svg"><g><path d="m512 256v256h-160l-96-15-96 15h-160v-256c0-141.39 114.61-256 256-256 70.7 0 134.7 28.65 181.02 74.98 46.33 46.32 74.98 110.32 74.98 181.02z" fill="#714b55"/><path d="m512 256v256h-160l-96-15v-497c70.7 0 134.7 28.65 181.02 74.98 46.33 46.32 74.98 110.32 74.98 181.02z" fill="#5c344b"/><path d="m448 288v128c0 53.02-42.98 96-96 96h-192c-53.02 0-96-42.98-96-96v-128c0-26.51 10.74-50.51 28.12-67.88 17.37-17.38 41.37-28.12 67.88-28.12 53.02 0 96 42.98 96 96 0-53.02 42.98-96 96-96s96 42.98 96 96z" fill="#f1eeff"/><path d="m448 288v128c0 53.02-42.98 96-96 96h-96v-224c0-53.02 42.98-96 96-96s96 42.98 96 96z" fill="#c7c4d2"/><path d="m320 416-64 32-64-32c0-17.68 7.16-33.68 18.74-45.26s27.58-18.74 45.26-18.74 33.68 7.16 45.26 18.74 18.74 27.58 18.74 45.26z" fill="#fedd55"/><path d="m320 416-64 32v-96c17.68 0 33.68 7.16 45.26 18.74s18.74 27.58 18.74 45.26z" fill="#fcbe2c"/><path d="m145 273h30v30h-30z" fill="#714b55"/><path d="m337 273h30v30h-30z" fill="#5c344b"/></g></svg>