<svg id="Capa_1" enable-background="new 0 0 512 512" height="512" viewBox="0 0 512 512" width="512" xmlns="http://www.w3.org/2000/svg"><g><path d="m318.13 372.75-62.13 62.12-62.13-62.12 12.38-188.77 49.75-39.2 49.75 39.2z" fill="#714b55"/><path d="m318.13 372.75-62.13 62.12v-290.09l49.75 39.2z" fill="#5c344b"/><path d="m347.13 372.75v33.12c0 25.17-10.2 47.95-26.69 64.44s-39.28 26.69-64.44 26.69c-50.33 0-91.13-40.8-91.13-91.13v-33.12h67.29l23.84 31.06 23.84-31.06z" fill="#9b7870"/><path d="m459.34 183.98h-55.25l-23.84-31.06-23.84 31.06h-303.75c-8.37-43.5 12.31-86.87 50.95-107.39l62.71-33.29c7.41-3.92 14.4-9.09 20.59-15.26 18.01-18.6 43.53-28.02 69.09-28.04 25.52-.02 51.1 9.33 69.32 28.28 5.95 5.91 12.81 11.04 20.36 15.02l62.71 33.29c38.64 20.52 59.32 63.89 50.95 107.39z" fill="#ff7901"/><path d="m279.84 372.75h67.29v33.12c0 25.17-10.2 47.95-26.69 64.44s-39.28 26.69-64.44 26.69v-93.19z" fill="#714b55"/><path d="m459.34 183.98h-55.25l-23.84-31.06-23.84 31.06h-100.41v-183.98c25.52-.02 51.1 9.33 69.32 28.28 5.95 5.91 12.81 11.04 20.36 15.02l62.71 33.29c38.64 20.52 59.32 63.89 50.95 107.39z" fill="#fb2f00"/><path d="m150.625 108.5h30v30h-30z" fill="#fcbe2c"/><path d="m210.875 77.215h30v30h-30z" fill="#fcbe2c"/><path d="m0 482h512v30h-512z" fill="#61da4c"/><path d="m256 482h256v30h-256z" fill="#01b763"/></g></svg>