<svg id="Capa_1" enable-background="new 0 0 512 512" height="512" viewBox="0 0 512 512" width="512" xmlns="http://www.w3.org/2000/svg"><g><path d="m181.38 192h149.24v128h-149.24z" fill="#714b55"/><path d="m256 192h74.62v128h-74.62z" fill="#5c344b"/><path d="m124.112 77.215 78.51-13.215v-64h-78.51z" fill="#714b55"/><path d="m32 462.748h138.622v-95.131l-138.622 16.383z" fill="#b6f94d"/><path d="m202.622 64v64l-110.373 16.78v-48.78c0-17.673 14.327-32 32-32z" fill="#b6f94d"/><path d="m202.622 352v-224h-110.373c-16.138 0-29.751 12.017-31.753 28.031l-28.496 227.969h138.622c17.674 0 32-14.327 32-32z" fill="#61da4c"/><path d="m0 448h202.622v64h-202.622z" fill="#714b55"/><path d="m387.888 77.215-78.51-13.215v-64h78.51z" fill="#5c344b"/><path d="m480 462.748h-138.622v-95.131l138.622 16.383z" fill="#61da4c"/><path d="m309.378 64v64l110.373 16.78v-48.78c0-17.673-14.327-32-32-32z" fill="#61da4c"/><path d="m309.378 352v-224h110.373c16.138 0 29.751 12.017 31.753 28.031l28.496 227.969h-138.622c-17.674 0-32-14.327-32-32z" fill="#01b763"/><path d="m309.378 448h202.622v64h-202.622z" fill="#5c344b" transform="matrix(-1 0 0 -1 821.378 960)"/></g></svg>