<svg id="Capa_1" enable-background="new 0 0 512.01 512.01" height="512" viewBox="0 0 512.01 512.01" width="512" xmlns="http://www.w3.org/2000/svg"><g><g><g><g><path d="m180.755 301.26h-9.976c-11.179 0-20.274-9.095-20.274-20.274v-110.137h-30v70.161h-15.125c-8.34 0-15.125-6.785-15.125-15.125v-55.036h-30v55.036c0 24.882 20.243 45.125 45.125 45.125h15.125v9.976c0 27.721 22.553 50.274 50.274 50.274h39.976v-160.411h-30z" fill="#714b55"/></g><g><path d="m421.755 170.849v55.036c0 8.34-6.785 15.125-15.125 15.125h-15.125v-70.161h-30v110.136c0 11.179-9.095 20.274-20.274 20.274h-9.976v-130.41h-30v160.411h39.976c27.722 0 50.274-22.553 50.274-50.274v-9.976h15.125c24.882 0 45.125-20.243 45.125-45.125v-55.036z" fill="#5c344b"/></g><g><path d="m241.005 170.85h30v104.3h-30z" fill="#714b55"/></g><g><path d="m256.065 170.85h14.94v104.3h-14.94z" fill="#5c344b"/></g></g></g><path d="m384.005 482.01-127.94 15-128.06-15c8.84 0 16.84-3.58 22.63-9.37s9.37-13.79 9.37-22.63v-128c0-53.02 42.98-96.01 96-96.01h.06c26.49.02 50.46 10.76 67.82 28.12 17.38 17.38 28.12 41.38 28.12 67.89v128c0 17.67 14.33 32 32 32z" fill="#9b7870"/><path d="m384.005 482.01-127.94 15v-271.01c26.49.02 50.46 10.76 67.82 28.12 17.38 17.38 28.12 41.38 28.12 67.89v128c0 17.67 14.33 32 32 32z" fill="#714b55"/><path d="m275.13 354.863h30v30h-30z" fill="#5c344b"/><path d="m241.005 409.11h30v30h-30z" fill="#714b55"/><path d="m256.065 409.11h14.94v30h-14.94z" fill="#5c344b"/><path d="m.005 482.01h512v30h-512z" fill="#714b55"/><path d="m256.065 482.01h255.94v30h-255.94z" fill="#5c344b"/><path d="m352.005 30.12v52.77h-192v-52.77c0-16.63 13.49-30.12 30.12-30.12h131.76c16.63 0 30.12 13.49 30.12 30.12z" fill="#61da4c"/><path d="m352.005 30.12v52.77h-95.94v-82.89h65.82c16.63 0 30.12 13.49 30.12 30.12z" fill="#01b763"/><path d="m416.005 94.13v48.03h-320v-48.03c0-16.64 13.48-30.13 30.12-30.13h259.76c16.64 0 30.12 13.49 30.12 30.13z" fill="#b6f94d"/><path d="m416.005 94.13v48.03h-159.94v-78.16h129.82c16.64 0 30.12 13.49 30.12 30.13z" fill="#61da4c"/><path d="m480.005 158.13v33.87h-448v-33.87c0-16.64 13.48-30.13 30.12-30.13h387.76c16.64 0 30.12 13.49 30.12 30.13z" fill="#61da4c"/><path d="m480.005 158.13v33.87h-223.94v-64h193.82c16.64 0 30.12 13.49 30.12 30.13z" fill="#01b763"/><path d="m241.065 300.61h30v30h-30z" fill="#714b55"/><path d="m256.065 300.61h15v30h-15z" fill="#5c344b"/><path d="m206.942 354.863h30v30h-30z" fill="#714b55"/></g></svg>