<svg id="Capa_1" enable-background="new 0 0 512.02 512.02" height="512" viewBox="0 0 512.02 512.02" width="512" xmlns="http://www.w3.org/2000/svg"><g><path d="m-3.909 127.157h257.786v30h-257.786z" fill="#714b55" transform="matrix(.727 -.687 .687 .727 -63.497 124.699)"/><path d="m109.984 240.97h30v257.786h-30z" fill="#5c344b" transform="matrix(.687 -.727 .727 .687 -229.664 206.631)"/><path d="m387.55 256.01c0 29.42-8.31 57.58-23.2 81.67s-36.36 44.11-62.67 57.27c-26.24 10.9-41.74 26.13-42.14 51.45v65.62c-17.67 0-33.67-7.16-45.25-18.74-11.58-11.59-18.75-27.59-18.75-45.26 0-39.23 22.16-75.09 57.25-92.63 47.94-19.68 70.94-59.62 70.79-99.38-.16-40.51-24.39-80.85-70.79-99.38-35.09-17.54-57.25-53.4-57.25-92.63 0-17.67 7.17-33.67 18.75-45.26 11.58-11.58 27.58-18.74 45.25-18.74v65.62c.39 29.6 21.1 42.14 42.14 51.45 52.63 26.31 85.87 80.1 85.87 138.94z" fill="#ff7901"/><path d="m387.55 256.01c0 29.42-8.31 57.58-23.2 81.67s-36.36 44.11-62.67 57.27c-26.24 10.9-41.74 26.13-42.14 51.45v65.62c-17.67 0-33.67-7.16-45.25-18.74-11.58-11.59-18.75-27.59-18.75-45.26 0-39.23 22.16-75.09 57.25-92.63 47.94-19.68 70.94-59.62 70.79-99.38z" fill="#fb2f00"/><path d="m75.26 241.01h414.02v30h-414.02z" fill="#714b55"/><path d="m75.26 256.01h414.02v15h-414.02z" fill="#5c344b"/><path d="m108.31 256.01-18.17 46.29h-90.13l18.17-46.29-18.17-46.29h90.13z" fill="#fcbe2c"/><path d="m108.31 256.01-18.17 46.29h-90.13l18.17-46.29z" fill="#ff7901"/><path d="m512.01 256.01-56.51 49.65-19.8-22.54 30.86-27.11-30.86-27.11 19.8-22.54z" fill="#fcbe2c"/><path d="m512.01 256.01-56.51 49.65-19.8-22.54 30.86-27.11z" fill="#ff7901"/></g></svg>