<svg id="Capa_1" enable-background="new 0 0 512.02 512.02" height="512" viewBox="0 0 512.02 512.02" width="512" xmlns="http://www.w3.org/2000/svg"><g><path d="m409.75 256.01c0 38.42 11.93 76.84 35.78 109.42-80.27-8.73-156.95 35.54-189.52 109.41-29.84-67.67-96.69-110.5-169.41-110.5-6.66 0-13.37.36-20.11 1.09 23.85-32.58 35.78-71 35.78-109.42s-11.93-76.84-35.78-109.42c6.74.73 13.45 1.09 20.11 1.09 72.72 0 139.57-42.83 169.41-110.5 29.84 67.67 96.69 110.5 169.41 110.5 6.66 0 13.37-.36 20.11-1.09-23.85 32.58-35.78 71-35.78 109.42z" fill="#f1eeff"/><path d="m409.75 256.01c0 38.42 11.93 76.84 35.78 109.42-80.27-8.73-156.95 35.54-189.52 109.41v-437.66c29.84 67.67 96.69 110.5 169.41 110.5 6.66 0 13.37-.36 20.11-1.09-23.85 32.58-35.78 71-35.78 109.42z" fill="#c7c4d2"/><path d="m424.76 256.01c0-36.41 11.36-71.18 32.87-100.56l20.09-27.45-33.82 3.68c-36.18 3.94-71.99-3.6-103.52-21.81-31.53-18.2-55.96-45.43-70.65-78.75l-13.72-31.12-13.72 31.12c-14.69 33.32-39.12 60.55-70.65 78.75s-67.34 25.74-103.52 21.81l-33.82-3.68 20.09 27.45c21.51 29.38 32.87 64.15 32.87 100.56s-11.36 71.18-32.87 100.56l-20.09 27.45 33.82-3.68c36.19-3.94 71.99 3.61 103.52 21.81s55.96 45.43 70.65 78.75l13.72 31.12 13.72-31.12c14.69-33.32 39.12-60.55 70.65-78.75 31.53-18.21 67.34-25.75 103.52-21.81l33.82 3.68-20.09-27.45c-21.51-29.38-32.87-64.15-32.87-100.56zm-6.9 93.44c-32.42 1.19-63.93 10.24-92.48 26.72-28.54 16.48-52.14 39.25-69.37 66.73-17.23-27.48-40.83-50.25-69.37-66.73-28.55-16.48-60.06-25.53-92.48-26.72 15.18-28.66 23.1-60.48 23.1-93.44s-7.92-64.78-23.1-93.44c32.42-1.19 63.93-10.24 92.48-26.72 28.54-16.48 52.14-39.25 69.37-66.73 17.23 27.48 40.83 50.25 69.37 66.73 28.55 16.48 60.06 25.53 92.48 26.72-15.18 28.66-23.1 60.48-23.1 93.44s7.92 64.78 23.1 93.44z" fill="#9b7870"/><path d="m457.63 356.57 20.09 27.45-33.82-3.68c-36.18-3.94-71.99 3.6-103.52 21.81-31.53 18.2-55.96 45.43-70.65 78.75l-13.72 31.12v-69.12c17.23-27.48 40.83-50.25 69.37-66.73 28.55-16.48 60.06-25.53 92.48-26.72-15.18-28.66-23.1-60.48-23.1-93.44s7.92-64.78 23.1-93.44c-32.42-1.19-63.93-10.24-92.48-26.72-28.54-16.48-52.14-39.25-69.37-66.73v-69.12l13.72 31.12c14.69 33.32 39.12 60.55 70.65 78.75 31.53 18.21 67.34 25.75 103.52 21.81l33.82-3.68-20.09 27.45c-21.51 29.38-32.87 64.15-32.87 100.56s11.36 71.18 32.87 100.56z" fill="#714b55"/><path d="m375.36 202.95 20.1-27.45-33.82 3.68c-39.11 4.25-76.04-17.07-91.91-53.06l-13.72-31.13-13.72 31.13c-15.87 35.99-52.8 57.31-91.91 53.06l-33.82-3.68 20.1 27.45c23.23 31.74 23.23 74.38 0 106.12l-20.1 27.45 33.82-3.68c39.11-4.26 76.04 17.07 91.91 53.06l13.72 31.13 13.72-31.13c15.87-35.99 52.8-57.31 91.91-53.06l33.82 3.68-20.1-27.45c-23.23-31.74-23.23-74.38 0-106.12zm-37.73 100.19c-15.96 1.89-31.4 7.02-45.62 15.23-14.21 8.2-26.38 19.02-36 31.89-9.62-12.87-21.79-23.69-36-31.89-14.22-8.21-29.66-13.34-45.62-15.23 6.33-14.78 9.61-30.72 9.61-47.13s-3.28-32.35-9.61-47.13c15.96-1.89 31.4-7.02 45.62-15.23 14.21-8.2 26.38-19.02 36-31.89 9.62 12.87 21.79 23.69 36 31.89 14.22 8.21 29.66 13.34 45.62 15.23-6.33 14.78-9.61 30.72-9.61 47.13s3.28 32.35 9.61 47.13z" fill="#9b7870"/><path d="m375.36 309.07 20.1 27.45-33.82-3.68c-39.11-4.25-76.04 17.07-91.91 53.06l-13.72 31.13v-66.77c9.62-12.87 21.79-23.69 36-31.89 14.22-8.21 29.66-13.34 45.62-15.23-6.33-14.78-9.61-30.72-9.61-47.13s3.28-32.35 9.61-47.13c-15.96-1.89-31.4-7.02-45.62-15.23-14.21-8.2-26.38-19.02-36-31.89v-66.77l13.72 31.13c15.87 35.99 52.8 57.31 91.91 53.06l33.82-3.68-20.1 27.45c-23.23 31.74-23.23 74.38 0 106.12z" fill="#714b55"/><path d="m286.01 256.01 199.2 115.01-15 25.98-199.2-115.01v230.02h-30v-230.02l-199.2 115.01-15-25.98 199.2-115.01-199.2-115.01 15-25.98 199.2 115.01v-230.02h30v230.02l199.2-115.01 15 25.98z" fill="#714b55"/><path d="m286.01 256.01 199.2 115.01-15 25.98-199.2-115.01v230.02h-15v-512h15v230.02l199.2-115.01 15 25.98z" fill="#5c344b"/></g></svg>