<svg id="Capa_1" enable-background="new 0 0 512 512" height="512" viewBox="0 0 512 512" width="512" xmlns="http://www.w3.org/2000/svg"><g><path d="m384 288h64v110h-64z" fill="#01b763"/><g><path d="m352 32.01v63.99c0 17.67-14.33 32-32 32h-32v-128h-64v192h-32c-17.67 0-32-14.33-32-32v-96h-64v96c0 53.02 42.98 96 96 96h32v142h64v-206h32c53.02 0 96-42.98 96-96v-63.99z" fill="#61da4c"/><path d="m352 32.01v63.99c0 17.67-14.33 32-32 32h-32v-128h-32v398h32v-206h32c53.02 0 96-42.98 96-96v-63.99z" fill="#01b763"/></g><path d="m429.25 384v73.88l-173.25-3.99-256-5.89v-128h37.49c14.49 0 28.68 2.88 41.81 8.32 13.14 5.44 25.2 13.44 35.45 23.68 20.48 20.49 48.27 32 77.25 32z" fill="#fedd55"/><path d="m429.25 384v73.88l-173.25-3.99v-69.89z" fill="#fcbe2c"/><path d="m512 384v128h-512v-64h274.75c14.49 0 28.67-2.88 41.81-8.32 13.12-5.44 25.2-13.44 35.44-23.68 20.49-20.49 48.28-32 77.25-32z" fill="#fcbe2c"/><path d="m512 384v128h-256v-64h18.75c14.49 0 28.67-2.88 41.81-8.32 13.12-5.44 25.2-13.44 35.44-23.68 20.49-20.49 48.28-32 77.25-32z" fill="#ff7901"/></g></svg>