<svg id="Capa_1" enable-background="new 0 0 512 512" height="512" viewBox="0 0 512 512" width="512" xmlns="http://www.w3.org/2000/svg"><g><path d="m421.69 217.99v53.14c0 95.52-63.52 176.21-150.63 202.14-19.09 5.68-39.31 8.73-60.25 8.73h-155.77c36.12 0 65.4-29.28 65.4-65.4l23.5-183.39 127.12-82.58z" fill="#714b55"/><path d="m421.69 217.99v53.14c0 95.52-63.52 176.21-150.63 202.14v-322.64z" fill="#5c344b"/><path d="m331.31 235.85-60.25 35.28-60.25-35.39 60.25-85.12z" fill="#fedd55"/><path d="m331.31 235.85-60.25 35.28v-120.51z" fill="#fcbe2c"/><path d="m316.19 376.5c0 24.88-20.25 45.12-45.13 45.12s-45.12-20.24-45.12-45.12h30c0 8.34 6.78 15.12 15.12 15.12s15.13-6.78 15.13-15.12z" fill="#9b7870"/><path d="m316.19 376.5c0 24.88-20.25 45.12-45.13 45.12v-30c8.34 0 15.13-6.78 15.13-15.12z" fill="#714b55"/><path d="m331.312 361.375c-24.882 0-45.125-20.243-45.125-45.125h30c0 8.34 6.785 15.125 15.125 15.125s15.125-6.785 15.125-15.125h30c.001 24.882-20.243 45.125-45.125 45.125z" fill="#714b55"/><path d="m210.812 361.375c-24.882 0-45.125-20.243-45.125-45.125h30c0 8.34 6.785 15.125 15.125 15.125s15.125-6.785 15.125-15.125h30c0 24.882-20.243 45.125-45.125 45.125z" fill="#9b7870"/><path d="m451.81 0v30.12c0 16.64-13.48 30.13-30.12 30.13h-60.25l-90.38 90.37-90.37-90.37h-60.25c-16.64 0-30.13-13.49-30.13-30.13v-30.12h120.5c33.28 0 60.25 26.97 60.25 60.25 0-33.28 26.98-60.25 60.25-60.25z" fill="#714b55"/><path d="m451.81 0v30.12c0 16.64-13.48 30.13-30.12 30.13h-60.25l-90.38 90.37v-90.37c0-33.28 26.98-60.25 60.25-60.25z" fill="#5c344b"/><circle cx="180.688" cy="150.625" fill="#f1eeff" r="90.375"/><path d="m180.688 331.375v-42.658c0-33.275-26.975-60.25-60.25-60.25-33.275 0-60.25 26.975-60.25 60.25v133.033h30.125c49.912 0 90.375-40.462 90.375-90.375z" fill="#9b7870"/><circle cx="361.438" cy="150.625" fill="#c7c4d2" r="90.375"/><path d="m165.687 135.62h30v30h-30z" fill="#714b55"/><path d="m346.435 135.63h30v30h-30z" fill="#5c344b"/><path d="m0 482h512v30h-512z" fill="#9b7870"/><path d="m271.06 482h240.94v30h-240.94z" fill="#714b55"/></g></svg>