<svg id="Capa_1" enable-background="new 0 0 512 512" height="512" viewBox="0 0 512 512" width="512" xmlns="http://www.w3.org/2000/svg"><g><path d="m256 441.92h15v70.08h-15z" fill="#01b763"/><path d="m241 441.92h30v70.08h-30z" fill="#714b55"/><path d="m256 441.92h15v70.08h-15z" fill="#5c344b"/><path d="m456.38 447.6c-52.85 52.85-126.87 51.25-200.38 8.92 0-.01-.01-.01-.01-.01-73.49 42.34-147.52 43.94-200.37-8.91-55.87-55.88-34.58-136.08-34.58-136.08l65.01 65.01c12.63 12.63 33.11 12.64 45.73 0 12.64-12.64 12.64-33.11.01-45.74l-89.76-89.75c8.63-19.81 19.84-39.61 32.62-58.87l57.14 57.14c12.63 12.62 33.11 12.63 45.74 0 12.62-12.64 12.62-33.11 0-45.74l-63.84-63.83c14.16-17.21 28.85-33.5 43.09-48.41l8.6 8.61c12.62 12.63 33.1 12.64 45.74 0 12.63-12.64 12.63-33.11.01-45.74l-8.27-8.28c18.05-16.77 28.68-23.83 53.13-35.92h.01c24.46 12.09 35.09 19.15 53.14 35.92l-8.27 8.28c-12.62 12.63-12.62 33.1.01 45.74 12.64 12.64 33.12 12.63 45.74 0l8.6-8.61c14.24 14.91 28.93 31.2 43.09 48.41l-63.84 63.83c-12.63 12.63-12.63 33.1 0 45.74 12.63 12.63 33.11 12.62 45.74 0l57.14-57.14c12.77 19.26 23.99 39.06 32.61 58.87l-89.75 89.75c-12.63 12.63-12.63 33.1.01 45.74 12.62 12.64 33.1 12.63 45.72 0l65.02-65.01s21.29 80.2-34.58 136.08z" fill="#61da4c"/><path d="m456.38 447.6c-52.85 52.85-126.87 51.25-200.38 8.92v-456.52c24.46 12.09 35.09 19.15 53.14 35.92l-8.27 8.28c-12.62 12.63-12.62 33.1.01 45.74 12.64 12.64 33.12 12.63 45.74 0l8.6-8.61c14.24 14.91 28.93 31.2 43.09 48.41l-63.84 63.83c-12.63 12.63-12.63 33.1 0 45.74 12.63 12.63 33.11 12.62 45.74 0l57.14-57.14c12.77 19.26 23.99 39.06 32.61 58.87l-89.75 89.75c-12.63 12.63-12.63 33.1.01 45.74 12.62 12.64 33.1 12.63 45.72 0l65.02-65.01s21.29 80.2-34.58 136.08z" fill="#01b763"/></g></svg>