<svg id="Capa_1" enable-background="new 0 0 512 512" height="512" viewBox="0 0 512 512" width="512" xmlns="http://www.w3.org/2000/svg"><g><path d="m25.606 447.356-21.212-21.212 55.857-54.645 21.213 21.213z" fill="#ff7901"/><path d="m486.394 447.356-55.859-54.644 21.213-21.213 55.858 54.645z" fill="#fb2f00"/><path d="m451.75 371.5v125.5h-391.5v-125.5l195.75-261z" fill="#fcbe2c"/><path d="m451.75 371.5v125.5h-195.75v-386.5z" fill="#ff7901"/><path d="m360.42 497h-208.84l104.42-283.72z" fill="#ff7901"/><path d="m360.42 497h-104.42v-283.72z" fill="#fb2f00"/><path d="m270.992 111.54-12.953-50.297 12.953-50.297 97.015 50.297z" fill="#fb2f00"/><path d="m241 0h30v256h-30z" fill="#714b55"/><path d="m256 0h15v256h-15z" fill="#5c344b"/><path d="m30 497-30-15v-105.5h30z" fill="#714b55"/><path d="m512 482-30 15v-120.5h30z" fill="#5c344b"/><path d="m0 482h512v30h-512z" fill="#61da4c"/><path d="m256 482h256v30h-256z" fill="#01b763"/></g></svg>