<svg id="Capa_1" enable-background="new 0 0 512 512" height="512" viewBox="0 0 512 512" width="512" xmlns="http://www.w3.org/2000/svg"><g><g fill="#5c344b"><path d="m421.688 60.188c-33.188 0-60.188-27-60.188-60.188h30c0 16.646 13.542 30.188 30.188 30.188s30.187-13.542 30.187-30.188h30c0 33.188-27 60.188-60.187 60.188z"/><path d="m340.375 90.438h36.125v30h-36.125z"/><path d="m340.375 150.688h36.125v30h-36.125z"/><path d="m466.875 90.438h36.125v30h-36.125z"/><path d="m466.875 150.688h36.125v30h-36.125z"/></g><path d="m135.5 361.562h36.125v30h-36.125z" fill="#714b55"/><path d="m135.5 421.75h36.125v30h-36.125z" fill="#714b55"/><path d="m9 361.562h36.125v30h-36.125z" fill="#714b55"/><path d="m9 421.75h36.125v30h-36.125z" fill="#714b55"/><path d="m301.25 189.845h30v36.125h-30z" fill="#5c344b"/><path d="m241 189.84h30v36.13h-30z" fill="#714b55"/><path d="m256 189.84h15v36.13h-15z" fill="#5c344b"/><path d="m180.75 189.845h30v36.125h-30z" fill="#714b55"/><path d="m117.744 199.41h30v38.63h-30z" fill="#714b55" transform="matrix(.924 -.383 .383 .924 -73.58 67.423)"/><path d="m22.975 294.322h30.001v38.423h-30.001z" fill="#714b55" transform="matrix(.383 -.924 .924 .383 -266.234 228.672)"/><path d="m60.616 237.062h30v38.61h-30z" fill="#714b55" transform="matrix(.707 -.707 .707 .707 -159.13 128.555)"/><path d="m301.25 317.656h30v36.125h-30z" fill="#5c344b"/><path d="m363.82 305.673h30v36.35h-30z" fill="#5c344b" transform="matrix(.924 -.383 .383 .924 -95.075 169.558)"/><path d="m458.269 211.386h30.001v36.788h-30.001z" fill="#5c344b" transform="matrix(.383 -.924 .924 .383 79.91 579.138)"/><path d="m421.384 267.955h30v38.609h-30z" fill="#5c344b" transform="matrix(.707 -.707 .707 .707 -75.309 392.711)"/><path d="m241 316.31h30v36.13h-30z" fill="#714b55"/><path d="m256 316.31h15v36.13h-15z" fill="#5c344b"/><path d="m180.75 316.312h30v36.125h-30z" fill="#714b55"/><path d="m421.69 30.19c-33.19 0-60.19 27-60.19 60.19v75.31c0 24.95-20.3 45.25-45.25 45.25h-120.5c-91.33 0-165.63 74.3-165.63 165.62v75.25c0 33.19 27 60.19 60.19 60.19s60.19-27 60.19-60.19v-75.25c0-24.95 20.3-45.25 45.25-45.25h120.5c91.33 0 165.63-74.3 165.63-165.62v-75.31c0-33.19-27-60.19-60.19-60.19z" fill="#ff7901"/><path d="m481.88 90.38v75.31c0 91.32-74.3 165.62-165.63 165.62h-60.25v-120.37h60.25c24.95 0 45.25-20.3 45.25-45.25v-75.31c0-33.19 27-60.19 60.19-60.19s60.19 27 60.19 60.19z" fill="#fb2f00"/></g></svg>