<svg id="Capa_1" enable-background="new 0 0 512 512" height="512" viewBox="0 0 512 512" width="512" xmlns="http://www.w3.org/2000/svg"><g><circle cx="376.5" cy="32" fill="#fcbe2c" r="32"/><path d="m391.73 329.02v152.98h-208.37v-284.18l17.22-35.82h110.84z" fill="#714b55"/><path d="m391.73 329.02v152.98h-135.73v-320h55.42z" fill="#5c344b"/><path d="m311.42 162-55.42 21.24-55.42-21.24 55.42-115.25z" fill="#f1eeff"/><path d="m311.42 162-55.42 21.24v-136.49z" fill="#c7c4d2"/><path d="m512 482-96 15-96-15 96-204.75z" fill="#61da4c"/><path d="m512 482-96 15v-219.75z" fill="#01b763"/><path d="m320 482-160 15-160-15 104.91-218.18h110.18l40.91 85.08z" fill="#b6f94d"/><path d="m320 482-160 15v-233.18h55.09l40.91 85.08z" fill="#61da4c"/><path d="m0 482h512v30h-512z" fill="#714b55"/><path d="m256 482h256v30h-256z" fill="#5c344b"/><path d="m215.09 263.82-55.09 21.12-55.09-21.12 55.09-114.57z" fill="#f1eeff"/><path d="m215.09 263.82-55.09 21.12v-135.69z" fill="#c7c4d2"/><path d="m451.75 195.75h-30c0-13.854-11.271-25.125-25.125-25.125h-10.125v-30h10.125c15.797 0 30.065 6.681 40.125 17.363 10.06-10.683 24.328-17.363 40.125-17.363h10.125v30h-10.125c-13.854 0-25.125 11.271-25.125 25.125z" fill="#5c344b"/><path d="m120.375 135.5h-30c0-13.854-11.271-25.125-25.125-25.125h-10.125v-30h10.125c15.797 0 30.065 6.681 40.125 17.363 10.06-10.683 24.328-17.363 40.125-17.363h10.125v30h-10.125c-13.854 0-25.125 11.271-25.125 25.125z" fill="#714b55"/></g></svg>