<svg id="Capa_1" enable-background="new 0 0 511.998 511.998" height="512" viewBox="0 0 511.998 511.998" width="512" xmlns="http://www.w3.org/2000/svg"><g><path d="m494.55 293.338c17.7 29.43 13.54 68.31-11.48 93.31l-24.88 24.87c-71.27-70.54-196.92-56.96-290.52-67.04-.01-.05-.01-.09-.01-.14-10.25-93.8 3.83-218.74-67.03-290.39l24.87-24.87c24.18-24.27 63.08-29.72 93.31-11.49 30.77 18.47 66.77 25.43 101.72 20.22 19.49-2.25 35.97-14.66 48.27-28.55 12.55-12.55 33.03-12.34 45.32.63 11.84 12.51 11.09 32.35-1.09 44.53l-21.88 21.88 22.28 22.28 22.42 22.42 22.34-22.35c12.56-12.55 33.04-12.34 45.32.64 11.84 12.5 11.09 32.34-1.08 44.52-13.81 12.16-26.18 29.24-28.03 47.54-5.2 34.76 1.59 71.18 20.15 101.99z" fill="#f1eeff"/><path d="m494.55 293.338c17.7 29.43 13.54 68.31-11.48 93.31l-24.88 24.87c-71.27-70.54-196.92-56.96-290.52-67.04-.01-.05-.01-.09-.01-.14l245.77-245.76 22.42 22.42 22.34-22.35c12.56-12.55 33.04-12.34 45.32.64 11.84 12.5 11.09 32.34-1.08 44.52-13.81 12.16-26.18 29.24-28.03 47.54-5.2 34.76 1.59 71.18 20.15 101.99z" fill="#c7c4d2"/><path d="m330.572 108.969h30v30h-30z" fill="#714b55" transform="matrix(.707 -.707 .707 .707 13.557 280.666)"/><path d="m373.175 151.571h30v30.001h-30z" fill="#5c344b" transform="matrix(.707 -.707 .707 .707 -4.09 323.269)"/><path d="m382.49 254.788c-25.69 37.93-62.43 61.2-103.45 65.52-19.99 2.05-71.34 22.89-92.42 31.72-6.05 2.54-11.54 6.22-16.18 10.86l-19.73 19.72c-10.65 10.65-22.95 16.7-38.02 16.7-6.61.09-12.33 8.35-12.39 12.39v32.63c.44 22.03-19.46 40.6-40.18 40.09-7.3 0-14.12 2.82-19.26 7.95l-19.65 19.63-10.6-10.61-10.6-10.62 19.65-19.62c10.8-10.79 22.6-16.67 37.86-16.67 6.99-.35 12.67-8.59 12.78-12.78v-32.67c-.45-21.88 19.38-40.3 39.97-39.67 7.16 0 14.17-2.9 19.23-7.96l19.71-19.7c4.65-4.65 8.35-10.16 10.88-16.22 8.86-21.17 29.76-72.74 31.76-92.41l.03-.27c5.16-42.98 27.25-77.68 65.66-103.16l16.58 25c-30.7 20.37-48.35 47.82-52.44 81.61-2.3 22.41-12.44 50.01-24.25 78.32-.03.06-.05.13-.08.19 28.43-11.85 56.11-21.98 78.59-24.29 41.07-4.33 67.11-30.94 81.71-52.5z" fill="#714b55"/><g fill="#5c344b"><path d="m382.49 254.788c-25.69 37.93-62.43 61.2-103.45 65.52-19.99 2.05-71.34 22.89-92.42 31.72-6.05 2.54-11.54 6.22-16.18 10.86l-19.73 19.72c-10.65 10.65-22.95 16.7-38.02 16.7l84.74-84.74c-.03.06-.05.13-.08.19 28.43-11.85 56.11-21.98 78.59-24.29 41.07-4.33 67.11-30.94 81.71-52.5z"/><path d="m100.299 411.698v32.63c.44 22.03-19.46 40.6-40.18 40.09-7.3 0-14.12 2.82-19.26 7.95l-19.65 19.63-10.6-10.61 46.91-46.91c6.99-.35 12.67-8.59 12.78-12.78z"/></g></g></svg>