<svg id="Capa_1" enable-background="new 0 0 512 512" height="512" viewBox="0 0 512 512" width="512" xmlns="http://www.w3.org/2000/svg"><g><g fill="#5c344b"><path d="m407.126 241h30v30h-30z"/><path d="m452.376 180.75h30v30h-30z"/><path d="m437.251 301.25h30v30h-30z"/></g><path d="m75.751 361.5h30v30h-30z" fill="#714b55"/><path d="m16.501 120.5h30v30h-30z" fill="#714b55"/><path d="m121.001 421.75h30v30h-30z" fill="#714b55"/><path d="m472.809 73.37c-5.79 5.79-9.37 13.79-9.37 22.63l.2 32s-24.05 0-32.07 0c-39.97 0-156.96 11.5-160.07 11.8-.04.01-.06.01-.06.01l-191.94-11.81c8.84 0 16.84-3.58 22.63-9.37s9.37-13.79 9.37-22.63-3.58-16.84-9.37-22.63-13.79-9.37-22.63-9.37l191.94-11.06h.06l223.94 11.06c-8.84 0-16.84 3.58-22.63 9.37z" fill="#9b7870"/><path d="m472.809 73.37c-5.79 5.79-9.37 13.79-9.37 22.63l.2 32s-24.05 0-32.07 0c-39.97 0-156.96 11.5-160.07 11.8v-86.86l223.94 11.06c-8.84 0-16.84 3.58-22.63 9.37z" fill="#714b55"/><path d="m367.499 256-96 10.33s-180.17-10.33-224-10.33v-64c43.5 0 224-9.72 224-9.72l96 9.72c-8.84 0-16.84 3.58-22.63 9.37s-9.37 13.79-9.37 22.63c0 17.67 14.33 32 32 32z" fill="#9b7870"/><path d="m367.499 256-96 10.33v-84.05l96 9.72c-8.84 0-16.84 3.58-22.63 9.37s-9.37 13.79-9.37 22.63c0 17.67 14.33 32 32 32z" fill="#714b55"/><path d="m399.499 320v64h-16l-112 9.5-112-9.5h-16.03v-32c0-8.84-3.58-16.84-9.37-22.63-5.8-5.79-13.8-9.37-22.63-9.37l160.03-12.95s107.18 12.95 128 12.95z" fill="#9b7870"/><path d="m271.499 307.05s107.18 12.95 128 12.95v64h-16l-112 9.5z" fill="#714b55"/><path d="m399.499 320h-320v-32c0-8.84-3.58-16.84-9.37-22.63s-13.79-9.37-22.63-9.37h320v32c0 17.67 14.33 32 32 32z" fill="#714b55"/><path d="m399.499 320h-128v-64h96v32c0 17.67 14.33 32 32 32z" fill="#5c344b"/><path d="m47.499 0h448v64h-448z" fill="#714b55"/><path d="m271.499 0h224v64h-224z" fill="#5c344b"/><path d="m351.499 448c-8.84 0-16.84 3.58-22.63 9.37s-9.37 13.79-9.37 22.63v32h-96v-32c0-17.67-14.32-32-32-32l80-9.19z" fill="#9b7870"/><path d="m271.499 438.81 80 9.19c-8.84 0-16.84 3.58-22.63 9.37s-9.37 13.79-9.37 22.63v32h-48z" fill="#714b55"/><path d="m383.499 384c-8.84 0-16.84 3.58-22.63 9.37s-9.37 13.79-9.37 22.63v32h-160v-32c0-17.67-14.32-32-32-32z" fill="#714b55"/><path d="m271.499 384h112c-8.84 0-16.84 3.58-22.63 9.37s-9.37 13.79-9.37 22.63v32h-80z" fill="#5c344b"/><path d="m431.569 128c-8.83 0-16.83 3.58-22.63 9.37-5.79 5.79-9.37 13.79-9.37 22.63v32h-352.07c17.68 0 32-14.33 32-32v-32z" fill="#714b55"/><path d="m271.499 128h160.07c-8.83 0-16.83 3.58-22.63 9.37-5.79 5.79-9.37 13.79-9.37 22.63v32h-128.07z" fill="#5c344b"/></g></svg>