<svg id="Capa_1" enable-background="new 0 0 482 482" height="512" viewBox="0 0 482 482" width="512" xmlns="http://www.w3.org/2000/svg"><g><path d="m482 391.625-30.124-26-30.118 32-30.121-32-30.122 32-30.125-32-30.126 32-30.127-32-30.126 32-30.131-32-30.13 26h-90.375v90.375h391.625z" fill="#c7c4d2"/><path d="m90.375 0 26 30.124-32 30.118 32 30.121-32 30.122 32 30.125-32 30.126 32 30.127-32 30.126 32 30.131-26 30.13v90.375h-90.375v-391.625z" fill="#f1eeff"/><path d="m143.71 391.63c0 29.45-23.88 53.33-53.33 53.33-14.73 0-28.06-5.97-37.72-15.62-9.65-9.65-15.62-22.98-15.62-37.71 0-29.46 23.88-53.34 53.34-53.34 14.72 0 28.06 5.97 37.71 15.62s15.62 22.99 15.62 37.72z" fill="#714b55"/><path d="m143.71 391.63c0 29.45-23.88 53.33-53.33 53.33-14.73 0-28.06-5.97-37.72-15.62l75.43-75.43c9.65 9.65 15.62 22.99 15.62 37.72z" fill="#5c344b"/><path d="m75.38 376.62h30v30h-30z" fill="#9b7870"/><path d="m105.38 376.62v30h-30z" fill="#714b55"/></g></svg>