<svg id="Capa_1" enable-background="new 0 0 512 512" height="512" viewBox="0 0 512 512" width="512" xmlns="http://www.w3.org/2000/svg"><g><path d="m331.37 151.44c0 69.37-75.37 99.79-75.37 99.79s-75.37-30.42-75.37-99.79c0-69.38 75.37-151.44 75.37-151.44s75.37 82.06 75.37 151.44z" fill="#b6f94d"/><path d="m331.37 151.44c0 69.37-75.37 99.79-75.37 99.79v-251.23s75.37 82.06 75.37 151.44z" fill="#61da4c"/><path d="m145.705 205.387c36.172 36.172 12.553 91.147 12.553 91.147s-54.975 23.619-91.147-12.553-39.844-118.438-39.844-118.438 82.266 3.672 118.438 39.844z" fill="#b6f94d"/><path d="m366.295 205.387c-36.172 36.172-12.553 91.147-12.553 91.147s54.975 23.619 91.147-12.553 39.843-118.437 39.843-118.437-82.265 3.671-118.437 39.843z" fill="#61da4c"/><path d="m426.06 245.43-88.48 88.48c-30.03 30.03-52.74 65.44-67.52 105.25h-28.12c-14.78-39.81-37.49-75.22-67.52-105.25l-88.48-88.48 21.22-21.21 88.48 88.48c17.38 17.39 32.52 36.42 45.36 56.93v-249.22h30v249.22c12.84-20.51 27.98-39.54 45.36-56.93l88.48-88.48z" fill="#61da4c"/><path d="m426.06 245.43-88.48 88.48c-30.03 30.03-52.74 65.44-67.52 105.25h-14.06v-318.75h15v249.22c12.84-20.51 27.98-39.54 45.36-56.93l88.48-88.48z" fill="#01b763"/><path d="m458.25 482-202.25 15-202.25-15c28.55 0 55.93-11.34 76.12-31.53 10.09-10.09 21.99-17.98 34.93-23.34 12.94-5.35 26.92-8.19 41.2-8.19h100c28.56 0 55.94 11.34 76.13 31.53 10.09 10.09 21.99 17.98 34.93 23.34 12.93 5.35 26.92 8.19 41.19 8.19z" fill="#fcbe2c"/><path d="m458.25 482-202.25 15v-78.06h50c28.56 0 55.94 11.34 76.13 31.53 10.09 10.09 21.99 17.98 34.93 23.34 12.93 5.35 26.92 8.19 41.19 8.19z" fill="#ff7901"/><g fill="#714b55"><path d="m0 482h512v30h-512z"/><path d="m256 482h256v30h-256z"/></g></g></svg>