<svg id="Capa_1" enable-background="new 0 0 512 512" height="512" viewBox="0 0 512 512" width="512" xmlns="http://www.w3.org/2000/svg"><g><path d="m193.508 124.058-42.883-24.764v-99.294h30v81.976l27.885 16.101z" fill="#714b55"/><path d="m318.492 124.058-15.002-25.981 27.885-16.101v-81.976h30v99.294z" fill="#5c344b"/><g fill="#714b55"><path d="m71.7 512-21.175-21.252 57.731-57.522 31.286-93.858 86.932-31.849 10.32 28.168-73.361 26.878-28.965 86.893z"/><path d="m65.161 378.405-24.305-17.586 64.741-89.476h115.784v30h-100.461z"/><path d="m221.381 241.093h-96.418l-64.741-89.477 24.304-17.586 55.76 77.063h81.095z"/></g><path d="m440.3 512-62.768-62.542-28.965-86.893-73.361-26.878 10.32-28.168 86.932 31.849 31.286 93.858 57.731 57.522z" fill="#5c344b"/><path d="m446.839 378.405-55.759-77.062h-100.461v-30h115.784l64.741 89.476z" fill="#5c344b"/><path d="m387.037 241.093h-96.418v-30h81.095l55.76-77.063 24.304 17.586z" fill="#5c344b"/><circle cx="256" cy="369.61" fill="#fcbe2c" r="68.95"/><path d="m324.95 369.61c0 38.08-30.87 68.95-68.95 68.95v-137.9c38.08 0 68.95 30.87 68.95 68.95z" fill="#ff7901"/><path d="m307.71 238.98v34.48c0 28.55-23.15 51.71-51.71 51.71s-51.71-23.16-51.71-51.71v-34.48c0-28.56 23.15-51.71 51.71-51.71 14.28 0 27.21 5.79 36.56 15.15 9.36 9.35 15.15 22.28 15.15 36.56z" fill="#ff7901"/><path d="m307.71 238.98v34.48c0 28.55-23.15 51.71-51.71 51.71v-137.9c14.28 0 27.21 5.79 36.56 15.15 9.36 9.35 15.15 22.28 15.15 36.56z" fill="#fb2f00"/><circle cx="256" cy="132" fill="#fcbe2c" r="68.95"/><path d="m324.95 132c0 38.08-30.87 68.95-68.95 68.95v-137.9c38.08 0 68.95 30.87 68.95 68.95z" fill="#ff7901"/></g></svg>