<svg id="Capa_1" enable-background="new 0 0 512 512" height="512" viewBox="0 0 512 512" width="512" xmlns="http://www.w3.org/2000/svg"><g><path d="m180.62 38.91v397.79l-165.62 1.88-15-36.83v-206.258l15-7.93-15-33.812v-117.9l71.71-35.85h54.21l9.362 15 18.268-3.16z" fill="#714b55"/><path d="m153.55 11.84-33.17 66.95v114.02l-30.13 60.25v184.66l-30 .35v-182.34l-60.25-60.25v-42.42l71.14 71.14 19.24-38.47v-114.02l35.54-71.71h15.79z" fill="#9b7870"/><path d="m512 35.85v33.31l-15 34.292 15 8.128v290.17l-15 33.17h-165.62v-396.01l28.51-28.51 17.564 4.6 10.756-15h52.08z" fill="#5c344b"/><path d="m339.23 31.06v403.87l-83.22.93-83.24.94v-405.74z" fill="#00c8c9"/><path d="m339.23 31.06v403.87l-83.22.93v-404.8z" fill="#00a0ab"/><g fill="#00c8c9"><path d="m271.125 319.375h30v45.125h-30z"/><path d="m271.125 168.75h30v30h-30z"/><path d="m271.125 78.375h30v60.125h-30z"/><path d="m271.125 229h30v60.125h-30z"/></g><path d="m210.875 78.375h30v45.125h-30z" fill="#5ee1dd"/><path d="m210.875 244.125h30v30h-30z" fill="#5ee1dd"/><path d="m210.875 304.375h30v60.125h-30z" fill="#5ee1dd"/><path d="m210.875 153.75h30v60.125h-30z" fill="#5ee1dd"/><path d="m512 69.16v42.42l-60.25 60.26v263.08h-30v-263.08l-28.67-28.67-33.19-132.77 10.4-10.4h17.92l31.96 127.83 16.58 16.58z" fill="#714b55"/><path d="m512 431.76v50.24l-15 15h-482l-15-15v-50.24l15-11.97c12.15 5.59 16.89 16.97 36.2 16.97 25.6 0 25.6-20 51.2-20s25.6 20 51.2 20 25.6-20 51.2-20c25.59 0 25.59 20 51.19 20h.02c25.58-.02 25.58-20 51.18-20s25.6 20 51.2 20 25.6-20 51.2-20 25.6 20 51.2 20c19.21 0 24.01-11.25 36.01-16.88z" fill="#00c8c9"/><path d="m512 431.76v50.24l-15 15h-240.99v-60.24c25.58-.02 25.58-20 51.18-20s25.6 20 51.2 20 25.6-20 51.2-20 25.6 20 51.2 20c19.21 0 24.01-11.25 36.01-16.88z" fill="#00a0ab"/><path d="m0 482h512v30h-512z" fill="#5ee1dd"/><path d="m256 482h256v30h-256z" fill="#5ee1dd"/><path d="m256.01 482h255.99v30h-255.99z" fill="#00c8c9"/><path d="m512 401.75v30c-7.64 0-10.74 2.43-16.37 6.83-7.12 5.56-16.87 13.17-34.84 13.17-17.96 0-27.71-7.61-34.83-13.17-8.51-8.52-23.29-9.33-32.74 0-22.32 20.17-54.35 14.45-69.66 0-8.51-8.52-23.29-9.33-32.73 0-10.4 9.39-22.88 13.17-34.82 13.06h-.01c-13.7-.11-26.65-5.34-34.84-13.07-8.51-8.51-23.29-9.32-32.73.01-22.32 20.17-54.35 14.45-69.67 0-8.5-8.52-23.28-9.33-32.73 0-22.32 20.17-54.35 14.45-69.66 0-5.63-4.4-8.74-6.83-16.37-6.83v-30c17.96 0 27.71 7.62 34.83 13.18 8.51 8.52 23.29 9.33 32.73 0 22.33-20.17 54.36-14.45 69.67 0 8.51 8.52 23.29 9.33 32.73 0 22.32-20.17 54.36-14.45 69.67 0 4.34 4.35 10.3 6.69 16.37 6.7h.01c5.82.01 11.72-2.13 16.35-6.7 22.32-20.17 54.35-14.45 69.66 0 8.51 8.52 23.29 9.33 32.73 0 22.33-20.17 54.36-14.45 69.68 0 8.5 8.52 23.29 9.33 32.73 0 7.12-5.56 16.87-13.18 34.84-13.18z" fill="#5ee1dd"/><path d="m512 401.75v30c-7.64 0-10.74 2.43-16.37 6.83-7.12 5.56-16.87 13.17-34.84 13.17-17.96 0-27.71-7.61-34.83-13.17-8.51-8.52-23.29-9.33-32.74 0-22.32 20.17-54.35 14.45-69.66 0-8.51-8.52-23.29-9.33-32.73 0-10.4 9.39-22.88 13.17-34.82 13.06v-30.01c5.82.01 11.72-2.13 16.35-6.7 22.32-20.17 54.35-14.45 69.66 0 8.51 8.52 23.29 9.33 32.73 0 22.33-20.17 54.36-14.45 69.68 0 8.5 8.52 23.29 9.33 32.73 0 7.12-5.56 16.87-13.18 34.84-13.18z" fill="#00c8c9"/></g></svg>