<svg id="Capa_1" enable-background="new 0 0 512 512" height="512" viewBox="0 0 512 512" width="512" xmlns="http://www.w3.org/2000/svg"><g><path d="m72.759 123.65c-23.856-9.302-40.759-32.502-40.759-59.65v-18.062c0-25.371 20.567-45.938 45.938-45.938 11.608 0 22.787 4.395 31.287 12.301l55.584 51.699z" fill="#714b55"/><path d="m439.241 123.65c23.856-9.302 40.759-32.502 40.759-59.65v-18.062c0-25.371-20.567-45.938-45.938-45.938-11.608 0-22.787 4.395-31.287 12.301l-55.584 51.699z" fill="#5c344b"/><path d="m448 164.81v67.78l-192 114.88-192-114.88v-67.78c0-55.68 45.13-100.81 100.81-100.81h182.38c55.68 0 100.81 45.13 100.81 100.81z" fill="#9b7870"/><path d="m448 164.81v67.78l-192 114.88v-283.47h91.19c55.68 0 100.81 45.13 100.81 100.81z" fill="#714b55"/><path d="m512 320v129.07c0 34.76-28.17 62.93-62.93 62.93h-386.14c-34.76 0-62.93-28.17-62.93-62.93v-129.07z" fill="#fcbe2c"/><path d="m512 320v129.07c0 34.76-28.17 62.93-62.93 62.93h-193.07v-192z" fill="#ff7901"/><path d="m64 366.87h64v81.13h-64z" fill="#f1eeff"/><path d="m384 366.87h64v81.13h-64z" fill="#c7c4d2"/><path d="m512 320c0 17.68-7.16 33.68-18.74 45.26s-27.58 18.74-45.26 18.74h-64c-21.19 0-42.25-3.42-62.36-10.12-21.04-7.42-43.35-11.13-65.64-11.14-22.36-.02-44.69 3.7-65.64 11.14-10.06 3.35-20.35 5.88-30.78 7.57-10.42 1.69-20.98 2.55-31.58 2.55h-64c-35.35 0-64-28.65-64-64v-.01c0-17.67 14.32-31.99 31.99-31.99h.01c0-17.68 7.16-33.68 18.74-45.26s27.58-18.74 45.26-18.74 33.68 7.16 45.26 18.74 18.74 27.58 18.74 45.26c31.17-10.32 63.58-15.47 96-15.47s64.83 5.15 96 15.47c0-17.68 7.16-33.68 18.74-45.26s27.58-18.74 45.26-18.74c35.35 0 64 28.65 64 64 8.84 0 16.84 3.58 22.63 9.37s9.37 13.79 9.37 22.63z" fill="#fedd55"/><path d="m512 320c0 17.68-7.16 33.68-18.74 45.26s-27.58 18.74-45.26 18.74h-64c-21.19 0-42.25-3.42-62.36-10.12-21.04-7.42-43.35-11.13-65.64-11.14v-90.21c32.42 0 64.83 5.15 96 15.47 0-17.68 7.16-33.68 18.74-45.26s27.58-18.74 45.26-18.74c35.35 0 64 28.65 64 64 8.84 0 16.84 3.58 22.63 9.37s9.37 13.79 9.37 22.63z" fill="#fcbe2c"/><path d="m80.696 272.837h30.281v30h-30.281z" fill="#9b7870"/><path d="m150.484 150.625h30.281v30h-30.281z" fill="#714b55"/><path d="m326.707 150.625h30.281v30h-30.281z" fill="#5c344b"/><path d="m400.859 272.837h30.281v30h-30.281z" fill="#714b55"/></g></svg>