<svg id="Capa_1" enable-background="new 0 0 512 512" height="512" viewBox="0 0 512 512" width="512" xmlns="http://www.w3.org/2000/svg"><g><path d="m481.15 271.85c0 8.88-3.6 16.92-9.42 22.74s-13.86 9.42-22.74 9.42l-192.99 14h-.04l-192.95-14c-17.76 0-32.16-14.4-32.16-32.16 0-8.88 3.6-16.92 9.42-22.75 5.82-5.82 13.86-9.42 22.74-9.42l192.95-14h.04l192.99 14c17.76 0 32.16 14.41 32.16 32.17z" fill="#714b55"/><path d="m481.15 271.85c0 8.88-3.6 16.92-9.42 22.74s-13.86 9.42-22.74 9.42l-192.99 14v-92.33l192.99 14c17.76 0 32.16 14.41 32.16 32.17z" fill="#5c344b"/><path d="m481.15 400.51c0 8.88-3.6 16.92-9.42 22.74s-13.86 9.42-22.74 9.42l-192.99 14h-.04l-192.95-14c-17.76 0-32.16-14.4-32.16-32.16 0-8.89 3.6-16.93 9.42-22.75s13.86-9.42 22.74-9.42l192.95-14h.04l192.99 14c17.76 0 32.16 14.4 32.16 32.17z" fill="#714b55"/><path d="m481.15 400.51c0 8.88-3.6 16.92-9.42 22.74s-13.86 9.42-22.74 9.42l-192.99 14v-92.33l192.99 14c17.76 0 32.16 14.4 32.16 32.17z" fill="#5c344b"/><path d="m481.15 336.18c0 8.88-3.6 16.92-9.42 22.74s-13.86 9.42-22.74 9.42h-257.05l-48.52-14-48.24 14h-32.17c-17.76 0-32.16-14.4-32.16-32.16 0-8.88 3.6-16.93 9.42-22.75s13.86-9.42 22.74-9.42h385.98c17.76 0 32.16 14.4 32.16 32.17z" fill="#9b7870"/><path d="m481.15 336.18c0 8.88-3.6 16.92-9.42 22.74s-13.86 9.42-22.74 9.42h-192.99v-64.33h192.99c17.76 0 32.16 14.4 32.16 32.17z" fill="#714b55"/><path d="m481.15 464.84v32.16h-450.3v-32.16c0-17.77 14.4-32.17 32.16-32.17h385.98c17.76 0 32.16 14.4 32.16 32.17z" fill="#9b7870"/><path d="m481.15 464.84v32.16h-225.15v-64.33h192.99c17.76 0 32.16 14.4 32.16 32.17z" fill="#714b55"/><path d="m95.176 225.685h96.494v142.659h-96.494z" fill="#fcbe2c"/><path d="m384.659 225.685h-128.659v112.659l9.999 15-9.999 15v128.659h128.659z" fill="#ff7901"/><g><g><g><path d="m256 338.344h41.776v30h-41.776z" fill="#714b55"/></g></g></g><path d="m0 482h512v30h-512z" fill="#61da4c"/><path d="m256 482h256v30h-256z" fill="#01b763"/><path d="m481.15 178.75v28.77c0 17.76-14.4 32.16-32.16 32.16h-383.94c-18.89 0-34.2-15.31-34.2-34.2v-26.74l225.15-136.52z" fill="#9b7870"/><path d="m481.15 178.75v28.77c0 17.76-14.4 32.16-32.16 32.16h-192.99v-197.46z" fill="#714b55"/><path d="m512 152.82c0 31.73-34.58 51.36-61.82 35.1l-194.18-115.92-194.18 115.92c-6.72 4.01-13.89 5.84-20.87 5.84-21.33 0-40.95-17.04-40.95-40.94l256-152.82z" fill="#714b55"/><path d="m512 152.82c0 31.73-34.58 51.36-61.82 35.1l-194.18-115.92v-72z" fill="#5c344b"/><path d="m288.16 174.63c0 17.77-14.4 32.17-32.16 32.17s-32.16-14.4-32.16-32.17c0-17.76 14.4-32.16 32.16-32.16s32.16 14.4 32.16 32.16z" fill="#714b55"/><path d="m288.16 174.63c0 17.77-14.4 32.17-32.16 32.17v-64.33c17.76 0 32.16 14.4 32.16 32.16z" fill="#5c344b"/></g></svg>