<svg id="Capa_1" enable-background="new 0 0 512 512" height="512" viewBox="0 0 512 512" width="512" xmlns="http://www.w3.org/2000/svg"><g><path d="m195.75 360.185h-44.319l-41.764-46.229 22.261-20.111 32.831 36.34h30.992c8.34 0 15.125-6.785 15.125-15.125v-39.848h30v39.848c-.001 24.882-20.244 45.125-45.126 45.125z" fill="#9b7870"/><path d="m192 108.185h128v64h-128z" fill="#fedd55"/><path d="m256 108.185h64v64h-64z" fill="#fcbe2c"/><path d="m512 162.81-30 20.312v-44.812h30z" fill="#5c344b"/><path d="m320 211.355v79.45h-64l-96 .01-160 128v-160h96l32-32 128-10.31z" fill="#714b55"/><path d="m320 211.355v79.45h-64v-74.3z" fill="#5c344b"/><path d="m512 162.815v63.99h-384c-.005 0 .003-63.99.003-63.99z" fill="#fcbe2c"/><path d="m256 162.815h256v63.99h-256z" fill="#ff7901"/><path d="m172.03 93.185h167.94v30h-167.94z" fill="#714b55"/><path d="m256 93.185h83.97v30h-83.97z" fill="#5c344b"/></g></svg>