<svg id="Capa_1" enable-background="new 0 0 512 512" height="512" viewBox="0 0 512 512" width="512" xmlns="http://www.w3.org/2000/svg"><g><path d="m416.55 119.12c-41.37 24.12-45.38 86.93-.24 113.62l-160.31 101.06-160.3-101.06c41.67-24.03 44.58-86.99-.24-113.62-19.83-11.74-32.78-33.87-31.35-58.89 1.89-32.891 27.97-58.65 60.87-60.16 36.72-1.69 67.03 27.58 67.03 63.93l.01-.01c20.14-10.07 42.06-15.11 63.98-15.11 21.93 0 43.85 5.04 63.99 15.11l.02.01c0-36.35 30.3-65.62 67.02-63.93 32.9 1.51 58.98 27.27 60.87 60.16 1.43 25.02-11.52 47.15-31.35 58.89z" fill="#61da4c"/><path d="m416.55 119.12c-41.37 24.12-45.38 86.93-.24 113.62l-160.31 101.06v-284.92c21.93 0 43.85 5.04 63.99 15.11l.02.01c0-36.35 30.3-65.62 67.02-63.93 32.9 1.51 58.98 27.27 60.87 60.16 1.43 25.02-11.52 47.15-31.35 58.89z" fill="#01b763"/><path d="m447.99 421.32h-191.99l-191.99-.01c-84.78 0-85.24-133.32 0-133.32 0-35.34 28.64-63.98 64-63.98 35.35 0 64 28.64 64 63.98 20.15-10.07 42.07-15.11 63.99-15.11 21.93 0 43.85 5.04 63.99 15.11 0-35.33 28.64-63.98 63.96-63.98h.04c35.36 0 64 28.64 64 64 85.24 0 84.78 133.31 0 133.31z" fill="#b6f94d"/><path d="m447.99 421.32h-191.99v-148.44c21.93 0 43.85 5.04 63.99 15.11 0-35.33 28.64-63.98 63.96-63.98h.04c35.36 0 64 28.64 64 64 85.24 0 84.78 133.31 0 133.31z" fill="#61da4c"/><path d="m464.01 448c0 35.35-28.66 64-64 64h-288c-17.67 0-33.67-7.16-45.26-18.74-11.58-11.58-18.74-27.58-18.74-45.26 0-35.35 28.65-64 64-64l59.66 13.66 59.75-13.66h49.17l59.75 13.66 59.67-13.66c17.67 0 33.67 7.16 45.25 18.74s18.75 27.58 18.75 45.26z" fill="#fedd55"/><path d="m464.01 448c0 35.35-28.66 64-64 64h-144.01v-128h24.59l59.75 13.66 59.67-13.66c17.67 0 33.67 7.16 45.25 18.74s18.75 27.58 18.75 45.26z" fill="#fcbe2c"/><path d="m308.92 129.24-9.79 28.36c-13.65-4.71-28.16-7.1-43.13-7.1-14.96 0-29.47 2.39-43.12 7.1l-9.79-28.36c16.81-5.8 34.61-8.74 52.91-8.74 18.31 0 36.11 2.94 52.92 8.74z" fill="#b6f94d"/><path d="m308.92 189.49-9.79 28.36c-13.65-4.71-28.16-7.1-43.13-7.1-14.96 0-29.47 2.39-43.12 7.1l-9.79-28.36c16.81-5.8 34.61-8.74 52.91-8.74 18.31 0 36.11 2.94 52.92 8.74z" fill="#b6f94d"/><path d="m256 180.75c18.31 0 36.11 2.94 52.92 8.74l-9.79 28.36c-13.65-4.71-28.16-7.1-43.13-7.1z" fill="#61da4c"/><path d="m299.13 157.6c-13.65-4.71-28.16-7.1-43.13-7.1v-30c18.31 0 36.11 2.94 52.92 8.74z" fill="#61da4c"/><path d="m112.555 48.695h30.281v30h-30.281z" fill="#714b55"/><path d="m369.164 48.695h30.281v30h-30.281z" fill="#5c344b"/><path d="m112.555 273h30.281v30h-30.281z" fill="#61da4c"/><path d="m369.164 273h30.281v30h-30.281z" fill="#01b763"/><path d="m231.424 384-59.751 74.622-59.751-74.622z" fill="#f1eeff"/><path d="m400.088 384-59.751 74.622-59.751-74.622z" fill="#c7c4d2"/></g></svg>