<svg id="Capa_1" enable-background="new 0 0 512 512" height="512" viewBox="0 0 512 512" width="512" xmlns="http://www.w3.org/2000/svg"><g><g><path d="m156.693 292.164h-60.693c-53.019 0-96-42.981-96-96v-32l64-16.04v48.04c0 17.673 14.327 32 32 32h60.693z" fill="#fcbe2c"/></g><path d="m0 164.164h64c17.673 0 32-14.327 32-32v-46.918l-96 14.918z" fill="#ff7901"/><path d="m128 100.164h-128v-3.75c0-33.275 26.975-60.25 60.25-60.25h37.625c16.638 0 30.125 13.487 30.125 30.125z" fill="#fcbe2c"/><g><path d="m355.307 292.164h60.693c53.019 0 96-42.981 96-96v-32l-64-16.04v48.04c0 17.673-14.327 32-32 32h-60.693z" fill="#ff7901"/></g><path d="m512 164.164h-64c-17.673 0-32-14.327-32-32v-46.918l96 14.918z" fill="#fb2f00"/><path d="m384 100.164h128v-3.75c0-33.275-26.975-60.25-60.25-60.25h-37.625c-16.638 0-30.125 13.487-30.125 30.125z" fill="#ff7901"/><path d="m210.052 187.026-6.948-40.525h-17.479v-30h42.771l11.224 65.454z" fill="#fcbe2c"/><path d="m301.948 187.026-29.568-5.071 11.224-65.454h42.771v30h-17.479z" fill="#ff7901"/><path d="m63.7 399.582-26.832-13.416 9.441-18.883c15.315-30.631 46.104-49.659 80.35-49.659v30c-22.81 0-43.316 12.674-53.518 33.075z" fill="#fcbe2c"/><path d="m151.742 475.836-26.834-13.416 9.441-18.884c15.317-30.631 46.105-49.658 80.351-49.658v30c-22.81 0-43.316 12.674-53.518 33.075z" fill="#fcbe2c"/><path d="m99.614 443.409-26.832-13.418 9.442-18.883c15.314-30.63 46.103-49.658 80.349-49.658v30c-22.81 0-43.315 12.674-53.516 33.075z" fill="#fcbe2c"/><g fill="#ff7901"><path d="m446.847 399.582 26.832-13.416-9.441-18.883c-15.315-30.631-46.104-49.659-80.35-49.659v30c22.81 0 43.316 12.674 53.518 33.075z"/><path d="m358.805 475.836 26.834-13.416-9.441-18.884c-15.317-30.631-46.105-49.658-80.351-49.658v30c22.81 0 43.316 12.674 53.518 33.075z"/><path d="m410.933 443.409 26.832-13.418-9.442-18.883c-15.314-30.63-46.103-49.658-80.349-49.658v30c22.81 0 43.315 12.674 53.516 33.075z"/><path d="m409.95 249.746v38.49c0 115.46-153.95 153.94-153.95 153.94s-153.95-38.48-153.95-153.94v-38.49c0-21.25 8.62-40.5 22.55-54.43 13.93-13.92 33.18-22.54 54.43-22.54h153.94c42.51 0 76.98 34.46 76.98 76.97z"/></g><path d="m409.95 249.746v38.49c0 115.46-153.95 153.94-153.95 153.94v-269.4h76.97c42.51 0 76.98 34.46 76.98 76.97z" fill="#fb2f00"/></g></svg>