<svg id="Capa_1" enable-background="new 0 0 512 512" height="512" viewBox="0 0 512 512" width="512" xmlns="http://www.w3.org/2000/svg"><g><path d="m124.783 448h57.478c25.222 0 45.668-20.446 45.668-45.668v-18.332h-51.46c-25.222 0-45.668 20.446-45.668 45.668z" fill="#61da4c"/><path d="m106.864 384h-57.524c-25.222 0-45.668-20.446-45.668-45.668v-18.332h51.46c25.222 0 45.668 20.446 45.668 45.668z" fill="#b6f94d"/><path d="m100.8 241h30v256h-30z" fill="#61da4c"/><path d="m115.8 241h15v256h-15z" fill="#01b763"/><path d="m402.682 448h59.976c25.222 0 45.668-20.446 45.668-45.668v-18.332h-51.46c-25.222 0-45.668 20.446-45.668 45.668z" fill="#61da4c"/><path d="m381.2 305h30v192h-30z" fill="#61da4c"/><path d="m396.2 305h15v192h-15z" fill="#01b763"/><path d="m0 482h512v30h-512z" fill="#714b55"/><path d="m256 482h256v30h-256z" fill="#5c344b"/><path d="m231.6 200.57s-41.52 23.08-70.47 6.36c-1.66-.95-3.25-1.95-4.78-2.97.11 1.84.2 3.71.2 5.62 0 33.43-40.75 57.85-40.75 57.85s-40.75-24.42-40.75-57.85c0-1.91.09-3.78.2-5.62-1.53 1.02-3.12 2.02-4.78 2.97-28.95 16.72-70.47-6.36-70.47-6.36s.78-47.5 29.73-64.21c1.65-.95 3.3-1.83 4.95-2.65-1.65-.81-3.3-1.69-4.95-2.64-28.95-16.71-29.73-64.21-29.73-64.21s41.52-23.08 70.47-6.37c1.66.96 3.25 1.96 4.78 2.98-.11-1.84-.2-3.71-.2-5.62 0-33.43 40.75-57.85 40.75-57.85s40.75 24.42 40.75 57.85c0 1.91-.09 3.78-.2 5.62 1.53-1.02 3.12-2.02 4.78-2.98 28.95-16.71 70.47 6.37 70.47 6.37s-.78 47.5-29.73 64.21c-1.65.95-3.3 1.83-4.95 2.64 1.65.82 3.3 1.7 4.95 2.65 28.95 16.71 29.73 64.21 29.73 64.21z" fill="#ff7901"/><path d="m231.6 200.57s-41.52 23.08-70.47 6.36c-1.66-.95-3.25-1.95-4.78-2.97.11 1.84.2 3.71.2 5.62 0 33.43-40.75 57.85-40.75 57.85v-267.43s40.75 24.42 40.75 57.85c0 1.91-.09 3.78-.2 5.62 1.53-1.02 3.12-2.02 4.78-2.98 28.95-16.71 70.47 6.37 70.47 6.37s-.78 47.5-29.73 64.21c-1.65.95-3.3 1.83-4.95 2.64 1.65.82 3.3 1.7 4.95 2.65 28.95 16.71 29.73 64.21 29.73 64.21z" fill="#fb2f00"/><path d="m167.74 133.71c0 28.69-23.26 51.94-51.94 51.94s-51.94-23.25-51.94-51.94c0-28.68 23.26-51.93 51.94-51.93s51.94 23.25 51.94 51.93z" fill="#fedd55"/><path d="m167.74 133.71c0 28.69-23.26 51.94-51.94 51.94v-103.87c28.68 0 51.94 23.25 51.94 51.93z" fill="#fcbe2c"/><path d="m512 258.855s-41.52 23.08-70.47 6.36c-1.66-.95-3.25-1.95-4.78-2.97.11 1.84.2 3.71.2 5.62 0 33.43-40.75 57.85-40.75 57.85s-40.75-24.42-40.75-57.85c0-1.91.09-3.78.2-5.62-1.53 1.02-3.12 2.02-4.78 2.97-28.95 16.72-70.47-6.36-70.47-6.36s.78-47.5 29.73-64.21c1.65-.95 3.3-1.83 4.95-2.65-1.65-.81-3.3-1.69-4.95-2.64-28.95-16.71-29.73-64.21-29.73-64.21s41.52-23.08 70.47-6.37c1.66.96 3.25 1.96 4.78 2.98-.11-1.84-.2-3.71-.2-5.62 0-33.43 40.75-57.85 40.75-57.85s40.75 24.42 40.75 57.85c0 1.91-.09 3.78-.2 5.62 1.53-1.02 3.12-2.02 4.78-2.98 28.95-16.71 70.47 6.37 70.47 6.37s-.78 47.5-29.73 64.21c-1.65.95-3.3 1.83-4.95 2.64 1.65.82 3.3 1.7 4.95 2.65 28.95 16.71 29.73 64.21 29.73 64.21z" fill="#ff7901"/><path d="m512 258.855s-41.52 23.08-70.47 6.36c-1.66-.95-3.25-1.95-4.78-2.97.11 1.84.2 3.71.2 5.62 0 33.43-40.75 57.85-40.75 57.85v-267.43s40.75 24.42 40.75 57.85c0 1.91-.09 3.78-.2 5.62 1.53-1.02 3.12-2.02 4.78-2.98 28.95-16.71 70.47 6.37 70.47 6.37s-.78 47.5-29.73 64.21c-1.65.95-3.3 1.83-4.95 2.64 1.65.82 3.3 1.7 4.95 2.65 28.95 16.71 29.73 64.21 29.73 64.21z" fill="#fb2f00"/><path d="m448.14 191.995c0 28.69-23.26 51.94-51.94 51.94s-51.94-23.25-51.94-51.94c0-28.68 23.26-51.93 51.94-51.93s51.94 23.25 51.94 51.93z" fill="#fedd55"/><path d="m448.14 191.995c0 28.69-23.26 51.94-51.94 51.94v-103.87c28.68 0 51.94 23.25 51.94 51.93z" fill="#fcbe2c"/></g></svg>