<svg id="Capa_1" enable-background="new 0 0 512.006 512.006" height="512" viewBox="0 0 512.006 512.006" width="512" xmlns="http://www.w3.org/2000/svg"><g><path d="m266.842 194.853s-91.184-77.025-91.603-77.411c-19.645-18.114-51.382-11.554-63.206 12.41l-22.016 44.617 125.959 52.612z" fill="#5ee1dd"/><path d="m259.771 201.924-158.714-158.715 30.55-30.55c19.646-19.646 52.461-15.909 67.186 7.652l86.136 137.817z" fill="#00c8c9"/><path d="m317.155 245.165s77.025 91.184 77.411 91.603c18.114 19.645 11.554 51.382-12.41 63.206l-44.617 22.016-52.612-125.959z" fill="#00c8c9"/><path d="m310.084 252.237 158.715 158.715 30.55-30.55c19.646-19.646 15.909-52.461-7.652-67.186l-137.817-86.136z" fill="#00a0ab"/><path d="m295.853 174.3-3.195-103.973 46.905-46.904 21.213 21.213-37.733 37.733 2.796 91.009z" fill="#714b55"/><path d="m343.712 215.378 1.235-29.974 84.758 3.495 37.667-37.667 21.213 21.213-46.97 46.97z" fill="#5c344b"/><path d="m-36.885 371.743h324.29v30h-324.29z" fill="#714b55" transform="matrix(.707 -.707 .707 .707 -236.781 201.847)"/><path d="m-31.581 384.546h324.29v15h-324.29z" fill="#5c344b" transform="matrix(.707 -.707 .707 .707 -238.977 207.15)"/><path d="m353.879 227.082-68.95 68.95c-19.042 19.042-49.915 19.042-68.957 0-19.035-19.035-19.035-49.908.007-68.95l68.95-68.95c19.043-19.043 49.915-19.042 68.95-.007 9.518 9.518 14.284 22.005 14.284 34.479-.001 12.472-4.767 24.96-14.284 34.478z" fill="#fedd55"/><path d="m353.879 227.082-68.95 68.95c-19.042 19.042-49.915 19.042-68.957 0l137.907-137.907c9.518 9.518 14.284 22.005 14.284 34.479-.001 12.472-4.767 24.96-14.284 34.478z" fill="#fcbe2c"/><path d="m396.114 161.865c-12.693 12.693-33.276 12.685-45.969-.007-12.693-12.693-12.693-33.269 0-45.962s33.276-12.7 45.969-.007 12.693 33.284 0 45.976z" fill="#fcbe2c"/><path d="m396.114 161.865c-12.693 12.693-33.276 12.685-45.969-.007l45.969-45.969c12.693 12.693 12.693 33.284 0 45.976z" fill="#ff7901"/></g></svg>