<svg id="Capa_1" enable-background="new 0 0 512.435 512.435" height="512" viewBox="0 0 512.435 512.435" width="512" xmlns="http://www.w3.org/2000/svg"><g><path d="m241.297 95.805h30v401.63h-30z" fill="#9b7870"/><path d="m96.957 0h30v497.434h-30z" fill="#9b7870"/><path d="m111.957 0h15v497.434h-15z" fill="#714b55"/><path d="m143.767 65.21v63.61c0 17.57-14.24 31.81-31.81 31.81s-31.81-14.24-31.81-31.81v-63.61c0-17.57 14.24-31.81 31.81-31.81 8.78 0 16.74 3.56 22.49 9.32 5.76 5.75 9.32 13.71 9.32 22.49z" fill="#fedd55"/><path d="m143.767 65.21v63.61c0 17.57-14.24 31.81-31.81 31.81v-127.23c8.78 0 16.74 3.56 22.49 9.32 5.76 5.75 9.32 13.71 9.32 22.49z" fill="#fcbe2c"/><path d="m256.297 95.805h15v401.63h-15z" fill="#714b55"/><path d="m288.107 161.015v63.61c0 17.57-14.24 31.81-31.81 31.81s-31.81-14.24-31.81-31.81v-63.61c0-17.57 14.24-31.81 31.81-31.81 8.78 0 16.74 3.56 22.49 9.32 5.76 5.749 9.32 13.71 9.32 22.49z" fill="#fedd55"/><path d="m288.107 161.015v63.61c0 17.57-14.24 31.81-31.81 31.81v-127.23c8.78 0 16.74 3.56 22.49 9.32 5.76 5.749 9.32 13.71 9.32 22.49z" fill="#fcbe2c"/><path d="m199.425 306.595c-48.307 0-87.468 39.161-87.468 87.468v-63.613c0-48.308-39.161-87.468-87.468-87.468h-7.952l31.807 254.453h63.613 63.613z" fill="#b6f94d"/><path d="m111.957 394.063v103.372h63.613l23.855-190.84c-48.307 0-87.468 39.16-87.468 87.468z" fill="#61da4c"/><path d="m393.429 40.193h30v457.241h-30z" fill="#9b7870"/><path d="m408.429 40.193h15v457.241h-15z" fill="#714b55"/><path d="m440.239 105.403v63.61c0 17.57-14.24 31.81-31.81 31.81s-31.81-14.24-31.81-31.81v-63.61c0-17.57 14.24-31.81 31.81-31.81 8.78 0 16.74 3.56 22.49 9.32 5.76 5.75 9.32 13.71 9.32 22.49z" fill="#fedd55"/><path d="m440.239 105.403v63.61c0 17.57-14.24 31.81-31.81 31.81v-127.23c8.78 0 16.74 3.56 22.49 9.32 5.76 5.75 9.32 13.71 9.32 22.49z" fill="#fcbe2c"/><path d="m495.898 306.595c-48.307 0-87.468 39.161-87.468 87.468v56.712l-.161-1.05c0-43.916-35.601-79.517-79.516-79.517l15.903 127.227h63.774 7.142 56.471z" fill="#b6f94d"/><path d="m408.429 394.063v103.372h63.613l23.855-190.84c-48.307 0-87.468 39.16-87.468 87.468z" fill="#61da4c"/><path d="m.217 482.434h512v30h-512z" fill="#714b55"/><path d="m256.297 482.434h255.92v30h-255.92z" fill="#5c344b"/></g></svg>