<svg id="Capa_1" enable-background="new 0 0 512.002 512.002" height="512" viewBox="0 0 512.002 512.002" width="512" xmlns="http://www.w3.org/2000/svg"><g><path d="m115.69 454.663c-12.777 12.777-29.522 19.17-46.273 19.163-16.744 0-33.496-6.385-46.273-19.163l-23.144-23.144 155.097-155.097c10.472-10.472 16.362-24.678 16.355-39.492.007-7.403 1.471-14.665 4.257-21.383 2.779-6.71 6.873-12.883 12.106-18.116l159.254-159.254 69.417 69.417-268.071 268.071c-20.952 20.951-32.725 49.37-32.725 78.998z" fill="#714b55"/><path d="m115.69 454.663c-12.777 12.777-29.522 19.17-46.273 19.163-16.744 0-33.496-6.385-46.273-19.163l-11.575-11.575 370.205-370.207 34.712 34.712-268.071 268.072c-20.952 20.951-32.725 49.37-32.725 78.998z" fill="#5c344b"/><path d="m350.032 396.206c9.744-29.232 7.566-60.514-5.035-87.511 15.648-12.381 19.785-36.133 5.678-50.664-12.721-13.428-33.927-13.647-46.917-.658l-18.526-18.526c-19.127-.106-36.437-7.899-48.981-20.443-12.53-12.53-20.308-29.797-20.435-48.889v-.085l-23.137-23.137 23.137-23.137c-5.685-14.51-1.372-28.921 7.99-38.283s23.773-13.675 38.283-7.99l23.144-23.144 147.771 147.771c20.952 20.952 49.37 32.725 78.998 32.725-21.511 78.858-83.114 140.461-161.97 161.971z" fill="#f1eeff"/><path d="m350.032 396.206c9.744-29.232 7.566-60.514-5.035-87.511 15.648-12.381 19.785-36.133 5.678-50.664-12.721-13.428-33.927-13.647-46.917-.658l-18.526-18.526c-19.127-.106-36.437-7.899-48.981-20.443l106.823-106.822 89.93 89.93c20.952 20.952 49.37 32.725 78.998 32.725-21.511 78.856-83.114 140.459-161.97 161.969z" fill="#c7c4d2"/><path d="m279.51 145.146h30v30h-30z" fill="#714b55" transform="matrix(.707 -.707 .707 .707 -26.98 255.155)"/><path d="m284.813 157.949h30v15h-30z" fill="#5c344b" transform="matrix(.707 -.707 .707 .707 -29.177 260.459)"/></g></svg>