<svg id="Capa_1" enable-background="new 0 0 512 512" height="512" viewBox="0 0 512 512" width="512" xmlns="http://www.w3.org/2000/svg"><g><path d="m286.496 149.269-19.775-22.56c15.589-13.664 24.529-33.613 24.529-54.731h30c0 29.758-12.667 57.93-34.754 77.291z" fill="#5c344b"/><g fill="#714b55"><path d="m225.504 149.269c-22.087-19.36-34.754-47.532-34.754-77.291h30c0 21.118 8.94 41.067 24.529 54.731z"/><path d="m168.219 189.432-47.719-47.719v-141.713h30v129.287l38.932 38.932z"/><path d="m160.441 255.908-97.956-48.977-62.485-124.973 26.832-13.416 58.015 116.027 89.01 44.507z"/><path d="m58.541 512-26.832-13.416 63.028-126.058 100.986-33.662 9.486 28.461-89.196 29.733z"/><path d="m24.305 385.293-24.305-17.586 64.741-89.477h131.003v30h-115.681z"/></g><path d="m351.559 255.908-13.416-26.832 89.01-44.507 58.015-116.027 26.832 13.416-62.485 124.973z" fill="#5c344b"/><path d="m487.695 385.293-55.758-77.063h-115.681v-30h131.003l64.741 89.477z" fill="#5c344b"/><path d="m343.781 189.432-21.213-21.213 38.932-38.932v-129.287h30v141.713z" fill="#5c344b"/><path d="m453.459 512-57.472-114.942-89.196-29.733 9.486-28.461 100.986 33.662 63.028 126.058z" fill="#5c344b"/><path d="m364.69 219.31c0-60.03-48.66-108.69-108.69-108.69s-108.69 48.66-108.69 108.69c0 43.926 26.065 81.764 63.574 98.899-16.657 13.276-27.344 33.724-27.344 56.681 0 40.02 32.44 72.46 72.46 72.46s72.46-32.44 72.46-72.46c0-22.957-10.687-43.405-27.344-56.681 37.509-17.135 63.574-54.973 63.574-98.899z" fill="#9b7870"/><path d="m364.69 219.31c0-60.03-48.66-108.69-108.69-108.69v336.73c40.02 0 72.46-32.44 72.46-72.46 0-22.957-10.687-43.405-27.344-56.681 37.509-17.135 63.574-54.973 63.574-98.899z" fill="#714b55"/></g></svg>